<?xml version="1.0" standalone="no"?>
<!DOCTYPE svg PUBLIC "-//W3C//DTD SVG 1.1//EN" "http://www.w3.org/Graphics/SVG/1.1/DTD/svg11.dtd" >
<svg xmlns="http://www.w3.org/2000/svg" width="100%" height="100%">
<metadata>
Created by FontXChange 20100429 at Thu May  1 18:35:14 2014
 By Anders Poulsen
Copyright (c) 2013 by Jan Tonellato. All rights reserved.
</metadata>
<defs>
<font id="Novecentosans-Book" horiz-adv-x="623" >
  <font-face 
    font-family="Novecento sans Book"
    font-weight="350"
    font-stretch="normal"
    units-per-em="1000"
    panose-1="0 0 4 0 0 0 0 0 0 0"
    ascent="821"
    descent="-179"
    x-height="560"
    cap-height="700"
    bbox="-70 -212 1056 920"
    underline-thickness="50"
    underline-position="-87"
    stemh="52"
    stemv="55"
    unicode-range="U+0020-F8FF"
  />
<missing-glyph horiz-adv-x="612" 
d="M75 85v530c0 53 36 85 85 85h292c49 0 85 -32 85 -85v-530c0 -55 -36 -85 -85 -85h-292c-49 0 -85 30 -85 85zM172 22h268c49 0 74 20 74 76v504c0 56 -27 76 -84 76h-248c-63 0 -84 -20 -84 -76v-504c0 -56 27 -76 74 -76zM339 355l119 -126l-36 -33l-116 123l-116 -123
l-35 33l118 126l-118 127l35 32l116 -123l116 122l35 -32z" />
    <glyph glyph-name=".notdef" horiz-adv-x="612" 
d="M75 85v530c0 53 36 85 85 85h292c49 0 85 -32 85 -85v-530c0 -55 -36 -85 -85 -85h-292c-49 0 -85 30 -85 85zM172 22h268c49 0 74 20 74 76v504c0 56 -27 76 -84 76h-248c-63 0 -84 -20 -84 -76v-504c0 -56 27 -76 74 -76zM339 355l119 -126l-36 -33l-116 123l-116 -123
l-35 33l118 126l-118 127l35 32l116 -123l116 122l35 -32z" />
    <glyph glyph-name="A" unicode="A" horiz-adv-x="638" 
d="M481 202h-324l-75 -202h-59l264 700h64l264 -700h-59zM462 253l-76 203c-24 66 -65 182 -66 183h-2c-1 -1 -42 -116 -67 -182l-75 -204h286z" />
    <glyph glyph-name="Aacute" unicode="&#xc1;" horiz-adv-x="638" 
d="M331 754h-54l93 153l49 -14zM481 202h-324l-75 -202h-59l264 700h64l264 -700h-59zM462 253l-76 203c-24 66 -65 182 -66 183h-2c-1 -1 -42 -116 -67 -182l-75 -204h286z" />
    <glyph glyph-name="Abreve" unicode="&#x102;" horiz-adv-x="638" 
d="M319 744c-79 0 -130 53 -133 121h44c3 -42 31 -79 89 -79c60 0 88 40 89 79h45c-2 -66 -53 -121 -134 -121zM481 202h-324l-75 -202h-59l264 700h64l264 -700h-59zM462 253l-76 203c-24 66 -65 182 -66 183h-2c-1 -1 -42 -116 -67 -182l-75 -204h286z" />
    <glyph glyph-name="Acircumflex" unicode="&#xc2;" horiz-adv-x="638" 
d="M223 760l-29 32l124 113l124 -113l-29 -32l-95 87zM481 202h-324l-75 -202h-59l264 700h64l264 -700h-59zM462 253l-76 203c-24 66 -65 182 -66 183h-2c-1 -1 -42 -116 -67 -182l-75 -204h286z" />
    <glyph glyph-name="Adieresis" unicode="&#xc4;" horiz-adv-x="638" 
d="M236 779c-20 0 -36 17 -36 39c0 21 16 38 36 38c21 0 36 -17 36 -38c0 -22 -15 -39 -36 -39zM402 779c-21 0 -37 17 -37 39c0 21 16 38 37 38s36 -17 36 -38c0 -22 -15 -39 -36 -39zM481 202h-324l-75 -202h-59l264 700h64l264 -700h-59zM462 253l-76 203
c-24 66 -65 182 -66 183h-2c-1 -1 -42 -116 -67 -182l-75 -204h286z" />
    <glyph glyph-name="Agrave" unicode="&#xc0;" horiz-adv-x="638" 
d="M302 754l-87 139l48 14l93 -153h-54zM481 202h-324l-75 -202h-59l264 700h64l264 -700h-59zM462 253l-76 203c-24 66 -65 182 -66 183h-2c-1 -1 -42 -116 -67 -182l-75 -204h286z" />
    <glyph glyph-name="Amacron" unicode="&#x100;" horiz-adv-x="638" 
d="M449 781h-260v49h260v-49zM481 202h-324l-75 -202h-59l264 700h64l264 -700h-59zM462 253l-76 203c-24 66 -65 182 -66 183h-2c-1 -1 -42 -116 -67 -182l-75 -204h286z" />
    <glyph glyph-name="Aogonek" unicode="&#x104;" horiz-adv-x="638" 
d="M536 -125c26 0 57 5 80 18v-47c-20 -11 -52 -17 -85 -17c-64 0 -114 35 -114 98c0 46 24 102 124 114l-60 161h-324l-75 -202h-59l264 700h64l264 -700h-29c-91 0 -120 -33 -120 -71c0 -36 29 -54 70 -54zM462 253l-76 203c-24 66 -65 182 -66 183h-2
c-1 -1 -42 -116 -67 -182l-75 -204h286z" />
    <glyph glyph-name="Aring" unicode="&#xc5;" horiz-adv-x="638" 
d="M319 741c-53 0 -88 36 -88 86s35 85 88 85s87 -35 87 -85s-34 -86 -87 -86zM319 876c-29 0 -48 -19 -48 -49s19 -50 48 -50s48 20 48 50s-19 49 -48 49zM481 202h-324l-75 -202h-59l264 700h64l264 -700h-59zM462 253l-76 203c-24 66 -65 182 -66 183h-2
c-1 -1 -42 -116 -67 -182l-75 -204h286z" />
    <glyph glyph-name="Atilde" unicode="&#xc3;" horiz-adv-x="638" 
d="M257 816c-34 0 -52 -16 -61 -25l-14 41c9 10 27 31 70 31c52 0 76 -34 128 -34c32 0 48 13 59 24l14 -41c-7 -9 -28 -30 -70 -30c-52 0 -78 34 -126 34zM481 202h-324l-75 -202h-59l264 700h64l264 -700h-59zM462 253l-76 203c-24 66 -65 182 -66 183h-2
c-1 -1 -42 -116 -67 -182l-75 -204h286z" />
    <glyph glyph-name="AE" unicode="&#xc6;" horiz-adv-x="868" 
d="M822 52v-52h-412v207h-251l-77 -207h-59l265 700h532v-52h-355v-254h283v-51h-283v-291h357zM410 256v392h-87l-146 -392h233z" />
    <glyph glyph-name="B" unicode="B" horiz-adv-x="563" 
d="M369 376v-3c57 -7 157 -53 157 -182c0 -120 -80 -191 -221 -191h-230v700h206c126 0 200 -69 200 -170c0 -100 -63 -143 -112 -154zM131 393h151c82 0 144 43 144 131c0 80 -57 126 -154 126h-141v-257zM131 50h173c101 0 165 49 165 142c0 99 -77 154 -169 154h-169
v-296z" />
    <glyph glyph-name="C" unicode="C" horiz-adv-x="680" 
d="M584 206l53 -14c-45 -129 -149 -204 -286 -204c-183 0 -313 135 -313 364c0 232 130 361 314 361c151 0 243 -88 277 -186l-53 -16c-19 59 -83 148 -224 148c-156 0 -257 -110 -257 -307c0 -202 107 -310 255 -310c108 0 193 59 234 164z" />
    <glyph glyph-name="Cacute" unicode="&#x106;" horiz-adv-x="680" 
d="M363 754h-53l92 153l49 -14zM584 206l53 -14c-45 -129 -149 -204 -286 -204c-183 0 -313 135 -313 364c0 232 130 361 314 361c151 0 243 -88 277 -186l-53 -16c-19 59 -83 148 -224 148c-156 0 -257 -110 -257 -307c0 -202 107 -310 255 -310c108 0 193 59 234 164z" />
    <glyph glyph-name="Cacute.loclPLK" horiz-adv-x="680" 
d="M369 754h-50l52 166l47 -11zM584 206l53 -14c-45 -129 -149 -204 -286 -204c-183 0 -313 135 -313 364c0 232 130 361 314 361c151 0 243 -88 277 -186l-53 -16c-19 59 -83 148 -224 148c-156 0 -257 -110 -257 -307c0 -202 107 -310 255 -310c108 0 193 59 234 164z" />
    <glyph glyph-name="Ccaron" unicode="&#x10c;" horiz-adv-x="680" 
d="M227 872l29 31l96 -87l95 87l29 -31l-124 -113zM584 206l53 -14c-45 -129 -149 -204 -286 -204c-183 0 -313 135 -313 364c0 232 130 361 314 361c151 0 243 -88 277 -186l-53 -16c-19 59 -83 148 -224 148c-156 0 -257 -110 -257 -307c0 -202 107 -310 255 -310
c108 0 193 59 234 164z" />
    <glyph glyph-name="Ccedilla" unicode="&#xc7;" horiz-adv-x="680" 
d="M584 206l53 -14c-44 -125 -142 -199 -273 -203v-2c56 -5 97 -27 97 -79c0 -49 -37 -79 -103 -79c-33 0 -59 7 -73 16v42c14 -9 37 -15 66 -15c40 0 64 12 64 42c0 34 -33 46 -97 47v29c-166 15 -280 147 -280 362c0 232 130 361 314 361c151 0 243 -88 277 -186l-53 -16
c-19 59 -83 148 -224 148c-156 0 -257 -110 -257 -307c0 -202 107 -310 255 -310c108 0 193 59 234 164z" />
    <glyph glyph-name="Ccircumflex" unicode="&#x108;" horiz-adv-x="680" 
d="M474 792l-29 -32l-95 87l-95 -87l-29 32l124 113zM584 206l53 -14c-45 -129 -149 -204 -286 -204c-183 0 -313 135 -313 364c0 232 130 361 314 361c151 0 243 -88 277 -186l-53 -16c-19 59 -83 148 -224 148c-156 0 -257 -110 -257 -307c0 -202 107 -310 255 -310
c108 0 193 59 234 164z" />
    <glyph glyph-name="Cdotaccent" unicode="&#x10a;" horiz-adv-x="680" 
d="M351 779c-21 0 -37 17 -37 39s16 38 37 38s36 -16 36 -38s-15 -39 -36 -39zM584 206l53 -14c-45 -129 -149 -204 -286 -204c-183 0 -313 135 -313 364c0 232 130 361 314 361c151 0 243 -88 277 -186l-53 -16c-19 59 -83 148 -224 148c-156 0 -257 -110 -257 -307
c0 -202 107 -310 255 -310c108 0 193 59 234 164z" />
    <glyph glyph-name="D" unicode="D" horiz-adv-x="645" 
d="M75 700h200c206 0 332 -134 332 -354s-127 -346 -324 -346h-208v700zM131 53h149c160 0 270 100 270 291c0 201 -110 303 -277 303h-142v-594z" />
    <glyph glyph-name="Eth" unicode="&#xd0;" horiz-adv-x="645" 
d="M76 700h200c205 0 331 -134 331 -354s-126 -346 -323 -346h-208v342h-64v52h64v306zM132 53h149c160 0 270 100 270 291c0 201 -111 303 -278 303h-141v-253h162v-52h-162v-289z" />
    <glyph glyph-name="Dcaron" unicode="&#x10e;" horiz-adv-x="645" 
d="M187 872l29 31l96 -87l95 87l29 -31l-124 -113zM75 700h200c206 0 332 -134 332 -354s-127 -346 -324 -346h-208v700zM131 53h149c160 0 270 100 270 291c0 201 -110 303 -277 303h-142v-594z" />
    <glyph glyph-name="Dcroat" unicode="&#x110;" horiz-adv-x="645" 
d="M76 700h200c205 0 331 -134 331 -354s-126 -346 -323 -346h-208v342h-64v52h64v306zM132 53h149c160 0 270 100 270 291c0 201 -111 303 -278 303h-141v-253h162v-52h-162v-289z" />
    <glyph glyph-name="E" unicode="E" horiz-adv-x="535" 
d="M75 0v700h412v-53h-356v-252h283v-53h-283v-289h358v-53h-414z" />
    <glyph glyph-name="Eacute" unicode="&#xc9;" horiz-adv-x="535" 
d="M296 754h-54l93 153l48 -14zM75 0v700h412v-53h-356v-252h283v-53h-283v-289h358v-53h-414z" />
    <glyph glyph-name="Ecaron" unicode="&#x11a;" horiz-adv-x="535" 
d="M160 872l29 31l96 -87l95 87l29 -31l-124 -113zM75 0v700h412v-53h-356v-252h283v-53h-283v-289h358v-53h-414z" />
    <glyph glyph-name="Ecircumflex" unicode="&#xca;" horiz-adv-x="535" 
d="M407 792l-29 -32l-95 87l-95 -87l-29 32l124 113zM75 0v700h412v-53h-356v-252h283v-53h-283v-289h358v-53h-414z" />
    <glyph glyph-name="Edieresis" unicode="&#xcb;" horiz-adv-x="535" 
d="M201 779c-20 0 -36 17 -36 39c0 21 16 38 36 38c21 0 36 -17 36 -38c0 -22 -15 -39 -36 -39zM367 779c-21 0 -37 17 -37 39c0 21 16 38 37 38s36 -17 36 -38c0 -22 -15 -39 -36 -39zM75 0v700h412v-53h-356v-252h283v-53h-283v-289h358v-53h-414z" />
    <glyph glyph-name="Edotaccent" unicode="&#x116;" horiz-adv-x="535" 
d="M283 779c-20 0 -36 17 -36 39s16 38 36 38c21 0 37 -16 37 -38s-16 -39 -37 -39zM75 0v700h412v-53h-356v-252h283v-53h-283v-289h358v-53h-414z" />
    <glyph glyph-name="Egrave" unicode="&#xc8;" horiz-adv-x="535" 
d="M228 907l93 -153h-54l-87 139zM75 0v700h412v-53h-356v-252h283v-53h-283v-289h358v-53h-414z" />
    <glyph glyph-name="Emacron" unicode="&#x112;" horiz-adv-x="535" 
d="M414 781h-260v49h260v-49zM75 0v700h412v-53h-356v-252h283v-53h-283v-289h358v-53h-414z" />
    <glyph glyph-name="Eogonek" unicode="&#x118;" horiz-adv-x="535" 
d="M432 -125c24 0 50 5 68 17v-47c-17 -10 -47 -16 -72 -16c-66 0 -107 40 -107 96c0 28 11 55 36 75h-282v700h412v-53h-356v-252h283v-53h-283v-289h358v-53h-29c-58 -5 -90 -30 -90 -70c0 -34 21 -55 62 -55z" />
    <glyph glyph-name="F" unicode="F" horiz-adv-x="519" 
d="M486 647h-355v-264h282v-53h-282v-330h-56v700h411v-53z" />
    <glyph glyph-name="G" unicode="G" horiz-adv-x="698" 
d="M640 0h-52c0 82 1 98 1 106h-1c-30 -42 -105 -117 -239 -117c-179 0 -311 133 -311 362c0 233 131 362 315 362c151 0 244 -87 277 -186l-53 -16c-17 57 -80 148 -224 148c-156 0 -258 -111 -258 -306c0 -202 107 -311 259 -311c126 0 209 78 233 135v126h-192v53h245
v-356z" />
    <glyph glyph-name="Gbreve" unicode="&#x11e;" horiz-adv-x="698" 
d="M219 865h44c3 -42 31 -79 89 -79c60 0 87 40 89 79h45c-3 -66 -53 -121 -134 -121c-79 0 -130 53 -133 121zM640 0h-52c0 82 1 98 1 106h-1c-30 -42 -105 -117 -239 -117c-179 0 -311 133 -311 362c0 233 131 362 315 362c151 0 244 -87 277 -186l-53 -16
c-17 57 -80 148 -224 148c-156 0 -258 -111 -258 -306c0 -202 107 -311 259 -311c126 0 209 78 233 135v126h-192v53h245v-356z" />
    <glyph glyph-name="Gcircumflex" unicode="&#x11c;" horiz-adv-x="698" 
d="M475 792l-29 -32l-95 87l-95 -87l-29 32l124 113zM640 0h-52c0 82 1 98 1 106h-1c-30 -42 -105 -117 -239 -117c-179 0 -311 133 -311 362c0 233 131 362 315 362c151 0 244 -87 277 -186l-53 -16c-17 57 -80 148 -224 148c-156 0 -258 -111 -258 -306
c0 -202 107 -311 259 -311c126 0 209 78 233 135v126h-192v53h245v-356z" />
    <glyph glyph-name="Gcommaaccent" unicode="&#x122;" horiz-adv-x="698" 
d="M640 0h-52c0 82 1 98 1 106h-1c-30 -42 -105 -117 -239 -117c-179 0 -311 133 -311 362c0 233 131 362 315 362c151 0 244 -87 277 -186l-53 -16c-17 57 -80 148 -224 148c-156 0 -258 -111 -258 -306c0 -202 107 -311 259 -311c126 0 209 78 233 135v126h-192v53h245
v-356zM360 -97c-22 -5 -41 8 -41 30s14 36 40 36s42 -16 42 -48c0 -40 -25 -83 -71 -101l-20 23c26 10 47 38 50 60z" />
    <glyph glyph-name="Gdotaccent" unicode="&#x120;" horiz-adv-x="698" 
d="M351 779c-20 0 -36 17 -36 39s16 38 36 38c21 0 37 -16 37 -38s-16 -39 -37 -39zM640 0h-52c0 82 1 98 1 106h-1c-30 -42 -105 -117 -239 -117c-179 0 -311 133 -311 362c0 233 131 362 315 362c151 0 244 -87 277 -186l-53 -16c-17 57 -80 148 -224 148
c-156 0 -258 -111 -258 -306c0 -202 107 -311 259 -311c126 0 209 78 233 135v126h-192v53h245v-356z" />
    <glyph glyph-name="H" unicode="H" horiz-adv-x="628" 
d="M496 0v341h-365v-341h-56v700h56v-305h365v305h56v-700h-56z" />
    <glyph glyph-name="Hbar" unicode="&#x126;" horiz-adv-x="651" 
d="M633 515h-69v-515h-56v333h-365v-333h-56v515h-68v49h68v136h56v-136h365v136h56v-136h69v-49zM508 515h-365v-128h365v128z" />
    <glyph glyph-name="Hcircumflex" unicode="&#x124;" horiz-adv-x="628" 
d="M438 792l-29 -32l-95 87l-95 -87l-29 32l124 113zM496 0v341h-365v-341h-56v700h56v-305h365v305h56v-700h-56z" />
    <glyph glyph-name="I" unicode="I" horiz-adv-x="207" 
d="M75 0v700h56v-700h-56z" />
    <glyph glyph-name="I.ss03" horiz-adv-x="419" 
d="M237 52h120v-52h-295v52h119v596h-119v52h295v-52h-120v-596z" />
    <glyph glyph-name="IJ" unicode="&#x132;" horiz-adv-x="661" 
d="M75 0v700h56v-700h-56zM592 700v-454c0 -166 -71 -258 -208 -258c-70 0 -121 27 -159 79l34 42c31 -45 71 -67 125 -67c107 0 152 73 152 204v454h56z" />
    <glyph glyph-name="IJ.ss03" horiz-adv-x="861" 
d="M237 52h120v-52h-295v52h119v596h-119v52h295v-52h-120v-596zM793 700v-454c0 -166 -72 -258 -209 -258c-70 0 -121 27 -159 79l34 42c31 -45 71 -67 125 -67c107 0 152 73 152 204v454h57z" />
    <glyph glyph-name="IJ.ss03.ss04" horiz-adv-x="861" 
d="M62 700h295v-52h-120v-596h120v-52h-295v52h119v596h-119v52zM793 700v-454c0 -166 -72 -258 -209 -258c-70 0 -121 27 -159 79l34 42c30 -44 71 -67 125 -67c107 0 152 73 152 204v401h-261v53h318z" />
    <glyph glyph-name="IJ.ss04" horiz-adv-x="649" 
d="M75 700h56v-700h-56v700zM580 700v-454c0 -166 -71 -258 -208 -258c-70 0 -121 27 -159 79l34 42c30 -44 71 -67 125 -67c107 0 152 73 152 204v401h-262v53h318z" />
    <glyph glyph-name="Iacute" unicode="&#xcd;" horiz-adv-x="207" 
d="M115 754h-53l93 153l48 -14zM75 0v700h56v-700h-56z" />
    <glyph glyph-name="Iacute.ss03" horiz-adv-x="419" 
d="M222 754h-54l93 153l49 -14zM237 52h120v-52h-295v52h119v596h-119v52h295v-52h-120v-596z" />
    <glyph glyph-name="Iacute_J.loclNLD" horiz-adv-x="661" 
d="M115 754h-53l93 153l48 -14zM578 754h-54l93 153l48 -14zM75 0v700h56v-700h-56zM592 700v-454c0 -166 -71 -258 -208 -258c-70 0 -121 27 -159 79l34 42c31 -45 71 -67 125 -67c107 0 152 73 152 204v454h56z" />
    <glyph glyph-name="Icircumflex" unicode="&#xce;" horiz-adv-x="207" 
d="M206 793l-30 -30l-72 81l-72 -81l-30 31l102 111zM75 0v700h56v-700h-56z" />
    <glyph glyph-name="Icircumflex.ss03" horiz-adv-x="419" 
d="M333 792l-29 -32l-95 87l-95 -87l-29 32l124 113zM237 52h120v-52h-295v52h119v596h-119v52h295v-52h-120v-596z" />
    <glyph glyph-name="Idieresis" unicode="&#xcf;" horiz-adv-x="207" 
d="M53 779c-21 0 -36 17 -36 39c0 21 16 38 36 38c21 0 36 -17 36 -38c0 -22 -16 -39 -36 -39zM155 779c-21 0 -36 17 -36 39c0 21 15 38 36 38c20 0 35 -17 35 -38c0 -22 -14 -39 -35 -39zM75 0v700h56v-700h-56z" />
    <glyph glyph-name="Idieresis.ss03" horiz-adv-x="419" 
d="M127 779c-20 0 -36 17 -36 39c0 21 16 38 36 38c21 0 36 -17 36 -38c0 -22 -15 -39 -36 -39zM293 779c-21 0 -37 17 -37 39c0 21 16 38 37 38s36 -17 36 -38c0 -22 -15 -39 -36 -39zM237 52h120v-52h-295v52h119v596h-119v52h295v-52h-120v-596z" />
    <glyph glyph-name="Idotaccent" unicode="&#x130;" horiz-adv-x="207" 
d="M103 779c-21 0 -36 17 -36 39s15 38 36 38s37 -16 37 -38s-16 -39 -37 -39zM75 0v700h56v-700h-56z" />
    <glyph glyph-name="Idotaccent.ss03" horiz-adv-x="419" 
d="M210 779c-21 0 -37 17 -37 39s16 38 37 38c20 0 36 -16 36 -38s-16 -39 -36 -39zM237 52h120v-52h-295v52h119v596h-119v52h295v-52h-120v-596z" />
    <glyph glyph-name="Igrave" unicode="&#xcc;" horiz-adv-x="207" 
d="M48 907l92 -153h-53l-88 139zM75 0v700h56v-700h-56z" />
    <glyph glyph-name="Igrave.ss03" horiz-adv-x="419" 
d="M154 907l93 -153h-54l-87 139zM237 52h120v-52h-295v52h119v596h-119v52h295v-52h-120v-596z" />
    <glyph glyph-name="Imacron" unicode="&#x12a;" horiz-adv-x="207" 
d="M199 781h-190v49h190v-49zM75 0v700h56v-700h-56z" />
    <glyph glyph-name="Imacron.ss03" horiz-adv-x="446" 
d="M370 783h-295v47h295v-47zM251 52h119v-52h-295v52h120v596h-120v52h295v-52h-119v-596z" />
    <glyph glyph-name="Iogonek" unicode="&#x12e;" horiz-adv-x="207" 
d="M107 -126c20 0 44 6 60 18v-47c-15 -10 -42 -16 -65 -16c-59 0 -96 40 -96 96c0 45 21 86 69 105v670h56v-700c-51 -4 -78 -28 -78 -70c0 -34 17 -56 54 -56z" />
    <glyph glyph-name="Iogonek.ss03" horiz-adv-x="419" 
d="M290 -125c24 0 50 5 68 17v-47c-17 -10 -46 -16 -72 -16c-66 0 -106 40 -106 96c0 28 11 55 35 75h-153v52h119v596h-119v52h295v-52h-120v-596h120v-52h-39c-58 -5 -90 -30 -90 -70c0 -34 21 -55 62 -55z" />
    <glyph glyph-name="J" unicode="J" horiz-adv-x="442" 
d="M374 700v-454c0 -166 -71 -258 -209 -258c-69 0 -121 27 -159 79l34 42c31 -45 71 -67 125 -67c107 0 152 73 152 204v454h57z" />
    <glyph glyph-name="J.ss04" horiz-adv-x="442" 
d="M374 700v-454c0 -166 -71 -258 -209 -258c-70 0 -120 27 -159 79l34 42c30 -44 71 -67 125 -67c107 0 152 73 152 204v401h-261v53h318z" />
    <glyph glyph-name="Jcircumflex" unicode="&#x134;" horiz-adv-x="442" 
d="M470 792l-29 -32l-95 87l-95 -87l-29 32l124 113zM374 700v-454c0 -166 -71 -258 -209 -258c-69 0 -121 27 -159 79l34 42c31 -45 71 -67 125 -67c107 0 152 73 152 204v454h57z" />
    <glyph glyph-name="Jcircumflex.ss04" horiz-adv-x="442" 
d="M120 760l-29 32l124 113l124 -113l-29 -32l-95 87zM374 700v-454c0 -166 -71 -258 -209 -258c-70 0 -120 27 -159 79l34 42c30 -44 71 -67 125 -67c107 0 152 73 152 204v401h-261v53h318z" />
    <glyph glyph-name="K" unicode="K" horiz-adv-x="577" 
d="M493 0l-237 378l-125 -146v-232h-56v700h56v-233v-160h1c4 5 72 85 114 134l224 259h66l-239 -279l261 -422z" />
    <glyph glyph-name="Kcommaaccent" unicode="&#x136;" horiz-adv-x="577" 
d="M558 -1l-65 1l-237 378l-125 -146v-232h-56v700h56v-233v-160h1c4 5 72 85 114 134l224 259h66l-239 -279zM295 -31c26 0 42 -16 42 -48c0 -40 -25 -83 -71 -101l-20 23c26 10 47 38 50 60c-22 -5 -41 8 -41 30s14 36 40 36z" />
    <glyph glyph-name="L" unicode="L" horiz-adv-x="505" 
d="M75 0v700h56v-647h341v-53h-397z" />
    <glyph glyph-name="Lacute" unicode="&#x139;" horiz-adv-x="505" 
d="M113 754h-53l92 153l49 -14zM75 0v700h56v-647h341v-53h-397z" />
    <glyph glyph-name="Lcaron" unicode="&#x13d;" horiz-adv-x="505" 
d="M75 0v700h56v-647h341v-53h-397zM327 700h48c0 -70 -23 -158 -39 -196h-44c15 39 35 127 35 196z" />
    <glyph glyph-name="Lcommaaccent" unicode="&#x13b;" horiz-adv-x="505" 
d="M75 0v700h56v-647h341v-53h-397zM265 -97c-22 -5 -42 8 -42 30s15 36 41 36s42 -16 42 -48c0 -40 -25 -83 -71 -101l-20 23c26 10 47 38 50 60z" />
    <glyph glyph-name="Ldot" unicode="&#x13f;" horiz-adv-x="505" 
d="M75 0v700h56v-647h341v-53h-397zM342 334c-28 0 -43 18 -43 43c0 24 16 42 43 42s43 -18 43 -42c0 -26 -16 -43 -43 -43z" />
    <glyph glyph-name="Lslash" unicode="&#x141;" horiz-adv-x="505" 
d="M472 53v-53h-397v700h56v-350l251 128v-57l-251 -127v-241h341z" />
    <glyph glyph-name="M" unicode="M" horiz-adv-x="726" 
d="M595 0v338c0 128 2 275 2 276h-1c-1 -1 -23 -55 -85 -182l-128 -257h-40l-126 254c-65 130 -86 184 -87 185h-2c0 -1 3 -148 3 -276v-338h-56v700h65l223 -451h2l223 451h63v-700h-56z" />
    <glyph glyph-name="N" unicode="N" horiz-adv-x="649" 
d="M514 0l-384 610h-2c0 -1 3 -81 3 -166v-444h-56v700h60l384 -608h2c0 1 -2 82 -2 165v443h55v-700h-60z" />
    <glyph glyph-name="N.ss02" horiz-adv-x="649" 
d="M574 0h-56v292l-386 337h-1c-1 0 0 -82 0 -177v-452h-56v700h61l380 -332h2v140v192h56v-700z" />
    <glyph glyph-name="Nacute" unicode="&#x143;" horiz-adv-x="649" 
d="M342 754h-54l93 153l48 -14zM514 0l-384 610h-2c0 -1 3 -81 3 -166v-444h-56v700h60l384 -608h2c0 1 -2 82 -2 165v443h55v-700h-60z" />
    <glyph glyph-name="Nacute.loclPLK" horiz-adv-x="649" 
d="M347 754h-49l51 166l48 -11zM514 0l-384 610h-2c0 -1 3 -81 3 -166v-444h-56v700h60l384 -608h2c0 1 -2 82 -2 165v443h55v-700h-60z" />
    <glyph glyph-name="Nacute.loclPLK.ss02" horiz-adv-x="649" 
d="M346 754h-49l51 166l48 -11zM574 0h-56v292l-386 337h-1c-1 0 0 -82 0 -177v-452h-56v700h61l380 -332h2v140v192h56v-700z" />
    <glyph glyph-name="Nacute.ss02" horiz-adv-x="649" 
d="M341 754h-54l93 153l48 -14zM574 0h-56v292l-386 337h-1c-1 0 0 -82 0 -177v-452h-56v700h61l380 -332h2v140v192h56v-700z" />
    <glyph glyph-name="Ncaron" unicode="&#x147;" horiz-adv-x="649" 
d="M206 872l29 31l96 -87l95 87l29 -31l-124 -113zM514 0l-384 610h-2c0 -1 3 -81 3 -166v-444h-56v700h60l384 -608h2c0 1 -2 82 -2 165v443h55v-700h-60z" />
    <glyph glyph-name="Ncaron.ss02" horiz-adv-x="649" 
d="M205 872l29 31l96 -87l95 87l29 -31l-124 -113zM574 0h-56v292l-386 337h-1c-1 0 0 -82 0 -177v-452h-56v700h61l380 -332h2v140v192h56v-700z" />
    <glyph glyph-name="Ncommaaccent" unicode="&#x145;" horiz-adv-x="649" 
d="M514 0l-384 610h-2c0 -1 3 -81 3 -166v-444h-56v700h60l384 -608h2c0 1 -2 82 -2 165v443h55v-700h-60zM319 -97c-23 -5 -42 8 -42 30s14 36 40 36c27 0 42 -16 42 -48c0 -40 -25 -83 -71 -101l-19 23c25 10 47 38 50 60z" />
    <glyph glyph-name="Ncommaaccent.ss02" horiz-adv-x="649" 
d="M574 0h-56v292l-386 337h-1c-1 0 0 -82 0 -177v-452h-56v700h61l380 -332h2v140v192h56v-700zM318 -97c-22 -5 -42 8 -42 30s15 36 41 36s42 -16 42 -48c0 -40 -25 -83 -71 -101l-20 23c26 10 47 38 50 60z" />
    <glyph glyph-name="Eng" unicode="&#x14a;" horiz-adv-x="649" 
d="M574 700v-700c0 -117 -47 -161 -134 -161h-22v46h18c58 0 85 37 78 115l-384 610h-2c0 -1 3 -81 3 -166v-444h-56v700h60l384 -608h2c0 1 -2 82 -2 165v443h55z" />
    <glyph glyph-name="Eng.ss02" horiz-adv-x="649" 
d="M574 700v-700c0 -117 -49 -161 -140 -161h-16v46h17c59 0 85 32 85 115v299l-183 155c-115 99 -204 179 -205 179h-1c-1 -2 0 -96 0 -181v-452h-56v700h61l244 -213c69 -58 135 -113 136 -114h2v136v191h56z" />
    <glyph glyph-name="Ntilde" unicode="&#xd1;" horiz-adv-x="649" 
d="M450 853l14 -41c-7 -9 -28 -30 -70 -30c-52 0 -78 34 -127 34c-33 0 -51 -16 -60 -25l-14 41c8 10 27 31 70 31c51 0 76 -34 127 -34c33 0 49 13 60 24zM514 0l-384 610h-2c0 -1 3 -81 3 -166v-444h-56v700h60l384 -608h2c0 1 -2 82 -2 165v443h55v-700h-60z" />
    <glyph glyph-name="Ntilde.ss02" horiz-adv-x="649" 
d="M449 853l14 -41c-7 -9 -28 -30 -70 -30c-52 0 -78 34 -127 34c-33 0 -51 -16 -60 -25l-14 41c9 10 27 31 70 31c52 0 76 -34 128 -34c32 0 48 13 59 24zM574 0h-56v292l-386 337h-1c-1 0 0 -82 0 -177v-452h-56v700h61l380 -332h2v140v192h56v-700z" />
    <glyph glyph-name="O" unicode="O" horiz-adv-x="708" 
d="M38 351c0 229 132 362 316 362s316 -133 316 -362s-132 -363 -316 -363s-316 133 -316 363zM95 351c0 -201 108 -309 259 -309s260 107 260 308c0 202 -109 309 -260 309s-259 -108 -259 -308z" />
    <glyph glyph-name="Oacute" unicode="&#xd3;" horiz-adv-x="708" 
d="M367 754h-54l93 153l48 -14zM38 351c0 229 132 362 316 362s316 -133 316 -362s-132 -363 -316 -363s-316 133 -316 363zM95 351c0 -201 108 -309 259 -309s260 107 260 308c0 202 -109 309 -260 309s-259 -108 -259 -308z" />
    <glyph glyph-name="Oacute.loclPLK" horiz-adv-x="708" 
d="M372 754h-49l51 166l48 -11zM38 351c0 229 132 362 316 362s316 -133 316 -362s-132 -363 -316 -363s-316 133 -316 363zM95 351c0 -201 108 -309 259 -309s260 107 260 308c0 202 -109 309 -260 309s-259 -108 -259 -308z" />
    <glyph glyph-name="Ocircumflex" unicode="&#xd4;" horiz-adv-x="708" 
d="M478 792l-29 -32l-95 87l-95 -87l-29 32l124 113zM38 351c0 229 132 362 316 362s316 -133 316 -362s-132 -363 -316 -363s-316 133 -316 363zM95 351c0 -201 108 -309 259 -309s260 107 260 308c0 202 -109 309 -260 309s-259 -108 -259 -308z" />
    <glyph glyph-name="Odieresis" unicode="&#xd6;" horiz-adv-x="708" 
d="M272 779c-21 0 -36 17 -36 39c0 21 16 38 36 38c21 0 36 -17 36 -38c0 -22 -16 -39 -36 -39zM438 779c-21 0 -37 17 -37 39c0 21 16 38 37 38c20 0 36 -17 36 -38c0 -22 -16 -39 -36 -39zM38 351c0 229 132 362 316 362s316 -133 316 -362s-132 -363 -316 -363
s-316 133 -316 363zM95 351c0 -201 108 -309 259 -309s260 107 260 308c0 202 -109 309 -260 309s-259 -108 -259 -308z" />
    <glyph glyph-name="Ograve" unicode="&#xd2;" horiz-adv-x="708" 
d="M299 907l93 -153h-54l-88 139zM38 351c0 229 132 362 316 362s316 -133 316 -362s-132 -363 -316 -363s-316 133 -316 363zM95 351c0 -201 108 -309 259 -309s260 107 260 308c0 202 -109 309 -260 309s-259 -108 -259 -308z" />
    <glyph glyph-name="Ohungarumlaut" unicode="&#x150;" horiz-adv-x="708" 
d="M292 754h-54l93 153l48 -14zM443 754h-53l92 153l49 -14zM38 351c0 229 132 362 316 362s316 -133 316 -362s-132 -363 -316 -363s-316 133 -316 363zM95 351c0 -201 108 -309 259 -309s260 107 260 308c0 202 -109 309 -260 309s-259 -108 -259 -308z" />
    <glyph glyph-name="Omacron" unicode="&#x14c;" horiz-adv-x="708" 
d="M485 781h-260v49h260v-49zM38 351c0 229 132 362 316 362s316 -133 316 -362s-132 -363 -316 -363s-316 133 -316 363zM95 351c0 -201 108 -309 259 -309s260 107 260 308c0 202 -109 309 -260 309s-259 -108 -259 -308z" />
    <glyph glyph-name="Oslash" unicode="&#xd8;" horiz-adv-x="708" 
d="M636 724l-65 -96c62 -62 99 -156 99 -277c0 -229 -132 -363 -316 -363c-66 0 -126 18 -175 51l-62 -94l-43 29l65 97c-63 62 -101 157 -101 280c0 229 132 362 316 362c68 0 129 -18 178 -53l61 92zM95 351c0 -103 28 -181 75 -233l332 497c-41 29 -92 44 -148 44
c-151 0 -259 -108 -259 -308zM354 42c151 0 260 107 260 308c0 101 -28 179 -74 231l-331 -497c41 -28 90 -42 145 -42z" />
    <glyph glyph-name="Otilde" unicode="&#xd5;" horiz-adv-x="708" 
d="M475 853l14 -41c-7 -9 -28 -30 -70 -30c-52 0 -78 34 -127 34c-33 0 -51 -16 -60 -25l-14 41c9 10 27 31 70 31c51 0 76 -34 128 -34c32 0 48 13 59 24zM38 351c0 229 132 362 316 362s316 -133 316 -362s-132 -363 -316 -363s-316 133 -316 363zM95 351
c0 -201 108 -309 259 -309s260 107 260 308c0 202 -109 309 -260 309s-259 -108 -259 -308z" />
    <glyph glyph-name="OE" unicode="&#x152;" horiz-adv-x="881" 
d="M832 0h-410c-19 -3 -40 -4 -62 -4c-192 0 -322 127 -322 354c0 230 131 354 323 354c17 0 39 -1 60 -4h410v-53h-356v-252h284v-53h-284v-289h357v-53zM95 351c0 -202 104 -303 266 -303c24 0 43 3 60 8v589c-17 5 -36 7 -60 7c-163 0 -266 -103 -266 -301z" />
    <glyph glyph-name="P" unicode="P" horiz-adv-x="515" 
d="M75 700h175c151 0 239 -70 239 -210c0 -136 -89 -208 -240 -208h-118v-282h-56v700zM131 333h119c120 0 183 53 183 157c0 111 -70 157 -183 157h-119v-314z" />
    <glyph glyph-name="Thorn" unicode="&#xde;" horiz-adv-x="499" 
d="M131 555h109c148 0 233 -69 233 -200s-85 -198 -233 -198h-109v-157h-56v700h56v-145zM131 208h110c115 0 176 48 176 147s-60 147 -176 147h-110v-294z" />
    <glyph glyph-name="Q" unicode="Q" horiz-adv-x="708" 
d="M670 351c0 -218 -119 -348 -288 -361v-123h-57v123c-169 13 -287 144 -287 361c0 229 132 362 316 362s316 -133 316 -362zM354 42c151 0 260 107 260 308c0 202 -109 309 -260 309s-259 -108 -259 -308c0 -201 108 -309 259 -309z" />
    <glyph glyph-name="Q.ss01" horiz-adv-x="736" 
d="M689 0h-336c-182 0 -315 137 -315 357c0 224 135 356 316 356s315 -136 315 -356c0 -157 -70 -266 -172 -308l1 -2c2 0 42 6 111 6h80v-53zM95 357c0 -192 108 -303 259 -303s259 114 259 303c0 193 -109 303 -259 303c-153 0 -259 -113 -259 -303z" />
    <glyph glyph-name="R" unicode="R" horiz-adv-x="538" 
d="M431 0l-153 292c-14 -1 -48 -1 -62 -1h-85v-291h-56v700h178c150 0 238 -79 238 -209c0 -113 -62 -172 -156 -190l163 -301h-67zM131 339h130c101 0 173 37 173 150c0 107 -70 159 -182 159h-121v-309z" />
    <glyph glyph-name="Racute" unicode="&#x154;" horiz-adv-x="538" 
d="M265 754h-54l93 153l48 -14zM431 0l-153 292c-14 -1 -48 -1 -62 -1h-85v-291h-56v700h178c150 0 238 -79 238 -209c0 -113 -62 -172 -156 -190l163 -301h-67zM131 339h130c101 0 173 37 173 150c0 107 -70 159 -182 159h-121v-309z" />
    <glyph glyph-name="Rcaron" unicode="&#x158;" horiz-adv-x="538" 
d="M129 872l29 31l96 -87l95 87l29 -31l-124 -113zM431 0l-153 292c-14 -1 -48 -1 -62 -1h-85v-291h-56v700h178c150 0 238 -79 238 -209c0 -113 -62 -172 -156 -190l163 -301h-67zM131 339h130c101 0 173 37 173 150c0 107 -70 159 -182 159h-121v-309z" />
    <glyph glyph-name="Rcommaaccent" unicode="&#x156;" horiz-adv-x="538" 
d="M431 0l-153 292c-14 -1 -48 -1 -62 -1h-85v-291h-56v700h178c150 0 238 -79 238 -209c0 -113 -62 -172 -156 -190l163 -301h-67zM131 339h130c101 0 173 37 173 150c0 107 -70 159 -182 159h-121v-309zM292 -97c-23 -5 -42 8 -42 30s14 36 40 36s42 -16 42 -48
c0 -40 -25 -83 -71 -101l-19 23c25 10 46 38 50 60z" />
    <glyph glyph-name="S" unicode="S" horiz-adv-x="529" 
d="M34 178l53 15c6 -102 82 -153 190 -153c101 0 161 45 161 135c0 119 -106 135 -188 162c-90 30 -198 66 -198 198c0 113 77 178 208 178c115 0 202 -49 226 -167l-53 -15c-17 82 -70 130 -172 130c-99 0 -153 -44 -153 -123c0 -97 82 -124 176 -153
c99 -30 211 -64 211 -209c0 -123 -80 -188 -219 -188c-113 0 -227 42 -242 190z" />
    <glyph glyph-name="Sacute" unicode="&#x15a;" horiz-adv-x="529" 
d="M276 754h-53l92 153l49 -14zM34 178l53 15c6 -102 82 -153 190 -153c101 0 161 45 161 135c0 119 -106 135 -188 162c-90 30 -198 66 -198 198c0 113 77 178 208 178c115 0 202 -49 226 -167l-53 -15c-17 82 -70 130 -172 130c-99 0 -153 -44 -153 -123
c0 -97 82 -124 176 -153c99 -30 211 -64 211 -209c0 -123 -80 -188 -219 -188c-113 0 -227 42 -242 190z" />
    <glyph glyph-name="Sacute.loclPLK" horiz-adv-x="529" 
d="M282 754h-49l51 166l47 -11zM34 178l53 15c6 -102 82 -153 190 -153c101 0 161 45 161 135c0 119 -106 135 -188 162c-90 30 -198 66 -198 198c0 113 77 178 208 178c115 0 202 -49 226 -167l-53 -15c-17 82 -70 130 -172 130c-99 0 -153 -44 -153 -123
c0 -97 82 -124 176 -153c99 -30 211 -64 211 -209c0 -123 -80 -188 -219 -188c-113 0 -227 42 -242 190z" />
    <glyph glyph-name="Scaron" unicode="&#x160;" horiz-adv-x="529" 
d="M141 872l29 31l95 -87l96 87l29 -31l-125 -113zM34 178l53 15c6 -102 82 -153 190 -153c101 0 161 45 161 135c0 119 -106 135 -188 162c-90 30 -198 66 -198 198c0 113 77 178 208 178c115 0 202 -49 226 -167l-53 -15c-17 82 -70 130 -172 130
c-99 0 -153 -44 -153 -123c0 -97 82 -124 176 -153c99 -30 211 -64 211 -209c0 -123 -80 -188 -219 -188c-113 0 -227 42 -242 190z" />
    <glyph glyph-name="Scedilla" unicode="&#x15e;" horiz-adv-x="529" 
d="M495 176c0 -121 -78 -185 -212 -188v-1c56 -5 96 -27 96 -79c0 -49 -36 -79 -102 -79c-33 0 -59 7 -73 16v42c14 -9 37 -15 66 -15c40 0 64 12 64 42c0 34 -33 46 -97 47v29c-98 9 -190 57 -203 188l53 15c6 -102 82 -153 190 -153c101 0 161 45 161 135
c0 119 -106 135 -188 162c-90 30 -198 66 -198 198c0 113 77 178 208 178c115 0 202 -49 226 -167l-53 -15c-17 82 -70 130 -172 130c-99 0 -153 -44 -153 -123c0 -97 82 -124 176 -153c99 -30 211 -64 211 -209z" />
    <glyph glyph-name="Scircumflex" unicode="&#x15c;" horiz-adv-x="529" 
d="M387 792l-29 -32l-94 87l-96 -87l-29 32l125 113zM34 178l53 15c6 -102 82 -153 190 -153c101 0 161 45 161 135c0 119 -106 135 -188 162c-90 30 -198 66 -198 198c0 113 77 178 208 178c115 0 202 -49 226 -167l-53 -15c-17 82 -70 130 -172 130
c-99 0 -153 -44 -153 -123c0 -97 82 -124 176 -153c99 -30 211 -64 211 -209c0 -123 -80 -188 -219 -188c-113 0 -227 42 -242 190z" />
    <glyph glyph-name="Scommaaccent" unicode="&#x218;" horiz-adv-x="529" 
d="M34 178l53 15c6 -102 82 -153 190 -153c101 0 161 45 161 135c0 119 -106 135 -188 162c-90 30 -198 66 -198 198c0 113 77 178 208 178c115 0 202 -49 226 -167l-53 -15c-17 82 -70 130 -172 130c-99 0 -153 -44 -153 -123c0 -97 82 -124 176 -153
c99 -30 211 -64 211 -209c0 -123 -80 -188 -219 -188c-113 0 -227 42 -242 190zM267 -97c-22 -5 -41 8 -41 30s14 36 40 36s42 -16 42 -48c0 -40 -25 -83 -71 -101l-20 23c26 10 47 38 50 60z" />
    <glyph glyph-name="uni1E9E" unicode="&#x1e9e;" horiz-adv-x="606" 
d="M365 418h6c115 0 205 -73 205 -211c0 -126 -77 -219 -207 -219c-65 0 -117 24 -152 58l26 43c32 -31 73 -48 120 -48c96 0 157 65 157 163c0 103 -63 162 -160 162h-57v53l121 227l-1 2c-2 0 -30 -1 -73 -1h-219v-647h-56v700h439l-151 -280z" />
    <glyph glyph-name="T" unicode="T" horiz-adv-x="563" 
d="M530 647h-221v-647h-55v647h-221v53h497v-53z" />
    <glyph glyph-name="Tbar" unicode="&#x166;" horiz-adv-x="563" 
d="M309 647v-256h121v-53h-121v-338h-55v338h-120v53h120v256h-221v53h497v-53h-221z" />
    <glyph glyph-name="Tcaron" unicode="&#x164;" horiz-adv-x="563" 
d="M159 872l29 31l95 -87l96 87l29 -31l-125 -113zM530 647h-221v-647h-55v647h-221v53h497v-53z" />
    <glyph glyph-name="Tcedilla" unicode="&#x162;" horiz-adv-x="563" 
d="M299 0v-13c57 -5 97 -27 97 -79c0 -49 -36 -79 -103 -79c-32 0 -59 7 -72 16v42c14 -9 37 -15 65 -15c40 0 64 12 64 42c0 34 -33 46 -96 47v39v647h-221v53h497v-53h-221v-647h-10z" />
    <glyph glyph-name="uni021A" unicode="&#x21a;" horiz-adv-x="563" 
d="M530 647h-221v-647h-55v647h-221v53h497v-53zM284 -97c-23 -5 -42 8 -42 30s14 36 40 36s42 -16 42 -48c0 -40 -25 -83 -71 -101l-19 23c25 10 46 38 50 60z" />
    <glyph glyph-name="U" unicode="U" horiz-adv-x="619" 
d="M554 700v-442c0 -178 -83 -270 -245 -270c-161 0 -244 92 -244 270v442h57v-444c0 -141 58 -214 188 -214s189 73 189 214v444h55z" />
    <glyph glyph-name="Uacute" unicode="&#xda;" horiz-adv-x="619" 
d="M322 754h-53l92 153l49 -14zM554 700v-442c0 -178 -83 -270 -245 -270c-161 0 -244 92 -244 270v442h57v-444c0 -141 58 -214 188 -214s189 73 189 214v444h55z" />
    <glyph glyph-name="Ubreve" unicode="&#x16c;" horiz-adv-x="619" 
d="M177 865h45c2 -42 30 -79 89 -79s87 40 89 79h45c-3 -66 -53 -121 -134 -121c-80 0 -131 53 -134 121zM554 700v-442c0 -178 -83 -270 -245 -270c-161 0 -244 92 -244 270v442h57v-444c0 -141 58 -214 188 -214s189 73 189 214v444h55z" />
    <glyph glyph-name="Ucircumflex" unicode="&#xdb;" horiz-adv-x="619" 
d="M434 792l-30 -32l-94 87l-95 -87l-30 32l125 113zM554 700v-442c0 -178 -83 -270 -245 -270c-161 0 -244 92 -244 270v442h57v-444c0 -141 58 -214 188 -214s189 73 189 214v444h55z" />
    <glyph glyph-name="Udieresis" unicode="&#xdc;" horiz-adv-x="619" 
d="M227 779c-20 0 -36 17 -36 39c0 21 16 38 37 38c20 0 36 -17 36 -38c0 -22 -16 -39 -37 -39zM393 779c-21 0 -36 17 -36 39c0 21 15 38 36 38s37 -17 37 -38c0 -22 -16 -39 -37 -39zM554 700v-442c0 -178 -83 -270 -245 -270c-161 0 -244 92 -244 270v442h57v-444
c0 -141 58 -214 188 -214s189 73 189 214v444h55z" />
    <glyph glyph-name="Ugrave" unicode="&#xd9;" horiz-adv-x="619" 
d="M255 907l92 -153h-53l-88 139zM554 700v-442c0 -178 -83 -270 -245 -270c-161 0 -244 92 -244 270v442h57v-444c0 -141 58 -214 188 -214s189 73 189 214v444h55z" />
    <glyph glyph-name="Uhungarumlaut" unicode="&#x170;" horiz-adv-x="619" 
d="M247 754h-53l92 153l49 -14zM399 754h-53l92 153l49 -14zM554 700v-442c0 -178 -83 -270 -245 -270c-161 0 -244 92 -244 270v442h57v-444c0 -141 58 -214 188 -214s189 73 189 214v444h55z" />
    <glyph glyph-name="Umacron" unicode="&#x16a;" horiz-adv-x="619" 
d="M440 781h-260v49h260v-49zM554 700v-442c0 -178 -83 -270 -245 -270c-161 0 -244 92 -244 270v442h57v-444c0 -141 58 -214 188 -214s189 73 189 214v444h55z" />
    <glyph glyph-name="Uogonek" unicode="&#x172;" horiz-adv-x="613" 
d="M554 700v-442c0 -160 -68 -251 -200 -267c-41 -12 -63 -26 -63 -62c0 -34 23 -54 68 -54c26 0 52 5 71 17v-47c-18 -10 -50 -16 -78 -16c-69 0 -111 41 -111 95c0 26 10 49 29 66c-135 14 -205 105 -205 268v442h57v-444c0 -141 58 -214 188 -214s189 73 189 214v444h55z
" />
    <glyph glyph-name="Uring" unicode="&#x16e;" horiz-adv-x="619" 
d="M310 741c-52 0 -87 36 -87 86s35 85 87 85c53 0 88 -35 88 -85s-35 -86 -88 -86zM310 777c30 0 49 20 49 50s-19 49 -49 49c-29 0 -48 -19 -48 -49s19 -50 48 -50zM554 700v-442c0 -178 -83 -270 -245 -270c-161 0 -244 92 -244 270v442h57v-444c0 -141 58 -214 188 -214
s189 73 189 214v444h55z" />
    <glyph glyph-name="V" unicode="V" horiz-adv-x="609" 
d="M339 0h-68l-251 700h61l135 -382l89 -257h2l87 253l136 386h59z" />
    <glyph glyph-name="W" unicode="W" horiz-adv-x="867" 
d="M580 0l-91 322c-29 105 -54 210 -55 211h-2c-1 -1 -25 -106 -56 -217l-88 -316h-64l-201 700h60l97 -345c34 -118 77 -279 78 -281h1c1 2 43 162 66 248l77 279h66l77 -279c23 -86 64 -246 65 -248h2c1 2 43 163 76 276l100 350h56l-201 -700h-63z" />
    <glyph glyph-name="Wacute" unicode="&#x1e82;" horiz-adv-x="867" 
d="M449 754h-53l93 153l48 -14zM580 0l-91 322c-29 105 -54 210 -55 211h-2c-1 -1 -25 -106 -56 -217l-88 -316h-64l-201 700h60l97 -345c34 -118 77 -279 78 -281h1c1 2 43 162 66 248l77 279h66l77 -279c23 -86 64 -246 65 -248h2c1 2 43 163 76 276l100 350h56l-201 -700
h-63z" />
    <glyph glyph-name="Wcircumflex" unicode="&#x174;" horiz-adv-x="867" 
d="M561 792l-30 -32l-94 87l-95 -87l-30 32l125 113zM580 0l-91 322c-29 105 -54 210 -55 211h-2c-1 -1 -25 -106 -56 -217l-88 -316h-64l-201 700h60l97 -345c34 -118 77 -279 78 -281h1c1 2 43 162 66 248l77 279h66l77 -279c23 -86 64 -246 65 -248h2c1 2 43 163 76 276
l100 350h56l-201 -700h-63z" />
    <glyph glyph-name="Wdieresis" unicode="&#x1e84;" horiz-adv-x="867" 
d="M355 779c-21 0 -36 17 -36 39c0 21 16 38 36 38c21 0 36 -17 36 -38c0 -22 -16 -39 -36 -39zM521 779c-21 0 -37 17 -37 39c0 21 16 38 37 38c20 0 36 -17 36 -38c0 -22 -16 -39 -36 -39zM580 0l-91 322c-29 105 -54 210 -55 211h-2c-1 -1 -25 -106 -56 -217l-88 -316
h-64l-201 700h60l97 -345c34 -118 77 -279 78 -281h1c1 2 43 162 66 248l77 279h66l77 -279c23 -86 64 -246 65 -248h2c1 2 43 163 76 276l100 350h56l-201 -700h-63z" />
    <glyph glyph-name="Wgrave" unicode="&#x1e80;" horiz-adv-x="867" 
d="M382 907l92 -153h-53l-88 139zM580 0l-91 322c-29 105 -54 210 -55 211h-2c-1 -1 -25 -106 -56 -217l-88 -316h-64l-201 700h60l97 -345c34 -118 77 -279 78 -281h1c1 2 43 162 66 248l77 279h66l77 -279c23 -86 64 -246 65 -248h2c1 2 43 163 76 276l100 350h56
l-201 -700h-63z" />
    <glyph glyph-name="X" unicode="X" horiz-adv-x="589" 
d="M502 0l-123 189c-59 91 -84 134 -85 134h-1c-1 0 -27 -42 -87 -135l-120 -188h-66l239 366l-217 334h66l117 -179c52 -81 72 -114 73 -114h1c1 0 21 34 70 113l114 180h65l-216 -335l237 -365h-67z" />
    <glyph glyph-name="Y" unicode="Y" horiz-adv-x="583" 
d="M319 309v-309h-56v309l-243 391h64l149 -239c34 -54 58 -95 59 -96h2c1 1 23 41 57 94l151 241h61z" />
    <glyph glyph-name="Y.ss05" horiz-adv-x="583" 
d="M340 343h117v-51h-138v-292h-56v292h-135v51h114l-222 357h64l149 -239c34 -54 58 -95 59 -96h2c1 1 23 41 57 94l151 241h61z" />
    <glyph glyph-name="Yacute" unicode="&#xdd;" horiz-adv-x="583" 
d="M308 754h-53l92 153l49 -14zM319 309v-309h-56v309l-243 391h64l149 -239c34 -54 58 -95 59 -96h2c1 1 23 41 57 94l151 241h61z" />
    <glyph glyph-name="Yacute.ss05" horiz-adv-x="583" 
d="M308 754h-53l93 153l48 -14zM340 343h117v-51h-138v-292h-56v292h-135v51h114l-222 357h64l149 -239c34 -54 58 -95 59 -96h2c1 1 23 41 57 94l151 241h61z" />
    <glyph glyph-name="Ycircumflex" unicode="&#x176;" horiz-adv-x="583" 
d="M419 792l-29 -32l-95 87l-95 -87l-29 32l124 113zM319 309v-309h-56v309l-243 391h64l149 -239c34 -54 58 -95 59 -96h2c1 1 23 41 57 94l151 241h61z" />
    <glyph glyph-name="Ycircumflex.ss05" horiz-adv-x="583" 
d="M201 760l-29 32l124 113l124 -113l-30 -32l-94 87zM340 343h117v-51h-138v-292h-56v292h-135v51h114l-222 357h64l149 -239c34 -54 58 -95 59 -96h2c1 1 23 41 57 94l151 241h61z" />
    <glyph glyph-name="Ydieresis" unicode="&#x178;" horiz-adv-x="583" 
d="M213 779c-20 0 -36 17 -36 39c0 21 16 38 36 38c21 0 37 -17 37 -38c0 -22 -16 -39 -37 -39zM379 779c-21 0 -37 17 -37 39c0 21 16 38 37 38s37 -17 37 -38c0 -22 -16 -39 -37 -39zM319 309v-309h-56v309l-243 391h64l149 -239c34 -54 58 -95 59 -96h2c1 1 23 41 57 94
l151 241h61z" />
    <glyph glyph-name="Ydieresis.ss05" horiz-adv-x="583" 
d="M214 779c-21 0 -36 17 -36 39c0 21 16 38 36 38c21 0 36 -17 36 -38c0 -22 -16 -39 -36 -39zM380 779c-21 0 -37 17 -37 39c0 21 16 38 37 38c20 0 36 -17 36 -38c0 -22 -16 -39 -36 -39zM340 343h117v-51h-138v-292h-56v292h-135v51h114l-222 357h64l149 -239
c34 -54 58 -95 59 -96h2c1 1 23 41 57 94l151 241h61z" />
    <glyph glyph-name="Ygrave" unicode="&#x1ef2;" horiz-adv-x="583" 
d="M240 907l93 -153h-53l-88 139zM319 309v-309h-56v309l-243 391h64l149 -239c34 -54 58 -95 59 -96h2c1 1 23 41 57 94l151 241h61z" />
    <glyph glyph-name="Ygrave.ss05" horiz-adv-x="583" 
d="M280 754l-88 139l49 14l92 -153h-53zM340 343h117v-51h-138v-292h-56v292h-135v51h114l-222 357h64l149 -239c34 -54 58 -95 59 -96h2c1 1 23 41 57 94l151 241h61z" />
    <glyph glyph-name="Z" unicode="Z" horiz-adv-x="574" 
d="M534 647l-354 -496c-54 -76 -72 -97 -72 -98l1 -2c1 0 31 2 76 2h349v-53h-494v51l359 502c46 64 70 92 70 93l-2 2c-1 0 -27 -1 -77 -1h-341v53h485v-53z" />
    <glyph glyph-name="Zacute" unicode="&#x179;" horiz-adv-x="574" 
d="M301 754h-53l93 153l48 -14zM534 647l-354 -496c-54 -76 -72 -97 -72 -98l1 -2c1 0 31 2 76 2h349v-53h-494v51l359 502c46 64 70 92 70 93l-2 2c-1 0 -27 -1 -77 -1h-341v53h485v-53z" />
    <glyph glyph-name="Zacute.loclPLK" horiz-adv-x="574" 
d="M307 754h-49l51 166l48 -11zM534 647l-354 -496c-54 -76 -72 -97 -72 -98l1 -2c1 0 31 2 76 2h349v-53h-494v51l359 502c46 64 70 92 70 93l-2 2c-1 0 -27 -1 -77 -1h-341v53h485v-53z" />
    <glyph glyph-name="Zcaron" unicode="&#x17d;" horiz-adv-x="574" 
d="M166 872l29 31l95 -87l96 87l29 -31l-125 -113zM534 647l-354 -496c-54 -76 -72 -97 -72 -98l1 -2c1 0 31 2 76 2h349v-53h-494v51l359 502c46 64 70 92 70 93l-2 2c-1 0 -27 -1 -77 -1h-341v53h485v-53z" />
    <glyph glyph-name="Zdotaccent" unicode="&#x17b;" horiz-adv-x="574" 
d="M289 779c-21 0 -36 17 -36 39s15 38 36 38s37 -16 37 -38s-16 -39 -37 -39zM534 647l-354 -496c-54 -76 -72 -97 -72 -98l1 -2c1 0 31 2 76 2h349v-53h-494v51l359 502c46 64 70 92 70 93l-2 2c-1 0 -27 -1 -77 -1h-341v53h485v-53z" />
    <glyph glyph-name="a" unicode="a" horiz-adv-x="524" 
d="M387 160h-251l-57 -160h-56l207 560h65l206 -560h-56zM369 208l-50 139c-37 102 -56 163 -56 165h-2c-1 -2 -22 -66 -59 -170l-49 -134h216z" />
    <glyph glyph-name="aacute" unicode="&#xe1;" horiz-adv-x="524" 
d="M275 614h-54l93 153l48 -14zM387 160h-251l-57 -160h-56l207 560h65l206 -560h-56zM369 208l-50 139c-37 102 -56 163 -56 165h-2c-1 -2 -22 -66 -59 -170l-49 -134h216z" />
    <glyph glyph-name="abreve" unicode="&#x103;" horiz-adv-x="524" 
d="M263 604c-79 0 -130 53 -133 121h44c3 -42 31 -79 89 -79c60 0 87 40 89 79h45c-3 -66 -53 -121 -134 -121zM387 160h-251l-57 -160h-56l207 560h65l206 -560h-56zM369 208l-50 139c-37 102 -56 163 -56 165h-2c-1 -2 -22 -66 -59 -170l-49 -134h216z" />
    <glyph glyph-name="acircumflex" unicode="&#xe2;" horiz-adv-x="524" 
d="M191 623l-30 31l102 111l102 -112l-30 -30l-72 81zM387 160h-251l-57 -160h-56l207 560h65l206 -560h-56zM369 208l-50 139c-37 102 -56 163 -56 165h-2c-1 -2 -22 -66 -59 -170l-49 -134h216z" />
    <glyph glyph-name="adieresis" unicode="&#xe4;" horiz-adv-x="524" 
d="M180 639c-21 0 -36 17 -36 39c0 21 16 38 36 38c21 0 36 -17 36 -38c0 -22 -15 -39 -36 -39zM346 639c-21 0 -37 17 -37 39c0 21 16 38 37 38s36 -17 36 -38c0 -22 -15 -39 -36 -39zM387 160h-251l-57 -160h-56l207 560h65l206 -560h-56zM369 208l-50 139
c-37 102 -56 163 -56 165h-2c-1 -2 -22 -66 -59 -170l-49 -134h216z" />
    <glyph glyph-name="agrave" unicode="&#xe0;" horiz-adv-x="524" 
d="M246 614l-88 139l49 14l93 -153h-54zM387 160h-251l-57 -160h-56l207 560h65l206 -560h-56zM369 208l-50 139c-37 102 -56 163 -56 165h-2c-1 -2 -22 -66 -59 -170l-49 -134h216z" />
    <glyph glyph-name="amacron" unicode="&#x101;" horiz-adv-x="524" 
d="M393 641h-260v49h260v-49zM387 160h-251l-57 -160h-56l207 560h65l206 -560h-56zM369 208l-50 139c-37 102 -56 163 -56 165h-2c-1 -2 -22 -66 -59 -170l-49 -134h216z" />
    <glyph glyph-name="aogonek" unicode="&#x105;" horiz-adv-x="524" 
d="M430 -125c26 0 57 5 79 18v-47c-20 -11 -52 -17 -84 -17c-64 0 -114 35 -114 98c0 45 23 100 119 113l-43 120h-251l-57 -160h-56l207 560h65l206 -560h-21c-92 0 -120 -33 -120 -71c0 -36 28 -54 70 -54zM369 208l-50 139c-37 102 -56 163 -56 165h-2
c-1 -2 -22 -66 -59 -170l-49 -134h216z" />
    <glyph glyph-name="aring" unicode="&#xe5;" horiz-adv-x="524" 
d="M263 601c-53 0 -88 36 -88 86s35 85 88 85s87 -35 87 -85s-34 -86 -87 -86zM263 736c-30 0 -48 -19 -48 -49s18 -50 48 -50c29 0 48 20 48 50s-19 49 -48 49zM387 160h-251l-57 -160h-56l207 560h65l206 -560h-56zM369 208l-50 139c-37 102 -56 163 -56 165h-2
c-1 -2 -22 -66 -59 -170l-49 -134h216z" />
    <glyph glyph-name="atilde" unicode="&#xe3;" horiz-adv-x="524" 
d="M204 676c-29 0 -44 -16 -51 -25l-14 42c7 10 26 30 61 30c48 0 71 -34 116 -34c30 0 42 14 51 24l14 -43c-6 -9 -26 -28 -61 -28c-48 0 -72 34 -116 34zM387 160h-251l-57 -160h-56l207 560h65l206 -560h-56zM369 208l-50 139c-37 102 -56 163 -56 165h-2
c-1 -2 -22 -66 -59 -170l-49 -134h216z" />
    <glyph glyph-name="ae" unicode="&#xe6;" horiz-adv-x="726" 
d="M680 51v-51h-347v162h-196l-59 -162h-55l207 560h445v-51h-290v-193h226v-50h-226v-215h295zM333 210v300h-72l-107 -300h179z" />
    <glyph glyph-name="b" unicode="b" horiz-adv-x="489" 
d="M324 298v-3c51 -6 128 -41 128 -141c0 -93 -63 -154 -180 -154h-197v560h182c98 0 160 -60 160 -138c0 -81 -49 -114 -93 -124zM129 315h122c55 0 113 31 113 101c0 57 -44 96 -114 96h-121v-197zM129 48h143c76 0 126 40 126 108c0 74 -59 114 -132 114h-137v-222z" />
    <glyph glyph-name="c" unicode="c" horiz-adv-x="573" 
d="M478 164l52 -14c-39 -97 -120 -161 -234 -161c-152 0 -258 112 -258 291c0 180 106 290 257 290c96 0 192 -44 231 -162l-51 -14c-12 32 -54 126 -178 126c-123 0 -204 -90 -204 -239c0 -155 83 -242 203 -242c90 0 151 51 182 125z" />
    <glyph glyph-name="cacute" unicode="&#x107;" horiz-adv-x="573" 
d="M306 614h-53l92 153l49 -14zM478 164l52 -14c-39 -97 -120 -161 -234 -161c-152 0 -258 112 -258 291c0 180 106 290 257 290c96 0 192 -44 231 -162l-51 -14c-12 32 -54 126 -178 126c-123 0 -204 -90 -204 -239c0 -155 83 -242 203 -242c90 0 151 51 182 125z" />
    <glyph glyph-name="cacute.loclPLK" horiz-adv-x="573" 
d="M312 614h-49l51 166l47 -11zM478 164l52 -14c-39 -97 -120 -161 -234 -161c-152 0 -258 112 -258 291c0 180 106 290 257 290c96 0 192 -44 231 -162l-51 -14c-12 32 -54 126 -178 126c-123 0 -204 -90 -204 -239c0 -155 83 -242 203 -242c90 0 151 51 182 125z" />
    <glyph glyph-name="ccaron" unicode="&#x10d;" horiz-adv-x="573" 
d="M171 732l29 31l95 -87l96 87l29 -31l-125 -113zM478 164l52 -14c-39 -97 -120 -161 -234 -161c-152 0 -258 112 -258 291c0 180 106 290 257 290c96 0 192 -44 231 -162l-51 -14c-12 32 -54 126 -178 126c-123 0 -204 -90 -204 -239c0 -155 83 -242 203 -242
c90 0 151 51 182 125z" />
    <glyph glyph-name="ccedilla" unicode="&#xe7;" horiz-adv-x="573" 
d="M478 164l52 -14c-37 -93 -112 -155 -218 -161v-3c57 -6 97 -28 97 -80c0 -48 -37 -79 -103 -79c-33 0 -59 8 -73 16v42c14 -9 37 -15 66 -15c40 0 64 13 64 42c0 34 -33 46 -96 48v30c-137 14 -229 123 -229 290c0 180 106 290 257 290c96 0 192 -44 231 -162l-51 -14
c-12 32 -54 126 -178 126c-123 0 -204 -90 -204 -239c0 -155 83 -242 203 -242c90 0 151 51 182 125z" />
    <glyph glyph-name="ccircumflex" unicode="&#x109;" horiz-adv-x="573" 
d="M417 652l-29 -32l-94 87l-96 -87l-29 32l125 113zM478 164l52 -14c-39 -97 -120 -161 -234 -161c-152 0 -258 112 -258 291c0 180 106 290 257 290c96 0 192 -44 231 -162l-51 -14c-12 32 -54 126 -178 126c-123 0 -204 -90 -204 -239c0 -155 83 -242 203 -242
c90 0 151 51 182 125z" />
    <glyph glyph-name="cdotaccent" unicode="&#x10b;" horiz-adv-x="573" 
d="M294 639c-21 0 -37 17 -37 39s16 38 37 38s37 -16 37 -38s-16 -39 -37 -39zM478 164l52 -14c-39 -97 -120 -161 -234 -161c-152 0 -258 112 -258 291c0 180 106 290 257 290c96 0 192 -44 231 -162l-51 -14c-12 32 -54 126 -178 126c-123 0 -204 -90 -204 -239
c0 -155 83 -242 203 -242c90 0 151 51 182 125z" />
    <glyph glyph-name="d" unicode="d" horiz-adv-x="552" 
d="M75 560h162c171 0 276 -106 276 -283c0 -176 -104 -277 -269 -277h-169v560zM129 51h114c132 0 216 77 216 225c0 154 -84 233 -222 233h-108v-458z" />
    <glyph glyph-name="eth" unicode="&#xf0;" horiz-adv-x="552" 
d="M75 560h162c171 0 276 -106 276 -283c0 -176 -104 -277 -269 -277h-169v266h-63v50h63v244zM129 51h114c132 0 216 77 216 225c0 154 -84 233 -222 233h-108v-193h159v-50h-159v-215z" />
    <glyph glyph-name="dcaron" unicode="&#x10f;" horiz-adv-x="552" 
d="M142 732l29 31l95 -87l96 87l29 -31l-125 -113zM75 560h162c171 0 276 -106 276 -283c0 -176 -104 -277 -269 -277h-169v560zM129 51h114c132 0 216 77 216 225c0 154 -84 233 -222 233h-108v-458z" />
    <glyph glyph-name="dcroat" unicode="&#x111;" horiz-adv-x="552" 
d="M75 560h162c171 0 276 -106 276 -283c0 -176 -104 -277 -269 -277h-169v266h-63v50h63v244zM129 51h114c132 0 216 77 216 225c0 154 -84 233 -222 233h-108v-193h159v-50h-159v-215z" />
    <glyph glyph-name="e" unicode="e" horiz-adv-x="468" 
d="M75 0v560h342v-51h-288v-193h226v-50h-226v-215h293v-51h-347z" />
    <glyph glyph-name="eacute" unicode="&#xe9;" horiz-adv-x="468" 
d="M259 614h-54l93 153l48 -14zM75 0v560h342v-51h-288v-193h226v-50h-226v-215h293v-51h-347z" />
    <glyph glyph-name="ecaron" unicode="&#x11b;" horiz-adv-x="468" 
d="M123 732l29 31l96 -87l95 87l29 -31l-124 -113zM75 0v560h342v-51h-288v-193h226v-50h-226v-215h293v-51h-347z" />
    <glyph glyph-name="ecircumflex" unicode="&#xea;" horiz-adv-x="468" 
d="M370 652l-29 -32l-95 87l-95 -87l-29 32l124 113zM75 0v560h342v-51h-288v-193h226v-50h-226v-215h293v-51h-347z" />
    <glyph glyph-name="edieresis" unicode="&#xeb;" horiz-adv-x="468" 
d="M164 639c-21 0 -36 17 -36 39c0 21 16 38 36 38c21 0 36 -17 36 -38c0 -22 -16 -39 -36 -39zM330 639c-21 0 -37 17 -37 39c0 21 16 38 37 38c20 0 36 -17 36 -38c0 -22 -16 -39 -36 -39zM75 0v560h342v-51h-288v-193h226v-50h-226v-215h293v-51h-347z" />
    <glyph glyph-name="edotaccent" unicode="&#x117;" horiz-adv-x="468" 
d="M246 639c-20 0 -36 17 -36 39s16 38 36 38c21 0 37 -16 37 -38s-16 -39 -37 -39zM75 0v560h342v-51h-288v-193h226v-50h-226v-215h293v-51h-347z" />
    <glyph glyph-name="egrave" unicode="&#xe8;" horiz-adv-x="468" 
d="M191 767l93 -153h-54l-88 139zM75 0v560h342v-51h-288v-193h226v-50h-226v-215h293v-51h-347z" />
    <glyph glyph-name="emacron" unicode="&#x113;" horiz-adv-x="468" 
d="M377 641h-260v49h260v-49zM75 0v560h342v-51h-288v-193h226v-50h-226v-215h293v-51h-347z" />
    <glyph glyph-name="eogonek" unicode="&#x119;" horiz-adv-x="468" 
d="M422 0h-40c-58 -5 -90 -30 -90 -70c0 -34 21 -55 62 -55c24 0 50 5 68 17v-47c-17 -10 -46 -16 -72 -16c-66 0 -106 40 -106 96c0 28 11 55 35 75h-204v560h342v-51h-288v-193h226v-50h-226v-215h293v-51z" />
    <glyph glyph-name="f" unicode="f" horiz-adv-x="448" 
d="M415 509h-286v-205h214v-52h-214v-252h-54v560h340v-51z" />
    <glyph glyph-name="g" unicode="g" horiz-adv-x="596" 
d="M538 0h-50c0 65 1 81 1 83h-1c-24 -33 -85 -94 -194 -94c-151 0 -256 114 -256 292c0 180 107 289 256 289c92 0 191 -40 232 -162l-50 -13c-21 55 -74 125 -180 125c-121 0 -203 -89 -203 -237c0 -154 83 -244 208 -244c97 0 166 57 187 103v86h-156v50h206v-278z" />
    <glyph glyph-name="gbreve" unicode="&#x11f;" horiz-adv-x="596" 
d="M158 725h45c2 -42 30 -79 89 -79s87 40 89 79h45c-3 -66 -53 -121 -134 -121c-80 0 -131 53 -134 121zM538 0h-50c0 65 1 81 1 83h-1c-24 -33 -85 -94 -194 -94c-151 0 -256 114 -256 292c0 180 107 289 256 289c92 0 191 -40 232 -162l-50 -13c-21 55 -74 125 -180 125
c-121 0 -203 -89 -203 -237c0 -154 83 -244 208 -244c97 0 166 57 187 103v86h-156v50h206v-278z" />
    <glyph glyph-name="gcircumflex" unicode="&#x11d;" horiz-adv-x="596" 
d="M415 652l-30 -32l-94 87l-95 -87l-30 32l125 113zM538 0h-50c0 65 1 81 1 83h-1c-24 -33 -85 -94 -194 -94c-151 0 -256 114 -256 292c0 180 107 289 256 289c92 0 191 -40 232 -162l-50 -13c-21 55 -74 125 -180 125c-121 0 -203 -89 -203 -237c0 -154 83 -244 208 -244
c97 0 166 57 187 103v86h-156v49h206v-277z" />
    <glyph glyph-name="gcommaaccent" unicode="&#x123;" horiz-adv-x="596" 
d="M538 0h-50c0 65 1 81 1 83h-1c-24 -33 -85 -94 -194 -94c-151 0 -256 114 -256 292c0 180 107 289 256 289c92 0 191 -40 232 -162l-50 -13c-21 55 -74 125 -180 125c-121 0 -203 -89 -203 -237c0 -154 83 -244 208 -244c97 0 166 57 187 103v86h-156v50h206v-278z
M307 -97c-23 -5 -42 8 -42 30s14 36 41 36c26 0 41 -16 41 -48c0 -40 -25 -83 -70 -101l-20 23c25 10 47 38 50 60z" />
    <glyph glyph-name="gdotaccent" unicode="&#x121;" horiz-adv-x="596" 
d="M291 639c-21 0 -36 17 -36 39s15 38 36 38s37 -16 37 -38s-16 -39 -37 -39zM538 0h-50c0 65 1 81 1 83h-1c-24 -33 -85 -94 -194 -94c-151 0 -256 114 -256 292c0 180 107 289 256 289c92 0 191 -40 232 -162l-50 -13c-21 55 -74 125 -180 125c-121 0 -203 -89 -203 -237
c0 -154 83 -244 208 -244c97 0 166 57 187 103v86h-156v50h206v-278z" />
    <glyph glyph-name="h" unicode="h" horiz-adv-x="556" 
d="M480 0h-54v265h-297v-265h-54v560h54v-244h297v244h54v-560z" />
    <glyph glyph-name="hbar" unicode="&#x127;" horiz-adv-x="573" 
d="M547 409h-58v-409h-54v265h-297v-265h-54v409h-58v44h58v107h54v-107h297v107h54v-107h58v-44zM435 409h-297v-94h297v94z" />
    <glyph glyph-name="hcircumflex" unicode="&#x125;" horiz-adv-x="556" 
d="M401 652l-29 -32l-95 87l-95 -87l-29 32l124 113zM480 0h-54v265h-297v-265h-54v560h54v-244h297v244h54v-560z" />
    <glyph glyph-name="i" unicode="i" horiz-adv-x="205" 
d="M75 0v560h54v-560h-54z" />
    <glyph glyph-name="i.ss03" horiz-adv-x="375" 
d="M215 51h98v-51h-251v51h99v458h-99v51h251v-51h-98v-458z" />
    <glyph glyph-name="dotlessi" unicode="&#x131;" horiz-adv-x="205" 
d="M75 0v560h54v-560h-54z" />
    <glyph glyph-name="dotlessi.ss03" horiz-adv-x="375" 
d="M215 51h98v-51h-251v51h99v458h-99v51h251v-51h-98v-458z" />
    <glyph glyph-name="iacute" unicode="&#xed;" horiz-adv-x="205" 
d="M115 614h-53l92 153l49 -14zM75 0v560h54v-560h-54z" />
    <glyph glyph-name="iacute.ss03" horiz-adv-x="375" 
d="M199 614h-54l93 153l48 -14zM215 51h98v-51h-251v51h99v458h-99v51h251v-51h-98v-458z" />
    <glyph glyph-name="iacute_j.loclNLD" horiz-adv-x="594" 
d="M203 753l-88 -139h-53l92 153zM510 614h-53l93 153l48 -14zM75 560h54v-560h-54v560zM472 560h53v-362c0 -135 -60 -209 -174 -209c-60 0 -103 20 -134 61l32 38c24 -32 56 -48 101 -48c86 0 122 56 122 158v362z" />
    <glyph glyph-name="icircumflex" unicode="&#xee;" horiz-adv-x="205" 
d="M205 653l-30 -30l-72 81l-72 -81l-30 31l102 111zM75 0v560h54v-560h-54z" />
    <glyph glyph-name="icircumflex.ss03" horiz-adv-x="375" 
d="M310 652l-29 -32l-95 87l-95 -87l-29 32l124 113zM215 51h98v-51h-251v51h99v458h-99v51h251v-51h-98v-458z" />
    <glyph glyph-name="idieresis" unicode="&#xef;" horiz-adv-x="205" 
d="M52 639c-20 0 -35 17 -35 39c0 21 15 38 35 38c21 0 36 -17 36 -38c0 -22 -15 -39 -36 -39zM154 639c-21 0 -36 17 -36 39c0 21 15 38 36 38s36 -17 36 -38c0 -22 -15 -39 -36 -39zM75 0v560h54v-560h-54z" />
    <glyph glyph-name="idieresis.ss03" horiz-adv-x="375" 
d="M104 639c-21 0 -36 17 -36 39c0 21 16 38 36 38c21 0 36 -17 36 -38c0 -22 -16 -39 -36 -39zM270 639c-21 0 -37 17 -37 39c0 21 16 38 37 38c20 0 36 -17 36 -38c0 -22 -16 -39 -36 -39zM215 51h98v-51h-251v51h99v458h-99v51h251v-51h-98v-458z" />
    <glyph glyph-name="i.loclTRK" horiz-adv-x="205" 
d="M103 639c-21 0 -37 17 -37 39s16 38 37 38s36 -16 36 -38s-15 -39 -36 -39zM75 0v560h54v-560h-54z" />
    <glyph glyph-name="i.loclTRK.ss03" horiz-adv-x="375" 
d="M186 639c-20 0 -36 17 -36 39s16 38 36 38c21 0 37 -16 37 -38s-16 -39 -37 -39zM215 51h98v-51h-251v51h99v458h-99v51h251v-51h-98v-458z" />
    <glyph glyph-name="igrave" unicode="&#xec;" horiz-adv-x="205" 
d="M47 767l93 -153h-53l-88 139zM75 0v560h54v-560h-54z" />
    <glyph glyph-name="igrave.ss03" horiz-adv-x="375" 
d="M131 767l93 -153h-54l-88 139zM215 51h98v-51h-251v51h99v458h-99v51h251v-51h-98v-458z" />
    <glyph glyph-name="ij" unicode="&#x133;" horiz-adv-x="594" 
d="M75 0v560h54v-560h-54zM525 560v-362c0 -135 -60 -209 -174 -209c-60 0 -103 20 -134 61l32 38c24 -32 56 -48 101 -48c86 0 122 56 122 158v362h53z" />
    <glyph glyph-name="ij.ss03" horiz-adv-x="753" 
d="M215 51h98v-51h-251v51h99v458h-99v51h251v-51h-98v-458zM684 560v-362c0 -135 -61 -209 -175 -209c-60 0 -102 20 -134 61l33 38c24 -32 56 -48 101 -48c85 0 121 56 121 158v362h54z" />
    <glyph glyph-name="ij.ss03.ss04" horiz-adv-x="759" 
d="M62 560h251v-51h-98v-458h98v-51h-251v51h99v458h-99v51zM690 560v-362c0 -135 -61 -209 -175 -209c-60 0 -102 21 -134 61l33 38c24 -32 56 -48 101 -48c85 0 121 56 121 158v311h-205v51h259z" />
    <glyph glyph-name="ij.ss04" horiz-adv-x="588" 
d="M75 560h54v-560h-54v560zM519 560v-362c0 -135 -60 -209 -174 -209c-60 0 -103 21 -134 61l32 38c25 -32 57 -48 101 -48c86 0 122 56 122 158v311h-206v51h259z" />
    <glyph glyph-name="imacron" unicode="&#x12b;" horiz-adv-x="205" 
d="M198 641h-190v49h190v-49zM75 0v560h54v-560h-54z" />
    <glyph glyph-name="imacron.ss03" horiz-adv-x="402" 
d="M327 641h-252v49h252v-49zM228 51h99v-51h-252v51h99v458h-99v51h252v-51h-99v-458z" />
    <glyph glyph-name="iogonek" unicode="&#x12f;" horiz-adv-x="205" 
d="M101 -126c20 0 44 6 60 18v-47c-15 -10 -42 -16 -65 -16c-59 0 -95 40 -95 96c0 46 22 89 74 107v528h54v-560h-4c-50 -4 -77 -28 -77 -70c0 -34 16 -56 53 -56z" />
    <glyph glyph-name="iogonek.ss03" horiz-adv-x="375" 
d="M247 -125c24 0 50 5 68 17v-47c-17 -10 -47 -16 -72 -16c-66 0 -106 40 -106 96c0 28 10 55 35 75h-110v51h99v458h-99v51h251v-51h-98v-458h98v-51h-38c-58 -5 -90 -30 -90 -70c0 -34 21 -55 62 -55z" />
    <glyph glyph-name="j" unicode="j" horiz-adv-x="383" 
d="M315 560v-362c0 -135 -61 -209 -175 -209c-60 0 -103 20 -134 61l33 38c24 -32 55 -48 101 -48c85 0 121 56 121 158v362h54z" />
    <glyph glyph-name="j.ss04" horiz-adv-x="383" 
d="M315 560v-362c0 -135 -61 -209 -175 -209c-60 0 -103 21 -134 61l33 38c24 -32 56 -48 101 -48c85 0 121 56 121 158v311h-205v51h259z" />
    <glyph glyph-name="dotlessj" unicode="&#x237;" horiz-adv-x="383" 
d="M315 560v-362c0 -135 -61 -209 -175 -209c-60 0 -103 20 -134 61l33 38c24 -32 55 -48 101 -48c85 0 121 56 121 158v362h54z" />
    <glyph glyph-name="dotlessj.ss04" horiz-adv-x="383" 
d="M315 560v-362c0 -135 -61 -209 -175 -209c-60 0 -103 21 -134 61l33 38c24 -32 56 -48 101 -48c85 0 121 56 121 158v311h-205v51h259z" />
    <glyph glyph-name="jcircumflex" unicode="&#x135;" horiz-adv-x="383" 
d="M411 652l-30 -32l-94 87l-95 -87l-30 32l125 113zM315 560v-362c0 -135 -61 -209 -175 -209c-60 0 -103 20 -134 61l33 38c24 -32 55 -48 101 -48c85 0 121 56 121 158v362h54z" />
    <glyph glyph-name="jcircumflex.ss04" horiz-adv-x="383" 
d="M91 620l-29 32l124 113l124 -113l-29 -32l-95 87zM315 560v-362c0 -135 -61 -209 -175 -209c-60 0 -103 21 -134 61l33 38c24 -32 56 -48 101 -48c85 0 121 56 121 158v311h-205v51h259z" />
    <glyph glyph-name="k" unicode="k" horiz-adv-x="502" 
d="M231 297l-102 -116v-181h-54v560h54v-171v-140h1l75 87l198 224h66l-199 -224l214 -336h-61z" />
    <glyph glyph-name="kcommaaccent" unicode="&#x137;" horiz-adv-x="502" 
d="M484 0h-61l-192 297l-102 -116v-181h-54v560h54v-171v-140h1l75 87l198 224h66l-199 -224zM265 -31c26 0 42 -16 42 -48c0 -40 -25 -83 -71 -101l-20 23c26 10 47 38 50 60c-22 -5 -41 8 -41 30s14 36 40 36z" />
    <glyph glyph-name="l" unicode="l" horiz-adv-x="433" 
d="M75 0v560h54v-509h271v-51h-325z" />
    <glyph glyph-name="lacute" unicode="&#x13a;" horiz-adv-x="433" 
d="M125 614h-53l93 153l48 -14zM75 0v560h54v-509h271v-51h-325z" />
    <glyph glyph-name="lcaron" unicode="&#x13e;" horiz-adv-x="433" 
d="M75 0v560h54v-509h271v-51h-325zM264 559h48c0 -69 -23 -158 -39 -196h-44c16 39 35 127 35 196z" />
    <glyph glyph-name="lcommaaccent" unicode="&#x13c;" horiz-adv-x="433" 
d="M75 0v560h54v-509h271v-51h-325zM235 -97c-22 -5 -41 8 -41 30s14 36 40 36s42 -16 42 -48c0 -40 -25 -83 -71 -101l-19 23c25 10 46 38 49 60z" />
    <glyph glyph-name="ldot" unicode="&#x140;" horiz-adv-x="433" 
d="M75 0v560h54v-509h271v-51h-325zM319 247c-27 0 -42 19 -42 43s15 42 42 42s42 -18 42 -42c0 -25 -16 -43 -42 -43z" />
    <glyph glyph-name="lslash" unicode="&#x142;" horiz-adv-x="433" 
d="M400 51v-51h-325v560h54v-281l188 98v-55l-188 -97v-174h271z" />
    <glyph glyph-name="m" unicode="m" horiz-adv-x="630" 
d="M501 0v280c0 84 1 202 1 203h-2l-166 -344h-42l-164 347h-2c0 -1 2 -121 2 -205v-281h-53v560h69l113 -233c39 -81 57 -123 58 -123h2c1 0 19 42 59 124l113 232h66v-560h-54z" />
    <glyph glyph-name="n" unicode="n" horiz-adv-x="563" 
d="M488 0h-58l-301 478h-2c0 -1 1 -65 1 -132v-346h-53v560h59l300 -472h2c0 1 -1 62 -1 127v345h53v-560z" />
    <glyph glyph-name="n.ss02" horiz-adv-x="563" 
d="M488 0h-54v233l-304 262h-2c0 -1 1 -68 1 -139v-356h-54v560h58l299 -258h2v102v156h54v-560z" />
    <glyph glyph-name="nacute" unicode="&#x144;" horiz-adv-x="563" 
d="M291 614h-53l92 153l49 -14zM488 0h-58l-301 478h-2c0 -1 1 -65 1 -132v-346h-53v560h59l300 -472h2c0 1 -1 62 -1 127v345h53v-560z" />
    <glyph glyph-name="nacute.loclPLK" horiz-adv-x="563" 
d="M297 614h-49l51 166l47 -11zM488 0h-58l-301 478h-2c0 -1 1 -65 1 -132v-346h-53v560h59l300 -472h2c0 1 -1 62 -1 127v345h53v-560z" />
    <glyph glyph-name="nacute.loclPLK.ss02" horiz-adv-x="563" 
d="M296 614h-49l51 166l48 -11zM488 0h-54v233l-304 262h-2c0 -1 1 -68 1 -139v-356h-54v560h58l299 -258h2v102v156h54v-560z" />
    <glyph glyph-name="nacute.ss02" horiz-adv-x="563" 
d="M291 614h-54l93 153l48 -14zM488 0h-54v233l-304 262h-2c0 -1 1 -68 1 -139v-356h-54v560h58l299 -258h2v102v156h54v-560z" />
    <glyph glyph-name="ncaron" unicode="&#x148;" horiz-adv-x="563" 
d="M156 732l29 31l95 -87l96 87l28 -31l-124 -113zM488 0h-58l-301 478h-2c0 -1 1 -65 1 -132v-346h-53v560h59l300 -472h2c0 1 -1 62 -1 127v345h53v-560z" />
    <glyph glyph-name="ncaron.ss02" horiz-adv-x="563" 
d="M155 732l29 31l96 -87l95 87l29 -31l-124 -113zM488 0h-54v233l-304 262h-2c0 -1 1 -68 1 -139v-356h-54v560h58l299 -258h2v102v156h54v-560z" />
    <glyph glyph-name="ncommaaccent" unicode="&#x146;" horiz-adv-x="563" 
d="M488 0h-58l-301 478h-2c0 -1 1 -65 1 -132v-346h-53v560h59l300 -472h2c0 1 -1 62 -1 127v345h53v-560zM278 -97c-23 -5 -42 8 -42 30s14 36 40 36s42 -16 42 -48c0 -40 -25 -83 -71 -101l-19 23c25 10 46 38 50 60z" />
    <glyph glyph-name="ncommaaccent.ss02" horiz-adv-x="563" 
d="M488 0h-54v233l-304 262h-2c0 -1 1 -68 1 -139v-356h-54v560h58l299 -258h2v102v156h54v-560zM280 -97c-23 -5 -42 8 -42 30s15 36 41 36s41 -16 41 -48c0 -40 -25 -83 -70 -101l-20 23c25 10 47 38 50 60z" />
    <glyph glyph-name="eng" unicode="&#x14b;" horiz-adv-x="563" 
d="M488 560v-560c-1 -114 -47 -161 -136 -161h-21v46h20c58 0 85 37 79 115l-301 478h-2c0 -1 1 -65 1 -132v-346h-53v560h59l300 -472h2c0 1 -1 62 -1 127v345h53z" />
    <glyph glyph-name="eng.ss02" horiz-adv-x="563" 
d="M488 560v-560c0 -115 -45 -161 -135 -161h-17v45h13c60 0 85 34 85 116v233l-304 262h-2c0 -1 1 -68 1 -139v-356h-54v560h58l299 -258h2v102v156h54z" />
    <glyph glyph-name="ntilde" unicode="&#xf1;" horiz-adv-x="563" 
d="M384 713l13 -43c-6 -9 -26 -28 -61 -28c-48 0 -72 34 -116 34c-29 0 -44 -16 -51 -25l-14 42c8 10 26 30 62 30c47 0 70 -34 116 -34c29 0 42 14 51 24zM488 0h-58l-301 478h-2c0 -1 1 -65 1 -132v-346h-53v560h59l300 -472h2c0 1 -1 62 -1 127v345h53v-560z" />
    <glyph glyph-name="ntilde.ss02" horiz-adv-x="563" 
d="M383 713l14 -43c-6 -9 -26 -28 -61 -28c-48 0 -72 34 -116 34c-29 0 -44 -16 -51 -25l-14 42c7 10 26 30 62 30c47 0 70 -34 115 -34c30 0 42 14 51 24zM488 0h-54v233l-304 262h-2c0 -1 1 -68 1 -139v-356h-54v560h58l299 -258h2v102v156h54v-560z" />
    <glyph glyph-name="o" unicode="o" horiz-adv-x="589" 
d="M38 280c0 181 108 290 256 290c149 0 257 -109 257 -290s-108 -291 -257 -291c-148 0 -256 110 -256 291zM93 280c0 -154 83 -241 201 -241c117 0 202 88 202 241s-85 240 -202 240c-118 0 -201 -87 -201 -240z" />
    <glyph glyph-name="oacute" unicode="&#xf3;" horiz-adv-x="589" 
d="M307 614h-53l92 153l49 -14zM38 280c0 181 108 290 256 290c149 0 257 -109 257 -290s-108 -291 -257 -291c-148 0 -256 110 -256 291zM93 280c0 -154 83 -241 201 -241c117 0 202 88 202 241s-85 240 -202 240c-118 0 -201 -87 -201 -240z" />
    <glyph glyph-name="oacute.loclPLK" horiz-adv-x="589" 
d="M313 614h-49l51 166l47 -11zM38 280c0 181 108 290 256 290c149 0 257 -109 257 -290s-108 -291 -257 -291c-148 0 -256 110 -256 291zM93 280c0 -154 83 -241 201 -241c117 0 202 88 202 241s-85 240 -202 240c-118 0 -201 -87 -201 -240z" />
    <glyph glyph-name="ocircumflex" unicode="&#xf4;" horiz-adv-x="589" 
d="M418 652l-29 -32l-94 87l-95 -87l-30 32l125 113zM38 280c0 181 108 290 256 290c149 0 257 -109 257 -290s-108 -291 -257 -291c-148 0 -256 110 -256 291zM93 280c0 -154 83 -241 201 -241c117 0 202 88 202 241s-85 240 -202 240c-118 0 -201 -87 -201 -240z" />
    <glyph glyph-name="odieresis" unicode="&#xf6;" horiz-adv-x="589" 
d="M212 639c-20 0 -36 17 -36 39c0 21 16 38 37 38c20 0 36 -17 36 -38c0 -22 -16 -39 -37 -39zM378 639c-21 0 -36 17 -36 39c0 21 15 38 36 38s37 -17 37 -38c0 -22 -16 -39 -37 -39zM38 280c0 181 108 290 256 290c149 0 257 -109 257 -290s-108 -291 -257 -291
c-148 0 -256 110 -256 291zM93 280c0 -154 83 -241 201 -241c117 0 202 88 202 241s-85 240 -202 240c-118 0 -201 -87 -201 -240z" />
    <glyph glyph-name="ograve" unicode="&#xf2;" horiz-adv-x="589" 
d="M240 767l92 -153h-53l-88 139zM38 280c0 181 108 290 256 290c149 0 257 -109 257 -290s-108 -291 -257 -291c-148 0 -256 110 -256 291zM93 280c0 -154 83 -241 201 -241c117 0 202 88 202 241s-85 240 -202 240c-118 0 -201 -87 -201 -240z" />
    <glyph glyph-name="ohungarumlaut" unicode="&#x151;" horiz-adv-x="589" 
d="M232 614h-53l92 153l49 -14zM384 614h-53l92 153l49 -14zM38 280c0 181 108 290 256 290c149 0 257 -109 257 -290s-108 -291 -257 -291c-148 0 -256 110 -256 291zM93 280c0 -154 83 -241 201 -241c117 0 202 88 202 241s-85 240 -202 240c-118 0 -201 -87 -201 -240z
" />
    <glyph glyph-name="omacron" unicode="&#x14d;" horiz-adv-x="589" 
d="M425 641h-260v49h260v-49zM38 280c0 181 108 290 256 290c149 0 257 -109 257 -290s-108 -291 -257 -291c-148 0 -256 110 -256 291zM93 280c0 -154 83 -241 201 -241c117 0 202 88 202 241s-85 240 -202 240c-118 0 -201 -87 -201 -240z" />
    <glyph glyph-name="oslash" unicode="&#xf8;" horiz-adv-x="589" 
d="M523 580l-53 -79c51 -50 81 -125 81 -221c0 -181 -108 -291 -257 -291c-53 0 -102 14 -142 41l-50 -75l-40 27l53 79c-48 51 -77 125 -77 219c0 181 108 290 256 290c52 0 100 -13 139 -38l50 74zM93 280c0 -74 19 -133 53 -173l258 381c-31 21 -69 32 -110 32
c-118 0 -201 -87 -201 -240zM294 39c117 0 202 88 202 241c0 76 -21 135 -56 176l-259 -383c32 -22 70 -34 113 -34z" />
    <glyph glyph-name="otilde" unicode="&#xf5;" horiz-adv-x="589" 
d="M400 713l13 -43c-6 -9 -26 -28 -61 -28c-48 0 -71 34 -116 34c-29 0 -43 -16 -51 -25l-14 42c8 10 26 30 62 30c47 0 70 -34 116 -34c29 0 42 14 51 24zM38 280c0 181 108 290 256 290c149 0 257 -109 257 -290s-108 -291 -257 -291c-148 0 -256 110 -256 291zM93 280
c0 -154 83 -241 201 -241c117 0 202 88 202 241s-85 240 -202 240c-118 0 -201 -87 -201 -240z" />
    <glyph glyph-name="oe" unicode="&#x153;" horiz-adv-x="748" 
d="M699 51v-51h-347c-17 -3 -36 -3 -55 -3c-155 0 -259 106 -259 283c0 178 104 283 260 283c15 0 36 0 55 -3h341v-51h-290v-193h226v-50h-226v-215h295zM298 47c19 0 38 2 54 4v458c-16 3 -35 4 -54 4c-128 0 -205 -86 -205 -232c0 -151 79 -234 205 -234z" />
    <glyph glyph-name="p" unicode="p" horiz-adv-x="449" 
d="M75 560h149c129 0 199 -63 199 -168c0 -106 -71 -167 -200 -167h-94v-225h-54v560zM129 272h96c97 0 144 44 144 119c0 76 -48 119 -144 119h-96v-238z" />
    <glyph glyph-name="thorn" unicode="&#xfe;" horiz-adv-x="421" 
d="M129 436h72c124 0 195 -46 195 -152c0 -104 -71 -150 -194 -150h-73v-134h-54v560h54v-124zM129 181h73c93 0 140 26 140 102s-49 103 -140 103h-73v-205z" />
    <glyph glyph-name="q" unicode="q" horiz-adv-x="589" 
d="M551 280c0 -170 -95 -278 -230 -290v-106h-54v106c-134 13 -229 120 -229 290c0 181 108 290 256 290c149 0 257 -109 257 -290zM294 39c117 0 202 88 202 241s-85 240 -202 240c-118 0 -201 -87 -201 -240c0 -154 83 -241 201 -241z" />
    <glyph glyph-name="q.ss01" horiz-adv-x="606" 
d="M568 0h-275c-147 0 -255 109 -255 285c0 179 109 284 256 284s255 -107 255 -282c0 -121 -56 -205 -137 -239l1 -2c2 0 39 5 94 5h61v-51zM93 285c0 -147 84 -234 201 -234c118 0 201 89 201 234c0 149 -84 233 -201 233c-118 0 -201 -86 -201 -233z" />
    <glyph glyph-name="r" unicode="r" horiz-adv-x="476" 
d="M377 0l-128 236c-22 -2 -45 -2 -57 -2h-63v-234h-54v560h152c126 0 198 -58 198 -162c0 -87 -51 -137 -124 -152l134 -246h-58zM129 280h99c91 0 143 36 143 115c0 82 -55 115 -145 115h-97v-230z" />
    <glyph glyph-name="racute" unicode="&#x155;" horiz-adv-x="476" 
d="M246 614h-53l92 153l49 -14zM377 0l-128 236c-22 -2 -45 -2 -57 -2h-63v-234h-54v560h152c126 0 198 -58 198 -162c0 -87 -51 -137 -124 -152l134 -246h-58zM129 280h99c91 0 143 36 143 115c0 82 -55 115 -145 115h-97v-230z" />
    <glyph glyph-name="rcaron" unicode="&#x159;" horiz-adv-x="476" 
d="M111 732l29 31l95 -87l96 87l29 -31l-125 -113zM377 0l-128 236c-22 -2 -45 -2 -57 -2h-63v-234h-54v560h152c126 0 198 -58 198 -162c0 -87 -51 -137 -124 -152l134 -246h-58zM129 280h99c91 0 143 36 143 115c0 82 -55 115 -145 115h-97v-230z" />
    <glyph glyph-name="rcommaaccent" unicode="&#x157;" horiz-adv-x="476" 
d="M377 0l-128 236c-22 -2 -45 -2 -57 -2h-63v-234h-54v560h152c126 0 198 -58 198 -162c0 -87 -51 -137 -124 -152l134 -246h-58zM129 280h99c91 0 143 36 143 115c0 82 -55 115 -145 115h-97v-230zM247 -97c-22 -5 -41 8 -41 30s14 36 40 36s42 -16 42 -48
c0 -40 -25 -83 -71 -101l-20 23c26 10 47 38 50 60z" />
    <glyph glyph-name="s" unicode="s" horiz-adv-x="444" 
d="M34 134l49 14c7 -71 62 -112 146 -112c78 0 127 35 127 105c0 90 -80 106 -163 129c-63 20 -147 48 -147 155c0 94 66 145 175 145c100 0 168 -43 185 -134l-48 -14c-13 64 -51 102 -134 102c-78 0 -124 -34 -124 -98c0 -74 62 -94 141 -116c68 -21 170 -49 170 -169
c0 -101 -71 -152 -182 -152c-80 0 -179 27 -195 145z" />
    <glyph glyph-name="sacute" unicode="&#x15b;" horiz-adv-x="444" 
d="M237 614h-53l92 153l49 -14zM34 134l49 14c7 -71 62 -112 146 -112c78 0 127 35 127 105c0 90 -80 106 -163 129c-63 20 -147 48 -147 155c0 94 66 145 175 145c100 0 168 -43 185 -134l-48 -14c-13 64 -51 102 -134 102c-78 0 -124 -34 -124 -98c0 -74 62 -94 141 -116
c68 -21 170 -49 170 -169c0 -101 -71 -152 -182 -152c-80 0 -179 27 -195 145z" />
    <glyph glyph-name="sacute.loclPLK" horiz-adv-x="444" 
d="M243 614h-49l51 166l47 -11zM34 134l49 14c7 -71 62 -112 146 -112c78 0 127 35 127 105c0 90 -80 106 -163 129c-63 20 -147 48 -147 155c0 94 66 145 175 145c100 0 168 -43 185 -134l-48 -14c-13 64 -51 102 -134 102c-78 0 -124 -34 -124 -98c0 -74 62 -94 141 -116
c68 -21 170 -49 170 -169c0 -101 -71 -152 -182 -152c-80 0 -179 27 -195 145z" />
    <glyph glyph-name="scaron" unicode="&#x161;" horiz-adv-x="444" 
d="M102 732l29 31l95 -87l96 87l29 -31l-125 -113zM34 134l49 14c7 -71 62 -112 146 -112c78 0 127 35 127 105c0 90 -80 106 -163 129c-63 20 -147 48 -147 155c0 94 66 145 175 145c100 0 168 -43 185 -134l-48 -14c-13 64 -51 102 -134 102c-78 0 -124 -34 -124 -98
c0 -74 62 -94 141 -116c68 -21 170 -49 170 -169c0 -101 -71 -152 -182 -152c-80 0 -179 27 -195 145z" />
    <glyph glyph-name="scedilla" unicode="&#x15f;" horiz-adv-x="444" 
d="M411 141c0 -98 -67 -149 -171 -152v-2c57 -5 97 -27 97 -79c0 -49 -36 -79 -102 -79c-33 0 -60 7 -73 16v42c14 -9 37 -15 65 -15c41 0 64 12 64 42c0 34 -33 46 -96 47v30c-72 7 -147 42 -161 143l49 14c7 -71 62 -112 146 -112c78 0 127 35 127 105
c0 90 -80 106 -163 129c-63 20 -147 48 -147 155c0 94 66 145 175 145c100 0 168 -43 185 -134l-48 -14c-13 64 -51 102 -134 102c-78 0 -124 -34 -124 -98c0 -74 62 -94 141 -116c68 -21 170 -49 170 -169z" />
    <glyph glyph-name="scircumflex" unicode="&#x15d;" horiz-adv-x="444" 
d="M348 652l-29 -32l-94 87l-96 -87l-29 32l125 113zM34 134l49 14c7 -71 62 -112 146 -112c78 0 127 35 127 105c0 90 -80 106 -163 129c-63 20 -147 48 -147 155c0 94 66 145 175 145c100 0 168 -43 185 -134l-48 -14c-13 64 -51 102 -134 102c-78 0 -124 -34 -124 -98
c0 -74 62 -94 141 -116c68 -21 170 -49 170 -169c0 -101 -71 -152 -182 -152c-80 0 -179 27 -195 145z" />
    <glyph glyph-name="scommaaccent" unicode="&#x219;" horiz-adv-x="444" 
d="M34 134l49 14c7 -71 62 -112 146 -112c78 0 127 35 127 105c0 90 -80 106 -163 129c-63 20 -147 48 -147 155c0 94 66 145 175 145c100 0 168 -43 185 -134l-48 -14c-13 64 -51 102 -134 102c-78 0 -124 -34 -124 -98c0 -74 62 -94 141 -116c68 -21 170 -49 170 -169
c0 -101 -71 -152 -182 -152c-80 0 -179 27 -195 145zM225 -97c-23 -5 -42 8 -42 30s14 36 40 36c27 0 42 -16 42 -48c0 -40 -25 -83 -71 -101l-19 23c25 10 47 38 50 60z" />
    <glyph glyph-name="germandbls" unicode="&#xdf;" horiz-adv-x="524" 
d="M321 335h6c92 0 168 -61 168 -172c0 -102 -65 -175 -170 -175c-58 0 -101 20 -126 47l25 39c21 -22 51 -39 96 -39c75 0 122 51 122 126c0 79 -49 128 -126 128h-51v49l94 170l-1 1h-55h-174v-509h-54v560h370l-124 -223v-2z" />
    <glyph glyph-name="germandbls.calt" horiz-adv-x="606" 
d="M365 418h6c115 0 205 -73 205 -211c0 -126 -77 -219 -207 -219c-65 0 -117 24 -152 58l26 43c32 -31 73 -48 120 -48c96 0 157 65 157 163c0 103 -63 162 -160 162h-57v53l121 227l-1 2c-2 0 -30 -1 -73 -1h-219v-647h-56v700h439l-151 -280z" />
    <glyph glyph-name="t" unicode="t" horiz-adv-x="481" 
d="M448 509h-181v-509h-54v509h-180v51h415v-51z" />
    <glyph glyph-name="tbar" unicode="&#x167;" horiz-adv-x="481" 
d="M267 509v-194h102v-48h-102v-267h-54v267h-101v48h101v194h-180v51h415v-51h-181z" />
    <glyph glyph-name="tcaron" unicode="&#x165;" horiz-adv-x="481" 
d="M116 732l29 31l96 -87l95 87l29 -31l-124 -113zM448 509h-181v-509h-54v509h-180v51h415v-51z" />
    <glyph glyph-name="tcedilla" unicode="&#x163;" horiz-adv-x="481" 
d="M259 0v-13c56 -5 97 -27 97 -79c0 -49 -37 -79 -103 -79c-33 0 -59 7 -73 16v42c14 -9 37 -15 66 -15c40 0 64 12 64 42c0 34 -33 46 -97 47v51v497h-180v51h415v-51h-181v-509h-8z" />
    <glyph glyph-name="uni021B" unicode="&#x21b;" horiz-adv-x="481" 
d="M448 509h-181v-509h-54v509h-180v51h415v-51zM243 -97c-22 -5 -41 8 -41 30s14 36 40 36s42 -16 42 -48c0 -40 -25 -83 -71 -101l-19 23c25 10 46 38 49 60z" />
    <glyph glyph-name="u" unicode="u" horiz-adv-x="542" 
d="M476 560v-350c0 -147 -71 -221 -206 -221c-134 0 -205 74 -205 221v350h55v-355c0 -109 47 -166 151 -166s152 57 152 166v355h53z" />
    <glyph glyph-name="uacute" unicode="&#xfa;" horiz-adv-x="542" 
d="M285 614h-54l93 153l48 -14zM476 560v-350c0 -147 -71 -221 -206 -221c-134 0 -205 74 -205 221v350h55v-355c0 -109 47 -166 151 -166s152 57 152 166v355h53z" />
    <glyph glyph-name="ubreve" unicode="&#x16d;" horiz-adv-x="542" 
d="M140 725h44c3 -42 31 -79 89 -79c60 0 88 40 89 79h45c-3 -66 -53 -121 -134 -121c-79 0 -130 53 -133 121zM476 560v-350c0 -147 -71 -221 -206 -221c-134 0 -205 74 -205 221v350h55v-355c0 -109 47 -166 151 -166s152 57 152 166v355h53z" />
    <glyph glyph-name="ucircumflex" unicode="&#xfb;" horiz-adv-x="542" 
d="M396 652l-29 -32l-95 87l-95 -87l-29 32l124 113zM476 560v-350c0 -147 -71 -221 -206 -221c-134 0 -205 74 -205 221v350h55v-355c0 -109 47 -166 151 -166s152 57 152 166v355h53z" />
    <glyph glyph-name="udieresis" unicode="&#xfc;" horiz-adv-x="542" 
d="M190 639c-20 0 -36 17 -36 39c0 21 16 38 36 38c21 0 36 -17 36 -38c0 -22 -15 -39 -36 -39zM356 639c-21 0 -37 17 -37 39c0 21 16 38 37 38s36 -17 36 -38c0 -22 -15 -39 -36 -39zM476 560v-350c0 -147 -71 -221 -206 -221c-134 0 -205 74 -205 221v350h55v-355
c0 -109 47 -166 151 -166s152 57 152 166v355h53z" />
    <glyph glyph-name="ugrave" unicode="&#xf9;" horiz-adv-x="542" 
d="M217 767l93 -153h-54l-87 139zM476 560v-350c0 -147 -71 -221 -206 -221c-134 0 -205 74 -205 221v350h55v-355c0 -109 47 -166 151 -166s152 57 152 166v355h53z" />
    <glyph glyph-name="uhungarumlaut" unicode="&#x171;" horiz-adv-x="542" 
d="M210 614h-54l93 153l48 -14zM361 614h-53l93 153l48 -14zM476 560v-350c0 -147 -71 -221 -206 -221c-134 0 -205 74 -205 221v350h55v-355c0 -109 47 -166 151 -166s152 57 152 166v355h53z" />
    <glyph glyph-name="umacron" unicode="&#x16b;" horiz-adv-x="542" 
d="M403 641h-260v49h260v-49zM476 560v-350c0 -147 -71 -221 -206 -221c-134 0 -205 74 -205 221v350h55v-355c0 -109 47 -166 151 -166s152 57 152 166v355h53z" />
    <glyph glyph-name="uogonek" unicode="&#x173;" horiz-adv-x="535" 
d="M476 560v-350c0 -133 -58 -206 -168 -219c-39 -11 -63 -27 -63 -62c0 -34 23 -54 68 -54c27 0 54 5 74 17v-47c-18 -10 -50 -16 -78 -16c-70 0 -113 41 -113 94c0 28 10 51 31 69c-106 15 -162 87 -162 218v350h55v-355c0 -109 47 -166 151 -166s152 57 152 166v355h53z
" />
    <glyph glyph-name="uring" unicode="&#x16f;" horiz-adv-x="542" 
d="M273 601c-53 0 -88 36 -88 86s35 85 88 85s87 -35 87 -85s-34 -86 -87 -86zM273 637c29 0 48 20 48 50s-19 49 -48 49s-48 -19 -48 -49s19 -50 48 -50zM476 560v-350c0 -147 -71 -221 -206 -221c-134 0 -205 74 -205 221v350h55v-355c0 -109 47 -166 151 -166
s152 57 152 166v355h53z" />
    <glyph glyph-name="v" unicode="v" horiz-adv-x="535" 
d="M299 0h-64l-215 560h59l111 -292c55 -144 77 -207 78 -209h1c1 2 22 62 77 207l113 294h56z" />
    <glyph glyph-name="w" unicode="w" horiz-adv-x="729" 
d="M482 0l-66 233c-33 117 -50 183 -51 184h-1c-1 -1 -19 -68 -52 -184l-66 -233h-58l-165 560h57l78 -267c39 -131 61 -227 62 -228h1c1 1 24 96 55 202l62 216h57l62 -216c30 -106 52 -201 53 -202h2c1 1 24 96 62 228l79 267h53l-165 -560h-59z" />
    <glyph glyph-name="wacute" unicode="&#x1e83;" horiz-adv-x="729" 
d="M381 614h-53l92 153l49 -14zM482 0l-66 233c-33 117 -50 183 -51 184h-1c-1 -1 -19 -68 -52 -184l-66 -233h-58l-165 560h57l78 -267c39 -131 61 -227 62 -228h1c1 1 24 96 55 202l62 216h57l62 -216c30 -106 52 -201 53 -202h2c1 1 24 96 62 228l79 267h53l-165 -560
h-59z" />
    <glyph glyph-name="wcircumflex" unicode="&#x175;" horiz-adv-x="729" 
d="M492 652l-29 -32l-95 87l-95 -87l-29 32l124 113zM482 0l-66 233c-33 117 -50 183 -51 184h-1c-1 -1 -19 -68 -52 -184l-66 -233h-58l-165 560h57l78 -267c39 -131 61 -227 62 -228h1c1 1 24 96 55 202l62 216h57l62 -216c30 -106 52 -201 53 -202h2c1 1 24 96 62 228
l79 267h53l-165 -560h-59z" />
    <glyph glyph-name="wdieresis" unicode="&#x1e85;" horiz-adv-x="729" 
d="M286 639c-20 0 -36 17 -36 39c0 21 16 38 36 38c21 0 37 -17 37 -38c0 -22 -16 -39 -37 -39zM452 639c-21 0 -37 17 -37 39c0 21 16 38 37 38s37 -17 37 -38c0 -22 -16 -39 -37 -39zM482 0l-66 233c-33 117 -50 183 -51 184h-1c-1 -1 -19 -68 -52 -184l-66 -233h-58
l-165 560h57l78 -267c39 -131 61 -227 62 -228h1c1 1 24 96 55 202l62 216h57l62 -216c30 -106 52 -201 53 -202h2c1 1 24 96 62 228l79 267h53l-165 -560h-59z" />
    <glyph glyph-name="wgrave" unicode="&#x1e81;" horiz-adv-x="729" 
d="M313 767l93 -153h-53l-88 139zM482 0l-66 233c-33 117 -50 183 -51 184h-1c-1 -1 -19 -68 -52 -184l-66 -233h-58l-165 560h57l78 -267c39 -131 61 -227 62 -228h1c1 1 24 96 55 202l62 216h57l62 -216c30 -106 52 -201 53 -202h2c1 1 24 96 62 228l79 267h53l-165 -560
h-59z" />
    <glyph glyph-name="x" unicode="x" horiz-adv-x="506" 
d="M423 0l-98 142c-52 76 -74 111 -75 111h-1c-1 0 -23 -35 -75 -113l-94 -140h-60l196 292l-179 268h63l79 -118c52 -77 75 -113 76 -113h1c1 0 26 38 78 117l76 114h59l-182 -270l199 -290h-63z" />
    <glyph glyph-name="y" unicode="y" horiz-adv-x="488" 
d="M271 0h-54v236l-197 324h61l86 -140c42 -68 77 -130 78 -131h2c1 1 36 63 79 132l85 139h57l-197 -324v-236z" />
    <glyph glyph-name="y.ss05" horiz-adv-x="488" 
d="M289 265h115v-50h-133v-215h-54v215h-129v50h111l-179 295h61l86 -140c42 -68 77 -130 78 -131h2c1 1 36 63 79 132l85 139h56z" />
    <glyph glyph-name="yacute" unicode="&#xfd;" horiz-adv-x="488" 
d="M260 614h-53l92 153l49 -14zM271 0h-54v236l-197 324h61l86 -140c42 -68 77 -130 78 -131h2c1 1 36 63 79 132l85 139h57l-197 -324v-236z" />
    <glyph glyph-name="yacute.ss05" horiz-adv-x="488" 
d="M261 614h-54l93 153l48 -14zM289 265h115v-50h-133v-215h-54v215h-129v50h111l-179 295h61l86 -140c42 -68 77 -130 78 -131h2c1 1 36 63 79 132l85 139h56z" />
    <glyph glyph-name="ycircumflex" unicode="&#x177;" horiz-adv-x="488" 
d="M371 652l-29 -32l-95 87l-95 -87l-29 32l124 113zM271 0h-54v236l-197 324h61l86 -140c42 -68 77 -130 78 -131h2c1 1 36 63 79 132l85 139h57l-197 -324v-236z" />
    <glyph glyph-name="ycircumflex.ss05" horiz-adv-x="488" 
d="M153 620l-29 32l124 113l124 -113l-30 -32l-94 87zM289 265h115v-50h-133v-215h-54v215h-129v50h111l-179 295h61l86 -140c42 -68 77 -130 78 -131h2c1 1 36 63 79 132l85 139h56z" />
    <glyph glyph-name="ydieresis" unicode="&#xff;" horiz-adv-x="488" 
d="M165 639c-20 0 -36 17 -36 39c0 21 16 38 36 38c21 0 37 -17 37 -38c0 -22 -16 -39 -37 -39zM331 639c-21 0 -36 17 -36 39c0 21 15 38 36 38s37 -17 37 -38c0 -22 -16 -39 -37 -39zM271 0h-54v236l-197 324h61l86 -140c42 -68 77 -130 78 -131h2c1 1 36 63 79 132
l85 139h57l-197 -324v-236z" />
    <glyph glyph-name="ydieresis.ss05" horiz-adv-x="488" 
d="M166 639c-21 0 -36 17 -36 39c0 21 16 38 36 38c21 0 36 -17 36 -38c0 -22 -16 -39 -36 -39zM332 639c-21 0 -37 17 -37 39c0 21 16 38 37 38c20 0 36 -17 36 -38c0 -22 -16 -39 -36 -39zM289 265h115v-50h-133v-215h-54v215h-129v50h111l-179 295h61l86 -140
c42 -68 77 -130 78 -131h2c1 1 36 63 79 132l85 139h56z" />
    <glyph glyph-name="ygrave" unicode="&#x1ef3;" horiz-adv-x="488" 
d="M192 767l93 -153h-53l-88 139zM271 0h-54v236l-197 324h61l86 -140c42 -68 77 -130 78 -131h2c1 1 36 63 79 132l85 139h57l-197 -324v-236z" />
    <glyph glyph-name="ygrave.ss05" horiz-adv-x="488" 
d="M232 614l-88 139l49 14l93 -153h-54zM289 265h115v-50h-133v-215h-54v215h-129v50h111l-179 295h61l86 -140c42 -68 77 -130 78 -131h2c1 1 36 63 79 132l85 139h56z" />
    <glyph glyph-name="z" unicode="z" horiz-adv-x="493" 
d="M453 508l-253 -335l-94 -121l1 -2s25 1 66 1h280v-51h-413v52l262 345c67 88 86 110 86 111l-1 1h-66h-273v51h405v-52z" />
    <glyph glyph-name="zacute" unicode="&#x17a;" horiz-adv-x="493" 
d="M259 614h-53l92 153l49 -14zM453 508l-253 -335l-94 -121l1 -2s25 1 66 1h280v-51h-413v52l262 345c67 88 86 110 86 111l-1 1h-66h-273v51h405v-52z" />
    <glyph glyph-name="zacute.loclPLK" horiz-adv-x="493" 
d="M265 614h-50l52 166l47 -11zM453 508l-253 -335l-94 -121l1 -2s25 1 66 1h280v-51h-413v52l262 345c67 88 86 110 86 111l-1 1h-66h-273v51h405v-52z" />
    <glyph glyph-name="zcaron" unicode="&#x17e;" horiz-adv-x="493" 
d="M124 732l28 31l96 -87l96 87l28 -31l-124 -113zM453 508l-253 -335l-94 -121l1 -2s25 1 66 1h280v-51h-413v52l262 345c67 88 86 110 86 111l-1 1h-66h-273v51h405v-52z" />
    <glyph glyph-name="zdotaccent" unicode="&#x17c;" horiz-adv-x="493" 
d="M247 639c-21 0 -37 17 -37 39s16 38 37 38s36 -16 36 -38s-15 -39 -36 -39zM453 508l-253 -335l-94 -121l1 -2s25 1 66 1h280v-51h-413v52l262 345c67 88 86 110 86 111l-1 1h-66h-273v51h405v-52z" />
    <glyph glyph-name="Iacute.ss03_J.loclNLD" horiz-adv-x="861" 
d="M222 754h-54l93 153l49 -14zM778 754h-54l93 153l48 -14zM237 52h120v-52h-295v52h119v596h-119v52h295v-52h-120v-596zM793 700v-454c0 -166 -72 -258 -209 -258c-70 0 -121 27 -159 79l34 42c31 -45 71 -67 125 -67c107 0 152 73 152 204v454h57z" />
    <glyph glyph-name="Iacute.ss03_J.ss04.loclNLD" horiz-adv-x="861" 
d="M222 754h-54l93 153l49 -14zM646 754h-53l93 153l48 -14zM62 700h295v-52h-120v-596h120v-52h-295v52h119v596h-119v52zM793 700v-454c0 -166 -72 -258 -209 -258c-70 0 -121 27 -159 79l34 42c30 -44 71 -67 125 -67c107 0 152 73 152 204v401h-261v53h318z" />
    <glyph glyph-name="uni00CD004A.ss04.loclNLD" horiz-adv-x="649" 
d="M155 907l48 -14l-88 -139h-53zM434 754h-53l93 153l48 -14zM75 700h56v-700h-56v700zM580 700v-454c0 -166 -71 -258 -208 -258c-70 0 -121 27 -159 79l34 42c30 -44 71 -67 125 -67c107 0 152 73 152 204v401h-262v53h318z" />
    <glyph glyph-name="iacute.ss03_j.loclNLD" horiz-adv-x="753" 
d="M199 614h-54l93 153l48 -14zM669 614h-54l93 153l48 -14zM215 51h98v-51h-251v51h99v458h-99v51h251v-51h-98v-458zM684 560v-362c0 -135 -61 -209 -175 -209c-60 0 -102 20 -134 61l33 38c24 -32 56 -48 101 -48c85 0 121 56 121 158v362h54z" />
    <glyph glyph-name="iacute.ss03_j.ss04.loclNLD" horiz-adv-x="759" 
d="M199 614h-54l93 153l48 -14zM574 614h-53l92 153l49 -14zM62 560h251v-51h-98v-458h98v-51h-251v51h99v458h-99v51zM690 560v-362c0 -135 -61 -209 -175 -209c-60 0 -102 21 -134 61l33 38c24 -32 56 -48 101 -48c85 0 121 56 121 158v311h-205v51h259z" />
    <glyph glyph-name="uni00ED006A.ss04.loclNLD" horiz-adv-x="588" 
d="M154 767l49 -14l-88 -139h-53zM404 614h-54l93 153l48 -14zM75 560h54v-560h-54v560zM519 560v-362c0 -135 -60 -209 -174 -209c-60 0 -103 21 -134 61l32 38c25 -32 57 -48 101 -48c86 0 122 56 122 158v311h-206v51h259z" />
    <glyph glyph-name="ordfeminine" unicode="&#xaa;" horiz-adv-x="359" 
d="M76 235h-41l122 325h45l122 -325h-42l-31 83h-144zM180 514h-2c-1 0 -13 -40 -32 -90l-26 -71h119l-27 71c-19 50 -31 90 -32 90zM324 166v-42h-289v42h289z" />
    <glyph glyph-name="ordfeminine.case" horiz-adv-x="359" 
d="M76 375h-41l122 325h45l122 -325h-42l-31 83h-144zM180 654h-2c-1 0 -13 -40 -32 -90l-26 -71h119l-27 71c-19 50 -31 90 -32 90zM324 306v-42h-289v42h289z" />
    <glyph glyph-name="ordmasculine" unicode="&#xba;" horiz-adv-x="382" 
d="M35 397c0 106 66 173 156 173s156 -69 156 -173c0 -105 -67 -173 -156 -173c-91 0 -156 69 -156 173zM76 397c0 -82 47 -133 115 -133c69 0 114 53 114 133c0 82 -46 133 -114 133c-69 0 -115 -52 -115 -133zM338 124h-293v41h293v-41z" />
    <glyph glyph-name="ordmasculine.case" horiz-adv-x="382" 
d="M35 537c0 106 66 173 156 173s156 -69 156 -173c0 -105 -67 -173 -156 -173c-91 0 -156 69 -156 173zM76 537c0 -82 47 -133 115 -133c69 0 114 53 114 133c0 82 -46 133 -114 133c-69 0 -115 -52 -115 -133zM338 264h-293v41h293v-41z" />
    <glyph glyph-name="zero" unicode="0" horiz-adv-x="473" 
d="M236 570c131 0 198 -100 198 -290s-67 -291 -198 -291s-198 101 -198 291s67 290 198 290zM236 520c-101 0 -143 -84 -143 -240c0 -157 42 -240 143 -240s144 83 144 240c0 156 -43 240 -144 240z" />
    <glyph glyph-name="one" unicode="1" horiz-adv-x="305" 
d="M173 0v401c0 52 4 98 3 98h-2c-1 0 -27 -32 -39 -43l-64 -66l-33 37l136 133h53v-560h-54z" />
    <glyph glyph-name="two" unicode="2" horiz-adv-x="447" 
d="M47 0v61l185 164c71 65 114 115 114 180c0 67 -42 117 -127 117c-88 0 -121 -56 -125 -111l-50 13c11 105 90 146 180 146c110 0 176 -62 176 -164c0 -83 -45 -136 -132 -212l-159 -143l1 -2c3 1 32 1 76 1h216v-50h-355z" />
    <glyph glyph-name="three" unicode="3" horiz-adv-x="447" 
d="M298 294v-3c58 -7 111 -52 111 -139c0 -99 -72 -163 -181 -163c-107 0 -177 63 -189 154l47 14c11 -74 63 -119 142 -119c87 0 127 53 127 120c0 74 -50 112 -132 112h-46v44h45c79 0 127 37 127 105c0 67 -44 104 -122 104c-97 0 -123 -57 -129 -112l-49 13
c13 104 89 146 183 146c116 0 170 -60 170 -143c0 -81 -52 -124 -104 -133z" />
    <glyph glyph-name="four" unicode="4" horiz-adv-x="472" 
d="M351 0h-54v154h-264v51l240 355h78v-358h76v-48h-76v-154zM297 202v185c0 63 1 125 1 126h-2l-212 -309l2 -2h90h121z" />
    <glyph glyph-name="five" unicode="5" horiz-adv-x="461" 
d="M111 307l2 -1c15 22 59 55 127 55c107 0 176 -72 176 -185c0 -115 -74 -187 -184 -187c-100 0 -171 59 -188 156l47 12c13 -75 65 -120 139 -120c80 0 134 53 134 140c0 88 -53 139 -137 139c-71 0 -109 -37 -123 -71l-45 12l47 303h278v-51h-240l-17 -111
c-7 -50 -16 -89 -16 -91z" />
    <glyph glyph-name="six" unicode="6" horiz-adv-x="457" 
d="M122 312l2 -1c24 29 62 49 117 49c106 0 178 -75 178 -181c0 -114 -78 -190 -191 -190c-112 0 -189 73 -189 195c0 73 23 128 67 189l137 187h59zM229 38c83 0 137 55 137 142c1 84 -51 139 -137 139s-137 -54 -137 -140c0 -87 53 -141 137 -141z" />
    <glyph glyph-name="seven" unicode="7" horiz-adv-x="423" 
d="M402 515l-267 -515h-56l225 435c20 39 40 72 40 73l-1 2s-34 -1 -72 -1h-241v51h372v-45z" />
    <glyph glyph-name="eight" unicode="8" horiz-adv-x="463" 
d="M38 149c0 92 68 138 125 144v2c-31 6 -101 45 -101 129c0 80 61 146 170 146c107 0 169 -66 169 -145c0 -85 -70 -124 -100 -130v-2c55 -6 124 -51 124 -144c0 -95 -74 -160 -193 -160c-118 0 -194 65 -194 160zM111 422c0 -65 51 -106 121 -105c74 1 120 45 120 105
c0 61 -45 105 -120 105c-78 0 -121 -45 -121 -105zM91 152c0 -73 54 -118 141 -118c86 0 140 45 140 118s-54 116 -140 116c-88 0 -141 -43 -141 -116z" />
    <glyph glyph-name="nine" unicode="9" horiz-adv-x="464" 
d="M340 245l-2 1c-29 -33 -68 -51 -121 -51c-110 0 -178 77 -178 185c0 116 78 190 192 190c110 0 192 -68 192 -193c0 -84 -35 -147 -103 -236l-107 -141h-61zM230 522c-76 0 -139 -46 -139 -143c0 -99 63 -142 139 -142c80 0 140 48 140 143c0 97 -63 142 -140 142z" />
    <glyph glyph-name="zero.slsh.dnom" horiz-adv-x="322" 
d="M161 400c87 0 135 -68 135 -204s-48 -204 -135 -204c-86 0 -134 68 -134 204s48 204 134 204zM161 358c-58 0 -90 -50 -90 -162c0 -40 4 -72 12 -97l136 233c-14 18 -34 26 -58 26zM161 34c59 0 91 51 91 162c0 41 -4 73 -12 98l-137 -234c15 -18 34 -26 58 -26z" />
    <glyph glyph-name="zero.lf" horiz-adv-x="568" 
d="M284 713c186 0 246 -167 246 -363c0 -198 -60 -363 -246 -363s-246 165 -246 363c0 196 60 363 246 363zM284 659c-151 0 -189 -141 -189 -309c0 -169 38 -309 189 -309s189 140 189 309c0 168 -38 309 -189 309z" />
    <glyph glyph-name="one.lf" horiz-adv-x="351" 
d="M209 0v508c0 70 4 127 3 127h-2c-1 0 -33 -37 -49 -52l-86 -88l-34 38l169 167h55v-700h-56z" />
    <glyph glyph-name="two.lf" horiz-adv-x="532" 
d="M48 0v64l233 216c95 90 146 144 146 228c0 88 -56 154 -162 154c-122 0 -163 -87 -169 -142l-51 14c20 132 115 179 222 179c137 0 217 -80 217 -204c0 -95 -45 -156 -166 -266l-204 -189l1 -2c2 0 37 1 94 1h277v-53h-438z" />
    <glyph glyph-name="three.lf" horiz-adv-x="546" 
d="M362 371v-3c73 -10 139 -65 139 -178c0 -121 -89 -202 -222 -202c-132 0 -219 78 -234 192l51 14c12 -89 78 -153 183 -153c110 0 165 71 165 154c0 99 -66 150 -172 150h-57v49h56c102 0 166 46 166 135c0 83 -57 134 -157 134c-131 0 -162 -87 -171 -143l-53 14
c14 88 73 179 224 179c146 0 213 -80 213 -179c0 -96 -62 -152 -131 -163z" />
    <glyph glyph-name="four.lf" horiz-adv-x="560" 
d="M422 0h-56v196h-332v53l306 451h82v-453h95v-51h-95v-196zM366 247v249c0 79 1 150 1 151h-2l-276 -398l1 -2h119h157z" />
    <glyph glyph-name="five.lf" horiz-adv-x="540" 
d="M119 383l2 -1c17 25 66 71 157 71c127 0 216 -92 216 -231c0 -137 -89 -234 -224 -234c-119 0 -206 77 -225 196l52 14c14 -96 81 -158 172 -158c103 0 169 77 169 185c0 107 -65 181 -173 181c-87 0 -135 -49 -154 -95l-49 13l58 376h347v-53h-305l-21 -142
c-11 -72 -22 -119 -22 -122z" />
    <glyph glyph-name="six.lf" horiz-adv-x="548" 
d="M133 391l3 -1c30 37 79 64 150 64c134 0 222 -96 222 -228c0 -141 -95 -237 -235 -237c-138 0 -233 93 -233 242c0 91 30 158 84 234l169 235h64zM274 41c107 0 178 73 178 185c1 109 -66 182 -176 182c-111 0 -179 -73 -179 -182c0 -112 69 -185 177 -185z" />
    <glyph glyph-name="seven.lf" horiz-adv-x="507" 
d="M485 651l-303 -651h-61l258 559c22 45 45 86 45 87l-1 2c-1 0 -48 -1 -91 -1h-298v53h451v-49z" />
    <glyph glyph-name="eight.lf" horiz-adv-x="566" 
d="M45 187c0 117 85 176 155 183v3c-38 6 -126 54 -126 160c0 102 76 180 209 180c134 0 209 -80 209 -180c0 -107 -89 -154 -125 -160v-3c68 -7 155 -65 155 -183c0 -116 -92 -199 -238 -199s-239 82 -239 199zM127 530c0 -81 65 -135 156 -135c95 1 156 57 156 136
c0 80 -57 136 -156 136s-156 -56 -156 -137zM100 191c0 -93 71 -154 183 -154s183 61 183 154c0 95 -70 153 -183 153s-183 -59 -183 -153z" />
    <glyph glyph-name="nine.lf" horiz-adv-x="558" 
d="M419 309l-2 2c-37 -42 -87 -65 -155 -65c-138 0 -223 95 -223 230c0 144 96 237 237 237c137 0 237 -86 237 -240c0 -102 -42 -181 -129 -294l-136 -179h-64zM276 661c-99 0 -181 -60 -181 -186s82 -183 179 -183c104 0 183 63 183 185c0 125 -83 184 -181 184z" />
    <glyph glyph-name="zero.slsh.lf" horiz-adv-x="568" 
d="M284 713c186 0 246 -167 246 -363c0 -198 -60 -363 -246 -363s-246 165 -246 363c0 196 60 363 246 363zM284 659c-151 0 -189 -141 -189 -309c0 -85 10 -163 39 -220l276 476c-28 34 -69 53 -126 53zM284 41c151 0 189 140 189 309c0 81 -8 155 -34 211l-276 -473
c29 -30 68 -47 121 -47z" />
    <glyph glyph-name="zero.slsh.numr" horiz-adv-x="322" 
d="M161 708c87 0 135 -68 135 -204s-48 -204 -135 -204c-86 0 -134 68 -134 204s48 204 134 204zM161 666c-58 0 -90 -50 -90 -162c0 -40 4 -72 12 -97l136 234c-14 17 -34 25 -58 25zM161 342c59 0 91 51 91 162c0 41 -4 73 -12 98l-137 -234c15 -17 34 -26 58 -26z" />
    <glyph glyph-name="zero.slsh" horiz-adv-x="473" 
d="M236 570c131 0 198 -100 198 -290s-67 -291 -198 -291s-198 101 -198 291s67 290 198 290zM236 520c-101 0 -143 -84 -143 -240c0 -70 8 -125 26 -165l212 364c-23 27 -54 41 -95 41zM236 40c101 0 144 83 144 240c0 62 -7 113 -21 152l-210 -360c22 -21 51 -32 87 -32z
" />
    <glyph glyph-name="zero.tf.slsh" 
d="M312 714c186 0 247 -164 247 -364c0 -202 -61 -364 -247 -364c-187 0 -248 162 -248 364c0 200 61 364 248 364zM312 661c-151 0 -192 -141 -192 -311c0 -82 10 -157 36 -213l279 474c-29 32 -69 50 -123 50zM312 39c151 0 191 140 191 311c0 85 -10 163 -39 219
l-280 -476c30 -34 71 -54 128 -54z" />
    <glyph glyph-name="zero.sups" horiz-adv-x="322" 
d="M161 462c-86 0 -134 68 -134 204s48 204 134 204c87 0 135 -68 135 -204s-48 -204 -135 -204zM161 504c59 0 91 51 91 162c0 112 -32 162 -91 162c-58 0 -90 -50 -90 -162c0 -111 32 -162 90 -162z" />
    <glyph glyph-name="four.sups" horiz-adv-x="322" 
d="M239 471h-42v102h-178v42l163 247h57v-249h65v-40h-65v-102zM197 613v93c0 65 4 111 4 113h-3c-1 0 -134 -203 -135 -204l2 -3c1 0 27 1 59 1h73z" />
    <glyph glyph-name="five.sups" horiz-adv-x="322" 
d="M79 689l3 -1c13 18 42 38 85 38c74 0 124 -52 124 -131s-51 -132 -128 -132c-81 0 -122 51 -131 117l40 10c5 -48 33 -89 90 -89c53 0 87 37 87 95c0 57 -33 94 -87 94c-47 0 -72 -24 -82 -46l-38 8l31 210h202v-40h-170l-12 -71c-6 -39 -14 -60 -14 -62z" />
    <glyph glyph-name="six.sups" horiz-adv-x="322" 
d="M81 683l2 -2c15 17 38 47 90 47c71 0 125 -51 125 -131c0 -81 -55 -134 -134 -134s-136 52 -136 140c0 45 10 81 41 125l100 134h48zM164 501c55 0 91 39 92 97c1 59 -36 95 -92 95c-57 0 -93 -37 -93 -95c0 -59 36 -97 93 -97z" />
    <glyph glyph-name="seven.sups" horiz-adv-x="322" 
d="M291 820l-168 -350h-45l139 288c15 31 32 62 32 63l-2 2c-6 0 -34 -1 -60 -1h-153v40h257v-42z" />
    <glyph glyph-name="eight.sups" horiz-adv-x="322" 
d="M26 575c0 64 52 95 84 101v2c-22 5 -69 34 -69 91c0 60 49 101 120 101c73 0 121 -41 121 -101c0 -57 -48 -86 -68 -91v-2c32 -6 83 -37 83 -101c0 -66 -54 -112 -136 -112c-81 0 -135 46 -135 112zM81 766c0 -41 31 -68 80 -69c50 0 82 28 82 69s-32 68 -82 68
c-49 0 -80 -26 -80 -68zM68 578c0 -47 37 -78 93 -78c57 0 94 31 94 78c0 45 -37 77 -94 77s-93 -31 -93 -77z" />
    <glyph glyph-name="nine.sups" horiz-adv-x="322" 
d="M237 642l-2 2c-19 -24 -42 -40 -83 -40c-76 0 -127 53 -127 131c0 81 55 135 135 135c78 0 135 -53 135 -138c0 -56 -21 -102 -56 -148l-89 -113h-49zM160 831c-56 0 -93 -38 -94 -96c-1 -59 37 -95 93 -95s93 36 93 95c0 58 -38 96 -92 96z" />
    <glyph glyph-name="zero.slsh.sups" horiz-adv-x="322" 
d="M161 870c87 0 135 -68 135 -204s-48 -204 -135 -204c-86 0 -134 68 -134 204s48 204 134 204zM161 828c-58 0 -90 -50 -90 -162c0 -40 4 -72 12 -97l136 234c-14 17 -34 25 -58 25zM161 504c59 0 91 51 91 162c0 41 -4 73 -12 98l-137 -234c15 -17 34 -26 58 -26z" />
    <glyph glyph-name="zero.tf" 
d="M312 714c186 0 247 -164 247 -364c0 -202 -61 -364 -247 -364c-187 0 -248 162 -248 364c0 200 61 364 248 364zM312 661c-151 0 -192 -141 -192 -311c0 -171 41 -311 192 -311s191 140 191 311c0 170 -40 311 -191 311z" />
    <glyph glyph-name="one.tf" 
d="M539 0h-411v53h178v462c0 84 4 122 3 122h-2c-1 0 -23 -25 -56 -56l-110 -110l-33 38l196 191h58v-647h177v-53z" />
    <glyph glyph-name="two.tf" 
d="M98 0v64l234 216c95 90 146 144 146 228c0 88 -56 154 -163 154c-122 0 -162 -87 -169 -142l-51 14c21 132 115 179 223 179c137 0 216 -80 216 -204c0 -95 -45 -156 -165 -266l-205 -189l1 -2c3 0 38 1 94 1h277v-53h-438z" />
    <glyph glyph-name="three.tf" 
d="M402 371v-3c73 -10 139 -65 139 -178c0 -121 -90 -202 -222 -202c-133 0 -219 78 -235 192l52 14c11 -89 78 -153 183 -153c110 0 165 71 165 154c0 99 -66 150 -173 150h-56v49h56c102 0 165 46 165 135c0 83 -56 134 -156 134c-131 0 -163 -87 -172 -143l-52 14
c14 88 73 179 224 179c146 0 213 -80 213 -179c0 -96 -62 -152 -131 -163z" />
    <glyph glyph-name="four.tf" 
d="M450 0h-56v196h-332v53l306 451h82v-453h95v-51h-95v-196zM394 247v249c0 79 1 150 1 151h-2l-276 -398l1 -2h119h157z" />
    <glyph glyph-name="five.tf" 
d="M166 383l2 -1c17 25 66 71 157 71c127 0 216 -92 216 -231c0 -137 -89 -234 -224 -234c-119 0 -206 77 -225 196l52 14c14 -96 81 -158 172 -158c103 0 169 77 169 185c0 107 -65 181 -173 181c-87 0 -135 -49 -154 -95l-49 13l58 376h347v-53h-305l-21 -142
c-11 -72 -22 -119 -22 -122z" />
    <glyph glyph-name="six.tf" 
d="M170 391l2 -1c30 37 79 64 150 64c134 0 222 -96 222 -228c0 -141 -95 -237 -235 -237c-138 0 -233 93 -233 242c0 91 30 158 84 234l169 235h64zM310 41c107 0 178 73 179 185c0 109 -67 182 -177 182c-111 0 -179 -73 -179 -182c0 -112 70 -185 177 -185z" />
    <glyph glyph-name="seven.tf" 
d="M537 651l-306 -651h-62l262 559c22 45 45 87 45 88l-1 3c-1 0 -48 -2 -92 -2h-304v52h458v-49z" />
    <glyph glyph-name="eight.tf" 
d="M75 187c0 117 85 176 155 183v3c-38 6 -126 54 -126 160c0 102 76 180 209 180c134 0 209 -80 209 -180c0 -107 -89 -154 -125 -160v-3c68 -7 155 -65 155 -183c0 -116 -92 -199 -238 -199s-239 82 -239 199zM157 530c0 -81 65 -135 156 -135c95 1 156 57 156 136
c0 80 -57 136 -156 136s-156 -56 -156 -137zM130 191c0 -93 71 -154 183 -154s183 61 183 154c0 95 -70 153 -183 153s-183 -59 -183 -153z" />
    <glyph glyph-name="nine.tf" 
d="M463 309l-2 2c-38 -42 -87 -65 -155 -65c-138 0 -223 95 -223 230c0 144 96 237 237 237c137 0 237 -86 237 -240c0 -102 -42 -181 -130 -294l-135 -179h-64zM319 661c-98 0 -180 -60 -180 -186s82 -183 179 -183c103 0 182 63 182 185c0 125 -82 184 -181 184z" />
    <glyph glyph-name="zero.tosf" 
d="M308 570c132 0 199 -100 199 -290s-67 -291 -199 -291c-131 0 -197 101 -197 291s66 290 197 290zM308 520c-100 0 -143 -84 -143 -240c0 -157 43 -240 143 -240c102 0 144 83 144 240c0 156 -42 240 -144 240z" />
    <glyph glyph-name="one.tosf" 
d="M477 0h-319v50h135v348c0 56 4 100 3 100h-2c-1 0 -27 -31 -39 -42l-84 -87l-32 35l155 153h52v-507h131v-50z" />
    <glyph glyph-name="two.tosf" 
d="M142 0v61l184 164c72 65 114 115 114 180c0 67 -42 117 -126 117c-89 0 -121 -56 -125 -111l-51 13c12 105 91 146 180 146c110 0 177 -62 177 -164c0 -83 -46 -136 -133 -212l-158 -143l1 -2c3 1 32 1 75 1h217v-50h-355z" />
    <glyph glyph-name="three.tosf" 
d="M379 294v-3c59 -7 111 -52 111 -139c0 -99 -72 -163 -180 -163c-107 0 -178 63 -190 154l48 14c10 -74 63 -119 142 -119c86 0 127 53 127 120c0 74 -50 112 -133 112h-46v44h45c79 0 127 37 127 105c0 67 -44 104 -122 104c-96 0 -122 -57 -128 -112l-49 13
c13 104 88 146 182 146c116 0 171 -60 171 -143c0 -81 -52 -124 -105 -133z" />
    <glyph glyph-name="four.tosf" 
d="M412 0h-54v154h-264v51l240 355h78v-358h76v-48h-76v-154zM358 202v185c0 63 1 125 1 126h-2l-212 -309l2 -2h90h121z" />
    <glyph glyph-name="five.tosf" 
d="M202 307l2 -1c15 22 59 55 127 55c107 0 176 -72 176 -185c0 -115 -74 -187 -184 -187c-100 0 -171 59 -188 156l48 12c12 -75 64 -120 138 -120c80 0 134 53 134 140c0 88 -53 139 -137 139c-71 0 -109 -37 -123 -71l-45 12l47 303h279v-51h-241l-16 -111
c-8 -50 -17 -89 -17 -91z" />
    <glyph glyph-name="six.tosf" 
d="M202 312l3 -1c23 29 62 49 117 49c106 0 177 -75 177 -181c0 -114 -77 -190 -191 -190c-111 0 -189 73 -189 195c0 73 23 128 68 189l137 187h59zM309 38c84 0 137 55 138 142c1 84 -52 139 -138 139c-85 0 -136 -54 -136 -140c0 -87 53 -141 136 -141z" />
    <glyph glyph-name="seven.tosf" 
d="M501 515l-267 -515h-56l225 435c20 39 40 72 40 73l-1 2s-34 -1 -72 -1h-241v51h372v-45z" />
    <glyph glyph-name="eight.tosf" 
d="M116 149c0 92 67 138 124 144v2c-31 6 -101 45 -101 129c0 80 61 146 170 146c107 0 169 -66 169 -145c0 -85 -70 -124 -100 -130v-2c55 -6 124 -51 124 -144c0 -95 -74 -160 -193 -160c-118 0 -193 65 -193 160zM188 422c0 -65 51 -106 121 -105c74 1 120 45 120 105
c0 61 -44 105 -120 105c-78 0 -121 -45 -121 -105zM168 152c0 -73 54 -118 141 -118c86 0 141 45 141 118s-54 116 -141 116s-141 -43 -141 -116z" />
    <glyph glyph-name="nine.tosf" 
d="M428 245l-2 1c-29 -33 -68 -51 -121 -51c-110 0 -178 77 -178 185c0 116 78 190 192 190c109 0 192 -68 192 -193c0 -84 -35 -147 -103 -236l-108 -141h-60zM318 522c-77 0 -139 -46 -139 -143c0 -99 63 -142 139 -142c80 0 140 48 140 143c0 97 -63 142 -140 142z" />
    <glyph glyph-name="zero.slsh.tosf" 
d="M302 570c131 0 198 -100 198 -290s-67 -291 -198 -291s-197 101 -197 291s66 290 197 290zM302 520c-100 0 -143 -84 -143 -240c0 -70 8 -125 27 -165l212 364c-23 27 -55 41 -96 41zM302 40c101 0 144 83 144 240c0 62 -6 113 -21 151l-210 -359c22 -21 51 -32 87 -32z
" />
    <glyph glyph-name="fraction" unicode="&#x2044;" horiz-adv-x="115" 
d="M185 700l-210 -700h-45l209 700h46z" />
    <glyph glyph-name="onefraction" unicode="&#x215f;" horiz-adv-x="437" 
d="M282 308h-222v41h89v210c0 24 3 88 4 91h-3c-1 0 -13 -15 -26 -27l-48 -46l-27 28l101 95h43v-351h89v-41zM507 700l-209 -700h-46l209 700h46z" />
    <glyph glyph-name="onehalf" unicode="&#xbd;" horiz-adv-x="760" 
d="M282 308h-222v41h89v210c0 24 3 88 4 91h-3c-1 0 -13 -15 -26 -27l-48 -46l-27 28l101 95h43v-351h89v-41zM507 700l-209 -700h-46l209 700h46zM472 0v47l153 134c32 28 57 63 57 104c0 44 -27 75 -82 75c-54 0 -77 -26 -87 -74l-37 10c14 78 66 104 126 104
c77 0 123 -44 123 -114c0 -54 -30 -93 -72 -130c-59 -59 -126 -109 -132 -115l1 -3c9 1 46 2 76 2h130v-40h-256z" />
    <glyph glyph-name="zerothird" unicode="&#x2189;" horiz-adv-x="748" 
d="M161 300c-86 0 -134 68 -134 204s48 204 134 204c87 0 135 -68 135 -204s-48 -204 -135 -204zM495 700l-209 -700h-46l209 700h46zM161 342c59 0 91 51 91 162c0 112 -32 162 -91 162c-58 0 -90 -50 -90 -162c0 -111 32 -162 90 -162zM633 205v-3c46 -5 85 -38 85 -98
c0 -67 -52 -112 -125 -112c-81 0 -131 53 -137 116l40 10c3 -51 39 -86 96 -86c55 0 84 34 84 76c0 48 -36 78 -90 78h-31v34h30c52 0 87 29 87 74c0 36 -23 67 -85 67c-58 0 -76 -28 -84 -75l-38 10c10 71 54 104 125 104c84 0 123 -44 123 -101c0 -60 -41 -91 -80 -94z
" />
    <glyph glyph-name="uni2153" unicode="&#x2153;" horiz-adv-x="760" 
d="M282 308h-222v41h89v210c0 24 3 88 4 91h-3c-1 0 -13 -15 -26 -27l-48 -46l-27 28l101 95h43v-351h89v-41zM507 700l-209 -700h-46l209 700h46zM645 205v-3c46 -5 85 -38 85 -98c0 -67 -52 -112 -125 -112c-81 0 -131 53 -137 116l40 10c3 -51 39 -86 96 -86
c55 0 84 34 84 76c0 48 -36 78 -90 78h-31v34h30c52 0 87 29 87 74c0 36 -23 67 -85 67c-58 0 -76 -28 -84 -75l-38 10c10 71 54 104 125 104c84 0 123 -44 123 -101c0 -60 -41 -91 -80 -94z" />
    <glyph glyph-name="uni2154" unicode="&#x2154;" horiz-adv-x="760" 
d="M34 308v47l154 134c32 28 57 63 57 105c0 44 -28 74 -83 74c-53 0 -76 -25 -86 -74l-38 11c14 77 67 103 127 103c77 0 122 -44 122 -113c0 -55 -29 -93 -71 -131c-59 -58 -126 -109 -132 -115l1 -3c9 1 46 3 76 3h130v-41h-257zM507 700l-209 -700h-46l209 700h46z
M645 205v-3c46 -5 85 -38 85 -98c0 -67 -52 -112 -125 -112c-81 0 -131 53 -137 116l40 10c3 -51 39 -86 96 -86c55 0 84 34 84 76c0 48 -36 78 -90 78h-31v34h30c52 0 87 29 87 74c0 36 -23 67 -85 67c-58 0 -76 -28 -84 -75l-38 10c10 71 54 104 125 104
c84 0 123 -44 123 -101c0 -60 -41 -91 -80 -94z" />
    <glyph glyph-name="onequarter" unicode="&#xbc;" horiz-adv-x="760" 
d="M282 308h-222v41h89v210c0 24 3 88 4 91h-3c-1 0 -13 -15 -26 -27l-48 -46l-27 28l101 95h43v-351h89v-41zM507 700l-209 -700h-46l209 700h46zM676 0h-42v103h-178v42l163 247h57v-249h65v-40h-65v-103zM634 143v93c0 64 4 110 4 113h-3c-1 0 -134 -203 -135 -205l2 -2
c2 0 27 1 59 1h73z" />
    <glyph glyph-name="threequarters" unicode="&#xbe;" horiz-adv-x="760" 
d="M208 513v-3c46 -4 85 -38 85 -98c0 -67 -53 -112 -125 -112c-81 0 -131 54 -138 116l41 10c2 -51 39 -86 95 -86s85 34 85 77c0 47 -36 78 -90 78h-31v33h30c52 0 86 30 86 74c0 36 -22 67 -84 67c-59 0 -76 -28 -84 -75l-38 11c10 71 54 103 125 103
c84 0 123 -43 123 -101c0 -60 -41 -91 -80 -94zM507 700l-209 -700h-46l209 700h46zM676 0h-42v103h-178v42l163 247h57v-249h65v-40h-65v-103zM634 143v93c0 64 4 110 4 113h-3c-1 0 -134 -203 -135 -205l2 -2c2 0 27 1 59 1h73z" />
    <glyph glyph-name="uni2155" unicode="&#x2155;" horiz-adv-x="760" 
d="M282 308h-222v41h89v210c0 24 3 88 4 91h-3c-1 0 -13 -15 -26 -27l-48 -46l-27 28l101 95h43v-351h89v-41zM507 700l-209 -700h-46l209 700h46zM516 219l3 -1c13 18 42 38 85 38c74 0 124 -52 124 -131s-51 -133 -128 -133c-80 0 -122 52 -131 117l40 11
c5 -48 33 -89 90 -89c53 0 87 36 87 95c0 57 -33 94 -87 94c-47 0 -72 -25 -82 -47l-38 9l31 210h202v-41h-170l-11 -71c-7 -38 -15 -60 -15 -61z" />
    <glyph glyph-name="uni2156" unicode="&#x2156;" horiz-adv-x="760" 
d="M34 308v47l154 134c32 28 57 63 57 105c0 44 -28 74 -83 74c-53 0 -76 -25 -86 -74l-38 11c14 77 67 103 127 103c77 0 122 -44 122 -113c0 -55 -29 -93 -71 -131c-59 -58 -126 -109 -132 -115l1 -3c9 1 46 3 76 3h130v-41h-257zM507 700l-209 -700h-46l209 700h46z
M516 219l3 -1c13 18 42 38 85 38c74 0 124 -52 124 -131s-51 -133 -128 -133c-80 0 -122 52 -131 117l40 11c5 -48 33 -89 90 -89c53 0 87 36 87 95c0 57 -33 94 -87 94c-47 0 -72 -25 -82 -47l-38 9l31 210h202v-41h-170l-11 -71c-7 -38 -15 -60 -15 -61z" />
    <glyph glyph-name="uni2157" unicode="&#x2157;" horiz-adv-x="760" 
d="M208 513v-3c46 -4 85 -38 85 -98c0 -67 -53 -112 -125 -112c-81 0 -131 54 -138 116l41 10c2 -51 39 -86 95 -86s85 34 85 77c0 47 -36 78 -90 78h-31v33h30c52 0 86 30 86 74c0 36 -22 67 -84 67c-59 0 -76 -28 -84 -75l-38 11c10 71 54 103 125 103
c84 0 123 -43 123 -101c0 -60 -41 -91 -80 -94zM507 700l-209 -700h-46l209 700h46zM516 219l3 -1c13 18 42 38 85 38c74 0 124 -52 124 -131s-51 -133 -128 -133c-80 0 -122 52 -131 117l40 11c5 -48 33 -89 90 -89c53 0 87 36 87 95c0 57 -33 94 -87 94
c-47 0 -72 -25 -82 -47l-38 9l31 210h202v-41h-170l-11 -71c-7 -38 -15 -60 -15 -61z" />
    <glyph glyph-name="uni2158" unicode="&#x2158;" horiz-adv-x="760" 
d="M507 700l-209 -700h-46l209 700h46zM239 309h-42v102h-178v42l163 247h57v-249h65v-40h-65v-102zM197 451v93c0 65 4 111 4 113h-3c-1 0 -134 -203 -135 -204l2 -3c1 0 27 1 59 1h73zM516 219l3 -1c13 18 42 38 85 38c74 0 124 -52 124 -131s-51 -133 -128 -133
c-80 0 -122 52 -131 117l40 11c5 -48 33 -89 90 -89c53 0 87 36 87 95c0 57 -33 94 -87 94c-47 0 -72 -25 -82 -47l-38 9l31 210h202v-41h-170l-11 -71c-7 -38 -15 -60 -15 -61z" />
    <glyph glyph-name="uni2159" unicode="&#x2159;" horiz-adv-x="760" 
d="M282 308h-222v41h89v210c0 24 3 88 4 91h-3c-1 0 -13 -15 -26 -27l-48 -46l-27 28l101 95h43v-351h89v-41zM507 700l-209 -700h-46l209 700h46zM518 213l2 -2c15 17 38 47 90 47c71 0 125 -52 125 -131c0 -81 -54 -135 -134 -135c-79 0 -136 53 -136 141
c0 45 10 81 41 124l100 135h48zM601 31c55 0 91 38 93 96c0 59 -37 96 -93 96s-93 -37 -93 -96s37 -96 93 -96z" />
    <glyph glyph-name="uni215A" unicode="&#x215a;" horiz-adv-x="760" 
d="M507 700l-209 -700h-46l209 700h46zM79 527l3 -1c13 18 42 38 85 38c74 0 124 -52 124 -131s-51 -132 -128 -132c-81 0 -122 51 -131 117l40 10c5 -48 33 -89 90 -89c53 0 87 37 87 95c0 57 -33 94 -87 94c-47 0 -72 -24 -82 -46l-38 8l31 210h202v-40h-170l-12 -71
c-6 -39 -14 -60 -14 -62zM518 213l2 -2c15 17 38 47 90 47c71 0 125 -52 125 -131c0 -81 -54 -135 -134 -135c-79 0 -136 53 -136 141c0 45 10 81 41 124l100 135h48zM601 31c55 0 91 38 93 96c0 59 -37 96 -93 96s-93 -37 -93 -96s37 -96 93 -96z" />
    <glyph glyph-name="uni2150" unicode="&#x2150;" horiz-adv-x="760" 
d="M282 308h-222v41h89v210c0 24 3 88 4 91h-3c-1 0 -13 -15 -26 -27l-48 -46l-27 28l101 95h43v-351h89v-41zM507 700l-209 -700h-46l209 700h46zM728 350l-168 -350h-45l139 288c15 30 32 62 32 63l-1 2c-7 -1 -35 -2 -61 -2h-153v41h257v-42z" />
    <glyph glyph-name="oneeighth" unicode="&#x215b;" horiz-adv-x="760" 
d="M282 308h-222v41h89v210c0 24 3 88 4 91h-3c-1 0 -13 -15 -26 -27l-48 -46l-27 28l101 95h43v-351h89v-41zM507 700l-209 -700h-46l209 700h46zM463 105c0 64 52 95 84 100v3c-22 5 -69 33 -69 91c0 59 49 101 120 101c73 0 121 -42 121 -101c0 -58 -47 -87 -68 -91v-3
c33 -5 83 -37 83 -100c0 -67 -54 -113 -136 -113c-81 0 -135 46 -135 113zM518 296c0 -41 31 -69 80 -69c50 0 82 28 82 69s-32 68 -82 68c-48 0 -80 -27 -80 -68zM505 107c0 -46 37 -77 93 -77c57 0 95 31 95 77s-38 78 -95 78s-93 -31 -93 -78z" />
    <glyph glyph-name="threeeighths" unicode="&#x215c;" horiz-adv-x="760" 
d="M208 513v-3c46 -4 85 -38 85 -98c0 -67 -53 -112 -125 -112c-81 0 -131 54 -138 116l41 10c2 -51 39 -86 95 -86s85 34 85 77c0 47 -36 78 -90 78h-31v33h30c52 0 86 30 86 74c0 36 -22 67 -84 67c-59 0 -76 -28 -84 -75l-38 11c10 71 54 103 125 103
c84 0 123 -43 123 -101c0 -60 -41 -91 -80 -94zM507 700l-209 -700h-46l209 700h46zM463 105c0 64 52 95 84 100v3c-22 5 -69 33 -69 91c0 59 49 101 120 101c73 0 121 -42 121 -101c0 -58 -47 -87 -68 -91v-3c33 -5 83 -37 83 -100c0 -67 -54 -113 -136 -113
c-81 0 -135 46 -135 113zM518 296c0 -41 31 -69 80 -69c50 0 82 28 82 69s-32 68 -82 68c-48 0 -80 -27 -80 -68zM505 107c0 -46 37 -77 93 -77c57 0 95 31 95 77s-38 78 -95 78s-93 -31 -93 -78z" />
    <glyph glyph-name="fiveeighths" unicode="&#x215d;" horiz-adv-x="760" 
d="M79 527l3 -1c13 18 42 38 85 38c74 0 124 -52 124 -131s-51 -132 -128 -132c-81 0 -122 51 -131 117l40 10c5 -48 33 -89 90 -89c53 0 87 37 87 95c0 57 -33 94 -87 94c-47 0 -72 -24 -82 -46l-38 8l31 210h202v-40h-170l-12 -71c-6 -39 -14 -60 -14 -62zM507 700
l-209 -700h-46l209 700h46zM463 105c0 64 52 95 84 100v3c-22 5 -69 33 -69 91c0 59 49 101 120 101c73 0 121 -42 121 -101c0 -58 -47 -87 -68 -91v-3c33 -5 83 -37 83 -100c0 -67 -54 -113 -136 -113c-81 0 -135 46 -135 113zM518 296c0 -41 31 -69 80 -69
c50 0 82 28 82 69s-32 68 -82 68c-48 0 -80 -27 -80 -68zM505 107c0 -46 37 -77 93 -77c57 0 95 31 95 77s-38 78 -95 78s-93 -31 -93 -78z" />
    <glyph glyph-name="seveneighths" unicode="&#x215e;" horiz-adv-x="760" 
d="M291 658l-168 -350h-45l139 288c15 31 32 62 32 63l-2 2c-6 0 -34 -1 -60 -1h-153v40h257v-42zM507 700l-209 -700h-46l209 700h46zM463 105c0 64 52 95 84 100v3c-22 5 -69 33 -69 91c0 59 49 101 120 101c73 0 121 -42 121 -101c0 -58 -47 -87 -68 -91v-3
c33 -5 83 -37 83 -100c0 -67 -54 -113 -136 -113c-81 0 -135 46 -135 113zM518 296c0 -41 31 -69 80 -69c50 0 82 28 82 69s-32 68 -82 68c-48 0 -80 -27 -80 -68zM505 107c0 -46 37 -77 93 -77c57 0 95 31 95 77s-38 78 -95 78s-93 -31 -93 -78z" />
    <glyph glyph-name="uni2151" unicode="&#x2151;" horiz-adv-x="760" 
d="M282 308h-222v41h89v210c0 24 3 88 4 91h-3c-1 0 -13 -15 -26 -27l-48 -46l-27 28l101 95h43v-351h89v-41zM507 700l-209 -700h-46l209 700h46zM675 172l-3 2c-19 -24 -42 -40 -83 -40c-75 0 -127 53 -127 131c0 81 55 135 135 135c78 0 135 -53 135 -138
c0 -57 -21 -102 -56 -149l-89 -113h-49zM597 361c-55 0 -93 -39 -94 -97c0 -59 37 -95 93 -95s93 37 93 95c0 59 -38 97 -92 97z" />
    <glyph glyph-name="uni2152" unicode="&#x2152;" horiz-adv-x="1082" 
d="M282 308h-222v41h89v210c0 24 3 88 4 91h-3c-1 0 -13 -15 -26 -27l-48 -46l-27 28l101 95h43v-351h89v-41zM507 700l-209 -700h-46l209 700h46zM921 -8c-87 0 -135 68 -135 204s48 204 135 204s135 -68 135 -204s-48 -204 -135 -204zM719 0h-222v40h90v210
c0 25 2 88 3 91h-3c-1 0 -13 -14 -26 -27l-48 -46l-27 29l101 95h43v-352h89v-40zM921 34c59 0 91 51 91 162c0 112 -32 162 -91 162s-91 -50 -91 -162c0 -111 32 -162 91 -162z" />
    <glyph glyph-name="zero.dnom" horiz-adv-x="322" 
d="M161 -8c-86 0 -134 68 -134 204s48 204 134 204c87 0 135 -68 135 -204s-48 -204 -135 -204zM161 34c59 0 91 51 91 162c0 112 -32 162 -91 162c-58 0 -90 -50 -90 -162c0 -111 32 -162 90 -162z" />
    <glyph glyph-name="one.dnom" horiz-adv-x="322" 
d="M282 0h-222v40h89v210c0 25 3 88 4 91h-3c-1 0 -13 -14 -26 -27l-48 -46l-27 29l101 95h43v-352h89v-40z" />
    <glyph glyph-name="two.dnom" horiz-adv-x="322" 
d="M34 0v47l154 134c32 28 57 63 57 104c0 44 -28 75 -83 75c-53 0 -76 -26 -86 -74l-38 10c14 78 67 104 127 104c77 0 122 -44 122 -114c0 -54 -29 -93 -71 -130c-59 -59 -126 -109 -132 -115l1 -3c9 1 46 2 76 2h130v-40h-257z" />
    <glyph glyph-name="three.dnom" horiz-adv-x="322" 
d="M208 205v-3c46 -5 85 -38 85 -98c0 -67 -53 -112 -125 -112c-81 0 -131 53 -138 116l41 10c2 -51 39 -86 95 -86s85 34 85 76c0 48 -36 78 -90 78h-31v34h30c52 0 86 29 86 74c0 36 -22 67 -84 67c-59 0 -76 -28 -84 -75l-38 10c10 71 54 104 125 104
c84 0 123 -44 123 -101c0 -60 -41 -91 -80 -94z" />
    <glyph glyph-name="four.dnom" horiz-adv-x="322" 
d="M239 0h-42v103h-178v42l163 247h57v-249h65v-40h-65v-103zM197 143v93c0 64 4 110 4 113h-3c-1 0 -134 -203 -135 -205l2 -2c1 0 27 1 59 1h73z" />
    <glyph glyph-name="five.dnom" horiz-adv-x="322" 
d="M79 219l3 -1c13 18 42 38 85 38c74 0 124 -52 124 -131s-51 -133 -128 -133c-81 0 -122 52 -131 117l40 11c5 -48 33 -89 90 -89c53 0 87 36 87 95c0 57 -33 94 -87 94c-47 0 -72 -25 -82 -47l-38 9l31 210h202v-41h-170l-12 -71c-6 -38 -14 -60 -14 -61z" />
    <glyph glyph-name="six.dnom" horiz-adv-x="322" 
d="M81 213l2 -2c15 17 38 47 90 47c71 0 125 -52 125 -131c0 -81 -55 -135 -134 -135s-136 53 -136 141c0 45 10 81 41 124l100 135h48zM164 31c55 0 91 38 92 96c1 59 -36 96 -92 96c-57 0 -93 -37 -93 -96s36 -96 93 -96z" />
    <glyph glyph-name="seven.dnom" horiz-adv-x="322" 
d="M291 350l-168 -350h-45l139 288c15 30 32 62 32 63l-2 2c-6 -1 -34 -2 -60 -2h-153v41h257v-42z" />
    <glyph glyph-name="eight.dnom" horiz-adv-x="322" 
d="M26 105c0 64 52 95 84 100v3c-22 5 -69 33 -69 91c0 59 49 101 120 101c73 0 121 -42 121 -101c0 -58 -48 -87 -68 -91v-3c32 -5 83 -37 83 -100c0 -67 -54 -113 -136 -113c-81 0 -135 46 -135 113zM81 296c0 -41 31 -69 80 -69c50 0 82 28 82 69s-32 68 -82 68
c-49 0 -80 -27 -80 -68zM68 107c0 -46 37 -77 93 -77c57 0 94 31 94 77s-37 78 -94 78s-93 -31 -93 -78z" />
    <glyph glyph-name="nine.dnom" horiz-adv-x="322" 
d="M237 172l-2 2c-19 -24 -42 -40 -83 -40c-76 0 -127 53 -127 131c0 81 55 135 135 135c78 0 135 -53 135 -138c0 -57 -21 -102 -56 -149l-89 -113h-49zM160 361c-56 0 -93 -39 -94 -97c-1 -59 37 -95 93 -95s93 37 93 95c0 59 -38 97 -92 97z" />
    <glyph glyph-name="zero.numr" horiz-adv-x="322" 
d="M161 300c-86 0 -134 68 -134 204s48 204 134 204c87 0 135 -68 135 -204s-48 -204 -135 -204zM161 342c59 0 91 51 91 162c0 112 -32 162 -91 162c-58 0 -90 -50 -90 -162c0 -111 32 -162 90 -162z" />
    <glyph glyph-name="one.numr" horiz-adv-x="322" 
d="M282 308h-222v41h89v210c0 24 3 88 4 91h-3c-1 0 -13 -15 -26 -27l-48 -46l-27 28l101 95h43v-351h89v-41z" />
    <glyph glyph-name="two.numr" horiz-adv-x="322" 
d="M34 308v47l154 134c32 28 57 63 57 105c0 44 -28 74 -83 74c-53 0 -76 -25 -86 -74l-38 11c14 77 67 103 127 103c77 0 122 -44 122 -113c0 -55 -29 -93 -71 -131c-59 -58 -126 -109 -132 -115l1 -3c9 1 46 3 76 3h130v-41h-257z" />
    <glyph glyph-name="three.numr" horiz-adv-x="322" 
d="M208 513v-3c46 -4 85 -38 85 -98c0 -67 -53 -112 -125 -112c-81 0 -131 54 -138 116l41 10c2 -51 39 -86 95 -86s85 34 85 77c0 47 -36 78 -90 78h-31v33h30c52 0 86 30 86 74c0 36 -22 67 -84 67c-59 0 -76 -28 -84 -75l-38 11c10 71 54 103 125 103
c84 0 123 -43 123 -101c0 -60 -41 -91 -80 -94z" />
    <glyph glyph-name="four.numr" horiz-adv-x="322" 
d="M239 309h-42v102h-178v42l163 247h57v-249h65v-40h-65v-102zM197 451v93c0 65 4 111 4 113h-3c-1 0 -134 -203 -135 -204l2 -3c1 0 27 1 59 1h73z" />
    <glyph glyph-name="five.numr" horiz-adv-x="322" 
d="M79 527l3 -1c13 18 42 38 85 38c74 0 124 -52 124 -131s-51 -132 -128 -132c-81 0 -122 51 -131 117l40 10c5 -48 33 -89 90 -89c53 0 87 37 87 95c0 57 -33 94 -87 94c-47 0 -72 -24 -82 -46l-38 8l31 210h202v-40h-170l-12 -71c-6 -39 -14 -60 -14 -62z" />
    <glyph glyph-name="six.numr" horiz-adv-x="322" 
d="M81 521l2 -2c15 17 38 47 90 47c71 0 125 -51 125 -131c0 -81 -55 -134 -134 -134s-136 52 -136 140c0 45 10 81 41 125l100 134h48zM164 339c55 0 91 39 92 97c1 59 -36 95 -92 95c-57 0 -93 -37 -93 -95c0 -59 36 -97 93 -97z" />
    <glyph glyph-name="seven.numr" horiz-adv-x="322" 
d="M291 658l-168 -350h-45l139 288c15 31 32 62 32 63l-2 2c-6 0 -34 -1 -60 -1h-153v40h257v-42z" />
    <glyph glyph-name="eight.numr" horiz-adv-x="322" 
d="M26 413c0 64 52 95 84 101v2c-22 5 -69 34 -69 91c0 60 49 101 120 101c73 0 121 -41 121 -101c0 -57 -48 -86 -68 -91v-2c32 -6 83 -37 83 -101c0 -66 -54 -112 -136 -112c-81 0 -135 46 -135 112zM81 604c0 -41 31 -68 80 -69c50 0 82 28 82 69s-32 68 -82 68
c-49 0 -80 -26 -80 -68zM68 416c0 -47 37 -78 93 -78c57 0 94 31 94 78c0 45 -37 77 -94 77s-93 -31 -93 -77z" />
    <glyph glyph-name="nine.numr" horiz-adv-x="322" 
d="M237 480l-2 2c-19 -24 -42 -40 -83 -40c-76 0 -127 53 -127 131c0 81 55 135 135 135c78 0 135 -53 135 -138c0 -56 -21 -102 -56 -148l-89 -113h-49zM160 669c-56 0 -93 -38 -94 -96c-1 -59 37 -95 93 -95s93 36 93 95c0 58 -38 96 -92 96z" />
    <glyph glyph-name="onesuperior" unicode="&#xb9;" horiz-adv-x="322" 
d="M282 470h-222v41h89v210c0 24 3 88 4 91h-3c-1 0 -13 -15 -26 -27l-48 -46l-27 28l101 95h43v-351h89v-41z" />
    <glyph glyph-name="twosuperior" unicode="&#xb2;" horiz-adv-x="322" 
d="M34 470v47l154 134c32 28 57 63 57 105c0 44 -28 74 -83 74c-53 0 -76 -25 -86 -74l-38 11c14 77 67 103 127 103c77 0 122 -44 122 -113c0 -55 -29 -93 -71 -131c-59 -58 -126 -109 -132 -115l1 -3c9 1 46 3 76 3h130v-41h-257z" />
    <glyph glyph-name="threesuperior" unicode="&#xb3;" horiz-adv-x="322" 
d="M208 675v-3c46 -4 85 -38 85 -98c0 -67 -53 -112 -125 -112c-81 0 -131 54 -138 116l41 10c2 -51 39 -86 95 -86s85 34 85 77c0 47 -36 78 -90 78h-31v33h30c52 0 86 30 86 74c0 36 -22 67 -84 67c-59 0 -76 -28 -84 -75l-38 11c10 71 54 103 125 103
c84 0 123 -43 123 -101c0 -60 -41 -91 -80 -94z" />
    <glyph glyph-name="braceleft" unicode="{" horiz-adv-x="361" 
d="M196 585v-134c0 -127 -59 -155 -70 -160c11 -3 70 -35 70 -160v-133c0 -128 55 -159 122 -159v-51c-109 0 -175 64 -175 215v132c0 128 -62 130 -68 131v51c6 1 68 3 68 131v132c0 150 66 214 175 214v-51c-67 0 -122 -31 -122 -158z" />
    <glyph glyph-name="braceright" unicode="}" horiz-adv-x="361" 
d="M165 -2v134c0 126 59 155 70 159c-11 4 -70 35 -70 160v134c0 127 -55 158 -123 158v51c110 0 176 -64 176 -215v-131c-1 -129 61 -130 67 -131v-51c-6 -2 -67 -3 -67 -132v-131c0 -151 -66 -214 -176 -215v51c68 0 123 31 123 159z" />
    <glyph glyph-name="bracketleft" unicode="[" horiz-adv-x="326" 
d="M285 -159v-52h-191v1005h191v-52h-135v-901h135z" />
    <glyph glyph-name="bracketright" unicode="]" horiz-adv-x="326" 
d="M40 743v51h191v-1004h-191v51h135v902h-135z" />
    <glyph glyph-name="braceleft.case" horiz-adv-x="362" 
d="M197 651v-134c0 -126 -59 -155 -70 -159c11 -4 70 -37 70 -161v-132c0 -128 55 -158 122 -158v-52c-111 0 -177 63 -177 213v133c1 128 -61 130 -67 130v53c6 0 67 2 67 130v133c0 150 66 213 177 213v-52c-67 0 -122 -30 -122 -157z" />
    <glyph glyph-name="braceright.case" horiz-adv-x="362" 
d="M165 64v133c0 126 58 156 69 160c-11 4 -69 36 -69 160v133c0 128 -56 158 -123 158v52c111 0 177 -63 177 -214v-132c0 -129 62 -130 67 -131v-52c-5 -1 -67 -2 -67 -131v-132c0 -151 -66 -214 -177 -214v52c67 0 123 30 123 158z" />
    <glyph glyph-name="bracketleft.case" horiz-adv-x="326" 
d="M285 -92v-53h-191v1005h191v-54h-133v-898h133z" />
    <glyph glyph-name="bracketright.case" horiz-adv-x="326" 
d="M40 806v54h191v-1005h-191v53h134v898h-134z" />
    <glyph glyph-name="parenleft.case" horiz-adv-x="327" 
d="M293 861l19 -52c-137 -49 -198 -196 -198 -451c0 -254 61 -402 198 -451l-19 -52c-149 56 -235 210 -235 503s86 447 235 503z" />
    <glyph glyph-name="parenright.case" horiz-adv-x="327" 
d="M34 -144l-19 52c137 49 198 196 198 451c0 254 -61 402 -198 451l19 52c149 -56 235 -210 235 -503s-86 -447 -235 -503z" />
    <glyph glyph-name="parenleft" unicode="(" horiz-adv-x="326" 
d="M293 792l19 -50c-138 -49 -200 -198 -200 -452s62 -403 200 -452l-19 -50c-151 56 -235 211 -235 502s84 446 235 502z" />
    <glyph glyph-name="parenright" unicode=")" horiz-adv-x="326" 
d="M34 -212l-19 51c137 48 199 197 199 451s-62 403 -199 452l19 50c151 -56 235 -210 235 -502c0 -291 -85 -446 -235 -502z" />
    <glyph glyph-name="emdash.case" horiz-adv-x="926" 
d="M831 331h-732v49h732v-49z" />
    <glyph glyph-name="endash.case" 
d="M526 330h-429v50h429v-50z" />
    <glyph glyph-name="hyphen.case" horiz-adv-x="537" 
d="M444 330h-347v49h347v-49z" />
    <glyph glyph-name="softhyphen.case" horiz-adv-x="541" 
d="M437 330h-347v49h347v-49z" />
    <glyph glyph-name="emdash" unicode="&#x2014;" horiz-adv-x="926" 
d="M828 267h-731v49h731v-49z" />
    <glyph glyph-name="endash" unicode="&#x2013;" 
d="M526 267h-429v49h429v-49z" />
    <glyph glyph-name="hyphen" unicode="-" horiz-adv-x="541" 
d="M444 267h-347v49h347v-49z" />
    <glyph glyph-name="softhyphen" unicode="&#xad;" horiz-adv-x="541" 
d="M444 267h-347v49h347v-49z" />
    <glyph glyph-name="guillemotleft.case" horiz-adv-x="578" 
d="M271 583l36 -31l-184 -200v-3l184 -200l-36 -32l-211 234zM483 583l35 -31l-183 -200v-3l183 -200l-35 -32l-211 234z" />
    <glyph glyph-name="guillemotright.case" horiz-adv-x="578" 
d="M96 117l-36 32l183 200v3l-183 200l36 31l211 -232zM307 117l-35 32l183 200v3l-183 200l35 31l211 -232z" />
    <glyph glyph-name="guilsinglleft.case" horiz-adv-x="367" 
d="M271 583l36 -31l-184 -200v-3l184 -200l-36 -32l-211 234z" />
    <glyph glyph-name="guilsinglright.case" horiz-adv-x="367" 
d="M96 117l-36 32l183 200v3l-183 200l36 31l211 -232z" />
    <glyph glyph-name="guillemotleft" unicode="&#xab;" horiz-adv-x="578" 
d="M271 511l36 -31l-184 -200v-3l184 -200l-36 -32l-211 233zM483 511l35 -31l-183 -200v-3l183 -200l-35 -32l-211 233z" />
    <glyph glyph-name="guillemotright" unicode="&#xbb;" horiz-adv-x="578" 
d="M96 45l-36 32l183 200v3l-183 200l36 31l211 -233zM307 45l-35 32l183 200v3l-183 200l35 31l211 -233z" />
    <glyph glyph-name="guilsinglleft" unicode="&#x2039;" horiz-adv-x="367" 
d="M271 511l36 -31l-184 -200v-3l184 -200l-36 -32l-211 233z" />
    <glyph glyph-name="guilsinglright" unicode="&#x203a;" horiz-adv-x="367" 
d="M96 45l-36 32l183 200v3l-183 200l36 31l211 -233z" />
    <glyph glyph-name="quotedblbase" unicode="&#x201e;" horiz-adv-x="349" 
d="M251 -6c-25 -5 -41 10 -41 35c0 21 15 39 42 39c29 0 47 -20 47 -55c0 -42 -28 -101 -80 -121l-24 29c30 12 54 47 56 73zM103 -6c-25 -5 -42 10 -42 35c0 21 16 39 43 39c29 0 46 -20 46 -55c0 -42 -27 -101 -79 -121l-24 29c30 12 54 47 56 73z" />
    <glyph glyph-name="quotedblleft" unicode="&#x201c;" horiz-adv-x="357" 
d="M251 611c25 4 42 -11 42 -35c0 -22 -16 -39 -43 -39c-29 0 -46 20 -46 54c0 42 28 102 79 121l24 -28c-30 -12 -54 -47 -56 -73zM94 611c25 4 42 -11 42 -35c0 -22 -15 -39 -43 -39c-29 0 -46 20 -46 54c0 42 28 101 79 121l24 -28c-30 -13 -54 -47 -56 -73z" />
    <glyph glyph-name="quotedblright" unicode="&#x201d;" horiz-adv-x="357" 
d="M260 638c-25 -5 -42 10 -42 35c0 21 16 39 43 39c29 0 46 -20 46 -55c0 -42 -28 -101 -79 -120l-24 28c30 12 54 47 56 73zM103 638c-25 -5 -42 10 -42 35c0 21 16 39 43 39c29 0 46 -20 46 -55c0 -42 -27 -101 -79 -120l-24 28c30 12 54 47 56 73z" />
    <glyph glyph-name="quoteleft" unicode="&#x2018;" horiz-adv-x="200" 
d="M97 611c25 4 42 -11 42 -35c0 -22 -15 -39 -43 -39s-46 20 -46 54c0 42 28 101 79 121l24 -28c-30 -13 -54 -47 -56 -73z" />
    <glyph glyph-name="quoteright" unicode="&#x2019;" horiz-adv-x="200" 
d="M103 638c-25 -5 -42 10 -42 35c0 21 16 39 43 39c29 0 46 -20 46 -55c0 -42 -27 -101 -79 -121l-24 29c30 12 54 47 56 73z" />
    <glyph glyph-name="quotesinglbase" unicode="&#x201a;" horiz-adv-x="200" 
d="M103 -6c-25 -4 -42 11 -42 35c0 22 16 39 43 39c29 0 46 -20 46 -54c0 -42 -27 -101 -79 -121l-24 28c30 13 54 47 56 73z" />
    <glyph glyph-name="asterisk" unicode="*" horiz-adv-x="459" 
d="M263 529l74 -115l-34 -23l-74 112l-73 -112l-34 23l74 115l-121 37l12 38l122 -36l-1 132h42v-132l121 36l13 -38z" />
    <glyph glyph-name="backslash" unicode="\" horiz-adv-x="424" 
d="M401 0h-59l-319 700h58z" />
    <glyph glyph-name="bullet" unicode="&#x2022;" horiz-adv-x="289" 
d="M145 213c-41 0 -70 29 -70 72s29 73 70 73c40 0 68 -30 68 -73s-28 -72 -68 -72z" />
    <glyph glyph-name="bullet.case" horiz-adv-x="301" 
d="M151 276c-44 0 -76 32 -76 79s32 78 76 78c43 0 75 -31 75 -78s-32 -79 -75 -79z" />
    <glyph glyph-name="colon.case" horiz-adv-x="200" 
d="M100 475c-27 0 -43 19 -43 43c0 25 16 43 43 43c28 0 43 -19 43 -43c0 -25 -16 -43 -43 -43zM100 135c-27 0 -43 18 -43 43s16 42 43 42c28 0 43 -18 43 -42c0 -25 -16 -43 -43 -43z" />
    <glyph glyph-name="numbersign.case" horiz-adv-x="617" 
d="M415 221h86l-14 -50h-84l-44 -171h-51l44 171h-179l-44 -171h-50l44 171h-85l13 50h85l66 256h-85l13 51h85l44 172h50l-44 -172h179l44 172h51l-44 -172h84l-14 -51h-83zM251 477l-66 -256h181l66 256h-181z" />
    <glyph glyph-name="periodcentered.case" horiz-adv-x="200" 
d="M100 311c-27 0 -43 18 -43 43c0 24 16 42 43 42c28 0 43 -18 43 -42c0 -25 -16 -43 -43 -43z" />
    <glyph glyph-name="semicolon.case" horiz-adv-x="200" 
d="M100 475c-27 0 -43 19 -43 43c0 25 16 43 43 43c28 0 43 -19 43 -43c0 -25 -16 -43 -43 -43zM103 135c-25 -5 -41 11 -41 35s15 41 42 41c29 0 46 -20 46 -54c0 -43 -27 -100 -79 -120l-24 24c33 13 54 49 56 74z" />
    <glyph glyph-name="colon" unicode=":" horiz-adv-x="200" 
d="M100 338c-27 0 -43 19 -43 43c0 25 16 42 43 42c28 0 43 -18 43 -42c0 -25 -16 -43 -43 -43zM100 -9c-27 0 -43 19 -43 43c0 25 16 43 43 43c28 0 43 -19 43 -43c0 -25 -16 -43 -43 -43z" />
    <glyph glyph-name="comma" unicode="," horiz-adv-x="200" 
d="M103 -3c-25 -5 -41 11 -41 36c0 24 15 41 42 41c29 0 46 -20 46 -55c0 -42 -27 -100 -79 -119l-24 24c33 12 54 48 56 73z" />
    <glyph glyph-name="ellipsis" unicode="&#x2026;" horiz-adv-x="615" 
d="M92 -10c-22 0 -35 15 -35 35s13 35 35 35c23 0 36 -15 36 -35c0 -21 -13 -35 -36 -35zM304 -10c-23 0 -36 15 -36 35s14 35 36 35c23 0 35 -15 35 -35c0 -21 -13 -35 -35 -35zM523 -10c-23 0 -36 15 -36 35s13 35 36 35c22 0 35 -15 35 -35c0 -21 -13 -35 -35 -35z" />
    <glyph glyph-name="exclam" unicode="!" horiz-adv-x="236" 
d="M146 700v-547h-56v547h56zM118 -9c-27 0 -43 19 -43 43c0 25 16 43 43 43c28 0 43 -19 43 -43c0 -25 -16 -43 -43 -43z" />
    <glyph glyph-name="exclamdown" unicode="&#xa1;" horiz-adv-x="236" 
d="M118 709c28 0 43 -19 43 -43c0 -25 -16 -43 -43 -43s-43 19 -43 43c0 25 16 43 43 43zM90 0v547h56v-547h-56z" />
    <glyph glyph-name="numbersign" unicode="#" horiz-adv-x="617" 
d="M411 168h97l-13 -49h-97l-30 -119h-48l30 119h-167l-30 -119h-48l30 119h-97l13 49h97l57 226h-96l13 49h96l30 117h47l-29 -117h167l29 117h48l-30 -117h99l-13 -49h-98zM253 394l-57 -226h167l57 226h-167z" />
    <glyph glyph-name="period" unicode="." horiz-adv-x="200" 
d="M100 -9c-27 0 -43 19 -43 43c0 25 16 43 43 43c28 0 43 -19 43 -43c0 -25 -16 -43 -43 -43z" />
    <glyph glyph-name="periodcentered" unicode="&#xb7;" horiz-adv-x="200" 
d="M100 239c-27 0 -43 19 -43 43c0 25 16 43 43 43c28 0 43 -19 43 -43c0 -25 -16 -43 -43 -43z" />
    <glyph glyph-name="question" unicode="?" horiz-adv-x="516" 
d="M215 151v179c151 55 205 110 205 191c0 69 -38 138 -156 138c-104 0 -153 -52 -173 -135l-53 14c26 115 109 175 229 175c148 0 211 -90 211 -186c0 -119 -99 -186 -206 -226v-150h-57zM243 -9c-28 0 -43 19 -43 43c0 25 16 43 43 43s43 -19 43 -43
c0 -25 -16 -43 -43 -43z" />
    <glyph glyph-name="questiondown" unicode="&#xbf;" horiz-adv-x="516" 
d="M274 709c27 0 43 -19 43 -43c0 -25 -16 -43 -43 -43c-28 0 -43 19 -43 43c0 25 16 43 43 43zM301 549v-179c-150 -55 -205 -110 -205 -191c0 -69 38 -138 157 -138c104 0 152 52 173 135l52 -14c-26 -115 -109 -175 -229 -175c-147 0 -211 90 -211 186
c0 119 99 186 206 226v150h57z" />
    <glyph glyph-name="quotedbl" unicode="&#x22;" horiz-adv-x="264" 
d="M101 700l-4 -224h-47l-3 224h54zM214 700l-3 -224h-47l-4 224h54z" />
    <glyph glyph-name="quotesingle" unicode="'" horiz-adv-x="151" 
d="M101 700l-4 -224h-47l-3 224h54z" />
    <glyph glyph-name="semicolon" unicode=";" horiz-adv-x="200" 
d="M100 338c-27 0 -43 19 -43 43c0 25 16 42 43 42c28 0 43 -18 43 -42c0 -25 -16 -43 -43 -43zM103 -3c-25 -5 -41 12 -41 36s15 41 42 41c29 0 46 -20 46 -55c0 -42 -27 -100 -79 -119l-24 24c33 12 54 48 56 73z" />
    <glyph glyph-name="slash" unicode="/" horiz-adv-x="424" 
d="M401 700l-319 -700h-59l320 700h58z" />
    <glyph glyph-name="underscore" unicode="_" horiz-adv-x="674" 
d="M599 -46h-524v46h524v-46z" />
    <glyph glyph-name="space.dnom" horiz-adv-x="105" 
 />
    <glyph glyph-name="uni2003" unicode="&#x2003;" horiz-adv-x="567" 
 />
    <glyph glyph-name="enspace" unicode="&#x2002;" horiz-adv-x="317" 
 />
    <glyph glyph-name="uni2007" unicode="&#x2007;" 
 />
    <glyph glyph-name="uni200A" unicode="&#x200a;" horiz-adv-x="37" 
 />
    <glyph glyph-name="space.numr" horiz-adv-x="105" 
 />
    <glyph glyph-name="uni2008" unicode="&#x2008;" horiz-adv-x="200" 
 />
    <glyph glyph-name="space" unicode=" " horiz-adv-x="227" 
 />
    <glyph glyph-name="space.sups" horiz-adv-x="105" 
 />
    <glyph glyph-name="uni2009" unicode="&#x2009;" horiz-adv-x="114" 
 />
    <glyph glyph-name="zerowidthspace" unicode="&#x200b;" horiz-adv-x="0" 
 />
    <glyph glyph-name="cent" unicode="&#xa2;" horiz-adv-x="521" 
d="M267 69c74 0 131 40 158 112l49 -14c-31 -87 -100 -139 -184 -147v-105h-46v105c-122 10 -206 105 -206 261s81 248 205 259v103h47v-103c82 -7 159 -53 187 -157l-49 -13c-21 74 -74 122 -158 122c-111 0 -179 -78 -179 -211c0 -135 71 -212 176 -212z" />
    <glyph glyph-name="currency" unicode="&#xa4;" horiz-adv-x="577" 
d="M529 532l-68 -71c37 -44 59 -106 59 -181c0 -71 -19 -131 -53 -174l71 -74l-32 -31l-69 72c-39 -34 -91 -55 -149 -55c-57 0 -108 21 -148 55l-70 -72l-31 31l71 74c-33 43 -52 102 -52 174c0 74 21 137 58 181l-68 71l31 30l69 -70c38 31 87 49 140 49
c54 0 103 -17 142 -48l68 69zM289 491c-104 0 -179 -83 -179 -211c0 -130 75 -211 179 -211s178 81 178 211c0 128 -74 211 -178 211z" />
    <glyph glyph-name="dollar" unicode="$" horiz-adv-x="426" 
d="M393 141c0 -90 -59 -145 -153 -151v-80h-46v80c-71 6 -146 40 -160 144l49 14c7 -72 58 -113 137 -113c73 0 120 38 120 105c0 89 -79 107 -152 130c-62 20 -143 48 -143 155c0 84 53 136 143 144v81h46v-80c83 -7 140 -50 154 -134l-48 -14c-12 64 -47 102 -126 102
c-75 0 -117 -37 -117 -97c0 -75 59 -95 131 -117c72 -23 165 -53 165 -169z" />
    <glyph glyph-name="Euro" unicode="&#x20ac;" horiz-adv-x="552" 
d="M457 150l52 -15c-26 -84 -86 -146 -201 -146c-127 0 -202 74 -221 218h-49v45h45v31v24h-45v45h48c17 144 89 218 217 218c99 0 183 -44 202 -155l-51 -14c-10 49 -44 119 -149 119c-100 0 -149 -61 -162 -168h177v-45h-181v-23c0 -11 0 -22 1 -32h180v-45h-176
c15 -112 69 -167 166 -167c78 0 124 38 147 110z" />
    <glyph glyph-name="cent.lf" horiz-adv-x="521" 
d="M267 139c74 0 131 41 158 113l49 -14c-31 -87 -100 -139 -184 -147v-105h-46v105c-122 10 -206 105 -206 261s81 248 205 259v103h47v-103c82 -7 159 -53 187 -157l-49 -13c-21 74 -74 123 -158 123c-111 0 -179 -79 -179 -212c0 -136 71 -213 176 -213z" />
    <glyph glyph-name="currency.lf" horiz-adv-x="577" 
d="M529 595l-68 -71c37 -44 59 -105 59 -181c0 -71 -19 -130 -53 -174l71 -74l-32 -30l-69 72c-39 -34 -91 -55 -149 -55c-57 0 -108 20 -148 55l-70 -72l-31 30l71 75c-33 43 -52 102 -52 173c0 75 21 137 58 181l-68 71l31 30l69 -69c38 30 87 49 140 49
c54 0 103 -18 142 -49l68 69zM289 554c-104 0 -179 -83 -179 -211c0 -130 75 -211 179 -211s178 82 178 211c0 128 -74 211 -178 211z" />
    <glyph glyph-name="dollar.lf" horiz-adv-x="505" 
d="M470 178c0 -116 -72 -183 -191 -189v-79h-48v80c-90 8 -184 53 -197 188l53 15c5 -104 81 -153 175 -153c92 0 152 47 152 135c0 116 -99 137 -184 166c-77 29 -180 68 -180 196c0 106 69 169 181 175v80h48v-80c100 -10 172 -68 189 -177l-53 -15
c-14 92 -72 141 -165 141c-90 0 -143 -43 -143 -121c0 -93 76 -122 166 -153c96 -33 197 -73 197 -209z" />
    <glyph glyph-name="Euro.lf" horiz-adv-x="616" 
d="M521 184l52 -16c-35 -114 -103 -179 -229 -179c-149 0 -234 91 -255 269h-51v51h47c-1 14 -1 28 -1 43v37h-46v52h50c19 182 101 270 250 270c130 0 209 -68 230 -186l-53 -14c-14 71 -52 149 -175 149c-122 0 -181 -75 -196 -219h243v-52h-246l-1 -33c0 -17 0 -32 1 -47
h246v-51h-242c18 -148 81 -216 199 -216c88 0 146 41 177 142z" />
    <glyph glyph-name="uni20BA.lf" horiz-adv-x="580" 
d="M486 239l51 -15c-27 -135 -108 -224 -289 -224h-102v271l-71 -25v52l71 24v83l-71 -25v52l71 24v244h56v-224l158 54v-52l-158 -54v-83l158 55v-52l-158 -54v-238h46c150 0 214 72 238 187z" />
    <glyph glyph-name="uni20B9.lf" horiz-adv-x="510" 
d="M324 649l-1 -2c26 -15 50 -40 64 -78h96v-51h-84c1 -10 1 -21 1 -32c0 -131 -86 -201 -226 -202l199 -284h-67l-200 291v41h62c116 0 178 57 178 159c0 9 0 18 -1 27h-270v51h257c-24 57 -77 80 -141 80h-116v51h408v-51h-159z" />
    <glyph glyph-name="sterling.lf" horiz-adv-x="533" 
d="M40 0v52c63 14 77 67 77 137c0 39 -5 88 -10 139h-68v49h64c-6 51 -10 100 -10 137c0 141 76 199 187 199c85 0 182 -35 201 -188l-51 -14c-13 90 -49 150 -148 150c-89 0 -136 -48 -136 -152c0 -35 5 -82 10 -132h224v-49h-218c5 -50 9 -98 9 -136
c0 -74 -17 -124 -56 -141l1 -2c5 1 99 3 205 3h173v-52h-454z" />
    <glyph glyph-name="yen.lf" horiz-adv-x="518" 
d="M357 440h120v-51h-148l-42 -78v-2h190v-51h-190v-258h-56v258h-182v51h182v2l-42 78h-140v51h113l-141 260h62l130 -245l47 -90h2l47 91l128 244h59z" />
    <glyph glyph-name="uni20BA" unicode="&#x20ba;" horiz-adv-x="502" 
d="M418 195l51 -14c-24 -108 -94 -181 -249 -181h-93v212l-61 -21v46l61 20v56l-61 -21v46l61 20v202h54v-183l132 45v-45l-132 -46v-55l132 45v-45l-132 -46v-179h39c126 0 179 57 198 144z" />
    <glyph glyph-name="uni20B9" unicode="&#x20b9;" horiz-adv-x="450" 
d="M282 515l-1 -2c12 -9 29 -26 41 -55h102v-45h-92c1 -7 1 -15 1 -23c0 -107 -83 -162 -176 -164l141 -226h-63l-138 229v45h53c74 0 130 38 130 120c0 7 0 13 -1 19h-204v45h192c-19 39 -58 57 -110 57h-82v45h349v-45h-142z" />
    <glyph glyph-name="sterling" unicode="&#xa3;" horiz-adv-x="466" 
d="M35 0v51c52 11 64 50 64 105c0 28 -3 63 -7 100h-58v46h53c-4 40 -8 78 -8 108c0 111 65 160 163 160c74 0 158 -29 174 -152l-50 -14c-11 71 -42 116 -123 116c-72 0 -111 -39 -111 -119c0 -25 4 -61 8 -99h189v-46h-184c4 -37 8 -72 8 -98c0 -56 -13 -94 -45 -107l1 -2
c4 0 83 2 171 2h147v-51h-392z" />
    <glyph glyph-name="cent.tf" 
d="M320 139c74 0 131 41 158 113l50 -14c-31 -87 -101 -139 -184 -147v-105h-47v105c-121 10 -205 105 -205 261s81 248 205 259v103h47v-103c82 -7 158 -53 187 -157l-49 -13c-21 74 -75 123 -158 123c-111 0 -179 -79 -179 -212c0 -136 70 -213 175 -213z" />
    <glyph glyph-name="currency.tf" 
d="M552 595l-68 -71c37 -44 59 -105 59 -181c0 -71 -20 -130 -53 -174l71 -74l-32 -30l-69 72c-39 -34 -91 -55 -149 -55c-57 0 -108 20 -148 55l-70 -72l-31 30l71 75c-33 43 -52 102 -52 173c0 75 21 137 58 181l-68 71l31 30l69 -69c38 30 87 49 140 49
c54 0 103 -18 142 -49l68 69zM311 554c-103 0 -178 -83 -178 -211c0 -130 75 -211 178 -211c105 0 179 82 179 211c0 128 -74 211 -179 211z" />
    <glyph glyph-name="dollar.tf" 
d="M529 178c0 -116 -72 -183 -191 -189v-79h-48v80c-90 8 -184 53 -198 188l54 15c4 -104 80 -153 174 -153c92 0 153 47 153 135c0 116 -99 137 -184 166c-77 29 -180 68 -180 196c0 106 68 169 181 175v80h48v-80c100 -10 171 -68 189 -177l-54 -15
c-14 92 -72 141 -165 141c-89 0 -143 -43 -143 -121c0 -93 76 -122 166 -153c97 -33 198 -73 198 -209z" />
    <glyph glyph-name="Euro.tf" 
d="M520 184l52 -16c-36 -114 -103 -179 -229 -179c-149 0 -235 91 -256 269h-50v51h46c0 14 -1 28 -1 43l1 37h-46v52h50c19 182 101 270 250 270c130 0 209 -68 230 -186l-53 -14c-14 71 -52 149 -176 149c-122 0 -180 -75 -195 -219h242v-52h-246v-33c0 -17 0 -32 1 -47
h245v-51h-241c18 -148 81 -216 199 -216c88 0 146 41 177 142z" />
    <glyph glyph-name="uni20BA.tf" 
d="M511 239l52 -15c-28 -135 -109 -224 -290 -224h-101v271l-71 -25v52l71 24v83l-71 -25v52l71 24v244h56v-224l157 54v-52l-157 -54v-83l157 55v-52l-157 -54v-238h45c150 0 214 72 238 187z" />
    <glyph glyph-name="uni20B9.tf" 
d="M388 649l-1 -2c26 -15 50 -40 64 -78h97v-51h-85c1 -10 1 -21 1 -32c0 -131 -86 -201 -226 -202l199 -284h-67l-200 291v41h63c115 0 178 57 178 159c0 9 -1 18 -2 27h-270v51h258c-25 57 -78 80 -142 80h-116v51h409v-51h-160z" />
    <glyph glyph-name="sterling.tf" 
d="M85 0v52c63 14 77 67 77 137c0 39 -4 88 -9 139h-69v49h64c-5 51 -9 100 -9 137c0 141 76 199 186 199c85 0 183 -35 202 -188l-52 -14c-12 90 -48 150 -147 150c-89 0 -136 -48 -136 -152c0 -35 5 -82 10 -132h224v-49h-219c5 -50 10 -98 10 -136
c0 -74 -17 -124 -56 -141l1 -2c4 1 99 3 205 3h173v-52h-455z" />
    <glyph glyph-name="yen.tf" 
d="M409 440h121v-51h-148l-42 -78v-2h190v-51h-190v-258h-56v258h-182v51h182v2l-42 78h-140v51h113l-141 260h62l130 -245l47 -90h2l47 91l128 244h59z" />
    <glyph glyph-name="cent.tosf" 
d="M320 69c74 0 131 40 158 112l50 -14c-31 -87 -101 -139 -184 -147v-105h-47v105c-121 10 -205 105 -205 261s81 248 205 259v103h47v-103c82 -7 158 -53 187 -157l-49 -13c-21 74 -75 122 -158 122c-111 0 -179 -78 -179 -211c0 -135 70 -212 175 -212z" />
    <glyph glyph-name="currency.tosf" 
d="M552 532l-68 -71c37 -44 59 -106 59 -181c0 -71 -20 -131 -53 -174l71 -74l-32 -31l-69 72c-39 -34 -91 -55 -149 -55c-57 0 -108 21 -148 55l-70 -72l-31 31l71 74c-33 43 -52 102 -52 174c0 74 21 137 58 181l-68 71l31 30l69 -70c38 31 87 49 140 49
c54 0 103 -17 142 -48l68 69zM311 491c-103 0 -178 -83 -178 -211c0 -130 75 -211 178 -211c105 0 179 81 179 211c0 128 -74 211 -179 211z" />
    <glyph glyph-name="dollar.tosf" 
d="M491 141c0 -90 -59 -145 -153 -151v-80h-46v80c-71 6 -146 40 -160 144l49 14c7 -72 58 -113 137 -113c73 0 120 38 120 105c0 89 -79 107 -152 130c-62 20 -143 48 -143 155c0 84 53 136 143 144v81h46v-80c83 -7 140 -50 154 -134l-48 -14c-12 64 -47 102 -126 102
c-75 0 -117 -37 -117 -97c0 -75 59 -95 131 -117c72 -23 165 -53 165 -169z" />
    <glyph glyph-name="Euro.tosf" 
d="M480 150l52 -15c-26 -84 -86 -146 -201 -146c-127 0 -202 74 -221 218h-49v45h45v31v24h-45v45h48c17 144 89 218 217 218c99 0 183 -44 202 -155l-51 -14c-10 49 -44 119 -149 119c-100 0 -149 -61 -162 -168h177v-45h-181v-23c0 -11 0 -22 1 -32h180v-45h-176
c15 -112 69 -167 166 -167c78 0 124 38 147 110z" />
    <glyph glyph-name="uni20BA.tosf" 
d="M496 195l50 -14c-23 -108 -93 -181 -248 -181h-93v212l-61 -21v46l61 20v56l-61 -21v46l61 20v202h54v-183l132 45v-45l-132 -46v-55l132 45v-45l-132 -46v-179h39c126 0 179 57 198 144z" />
    <glyph glyph-name="uni20B9.tosf" 
d="M373 515l-1 -2c13 -9 30 -26 41 -55h102v-45h-92c1 -7 1 -15 1 -23c0 -107 -83 -162 -176 -164l141 -226h-63l-138 229v45h53c74 0 131 38 131 120c0 7 -1 13 -1 19h-204v45h191c-19 39 -58 57 -110 57h-81v45h348v-45h-142z" />
    <glyph glyph-name="sterling.tosf" 
d="M119 0v51c52 11 64 50 64 105c0 28 -3 63 -7 100h-58v46h53c-5 40 -8 78 -8 108c0 111 65 160 163 160c74 0 158 -29 174 -152l-50 -14c-11 71 -42 116 -123 116c-72 0 -111 -39 -111 -119c0 -25 4 -61 8 -99h189v-46h-184c4 -37 8 -72 8 -98c0 -56 -13 -94 -45 -107
l1 -2c4 0 83 2 171 2h147v-51h-392z" />
    <glyph glyph-name="yen.tosf" 
d="M347 252h137v-45h-146v-207h-54v207h-145v45h137l-30 55h-107v45h83l-113 208h59l95 -181c16 -31 47 -88 48 -90h2c1 2 32 59 48 90l94 181h58l-112 -208h83v-45h-107z" />
    <glyph glyph-name="yen" unicode="&#xa5;" horiz-adv-x="443" 
d="M257 252h137v-45h-145v-207h-54v207h-145v45h136l-30 55h-106v45h82l-112 208h59l95 -181c16 -31 47 -88 48 -90h1c1 2 33 59 48 90l95 181h58l-113 -208h83v-45h-107z" />
    <glyph glyph-name="asciitilde" unicode="~" 
d="M496 339l9 -48c-10 -14 -44 -43 -103 -43c-67 0 -112 42 -179 42c-49 0 -77 -25 -95 -44l-10 47c11 14 45 47 104 47c67 0 111 -41 179 -41c48 0 77 22 95 40z" />
    <glyph glyph-name="asciitilde.case" 
d="M496 403l9 -48c-10 -14 -44 -43 -103 -43c-67 0 -112 41 -179 41c-49 0 -77 -25 -95 -44l-10 48c11 14 45 46 104 46c67 0 111 -41 179 -41c48 0 77 23 95 41z" />
    <glyph glyph-name="divide.case" 
d="M312 484c-28 0 -43 19 -43 43c0 25 16 43 43 43s43 -19 43 -43c0 -25 -16 -43 -43 -43zM485 331h-347v49h347v-49zM312 145c-28 0 -43 18 -43 43c0 24 16 42 43 42s43 -18 43 -42c0 -25 -16 -43 -43 -43z" />
    <glyph glyph-name="equal.case" 
d="M485 413h-347v49h347v-49zM485 248h-347v49h347v-49z" />
    <glyph glyph-name="greater.case" 
d="M472 354v2l-343 192v55l398 -223v-49l-398 -224v56z" />
    <glyph glyph-name="greaterequal.case" 
d="M466 381v3l-358 170v53l408 -195v-59l-408 -195v53zM516 0h-408v49h408v-49z" />
    <glyph glyph-name="less.case" 
d="M494 111l-398 224v49l398 223v-55l-342 -192v-2l342 -191v-56z" />
    <glyph glyph-name="lessequal.case" 
d="M516 158l-409 195v59l409 195v-53l-359 -170v-3l359 -170v-53zM516 49v-49h-409v49h409z" />
    <glyph glyph-name="minus.case" 
d="M485 331h-347v49h347v-49z" />
    <glyph glyph-name="multiply.case" 
d="M345 354l118 -126l-35 -33l-116 124l-116 -124l-35 33l118 126l-118 127l35 32l116 -123l116 123l35 -33z" />
    <glyph glyph-name="notequal.case" 
d="M360 414l-47 -116h172v-49h-192l-52 -128h-50l52 128h-105v49h125l47 116h-172v49h192l53 131h50l-53 -131h105v-49h-125z" />
    <glyph glyph-name="plus.case" 
d="M485 331h-148v-158h-51v158h-148v49h148v157h51v-157h148v-49z" />
    <glyph glyph-name="plusminus.case" 
d="M485 397v-49h-147v-167h-53v167h-147v49h147v166h53v-166h147zM138 49h347v-49h-347v49z" />
    <glyph glyph-name="divide" unicode="&#xf7;" 
d="M312 419c-28 0 -43 19 -43 43c0 25 16 42 43 42s43 -18 43 -42c0 -25 -16 -43 -43 -43zM485 266h-347v49h347v-49zM312 79c-28 0 -43 19 -43 43c0 25 16 43 43 43s43 -18 43 -43s-16 -43 -43 -43z" />
    <glyph glyph-name="equal" unicode="=" 
d="M485 350h-347v49h347v-49zM485 185h-347v49h347v-49z" />
    <glyph glyph-name="greater" unicode="&#x3e;" 
d="M472 291v2l-343 191v56l398 -223v-50l-398 -223v55z" />
    <glyph glyph-name="greaterequal" unicode="&#x2265;" 
d="M466 318v3l-358 168v54l408 -194v-59l-408 -194v54zM516 0h-408v49h408v-49z" />
    <glyph glyph-name="less" unicode="&#x3c;" 
d="M494 44l-398 223v50l398 223v-56l-342 -191v-2l342 -192v-55z" />
    <glyph glyph-name="lessequal" unicode="&#x2264;" 
d="M516 96l-409 194v59l409 194v-54l-359 -168v-3l359 -168v-54zM516 49v-49h-409v49h409z" />
    <glyph glyph-name="percent.lf" horiz-adv-x="753" 
d="M170 300c-87 0 -135 68 -135 204s48 204 135 204s134 -68 134 -204s-47 -204 -134 -204zM504 700l-210 -700h-45l209 700h46zM170 342c59 0 90 51 90 162c0 112 -31 162 -90 162s-91 -50 -91 -162c0 -111 32 -162 91 -162zM583 -8c-86 0 -134 68 -134 204s48 204 134 204
c87 0 135 -68 135 -204s-48 -204 -135 -204zM583 34c59 0 91 51 91 162c0 112 -32 162 -91 162c-58 0 -90 -50 -90 -162c0 -111 32 -162 90 -162z" />
    <glyph glyph-name="perthousand.lf" horiz-adv-x="1089" 
d="M170 300c-87 0 -135 68 -135 204s48 204 135 204s134 -68 134 -204s-47 -204 -134 -204zM504 700l-210 -700h-45l209 700h46zM170 342c59 0 90 51 90 162c0 112 -31 162 -90 162s-91 -50 -91 -162c0 -111 32 -162 91 -162zM583 -8c-86 0 -134 68 -134 204s48 204 134 204
c87 0 135 -68 135 -204s-48 -204 -135 -204zM919 -8c-86 0 -134 68 -134 204s48 204 134 204c87 0 135 -68 135 -204s-48 -204 -135 -204zM583 34c59 0 91 51 91 162c0 112 -32 162 -91 162c-58 0 -90 -50 -90 -162c0 -111 32 -162 90 -162zM919 34c59 0 91 51 91 162
c0 112 -32 162 -91 162c-58 0 -90 -50 -90 -162c0 -111 32 -162 90 -162z" />
    <glyph glyph-name="minus" unicode="&#x2212;" 
d="M485 267h-347v49h347v-49z" />
    <glyph glyph-name="multiply" unicode="&#xd7;" 
d="M345 292l118 -126l-35 -33l-116 124l-116 -124l-35 33l118 126l-118 127l35 32l116 -123l116 123l35 -33z" />
    <glyph glyph-name="notequal" unicode="&#x2260;" 
d="M360 350l-47 -116h172v-49h-192l-52 -129h-50l52 129h-105v49h125l47 116h-172v49h192l53 130h50l-53 -130h105v-49h-125z" />
    <glyph glyph-name="percent" unicode="%" horiz-adv-x="656" 
d="M150 217c-79 0 -115 58 -115 177c0 118 36 176 115 176s114 -58 114 -176c0 -119 -35 -177 -114 -177zM438 560l-179 -560h-43l179 560h43zM150 258c50 0 73 39 73 136s-23 135 -73 135s-74 -38 -74 -135s24 -136 74 -136zM506 -7c-79 0 -114 59 -114 178
c0 118 35 177 114 177s114 -59 114 -177c0 -119 -35 -178 -114 -178zM506 35c50 0 74 39 74 136c0 96 -24 135 -74 135s-74 -39 -74 -135c0 -97 24 -136 74 -136z" />
    <glyph glyph-name="perthousand" unicode="&#x2030;" horiz-adv-x="929" 
d="M150 217c-79 0 -115 58 -115 177c0 118 36 176 115 176s114 -58 114 -176c0 -119 -35 -177 -114 -177zM438 560l-179 -560h-43l179 560h43zM150 258c50 0 73 39 73 136s-23 135 -73 135s-74 -38 -74 -135s24 -136 74 -136zM780 -7c-80 0 -115 59 -115 178
c0 118 35 177 115 177c78 0 114 -59 114 -177c0 -119 -36 -178 -114 -178zM506 -7c-79 0 -114 59 -114 178c0 118 35 177 114 177s114 -59 114 -177c0 -119 -35 -178 -114 -178zM506 35c50 0 74 39 74 136c0 96 -24 135 -74 135s-74 -39 -74 -135c0 -97 24 -136 74 -136z
M779 35c50 0 74 39 74 136c0 96 -24 135 -74 135c-49 0 -73 -39 -73 -135c0 -97 24 -136 73 -136z" />
    <glyph glyph-name="plus" unicode="+" 
d="M485 267h-148v-158h-51v158h-148v49h148v157h51v-157h148v-49z" />
    <glyph glyph-name="plusminus" unicode="&#xb1;" 
d="M485 350v-49h-147v-156h-52v156h-148v49h147v156h52l1 -156h147zM138 49h347v-49h-347v49z" />
    <glyph glyph-name="percent.tf" 
d="M154 300c-88 0 -120 71 -120 204s32 204 120 204s120 -71 120 -204s-32 -204 -120 -204zM492 700l-319 -700h-41l318 700h42zM154 346c58 0 77 51 77 158s-19 158 -77 158c-57 0 -76 -51 -76 -158s19 -158 76 -158zM469 -8c-88 0 -121 71 -121 204c0 132 33 204 121 204
s120 -72 120 -204c0 -133 -32 -204 -120 -204zM469 38c57 0 76 51 76 158s-19 158 -76 158s-77 -51 -77 -158s20 -158 77 -158z" />
    <glyph glyph-name="percent.tosf" 
d="M157 216c-78 0 -105 62 -105 178c0 115 27 176 105 176s105 -61 105 -176c0 -116 -27 -178 -105 -178zM420 560l-179 -560h-40l178 560h41zM157 258c49 0 65 43 65 136c0 92 -16 135 -65 135c-48 0 -65 -43 -65 -135c0 -93 17 -136 65 -136zM467 -7
c-78 0 -105 62 -105 178c0 115 27 177 105 177c77 0 104 -62 104 -177c0 -116 -27 -178 -104 -178zM467 34c48 0 65 45 65 137s-17 135 -65 135c-49 0 -66 -43 -66 -135s17 -137 66 -137z" />
    <glyph glyph-name="lozenge" unicode="&#x25ca;" horiz-adv-x="709" 
d="M355 714l331 -363l-331 -363l-332 363zM355 58l267 293l-267 293l-267 -293z" />
    <glyph glyph-name="ampersand" unicode="&#x26;" horiz-adv-x="563" 
d="M449 265v-87c0 -117 -66 -189 -200 -189c-130 0 -195 66 -195 160c0 86 55 133 113 142v2c-48 10 -106 49 -106 135c0 88 60 142 176 142c95 0 185 -33 210 -145l-50 -14c-15 60 -52 111 -156 111c-89 0 -125 -38 -125 -97c0 -64 45 -110 135 -110h283v-49zM396 266h-147
c-83 0 -141 -38 -141 -115c0 -69 46 -114 141 -114c98 0 147 48 147 142v87z" />
    <glyph glyph-name="uniF8FF" unicode="&#xf8ff;" horiz-adv-x="769" 
d="M693 82v45c-1 196 -13 210 -22 222l-25 29l-11 13l11 12l22 26c12 12 24 24 25 227v44h-44c-202 0 -214 -13 -227 -25l-20 -17l-17 -16l-18 16l-20 19c-12 10 -25 22 -229 23h-43v-44c0 -201 13 -215 23 -227l24 -27l10 -11l-10 -12l-24 -27c-10 -11 -23 -24 -23 -227
v-43h43c200 0 215 13 227 24l27 23l11 10l13 -10l27 -23c12 -11 24 -23 226 -24h44zM248 391l-79 89c-3 20 -5 76 -7 133c57 -1 113 -4 133 -7l88 -81l91 81c20 3 76 6 132 7c-2 -56 -4 -112 -7 -133l-81 -89l81 -91c2 -20 5 -75 7 -130c-57 1 -112 3 -133 7l-90 79l-89 -79
c-20 -4 -76 -6 -132 -7c2 55 4 111 7 132zM79 14l-4 -12c4 -2 9 -3 16 -3c17 0 24 8 24 17c0 8 -6 13 -14 16c-6 2 -11 5 -11 7s3 4 7 4c6 0 10 -3 12 -4l3 12c-3 2 -8 3 -15 3c-13 0 -21 -8 -21 -17c0 -8 6 -13 15 -16c6 -2 9 -4 9 -6c0 -4 -3 -5 -7 -5c-6 0 -11 3 -14 4z
M557 1l-3 12c-2 -2 -5 -3 -9 -3c-9 0 -15 6 -15 16c0 11 7 17 15 17c5 0 7 -1 9 -3l4 12c-2 1 -7 2 -14 2c-16 0 -29 -10 -29 -29c0 -14 8 -26 28 -26c7 0 11 1 14 2zM613 26c0 16 -10 28 -27 28s-27 -12 -27 -28c0 -15 9 -27 27 -27c16 0 27 10 27 27zM147 0v20l17 33h-16
l-8 -23l-7 23h-17l17 -33v-20h14zM183 0l-1 35l19 -35h15v53h-13v-32l-16 32h-18v-53h14zM235 0h13v42h14v11h-41v-11h14v-42zM267 53v-53h15v21h18v-21h14v53h-14v-20h-18v20h-15zM352 0l17 53h-15l-10 -39l-9 39h-16l17 -53h16zM374 53v-53h15v53h-15zM431 32h-19v10h21
v11h-36v-53h36v11h-21v10h19v11zM465 0l7 35l6 -35h16l13 53h-14l-7 -36l-6 36h-15l-6 -36l-7 36h-15l13 -53h15zM678 0l-2 53h-19l-9 -34l-8 34h-19l-4 -53h14l1 40l11 -39h10l11 39v-40h14zM574 26c0 11 5 17 12 17s11 -7 11 -17s-4 -16 -11 -16c-8 0 -12 6 -12 16z
M508 -1c-4 0 -6 3 -6 6c0 4 3 6 6 6c4 0 6 -3 6 -6c0 -4 -3 -6 -6 -6z" />
    <glyph glyph-name="asciicircum" unicode="^" 
d="M313 657l-200 -292l-44 25l217 315h54l214 -315l-44 -25z" />
    <glyph glyph-name="at" unicode="@" horiz-adv-x="713" 
d="M455 152h-2c-17 -45 -59 -78 -117 -78c-81 0 -145 62 -145 180c0 114 53 185 144 185c77 0 104 -50 109 -63h2v-104c0 76 -41 121 -103 121c-69 0 -100 -55 -100 -138c0 -87 38 -135 100 -135c66 0 99 51 103 117v188h52v-224c0 -58 18 -84 55 -84c51 0 77 56 77 152
c0 198 -106 316 -273 316c-166 0 -274 -118 -274 -321c0 -207 103 -318 261 -318c128 0 182 55 195 69l35 -26c-54 -56 -151 -85 -228 -85c-188 0 -308 131 -308 361c0 222 129 362 318 362c194 0 319 -141 319 -358c0 -119 -42 -196 -126 -196c-48 0 -87 33 -94 79z" />
    <glyph glyph-name="bar" unicode="|" horiz-adv-x="169" 
d="M60 775h49v-849h-49v849z" />
    <glyph glyph-name="brokenbar" unicode="&#xa6;" horiz-adv-x="169" 
d="M109 490h-49v285h49v-285zM109 -74h-49v285h49v-285z" />
    <glyph glyph-name="ampersand.case" horiz-adv-x="651" 
d="M519 344v-133c0 -146 -79 -223 -232 -223c-156 0 -233 79 -233 196c0 111 68 174 140 183v3c-61 12 -129 63 -129 168c0 103 67 175 213 175c114 0 208 -43 235 -178l-52 -14c-15 85 -68 142 -182 142c-113 0 -158 -53 -158 -129c0 -84 55 -140 170 -140h343v-50h-115z
M464 344h-175c-112 0 -179 -54 -179 -155c0 -91 56 -150 179 -150c119 0 175 56 175 176v129z" />
    <glyph glyph-name="at.case" horiz-adv-x="713" 
d="M455 235h-2c-17 -44 -59 -77 -117 -77c-81 0 -145 61 -145 180c0 114 53 184 144 184c77 0 104 -49 109 -62h2v-104c0 76 -41 120 -103 120c-69 0 -100 -54 -100 -137c0 -87 38 -135 100 -135c66 0 99 50 103 117v187h52v-224c0 -57 18 -83 55 -83c51 0 77 56 77 152
c0 198 -106 316 -273 316c-166 0 -274 -118 -274 -322c0 -206 103 -317 261 -317c128 0 182 55 195 69l35 -26c-54 -56 -151 -85 -228 -85c-188 0 -308 131 -308 361c0 222 129 362 318 362c194 0 319 -141 319 -359c0 -119 -42 -195 -126 -195c-48 0 -87 33 -94 78z" />
    <glyph glyph-name="copyright.case" horiz-adv-x="728" 
d="M364 714c187 0 326 -139 326 -364c0 -226 -139 -364 -326 -364s-326 138 -326 364c0 225 139 364 326 364zM364 676c-169 0 -287 -118 -287 -326s118 -327 287 -327c168 0 287 119 287 327c0 209 -119 326 -287 326zM475 276l40 -12c-25 -63 -80 -105 -157 -105
c-101 0 -169 72 -169 191c0 123 72 191 171 191c70 0 133 -33 153 -112l-40 -11c-5 25 -32 83 -111 83c-78 0 -129 -55 -129 -150c0 -97 50 -151 127 -151c57 0 95 30 115 76z" />
    <glyph glyph-name="uni2116.case" horiz-adv-x="1032" 
d="M684 537c0 106 67 173 156 173c90 0 157 -69 157 -173c0 -105 -67 -173 -157 -173s-156 69 -156 173zM514 0l-384 610h-2c0 -1 3 -81 3 -166v-444h-56v700h60l384 -608h2c0 1 -2 82 -2 165v443h55v-700h-60zM726 537c0 -82 46 -133 114 -133c69 0 115 53 115 133
c0 82 -47 133 -115 133c-69 0 -114 -52 -114 -133zM987 264h-292v41h292v-41z" />
    <glyph glyph-name="paragraph.case" horiz-adv-x="512" 
d="M381 0v647h-88v-647h-55v358c-138 0 -200 70 -200 172c0 101 62 170 200 170h198v-700h-55z" />
    <glyph glyph-name="uni2117.case" horiz-adv-x="728" 
d="M364 714c187 0 326 -139 326 -364c0 -226 -139 -364 -326 -364s-326 138 -326 364c0 225 139 364 326 364zM364 676c-169 0 -287 -118 -287 -326s118 -327 287 -327c168 0 287 119 287 327c0 209 -119 326 -287 326zM271 536h104c84 0 131 -43 131 -115
c0 -69 -46 -111 -135 -111h-56v-143h-44v369zM315 349h60c59 0 87 27 87 72c0 46 -29 73 -87 73h-60v-145z" />
    <glyph glyph-name="registered.case" horiz-adv-x="728" 
d="M364 714c187 0 326 -139 326 -364c0 -226 -139 -364 -326 -364s-326 138 -326 364c0 225 139 364 326 364zM364 676c-169 0 -287 -118 -287 -326s118 -327 287 -327c168 0 287 119 287 327c0 209 -119 326 -287 326zM450 167l-80 154c-14 -2 -27 -2 -34 -2h-37v-152h-44
v369h105c84 0 132 -40 132 -109c0 -56 -33 -88 -79 -99l85 -161h-48zM299 356h62c55 0 86 23 86 69c0 49 -33 70 -87 70h-61v-139z" />
    <glyph glyph-name="copyright" unicode="&#xa9;" horiz-adv-x="728" 
d="M364 630c187 0 326 -138 326 -364c0 -225 -139 -364 -326 -364s-326 139 -326 364c0 226 139 364 326 364zM364 593c-169 0 -287 -118 -287 -326s118 -327 287 -327c168 0 287 118 287 327s-119 326 -287 326zM475 193l40 -12c-25 -64 -80 -105 -157 -105
c-101 0 -169 72 -169 191c0 122 72 191 171 191c70 0 133 -34 153 -113l-40 -11c-5 26 -32 83 -111 83c-78 0 -129 -54 -129 -149c0 -97 50 -151 127 -151c57 0 95 30 115 76z" />
    <glyph glyph-name="dagger" unicode="&#x2020;" 
d="M340 509h172v-51h-172v-152c0 -141 -7 -305 -8 -306h-41c-1 1 -7 165 -7 306v152h-172v51h172v191h56v-191z" />
    <glyph glyph-name="daggerdbl" unicode="&#x2021;" 
d="M340 306v-6h172v-51h-172c-2 -124 -7 -248 -8 -249h-41c0 1 -5 125 -7 249h-172v51h172v6v152h-172v51h172v191h56v-191h172v-51h-172v-152z" />
    <glyph glyph-name="degree" unicode="&#xb0;" horiz-adv-x="239" 
d="M119 596c-58 0 -99 41 -99 106c0 63 41 105 99 105c59 0 99 -42 99 -105c0 -65 -40 -106 -99 -106zM119 635c37 0 60 26 60 67s-23 67 -60 67c-36 0 -60 -26 -60 -67s24 -67 60 -67z" />
    <glyph glyph-name="uni2116" unicode="&#x2116;" horiz-adv-x="945" 
d="M598 397c0 106 66 173 156 173s156 -69 156 -173c0 -105 -67 -173 -156 -173c-91 0 -156 69 -156 173zM488 0h-58l-301 478h-2c0 -1 1 -65 1 -132v-346h-53v560h59l300 -472h2c0 1 -1 62 -1 127v345h53v-560zM639 397c0 -82 47 -133 115 -133c69 0 114 53 114 133
c0 82 -46 133 -114 133c-69 0 -115 -52 -115 -133zM901 124h-293v41h293v-41z" />
    <glyph glyph-name="paragraph" unicode="&#xb6;" horiz-adv-x="512" 
d="M381 -140v647h-88v-647h-55v358c-138 0 -200 70 -200 172c0 101 62 170 200 170h198v-700h-55z" />
    <glyph glyph-name="uni2117" unicode="&#x2117;" horiz-adv-x="728" 
d="M364 630c187 0 326 -138 326 -364c0 -225 -139 -364 -326 -364s-326 139 -326 364c0 226 139 364 326 364zM364 593c-169 0 -287 -118 -287 -326s118 -327 287 -327c168 0 287 118 287 327s-119 326 -287 326zM271 452h104c84 0 131 -42 131 -114
c0 -69 -46 -112 -135 -112h-56v-143h-44v369zM315 265h60c59 0 87 28 87 73c0 46 -29 72 -87 72h-60v-145z" />
    <glyph glyph-name="registered" unicode="&#xae;" horiz-adv-x="728" 
d="M364 630c187 0 326 -138 326 -364c0 -225 -139 -364 -326 -364s-326 139 -326 364c0 226 139 364 326 364zM364 593c-169 0 -287 -118 -287 -326s118 -327 287 -327c168 0 287 118 287 327s-119 326 -287 326zM450 83l-80 154c-14 -1 -27 -1 -34 -1h-37v-153h-44v369h105
c84 0 132 -39 132 -108c0 -56 -33 -89 -79 -99l85 -162h-48zM299 273h62c55 0 86 22 86 69c0 49 -33 70 -87 70h-61v-139z" />
    <glyph glyph-name="section" unicode="&#xa7;" 
d="M434 250c59 -21 97 -54 97 -120c0 -100 -86 -142 -211 -142c-112 0 -221 39 -233 141l52 14c5 -77 74 -109 178 -109c90 0 158 24 158 97c0 75 -71 86 -204 111c-75 15 -180 39 -180 132c0 61 46 97 105 112c-58 21 -94 52 -94 110c0 90 96 118 194 118
c97 0 199 -27 218 -139l-48 -13c-16 82 -82 108 -172 108c-67 0 -136 -15 -136 -74c0 -60 65 -74 174 -95c119 -25 201 -45 201 -137c0 -65 -43 -100 -99 -114zM143 379c0 -69 87 -85 186 -103l41 -8c61 8 111 36 111 89c0 76 -94 87 -183 104l-35 7
c-55 -7 -120 -30 -120 -89z" />
    <glyph glyph-name="trademark" unicode="&#x2122;" horiz-adv-x="704" 
d="M629 375h-41v142c0 56 1 134 1 135h-1c-1 -1 -16 -43 -31 -73l-59 -130h-31l-59 130c-15 30 -32 72 -33 73h-1c0 -1 1 -79 1 -135v-142h-40v325h56l69 -155c13 -28 22 -49 23 -50h1c1 1 9 21 22 50l68 155h55v-325zM277 700v-39h-102v-286h-41v286h-101v39h244z" />
    <glyph glyph-name="acute" unicode="&#xb4;" horiz-adv-x="468" 
d="M217 754h-54l93 153l48 -14z" />
    <glyph glyph-name="breve" unicode="&#x2d8;" horiz-adv-x="468" 
d="M97 865h45c2 -42 30 -79 89 -79s87 40 89 79h45c-3 -66 -54 -121 -134 -121s-131 53 -134 121z" />
    <glyph glyph-name="tilde.cap" horiz-adv-x="468" 
d="M355 853l14 -41c-7 -9 -28 -30 -70 -30c-52 0 -78 34 -126 34c-34 0 -52 -16 -61 -25l-14 41c9 10 27 31 70 31c52 0 76 -34 128 -34c32 0 48 13 59 24z" />
    <glyph glyph-name="caron" unicode="&#x2c7;" horiz-adv-x="468" 
d="M109 872l29 31l96 -87l95 87l29 -31l-124 -113z" />
    <glyph glyph-name="cedilla" unicode="&#xb8;" horiz-adv-x="468" 
d="M333 -92c0 -49 -37 -79 -103 -79c-33 0 -59 7 -73 16v42c14 -9 37 -15 66 -15c40 0 64 12 64 42c0 34 -33 46 -96 47v51h45v-25c57 -5 97 -27 97 -79z" />
    <glyph glyph-name="circumflex" unicode="&#x2c6;" horiz-adv-x="468" 
d="M358 792l-30 -32l-94 87l-95 -87l-30 32l125 113z" />
    <glyph glyph-name="dieresis" unicode="&#xa8;" horiz-adv-x="468" 
d="M150 779c-20 0 -36 17 -36 39c0 21 16 38 36 38c21 0 37 -17 37 -38c0 -22 -16 -39 -37 -39zM316 779c-21 0 -36 17 -36 39c0 21 15 38 36 38s37 -17 37 -38c0 -22 -16 -39 -37 -39z" />
    <glyph glyph-name="dotaccent" unicode="&#x2d9;" horiz-adv-x="468" 
d="M234 779c-21 0 -37 17 -37 39s16 38 37 38s36 -16 36 -38s-15 -39 -36 -39z" />
    <glyph glyph-name="grave" unicode="`" horiz-adv-x="468" 
d="M212 907l92 -153h-53l-88 139z" />
    <glyph glyph-name="hungarumlaut" unicode="&#x2dd;" horiz-adv-x="468" 
d="M179 754h-53l92 153l49 -14zM331 754h-54l93 153l48 -14z" />
    <glyph glyph-name="caron.l" horiz-adv-x="468" 
d="M225 700h48c1 -70 -22 -158 -39 -196h-44c16 39 36 127 35 196z" />
    <glyph glyph-name="macron" unicode="&#xaf;" horiz-adv-x="468" 
d="M364 781h-260v49h260v-49z" />
    <glyph glyph-name="ogonek" unicode="&#x2db;" horiz-adv-x="468" 
d="M261 29l22 -29c-58 -5 -90 -30 -90 -70c0 -34 21 -55 62 -55c24 0 50 5 68 17v-47c-17 -10 -47 -16 -72 -16c-66 0 -106 40 -106 96c0 50 33 96 116 104z" />
    <glyph glyph-name="ring" unicode="&#x2da;" horiz-adv-x="468" 
d="M234 742c-53 0 -88 36 -88 86s35 85 88 85s87 -35 87 -85s-34 -86 -87 -86zM234 779c29 0 48 19 48 49s-19 49 -48 49c-30 0 -48 -19 -48 -49s18 -49 48 -49z" />
    <glyph glyph-name="tilde" unicode="&#x2dc;" horiz-adv-x="468" 
d="M340 853l14 -43c-6 -9 -26 -28 -61 -28c-48 0 -72 34 -116 34c-29 0 -44 -16 -51 -25l-14 42c7 10 26 30 62 30c47 0 70 -34 115 -34c30 0 42 14 51 24z" />
    <glyph glyph-name="commaaccentcomb" unicode="&#x326;" horiz-adv-x="0" 
d="M237 -97c-22 -5 -41 8 -41 30s14 36 40 36s42 -16 42 -48c0 -40 -25 -83 -71 -101l-20 23c26 10 47 38 50 60z" />
    </font>
</defs>
</svg>
