<?xml version="1.0" standalone="no"?>
<!DOCTYPE svg PUBLIC "-//W3C//DTD SVG 1.1//EN" "http://www.w3.org/Graphics/SVG/1.1/DTD/svg11.dtd" >
<svg xmlns="http://www.w3.org/2000/svg" width="100%" height="100%">
<metadata>
Created by FontXChange 20100429 at Thu May  1 17:02:19 2014
 By Anders Poulsen
Copyright (c) 2013 by Jan Tonellato. All rights reserved.
</metadata>
<defs>
<font id="Novecentosans-Bold" horiz-adv-x="623" >
  <font-face 
    font-family="Novecento sans Book"
    font-weight="700"
    font-stretch="normal"
    units-per-em="1000"
    panose-1="0 0 8 0 0 0 0 0 0 0"
    ascent="821"
    descent="-179"
    x-height="560"
    cap-height="700"
    bbox="-72 -220 1107 967"
    underline-thickness="145"
    underline-position="-39"
    stemh="145"
    stemv="155"
    unicode-range="U+0020-F8FF"
  />
<missing-glyph horiz-adv-x="602" 
d="M50 85v530c0 53 36 85 85 85h332c49 0 85 -32 85 -85v-530c0 -55 -36 -85 -85 -85h-332c-49 0 -85 30 -85 85zM147 22h308c49 0 74 20 74 76v504c0 56 -27 76 -84 76h-288c-63 0 -84 -20 -84 -76v-504c0 -56 27 -76 74 -76zM392 349l107 -112l-97 -92l-101 107l-102 -107
l-96 92l107 112l-108 112l97 92l102 -106l101 105l98 -91z" />
    <glyph glyph-name=".notdef" horiz-adv-x="602" 
d="M50 85v530c0 53 36 85 85 85h332c49 0 85 -32 85 -85v-530c0 -55 -36 -85 -85 -85h-332c-49 0 -85 30 -85 85zM147 22h308c49 0 74 20 74 76v504c0 56 -27 76 -84 76h-288c-63 0 -84 -20 -84 -76v-504c0 -56 27 -76 74 -76zM392 349l107 -112l-97 -92l-101 107l-102 -107
l-96 92l107 112l-108 112l97 92l102 -106l101 105l98 -91z" />
    <glyph glyph-name="A" unicode="A" horiz-adv-x="673" 
d="M456 119h-243l-35 -119h-166l226 700h197l225 -700h-169zM413 265l-44 152c-18 59 -32 111 -33 112h-3c-1 -1 -15 -52 -33 -111l-44 -153h157z" />
    <glyph glyph-name="Aacute" unicode="&#xc1;" horiz-adv-x="673" 
d="M403 754h-140l103 179l126 -36zM456 119h-243l-35 -119h-166l226 700h197l225 -700h-169zM413 265l-44 152c-18 59 -32 111 -33 112h-3c-1 -1 -15 -52 -33 -111l-44 -153h157z" />
    <glyph glyph-name="Abreve" unicode="&#x102;" horiz-adv-x="673" 
d="M336 741c-104 0 -169 55 -173 154h114c1 -32 19 -53 59 -53s58 22 58 53h114c-3 -99 -69 -154 -172 -154zM456 119h-243l-35 -119h-166l226 700h197l225 -700h-169zM413 265l-44 152c-18 59 -32 111 -33 112h-3c-1 -1 -15 -52 -33 -111l-44 -153h157z" />
    <glyph glyph-name="Acircumflex" unicode="&#xc2;" horiz-adv-x="673" 
d="M237 737l-72 84l168 130l168 -130l-72 -84l-96 72zM456 119h-243l-35 -119h-166l226 700h197l225 -700h-169zM413 265l-44 152c-18 59 -32 111 -33 112h-3c-1 -1 -15 -52 -33 -111l-44 -153h157z" />
    <glyph glyph-name="Adieresis" unicode="&#xc4;" horiz-adv-x="673" 
d="M235 763c-40 0 -70 32 -70 73c0 40 31 72 72 72c39 0 68 -32 68 -72c0 -41 -30 -73 -70 -73zM437 763c-40 0 -70 32 -70 73c0 40 30 72 70 72s70 -32 70 -72c0 -41 -30 -73 -70 -73zM456 119h-243l-35 -119h-166l226 700h197l225 -700h-169zM413 265l-44 152
c-18 59 -32 111 -33 112h-3c-1 -1 -15 -52 -33 -111l-44 -153h157z" />
    <glyph glyph-name="Agrave" unicode="&#xc0;" horiz-adv-x="673" 
d="M269 754l-89 143l126 36l103 -179h-140zM456 119h-243l-35 -119h-166l226 700h197l225 -700h-169zM413 265l-44 152c-18 59 -32 111 -33 112h-3c-1 -1 -15 -52 -33 -111l-44 -153h157z" />
    <glyph glyph-name="Amacron" unicode="&#x100;" horiz-adv-x="673" 
d="M493 761h-313v133h313v-133zM456 119h-243l-35 -119h-166l226 700h197l225 -700h-169zM413 265l-44 152c-18 59 -32 111 -33 112h-3c-1 -1 -15 -52 -33 -111l-44 -153h157z" />
    <glyph glyph-name="Aogonek" unicode="&#x104;" horiz-adv-x="673" 
d="M583 -69c39 0 65 8 83 16v-107c-22 -9 -67 -18 -105 -18c-89 0 -144 44 -144 112c0 42 21 79 62 106l-23 79h-243l-35 -119h-166l226 700h197l225 -700h-27c-56 -1 -87 -18 -87 -44c0 -19 15 -25 37 -25zM413 265l-44 152c-18 59 -32 111 -33 112h-3
c-1 -1 -15 -52 -33 -111l-44 -153h157z" />
    <glyph glyph-name="Aring" unicode="&#xc5;" horiz-adv-x="673" 
d="M336 731c-78 0 -131 42 -131 118s53 118 131 118s131 -42 131 -118s-53 -118 -131 -118zM336 891c-28 0 -44 -15 -44 -42s16 -42 44 -42s45 15 45 42s-17 42 -45 42zM456 119h-243l-35 -119h-166l226 700h197l225 -700h-169zM413 265l-44 152c-18 59 -32 111 -33 112h-3
c-1 -1 -15 -52 -33 -111l-44 -153h157z" />
    <glyph glyph-name="Atilde" unicode="&#xc3;" horiz-adv-x="673" 
d="M265 794c-39 0 -70 -13 -84 -27l-25 116c8 13 41 33 92 33c59 0 97 -27 157 -27c39 0 68 14 83 26l25 -116c-8 -12 -41 -32 -91 -32c-60 0 -98 27 -157 27zM456 119h-243l-35 -119h-166l226 700h197l225 -700h-169zM413 265l-44 152c-18 59 -32 111 -33 112h-3
c-1 -1 -15 -52 -33 -111l-44 -153h157z" />
    <glyph glyph-name="AE" unicode="&#xc6;" horiz-adv-x="905" 
d="M867 144v-144h-465v125h-186l-37 -125h-167l227 700h201h423v-144h-306v-130h232v-137h-232v-145h310zM402 262v294h-57l-88 -294h145z" />
    <glyph glyph-name="B" unicode="B" horiz-adv-x="575" 
d="M431 377v-4c63 -20 122 -73 122 -173c0 -112 -72 -200 -234 -200h-269v700h267c124 0 203 -80 203 -181c0 -83 -50 -129 -89 -142zM210 423h83c43 0 70 28 70 71c0 42 -26 71 -72 71h-81v-142zM210 135h97c54 0 81 33 81 81c0 54 -32 86 -82 86h-96v-167z" />
    <glyph glyph-name="C" unicode="C" horiz-adv-x="669" 
d="M489 243l155 -41c-42 -126 -143 -216 -297 -216c-186 0 -321 127 -321 366c0 235 134 362 323 362c155 0 253 -86 290 -202l-156 -42c-28 57 -74 92 -141 92c-97 0 -155 -73 -155 -210c0 -143 62 -214 155 -214c78 0 124 46 147 105z" />
    <glyph glyph-name="Cacute" unicode="&#x106;" horiz-adv-x="669" 
d="M412 754h-140l103 179l126 -36zM489 243l155 -41c-42 -126 -143 -216 -297 -216c-186 0 -321 127 -321 366c0 235 134 362 323 362c155 0 253 -86 290 -202l-156 -42c-28 57 -74 92 -141 92c-97 0 -155 -73 -155 -210c0 -143 62 -214 155 -214c78 0 124 46 147 105z" />
    <glyph glyph-name="Cacute.loclPLK" horiz-adv-x="669" 
d="M406 754h-126l59 193l125 -22zM489 243l155 -41c-42 -126 -143 -216 -297 -216c-186 0 -321 127 -321 366c0 235 134 362 323 362c155 0 253 -86 290 -202l-156 -42c-28 57 -74 92 -141 92c-97 0 -155 -73 -155 -210c0 -143 62 -214 155 -214c78 0 124 46 147 105z" />
    <glyph glyph-name="Ccaron" unicode="&#x10c;" horiz-adv-x="669" 
d="M178 862l70 83l98 -67l97 67l71 -83l-168 -124zM489 243l155 -41c-42 -126 -143 -216 -297 -216c-186 0 -321 127 -321 366c0 235 134 362 323 362c155 0 253 -86 290 -202l-156 -42c-28 57 -74 92 -141 92c-97 0 -155 -73 -155 -210c0 -143 62 -214 155 -214
c78 0 124 46 147 105z" />
    <glyph glyph-name="Ccedilla" unicode="&#xc7;" horiz-adv-x="669" 
d="M489 243l155 -41c-33 -98 -101 -174 -202 -203c22 -16 35 -40 35 -74c0 -61 -42 -103 -141 -103c-34 0 -71 6 -87 13v99c10 -5 31 -9 58 -9c39 0 57 7 57 24c0 22 -33 31 -109 30v19c-137 36 -229 156 -229 354c0 235 134 362 323 362c155 0 253 -86 290 -202l-156 -42
c-28 57 -74 92 -141 92c-97 0 -155 -73 -155 -210c0 -143 62 -214 155 -214c78 0 124 46 147 105z" />
    <glyph glyph-name="Ccircumflex" unicode="&#x108;" horiz-adv-x="669" 
d="M510 821l-71 -84l-97 72l-96 -72l-72 84l168 130zM489 243l155 -41c-42 -126 -143 -216 -297 -216c-186 0 -321 127 -321 366c0 235 134 362 323 362c155 0 253 -86 290 -202l-156 -42c-28 57 -74 92 -141 92c-97 0 -155 -73 -155 -210c0 -143 62 -214 155 -214
c78 0 124 46 147 105z" />
    <glyph glyph-name="Cdotaccent" unicode="&#x10a;" horiz-adv-x="669" 
d="M345 763c-40 0 -70 31 -70 73c0 40 30 72 70 72s70 -32 70 -72c0 -42 -30 -73 -70 -73zM489 243l155 -41c-42 -126 -143 -216 -297 -216c-186 0 -321 127 -321 366c0 235 134 362 323 362c155 0 253 -86 290 -202l-156 -42c-28 57 -74 92 -141 92
c-97 0 -155 -73 -155 -210c0 -143 62 -214 155 -214c78 0 124 46 147 105z" />
    <glyph glyph-name="D" unicode="D" horiz-adv-x="673" 
d="M50 700h269c197 0 329 -138 329 -353c0 -214 -130 -347 -327 -347h-271v700zM210 150h97c97 0 179 53 179 195c0 149 -83 205 -178 205h-98v-400z" />
    <glyph glyph-name="Eth" unicode="&#xd0;" horiz-adv-x="675" 
d="M52 700h269c198 0 329 -138 329 -353c0 -214 -130 -347 -327 -347h-271v283h-42v144h42v273zM212 150h98c96 0 178 53 178 195c0 149 -83 205 -178 205h-98v-123h122v-144h-122v-133z" />
    <glyph glyph-name="Dcaron" unicode="&#x10e;" horiz-adv-x="673" 
d="M154 862l71 83l97 -67l97 67l71 -83l-168 -124zM50 700h269c197 0 329 -138 329 -353c0 -214 -130 -347 -327 -347h-271v700zM210 150h97c97 0 179 53 179 195c0 149 -83 205 -178 205h-98v-400z" />
    <glyph glyph-name="Dcroat" unicode="&#x110;" horiz-adv-x="675" 
d="M52 700h269c198 0 329 -138 329 -353c0 -214 -130 -347 -327 -347h-271v283h-42v144h42v273zM212 150h98c96 0 178 53 178 195c0 149 -83 205 -178 205h-98v-123h122v-144h-122v-133z" />
    <glyph glyph-name="E" unicode="E" horiz-adv-x="556" 
d="M50 0v700h464v-150h-304v-125h225v-139h-225v-136h308v-150h-468z" />
    <glyph glyph-name="Eacute" unicode="&#xc9;" horiz-adv-x="556" 
d="M358 754h-140l103 179l126 -36zM50 0v700h464v-150h-304v-125h225v-139h-225v-136h308v-150h-468z" />
    <glyph glyph-name="Ecaron" unicode="&#x11a;" horiz-adv-x="556" 
d="M123 862l71 83l98 -67l97 67l71 -83l-168 -124zM50 0v700h464v-150h-304v-125h225v-139h-225v-136h308v-150h-468z" />
    <glyph glyph-name="Ecircumflex" unicode="&#xca;" horiz-adv-x="556" 
d="M456 821l-72 -84l-96 72l-96 -72l-72 84l168 130zM50 0v700h464v-150h-304v-125h225v-139h-225v-136h308v-150h-468z" />
    <glyph glyph-name="Edieresis" unicode="&#xcb;" horiz-adv-x="556" 
d="M190 763c-40 0 -69 32 -69 73c0 40 30 72 71 72c39 0 68 -32 68 -72c0 -41 -30 -73 -70 -73zM392 763c-40 0 -70 32 -70 73c0 40 30 72 70 72s70 -32 70 -72c0 -41 -30 -73 -70 -73zM50 0v700h464v-150h-304v-125h225v-139h-225v-136h308v-150h-468z" />
    <glyph glyph-name="Edotaccent" unicode="&#x116;" horiz-adv-x="556" 
d="M291 763c-40 0 -70 31 -70 73c0 40 30 72 70 72s70 -32 70 -72c0 -42 -30 -73 -70 -73zM50 0v700h464v-150h-304v-125h225v-139h-225v-136h308v-150h-468z" />
    <glyph glyph-name="Egrave" unicode="&#xc8;" horiz-adv-x="556" 
d="M261 933l103 -179h-140l-89 143zM50 0v700h464v-150h-304v-125h225v-139h-225v-136h308v-150h-468z" />
    <glyph glyph-name="Emacron" unicode="&#x112;" horiz-adv-x="556" 
d="M448 761h-313v133h313v-133zM50 0v700h464v-150h-304v-125h225v-139h-225v-136h308v-150h-468z" />
    <glyph glyph-name="Eogonek" unicode="&#x118;" horiz-adv-x="556" 
d="M459 -69c31 0 46 8 61 16v-107c-16 -8 -54 -18 -91 -18c-81 0 -149 30 -149 101c0 36 15 60 38 77h-268v700h464v-150h-304v-125h225v-139h-225v-136h308v-150h-34c-45 -2 -74 -10 -74 -37c0 -26 25 -32 49 -32z" />
    <glyph glyph-name="F" unicode="F" horiz-adv-x="538" 
d="M507 550h-297v-141h229v-150h-229v-259h-160v700h457v-150z" />
    <glyph glyph-name="G" unicode="G" horiz-adv-x="695" 
d="M655 0h-144c0 35 1 40 1 47h-3c-35 -33 -97 -59 -170 -59c-169 0 -313 123 -313 364c-1 235 135 362 324 362c152 0 253 -85 289 -202l-156 -42c-21 48 -63 92 -141 92c-97 0 -155 -74 -155 -207c0 -142 66 -217 173 -217c81 0 129 39 146 69v46h-149v150h298v-403z" />
    <glyph glyph-name="Gbreve" unicode="&#x11e;" horiz-adv-x="695" 
d="M174 895h114c1 -32 19 -53 59 -53s58 22 58 53h114c-3 -99 -69 -154 -172 -154c-104 0 -169 55 -173 154zM655 0h-144c0 35 1 40 1 47h-3c-35 -33 -97 -59 -170 -59c-169 0 -313 123 -313 364c-1 235 135 362 324 362c152 0 253 -85 289 -202l-156 -42
c-21 48 -63 92 -141 92c-97 0 -155 -74 -155 -207c0 -142 66 -217 173 -217c81 0 129 39 146 69v46h-149v150h298v-403z" />
    <glyph glyph-name="Gcircumflex" unicode="&#x11c;" horiz-adv-x="695" 
d="M512 821l-72 -84l-96 72l-96 -72l-72 84l168 130zM655 0h-144c0 35 1 40 1 47h-3c-35 -33 -97 -59 -170 -59c-169 0 -313 123 -313 364c-1 235 135 362 324 362c152 0 253 -85 289 -202l-156 -42c-21 48 -63 92 -141 92c-97 0 -155 -74 -155 -207
c0 -142 66 -217 173 -217c81 0 129 39 146 69v46h-149v150h298v-403z" />
    <glyph glyph-name="Gcommaaccent" unicode="&#x122;" horiz-adv-x="695" 
d="M655 0h-144c0 35 1 40 1 47h-3c-35 -33 -97 -59 -170 -59c-169 0 -313 123 -313 364c-1 235 135 362 324 362c152 0 253 -85 289 -202l-156 -42c-21 48 -63 92 -141 92c-97 0 -155 -74 -155 -207c0 -142 66 -217 173 -217c81 0 129 39 146 69v46h-149v150h298v-403z
M335 -134c-32 0 -50 21 -50 50c0 38 30 60 74 60c46 0 78 -23 78 -74c0 -56 -37 -101 -105 -122l-48 54c17 3 42 16 51 32z" />
    <glyph glyph-name="Gdotaccent" unicode="&#x120;" horiz-adv-x="695" 
d="M347 763c-40 0 -70 31 -70 73c0 40 30 72 70 72s70 -32 70 -72c0 -42 -30 -73 -70 -73zM655 0h-144c0 35 1 40 1 47h-3c-35 -33 -97 -59 -170 -59c-169 0 -313 123 -313 364c-1 235 135 362 324 362c152 0 253 -85 289 -202l-156 -42c-21 48 -63 92 -141 92
c-97 0 -155 -74 -155 -207c0 -142 66 -217 173 -217c81 0 129 39 146 69v46h-149v150h298v-403z" />
    <glyph glyph-name="H" unicode="H" horiz-adv-x="647" 
d="M438 0v278h-228v-278h-160v700h160v-266h228v266h160v-700h-160z" />
    <glyph glyph-name="Hbar" unicode="&#x126;" horiz-adv-x="703" 
d="M685 466h-60v-466h-160v241h-228v-241h-160v466h-59v131h59v103h160v-103h228v103h160v-103h60v-131zM465 466h-228v-69h228v69z" />
    <glyph glyph-name="Hcircumflex" unicode="&#x124;" horiz-adv-x="647" 
d="M489 821l-72 -84l-97 72l-96 -72l-72 84l168 130zM438 0v278h-228v-278h-160v700h160v-266h228v266h160v-700h-160z" />
    <glyph glyph-name="I" unicode="I" horiz-adv-x="260" 
d="M50 0v700h160v-700h-160z" />
    <glyph glyph-name="I.ss03" horiz-adv-x="494" 
d="M327 147h119v-147h-399v147h120v406h-120v147h399v-147h-119v-406z" />
    <glyph glyph-name="IJ" unicode="&#x132;" horiz-adv-x="743" 
d="M50 0v700h160v-700h-160zM698 700v-414c0 -197 -86 -300 -255 -300c-86 0 -143 30 -180 76l99 116c20 -25 44 -40 79 -40c85 0 97 55 97 161v401h160z" />
    <glyph glyph-name="IJ.ss03" horiz-adv-x="975" 
d="M930 700v-414c0 -197 -86 -300 -255 -300c-86 0 -143 30 -180 76l99 116c21 -25 44 -40 80 -40c84 0 96 55 96 161v401h160zM327 147h119v-147h-399v147h120v406h-120v147h399v-147h-119v-406z" />
    <glyph glyph-name="IJ.ss03.ss04" horiz-adv-x="975" 
d="M930 700v-414c0 -197 -86 -300 -255 -300c-86 0 -143 30 -180 76l99 116c21 -25 44 -40 80 -40c84 0 96 55 96 161v251h-219v150h379zM47 700h399v-147h-119v-406h119v-147h-399v147h120v406h-120v147z" />
    <glyph glyph-name="IJ.ss04" horiz-adv-x="741" 
d="M50 700h160v-700h-160v700zM696 700v-414c0 -197 -86 -300 -255 -300c-86 0 -143 30 -180 76l99 116c20 -25 44 -40 79 -40c85 0 97 55 97 161v251h-219v150h379z" />
    <glyph glyph-name="Iacute" unicode="&#xcd;" horiz-adv-x="260" 
d="M196 754h-140l103 179l126 -36zM50 0v700h160v-700h-160z" />
    <glyph glyph-name="Iacute.ss03" horiz-adv-x="494" 
d="M314 754h-141l104 179l126 -36zM327 147h119v-147h-399v147h120v406h-120v147h399v-147h-119v-406z" />
    <glyph glyph-name="Iacute_J.loclNLD" horiz-adv-x="743" 
d="M196 754h-140l103 179l126 -36zM689 754h-140l103 179l126 -36zM50 0v700h160v-700h-160zM698 700v-414c0 -197 -86 -300 -255 -300c-86 0 -143 30 -180 76l99 116c20 -25 44 -40 79 -40c85 0 97 55 97 161v401h160z" />
    <glyph glyph-name="Icircumflex" unicode="&#xce;" horiz-adv-x="260" 
d="M263 828l-75 -80l-59 55l-58 -55l-75 80l133 123zM50 0v700h160v-700h-160z" />
    <glyph glyph-name="Icircumflex.ss03" horiz-adv-x="494" 
d="M412 821l-72 -84l-96 72l-97 -72l-72 84l169 130zM327 147h119v-147h-399v147h120v406h-120v147h399v-147h-119v-406z" />
    <glyph glyph-name="Idieresis" unicode="&#xcf;" horiz-adv-x="260" 
d="M52 763c-41 0 -68 32 -68 73c0 40 28 72 69 72c39 0 66 -32 66 -72c0 -41 -28 -73 -67 -73zM207 763c-40 0 -68 32 -68 73c0 40 28 72 68 72s68 -32 68 -72c0 -41 -28 -73 -68 -73zM50 0v700h160v-700h-160z" />
    <glyph glyph-name="Idieresis.ss03" horiz-adv-x="494" 
d="M146 763c-40 0 -70 32 -70 73c0 40 31 72 71 72c39 0 69 -32 69 -72c0 -41 -30 -73 -70 -73zM348 763c-40 0 -70 32 -70 73c0 40 30 72 70 72s70 -32 70 -72c0 -41 -30 -73 -70 -73zM327 147h119v-147h-399v147h120v406h-120v147h399v-147h-119v-406z" />
    <glyph glyph-name="Idotaccent" unicode="&#x130;" horiz-adv-x="260" 
d="M129 763c-40 0 -70 31 -70 73c0 40 30 72 70 72s70 -32 70 -72c0 -42 -30 -73 -70 -73zM50 0v700h160v-700h-160z" />
    <glyph glyph-name="Idotaccent.ss03" horiz-adv-x="494" 
d="M246 763c-40 0 -70 31 -70 73c0 40 30 72 70 72c41 0 70 -32 70 -72c0 -42 -29 -73 -70 -73zM327 147h119v-147h-399v147h120v406h-120v147h399v-147h-119v-406z" />
    <glyph glyph-name="Igrave" unicode="&#xcc;" horiz-adv-x="260" 
d="M99 933l103 -179h-140l-89 143zM50 0v700h160v-700h-160z" />
    <glyph glyph-name="Igrave.ss03" horiz-adv-x="494" 
d="M217 933l103 -179h-140l-89 143zM327 147h119v-147h-399v147h120v406h-120v147h399v-147h-119v-406z" />
    <glyph glyph-name="Imacron" unicode="&#x12a;" horiz-adv-x="260" 
d="M252 759h-245v134h245v-134zM50 0v700h160v-700h-160z" />
    <glyph glyph-name="Imacron.ss03" horiz-adv-x="499" 
d="M449 767h-399v127h399v-127zM329 147h120v-147h-399v147h119v406h-119v147h399v-147h-120v-406z" />
    <glyph glyph-name="Iogonek" unicode="&#x12e;" horiz-adv-x="260" 
d="M185 -69c22 0 47 6 59 13v-104c-15 -8 -54 -18 -88 -18c-57 0 -133 28 -133 118c0 34 11 59 27 79v681h160l-1 -700c-41 -2 -65 -15 -65 -39c0 -20 15 -30 41 -30z" />
    <glyph glyph-name="Iogonek.ss03" horiz-adv-x="494" 
d="M395 -69c31 0 46 8 61 16v-107c-16 -8 -55 -18 -91 -18c-81 0 -149 30 -149 101c0 36 15 60 37 77h-206v147h120v406h-120v147h399v-147h-119v-406h119v-147h-26c-45 -2 -74 -10 -74 -37c0 -26 25 -32 49 -32z" />
    <glyph glyph-name="J" unicode="J" horiz-adv-x="481" 
d="M436 700v-414c0 -197 -86 -300 -255 -300c-85 0 -143 30 -180 76l100 116c20 -25 43 -40 79 -40c84 0 96 55 96 161v401h160z" />
    <glyph glyph-name="J.ss04" horiz-adv-x="481" 
d="M436 700v-414c0 -197 -86 -300 -255 -300c-85 0 -143 30 -180 76l100 116c20 -25 43 -40 79 -40c84 0 96 55 96 161v251h-218v150h378z" />
    <glyph glyph-name="Jcircumflex" unicode="&#x134;" horiz-adv-x="481" 
d="M525 821l-71 -84l-97 72l-96 -72l-72 84l168 130zM436 700v-414c0 -197 -86 -300 -255 -300c-85 0 -143 30 -180 76l100 116c20 -25 43 -40 79 -40c84 0 96 55 96 161v401h160z" />
    <glyph glyph-name="Jcircumflex.ss04" horiz-adv-x="481" 
d="M152 737l-72 84l168 130l169 -130l-72 -84l-97 72zM436 700v-414c0 -197 -86 -300 -255 -300c-85 0 -143 30 -180 76l100 116c20 -25 43 -40 79 -40c84 0 96 55 96 161v251h-218v150h378z" />
    <glyph glyph-name="K" unicode="K" horiz-adv-x="644" 
d="M285 290l-75 -95v-195h-160v700h160v-187l-1 -113h4c1 2 39 54 68 93l152 207h189l-221 -284l228 -416h-185z" />
    <glyph glyph-name="Kcommaaccent" unicode="&#x136;" horiz-adv-x="644" 
d="M629 0h-185l-159 290l-75 -95v-195h-160v700h160v-187l-1 -113h4c1 2 39 54 68 93l152 207h189l-221 -284zM312 -24c46 0 78 -23 78 -74c0 -56 -37 -101 -105 -122l-48 54c17 3 42 16 51 32c-32 0 -50 21 -50 50c0 38 30 60 74 60z" />
    <glyph glyph-name="L" unicode="L" horiz-adv-x="517" 
d="M50 0v700h160v-550h280v-150h-440z" />
    <glyph glyph-name="Lacute" unicode="&#x139;" horiz-adv-x="517" 
d="M197 754h-140l103 179l126 -36zM50 0v700h160v-550h280v-150h-440z" />
    <glyph glyph-name="Lcaron" unicode="&#x13d;" horiz-adv-x="517" 
d="M50 0v700h160v-550h280v-150h-440zM353 700h126c3 -52 -19 -152 -42 -196h-115c20 44 32 146 31 196z" />
    <glyph glyph-name="Lcommaaccent" unicode="&#x13b;" horiz-adv-x="517" 
d="M50 0v700h160v-550h280v-150h-440zM234 -134c-31 0 -49 21 -49 50c0 38 29 60 73 60c46 0 79 -23 79 -74c0 -56 -38 -101 -106 -122l-48 54c18 3 42 16 51 32z" />
    <glyph glyph-name="Ldot" unicode="&#x13f;" horiz-adv-x="517" 
d="M50 0v700h160v-550h280v-150h-440zM383 309c-54 0 -83 34 -84 80c0 45 30 79 84 79s83 -33 83 -79s-29 -80 -83 -80z" />
    <glyph glyph-name="Lslash" unicode="&#x141;" horiz-adv-x="517" 
d="M490 150v-150h-440v700h160v-285l213 98v-155l-213 -98v-110h280z" />
    <glyph glyph-name="M" unicode="M" horiz-adv-x="752" 
d="M543 0v180c0 160 2 256 2 257h-3c-1 -1 -29 -69 -59 -135l-60 -135h-95l-60 134c-31 68 -58 135 -59 136h-4c0 -1 3 -97 3 -257v-180h-158v700h180l149 -309h4l147 309h173v-700h-160z" />
    <glyph glyph-name="N" unicode="N" horiz-adv-x="679" 
d="M467 0l-258 408h-3c0 -1 2 -87 2 -174v-234h-158v700h162l257 -408h4c0 1 -2 86 -2 167v241h158v-700h-162z" />
    <glyph glyph-name="N.ss02" horiz-adv-x="679" 
d="M629 0h-160v229l-256 247h-4c-1 0 1 -73 1 -205v-271h-160v700h159l257 -248h4s-1 75 -1 155v93h160v-700z" />
    <glyph glyph-name="Nacute" unicode="&#x143;" horiz-adv-x="679" 
d="M404 754h-141l103 179l127 -36zM467 0l-258 408h-3c0 -1 2 -87 2 -174v-234h-158v700h162l257 -408h4c0 1 -2 86 -2 167v241h158v-700h-162z" />
    <glyph glyph-name="Nacute.loclPLK" horiz-adv-x="679" 
d="M397 754h-126l59 193l125 -22zM467 0l-258 408h-3c0 -1 2 -87 2 -174v-234h-158v700h162l257 -408h4c0 1 -2 86 -2 167v241h158v-700h-162z" />
    <glyph glyph-name="Nacute.loclPLK.ss02" horiz-adv-x="679" 
d="M398 754h-126l58 193l126 -22zM629 0h-160v229l-256 247h-4c-1 0 1 -73 1 -205v-271h-160v700h159l257 -248h4s-1 75 -1 155v93h160v-700z" />
    <glyph glyph-name="Nacute.ss02" horiz-adv-x="679" 
d="M404 754h-141l104 179l126 -36zM629 0h-160v229l-256 247h-4c-1 0 1 -73 1 -205v-271h-160v700h159l257 -248h4s-1 75 -1 155v93h160v-700z" />
    <glyph glyph-name="Ncaron" unicode="&#x147;" horiz-adv-x="679" 
d="M169 862l71 83l97 -67l97 67l71 -83l-168 -124zM467 0l-258 408h-3c0 -1 2 -87 2 -174v-234h-158v700h162l257 -408h4c0 1 -2 86 -2 167v241h158v-700h-162z" />
    <glyph glyph-name="Ncaron.ss02" horiz-adv-x="679" 
d="M169 862l71 83l97 -67l98 67l71 -83l-169 -124zM629 0h-160v229l-256 247h-4c-1 0 1 -73 1 -205v-271h-160v700h159l257 -248h4s-1 75 -1 155v93h160v-700z" />
    <glyph glyph-name="Ncommaaccent" unicode="&#x145;" horiz-adv-x="679" 
d="M467 0l-258 408h-3c0 -1 2 -87 2 -174v-234h-158v700h162l257 -408h4c0 1 -2 86 -2 167v241h158v-700h-162zM311 -134c-31 0 -49 21 -49 50c0 38 29 60 74 60s78 -23 78 -74c0 -56 -38 -101 -106 -122l-48 54c18 3 42 16 51 32z" />
    <glyph glyph-name="Ncommaaccent.ss02" horiz-adv-x="679" 
d="M629 0h-160v229l-256 247h-4c-1 0 1 -73 1 -205v-271h-160v700h159l257 -248h4s-1 75 -1 155v93h160v-700zM314 -134c-31 0 -49 21 -49 50c0 38 29 60 73 60c46 0 78 -23 78 -74c0 -56 -37 -101 -105 -122l-48 54c18 3 42 16 51 32z" />
    <glyph glyph-name="Eng" unicode="&#x14a;" horiz-adv-x="679" 
d="M629 700v-700c0 -141 -78 -161 -168 -161h-63v117h45c26 0 33 19 24 44l-258 408h-3c0 -1 2 -87 2 -174v-234h-158v700h162l257 -408h4c0 1 -2 86 -2 167v241h158z" />
    <glyph glyph-name="Eng.ss02" horiz-adv-x="679" 
d="M629 700v-700c0 -141 -84 -161 -194 -161h-37v117h40c30 0 38 14 38 44v258l-149 133c-69 60 -113 99 -114 100h-4c-1 0 1 -82 1 -220v-271h-160v700h159l152 -138c41 -36 101 -84 105 -87h4c0 1 -1 48 -1 136v89h160z" />
    <glyph glyph-name="Ntilde" unicode="&#xd1;" horiz-adv-x="679" 
d="M489 915l24 -116c-7 -12 -41 -32 -91 -32c-59 0 -98 27 -157 27c-39 0 -69 -13 -84 -27l-25 116c9 13 41 33 92 33c60 0 97 -27 158 -27c38 0 67 14 83 26zM467 0l-258 408h-3c0 -1 2 -87 2 -174v-234h-158v700h162l257 -408h4c0 1 -2 86 -2 167v241h158v-700h-162z" />
    <glyph glyph-name="Ntilde.ss02" horiz-adv-x="679" 
d="M489 915l25 -116c-8 -12 -41 -32 -91 -32c-60 0 -98 27 -158 27c-38 0 -69 -13 -83 -27l-26 116c9 13 41 33 92 33c60 0 98 -27 158 -27c38 0 67 14 83 26zM629 0h-160v229l-256 247h-4c-1 0 1 -73 1 -205v-271h-160v700h159l257 -248h4s-1 75 -1 155v93h160v-700z" />
    <glyph glyph-name="O" unicode="O" horiz-adv-x="708" 
d="M26 350c0 233 133 364 328 364s329 -131 329 -364s-134 -364 -329 -364s-328 131 -328 364zM187 351c0 -143 67 -213 167 -213s167 69 167 211c0 144 -67 213 -167 213s-167 -70 -167 -211z" />
    <glyph glyph-name="Oacute" unicode="&#xd3;" horiz-adv-x="708" 
d="M422 754h-141l103 179l127 -36zM26 350c0 233 133 364 328 364s329 -131 329 -364s-134 -364 -329 -364s-328 131 -328 364zM187 351c0 -143 67 -213 167 -213s167 69 167 211c0 144 -67 213 -167 213s-167 -70 -167 -211z" />
    <glyph glyph-name="Oacute.loclPLK" horiz-adv-x="708" 
d="M415 754h-126l59 193l125 -22zM26 350c0 233 133 364 328 364s329 -131 329 -364s-134 -364 -329 -364s-328 131 -328 364zM187 351c0 -143 67 -213 167 -213s167 69 167 211c0 144 -67 213 -167 213s-167 -70 -167 -211z" />
    <glyph glyph-name="Ocircumflex" unicode="&#xd4;" horiz-adv-x="708" 
d="M519 821l-71 -84l-97 72l-96 -72l-72 84l168 130zM26 350c0 233 133 364 328 364s329 -131 329 -364s-134 -364 -329 -364s-328 131 -328 364zM187 351c0 -143 67 -213 167 -213s167 69 167 211c0 144 -67 213 -167 213s-167 -70 -167 -211z" />
    <glyph glyph-name="Odieresis" unicode="&#xd6;" horiz-adv-x="708" 
d="M254 763c-41 0 -70 32 -70 73c0 40 30 72 71 72c39 0 69 -32 69 -72c0 -41 -31 -73 -70 -73zM456 763c-41 0 -71 32 -71 73c0 40 30 72 71 72c39 0 70 -32 70 -72c0 -41 -31 -73 -70 -73zM26 350c0 233 133 364 328 364s329 -131 329 -364s-134 -364 -329 -364
s-328 131 -328 364zM187 351c0 -143 67 -213 167 -213s167 69 167 211c0 144 -67 213 -167 213s-167 -70 -167 -211z" />
    <glyph glyph-name="Ograve" unicode="&#xd2;" horiz-adv-x="708" 
d="M324 933l104 -179h-141l-89 143zM26 350c0 233 133 364 328 364s329 -131 329 -364s-134 -364 -329 -364s-328 131 -328 364zM187 351c0 -143 67 -213 167 -213s167 69 167 211c0 144 -67 213 -167 213s-167 -70 -167 -211z" />
    <glyph glyph-name="Ohungarumlaut" unicode="&#x150;" horiz-adv-x="708" 
d="M311 754h-141l103 179l127 -36zM518 754h-141l103 179l127 -36zM26 350c0 233 133 364 328 364s329 -131 329 -364s-134 -364 -329 -364s-328 131 -328 364zM187 351c0 -143 67 -213 167 -213s167 69 167 211c0 144 -67 213 -167 213s-167 -70 -167 -211z" />
    <glyph glyph-name="Omacron" unicode="&#x14c;" horiz-adv-x="708" 
d="M511 761h-313v133h313v-133zM26 350c0 233 133 364 328 364s329 -131 329 -364s-134 -364 -329 -364s-328 131 -328 364zM187 351c0 -143 67 -213 167 -213s167 69 167 211c0 144 -67 213 -167 213s-167 -70 -167 -211z" />
    <glyph glyph-name="Oslash" unicode="&#xd8;" horiz-adv-x="708" 
d="M677 719l-74 -113c51 -61 80 -147 80 -256c0 -233 -134 -364 -329 -364c-53 0 -102 10 -145 29l-68 -100l-112 74l72 109c-48 61 -75 146 -75 252c0 233 133 364 328 364c51 0 99 -9 141 -27l70 104zM354 562c-100 0 -167 -70 -167 -211c0 -50 9 -91 24 -124l210 322
c-20 9 -43 13 -67 13zM354 138c100 0 167 69 167 211c0 56 -10 101 -29 134l-213 -328c22 -11 47 -17 75 -17z" />
    <glyph glyph-name="Otilde" unicode="&#xd5;" horiz-adv-x="708" 
d="M507 915l24 -116c-7 -12 -41 -32 -91 -32c-59 0 -98 27 -157 27c-39 0 -69 -13 -84 -27l-25 116c9 13 41 33 92 33c60 0 97 -27 158 -27c38 0 67 14 83 26zM26 350c0 233 133 364 328 364s329 -131 329 -364s-134 -364 -329 -364s-328 131 -328 364zM187 351
c0 -143 67 -213 167 -213s167 69 167 211c0 144 -67 213 -167 213s-167 -70 -167 -211z" />
    <glyph glyph-name="OE" unicode="&#x152;" horiz-adv-x="920" 
d="M882 0h-444c-27 -3 -55 -4 -85 -4c-183 0 -327 119 -327 354s144 354 327 354c18 0 50 0 83 -4h441v-150h-306v-123h233v-142h-233v-135h311v-150zM187 350c0 -146 66 -210 168 -210c26 0 46 3 62 8v405c-16 4 -36 7 -62 7c-103 0 -168 -65 -168 -210z" />
    <glyph glyph-name="P" unicode="P" horiz-adv-x="562" 
d="M50 700h240c157 0 253 -87 253 -241c0 -146 -96 -239 -253 -239h-80v-220h-160v700zM210 361h80c64 0 92 35 93 96c0 59 -29 95 -93 95h-80v-191z" />
    <glyph glyph-name="Thorn" unicode="&#xde;" horiz-adv-x="555" 
d="M210 584h74c157 0 251 -87 252 -237c0 -149 -95 -230 -252 -230h-74v-117h-160v700h160v-116zM210 260h77c61 0 89 30 89 87c0 55 -28 86 -89 86h-77v-173z" />
    <glyph glyph-name="Q" unicode="Q" horiz-adv-x="708" 
d="M683 350c0 -199 -98 -324 -249 -356v-132h-160v132c-151 32 -248 156 -248 356c0 233 133 364 328 364s329 -131 329 -364zM354 138c100 0 167 69 167 211c0 144 -67 213 -167 213s-167 -70 -167 -211c0 -143 67 -213 167 -213z" />
    <glyph glyph-name="Q.ss01" horiz-adv-x="753" 
d="M720 0h-368c-183 0 -326 129 -326 358c0 235 143 356 326 356c184 0 329 -123 329 -353c0 -114 -37 -178 -73 -210l3 -4c3 0 31 3 67 3h42v-150zM187 358c0 -136 65 -206 166 -206s166 69 166 205c0 138 -65 206 -166 206c-102 0 -166 -69 -166 -205z" />
    <glyph glyph-name="R" unicode="R" horiz-adv-x="589" 
d="M388 0l-116 239l-29 -1h-33v-238h-160v700h246c163 0 254 -93 254 -235c0 -92 -42 -162 -118 -193l142 -272h-186zM210 368h91c55 0 87 30 87 91c0 59 -30 94 -89 94h-89v-185z" />
    <glyph glyph-name="Racute" unicode="&#x154;" horiz-adv-x="589" 
d="M345 754h-140l103 179l126 -36zM388 0l-116 239l-29 -1h-33v-238h-160v700h246c163 0 254 -93 254 -235c0 -92 -42 -162 -118 -193l142 -272h-186zM210 368h91c55 0 87 30 87 91c0 59 -30 94 -89 94h-89v-185z" />
    <glyph glyph-name="Rcaron" unicode="&#x158;" horiz-adv-x="589" 
d="M111 862l70 83l98 -67l97 67l71 -83l-168 -124zM388 0l-116 239l-29 -1h-33v-238h-160v700h246c163 0 254 -93 254 -235c0 -92 -42 -162 -118 -193l142 -272h-186zM210 368h91c55 0 87 30 87 91c0 59 -30 94 -89 94h-89v-185z" />
    <glyph glyph-name="Rcommaaccent" unicode="&#x156;" horiz-adv-x="589" 
d="M388 0l-116 239l-29 -1h-33v-238h-160v700h246c163 0 254 -93 254 -235c0 -92 -42 -162 -118 -193l142 -272h-186zM210 368h91c55 0 87 30 87 91c0 59 -30 94 -89 94h-89v-185zM292 -134c-31 0 -49 21 -49 50c0 38 29 60 73 60c46 0 78 -23 78 -74
c0 -56 -37 -101 -105 -122l-48 54c18 3 42 16 51 32z" />
    <glyph glyph-name="S" unicode="S" horiz-adv-x="571" 
d="M24 176l153 41c11 -54 50 -87 117 -87c55 0 89 21 89 65c0 63 -70 67 -148 93c-87 29 -195 74 -195 221c0 132 91 205 244 205c130 0 229 -53 260 -183l-153 -42c-14 56 -48 81 -108 81c-55 0 -79 -21 -79 -59c0 -56 56 -68 146 -95c94 -28 196 -72 196 -219
c0 -140 -92 -211 -250 -211c-120 0 -241 43 -272 190z" />
    <glyph glyph-name="Sacute" unicode="&#x15a;" horiz-adv-x="571" 
d="M351 754h-141l104 179l126 -36zM24 176l153 41c11 -54 50 -87 117 -87c55 0 89 21 89 65c0 63 -70 67 -148 93c-87 29 -195 74 -195 221c0 132 91 205 244 205c130 0 229 -53 260 -183l-153 -42c-14 56 -48 81 -108 81c-55 0 -79 -21 -79 -59c0 -56 56 -68 146 -95
c94 -28 196 -72 196 -219c0 -140 -92 -211 -250 -211c-120 0 -241 43 -272 190z" />
    <glyph glyph-name="Sacute.loclPLK" horiz-adv-x="571" 
d="M345 754h-126l58 193l126 -22zM24 176l153 41c11 -54 50 -87 117 -87c55 0 89 21 89 65c0 63 -70 67 -148 93c-87 29 -195 74 -195 221c0 132 91 205 244 205c130 0 229 -53 260 -183l-153 -42c-14 56 -48 81 -108 81c-55 0 -79 -21 -79 -59c0 -56 56 -68 146 -95
c94 -28 196 -72 196 -219c0 -140 -92 -211 -250 -211c-120 0 -241 43 -272 190z" />
    <glyph glyph-name="Scaron" unicode="&#x160;" horiz-adv-x="571" 
d="M116 862l71 83l97 -67l98 67l71 -83l-169 -124zM24 176l153 41c11 -54 50 -87 117 -87c55 0 89 21 89 65c0 63 -70 67 -148 93c-87 29 -195 74 -195 221c0 132 91 205 244 205c130 0 229 -53 260 -183l-153 -42c-14 56 -48 81 -108 81c-55 0 -79 -21 -79 -59
c0 -56 56 -68 146 -95c94 -28 196 -72 196 -219c0 -140 -92 -211 -250 -211c-120 0 -241 43 -272 190z" />
    <glyph glyph-name="Scedilla" unicode="&#x15e;" horiz-adv-x="571" 
d="M546 197c0 -109 -55 -176 -154 -200c20 -16 32 -40 32 -72c0 -61 -42 -103 -141 -103c-34 0 -71 6 -87 13v99c10 -5 31 -9 58 -9c40 0 57 7 57 24c0 22 -32 31 -108 30v17c-84 20 -156 72 -179 180l153 41c11 -54 50 -87 117 -87c55 0 89 21 89 65c0 63 -70 67 -148 93
c-87 29 -195 74 -195 221c0 132 91 205 244 205c130 0 229 -53 260 -183l-153 -42c-14 56 -48 81 -108 81c-55 0 -79 -21 -79 -59c0 -56 56 -68 146 -95c94 -28 196 -72 196 -219z" />
    <glyph glyph-name="Scircumflex" unicode="&#x15c;" horiz-adv-x="571" 
d="M449 821l-72 -84l-96 72l-97 -72l-71 84l168 130zM24 176l153 41c11 -54 50 -87 117 -87c55 0 89 21 89 65c0 63 -70 67 -148 93c-87 29 -195 74 -195 221c0 132 91 205 244 205c130 0 229 -53 260 -183l-153 -42c-14 56 -48 81 -108 81c-55 0 -79 -21 -79 -59
c0 -56 56 -68 146 -95c94 -28 196 -72 196 -219c0 -140 -92 -211 -250 -211c-120 0 -241 43 -272 190z" />
    <glyph glyph-name="Scommaaccent" unicode="&#x218;" horiz-adv-x="571" 
d="M24 176l153 41c11 -54 50 -87 117 -87c55 0 89 21 89 65c0 63 -70 67 -148 93c-87 29 -195 74 -195 221c0 132 91 205 244 205c130 0 229 -53 260 -183l-153 -42c-14 56 -48 81 -108 81c-55 0 -79 -21 -79 -59c0 -56 56 -68 146 -95c94 -28 196 -72 196 -219
c0 -140 -92 -211 -250 -211c-120 0 -241 43 -272 190zM258 -134c-32 0 -50 21 -50 50c0 38 30 60 74 60c46 0 78 -23 78 -74c0 -56 -38 -101 -105 -122l-49 54c18 3 42 16 52 32z" />
    <glyph glyph-name="uni1E9E" unicode="&#x1e9e;" horiz-adv-x="645" 
d="M439 429h4c111 0 183 -93 183 -217c0 -118 -63 -226 -222 -226c-86 0 -130 33 -154 56l67 122c19 -21 41 -31 69 -31c54 0 79 34 79 82c0 52 -28 86 -89 86h-86v130l56 116l-3 4h-60h-73v-551h-160v700h520l-133 -268z" />
    <glyph glyph-name="T" unicode="T" horiz-adv-x="588" 
d="M562 550h-188v-550h-160v550h-188v150h536v-150z" />
    <glyph glyph-name="Tbar" unicode="&#x166;" horiz-adv-x="588" 
d="M374 550v-143h101v-150h-101v-257h-160v257h-100v150h100v143h-188v150h536v-150h-188z" />
    <glyph glyph-name="Tcaron" unicode="&#x164;" horiz-adv-x="588" 
d="M127 862l71 83l97 -67l97 67l71 -83l-168 -124zM562 550h-188v-550h-160v550h-188v150h536v-150z" />
    <glyph glyph-name="Tcedilla" unicode="&#x162;" horiz-adv-x="588" 
d="M374 550v-536c37 -14 62 -42 62 -89c0 -61 -42 -103 -141 -103c-33 0 -71 6 -87 13v99c10 -5 31 -9 59 -9c39 0 56 7 56 24c0 22 -32 31 -108 30l-1 21v550h-188v150h536v-150h-188z" />
    <glyph glyph-name="uni021A" unicode="&#x21a;" horiz-adv-x="588" 
d="M562 550h-188v-550h-160v550h-188v150h536v-150zM270 -134c-32 0 -50 21 -50 50c0 38 30 60 74 60c46 0 78 -23 78 -74c0 -56 -38 -101 -105 -122l-48 54c17 3 42 16 51 32z" />
    <glyph glyph-name="U" unicode="U" horiz-adv-x="639" 
d="M594 700v-414c0 -198 -105 -300 -275 -300s-274 102 -274 300v414h161v-411c0 -102 35 -151 116 -151c80 0 116 49 116 151v411h156z" />
    <glyph glyph-name="Uacute" unicode="&#xda;" horiz-adv-x="639" 
d="M392 754h-140l103 179l126 -36zM594 700v-414c0 -198 -105 -300 -275 -300s-274 102 -274 300v414h161v-411c0 -102 35 -151 116 -151c80 0 116 49 116 151v411h156z" />
    <glyph glyph-name="Ubreve" unicode="&#x16c;" horiz-adv-x="639" 
d="M152 895h114c1 -32 20 -53 59 -53c41 0 58 22 58 53h114c-3 -99 -69 -154 -172 -154c-104 0 -169 55 -173 154zM594 700v-414c0 -198 -105 -300 -275 -300s-274 102 -274 300v414h161v-411c0 -102 35 -151 116 -151c80 0 116 49 116 151v411h156z" />
    <glyph glyph-name="Ucircumflex" unicode="&#xdb;" horiz-adv-x="639" 
d="M490 821l-72 -84l-96 72l-96 -72l-72 84l168 130zM594 700v-414c0 -198 -105 -300 -275 -300s-274 102 -274 300v414h161v-411c0 -102 35 -151 116 -151c80 0 116 49 116 151v411h156z" />
    <glyph glyph-name="Udieresis" unicode="&#xdc;" horiz-adv-x="639" 
d="M224 763c-40 0 -69 32 -69 73c0 40 30 72 71 72c39 0 68 -32 68 -72c0 -41 -30 -73 -70 -73zM426 763c-40 0 -70 32 -70 73c0 40 30 72 70 72s70 -32 70 -72c0 -41 -30 -73 -70 -73zM594 700v-414c0 -198 -105 -300 -275 -300s-274 102 -274 300v414h161v-411
c0 -102 35 -151 116 -151c80 0 116 49 116 151v411h156z" />
    <glyph glyph-name="Ugrave" unicode="&#xd9;" horiz-adv-x="639" 
d="M295 933l103 -179h-140l-89 143zM594 700v-414c0 -198 -105 -300 -275 -300s-274 102 -274 300v414h161v-411c0 -102 35 -151 116 -151c80 0 116 49 116 151v411h156z" />
    <glyph glyph-name="Uhungarumlaut" unicode="&#x170;" horiz-adv-x="639" 
d="M281 754h-140l103 179l126 -36zM488 754h-140l103 179l126 -36zM594 700v-414c0 -198 -105 -300 -275 -300s-274 102 -274 300v414h161v-411c0 -102 35 -151 116 -151c80 0 116 49 116 151v411h156z" />
    <glyph glyph-name="Umacron" unicode="&#x16a;" horiz-adv-x="639" 
d="M482 761h-313v133h313v-133zM594 700v-414c0 -198 -105 -300 -275 -300s-274 102 -274 300v414h161v-411c0 -102 35 -151 116 -151c80 0 116 49 116 151v411h156z" />
    <glyph glyph-name="Uogonek" unicode="&#x172;" horiz-adv-x="637" 
d="M594 700v-414c0 -170 -78 -269 -207 -293c-18 -7 -27 -14 -27 -33c0 -20 11 -31 41 -31c27 0 51 6 70 18v-108c-17 -7 -48 -17 -90 -17c-82 0 -153 35 -153 113c0 21 6 41 17 59c-126 26 -200 125 -200 292v414h161v-411c0 -102 35 -151 116 -151c80 0 116 49 116 151
v411h156z" />
    <glyph glyph-name="Uring" unicode="&#x16e;" horiz-adv-x="639" 
d="M325 731c-78 0 -131 42 -131 118s53 118 131 118s131 -42 131 -118s-53 -118 -131 -118zM325 807c28 0 45 15 45 42s-17 42 -45 42s-44 -15 -44 -42s16 -42 44 -42zM594 700v-414c0 -198 -105 -300 -275 -300s-274 102 -274 300v414h161v-411c0 -102 35 -151 116 -151
c80 0 116 49 116 151v411h156z" />
    <glyph glyph-name="V" unicode="V" horiz-adv-x="659" 
d="M437 0h-215l-210 700h180l90 -341c35 -134 50 -192 51 -194h3c1 2 15 60 49 192l91 343h171z" />
    <glyph glyph-name="W" unicode="W" horiz-adv-x="974" 
d="M595 0l-72 294c-23 97 -34 168 -35 170h-4c-1 -2 -12 -73 -35 -175l-66 -289h-198l-169 700h179l63 -312c22 -105 36 -187 37 -189h3c1 2 17 81 36 168l61 280h201l59 -282c19 -86 34 -164 35 -166h4c0 2 15 82 37 184l68 317h159l-169 -700h-194z" />
    <glyph glyph-name="Wacute" unicode="&#x1e82;" horiz-adv-x="974" 
d="M571 754h-141l104 179l126 -36zM595 0l-72 294c-23 97 -34 168 -35 170h-4c-1 -2 -12 -73 -35 -175l-66 -289h-198l-169 700h179l63 -312c22 -105 36 -187 37 -189h3c1 2 17 81 36 168l61 280h201l59 -282c19 -86 34 -164 35 -166h4c0 2 15 82 37 184l68 317h159
l-169 -700h-194z" />
    <glyph glyph-name="Wcircumflex" unicode="&#x174;" horiz-adv-x="974" 
d="M669 821l-72 -84l-97 72l-96 -72l-72 84l168 130zM595 0l-72 294c-23 97 -34 168 -35 170h-4c-1 -2 -12 -73 -35 -175l-66 -289h-198l-169 700h179l63 -312c22 -105 36 -187 37 -189h3c1 2 17 81 36 168l61 280h201l59 -282c19 -86 34 -164 35 -166h4c0 2 15 82 37 184
l68 317h159l-169 -700h-194z" />
    <glyph glyph-name="Wdieresis" unicode="&#x1e84;" horiz-adv-x="974" 
d="M403 763c-40 0 -70 32 -70 73c0 40 30 72 71 72c39 0 69 -32 69 -72c0 -41 -31 -73 -70 -73zM605 763c-41 0 -70 32 -70 73c0 40 29 72 70 72c39 0 70 -32 70 -72c0 -41 -31 -73 -70 -73zM595 0l-72 294c-23 97 -34 168 -35 170h-4c-1 -2 -12 -73 -35 -175l-66 -289h-198
l-169 700h179l63 -312c22 -105 36 -187 37 -189h3c1 2 17 81 36 168l61 280h201l59 -282c19 -86 34 -164 35 -166h4c0 2 15 82 37 184l68 317h159l-169 -700h-194z" />
    <glyph glyph-name="Wgrave" unicode="&#x1e80;" horiz-adv-x="974" 
d="M473 933l104 -179h-141l-89 143zM595 0l-72 294c-23 97 -34 168 -35 170h-4c-1 -2 -12 -73 -35 -175l-66 -289h-198l-169 700h179l63 -312c22 -105 36 -187 37 -189h3c1 2 17 81 36 168l61 280h201l59 -282c19 -86 34 -164 35 -166h4c0 2 15 82 37 184l68 317h159
l-169 -700h-194z" />
    <glyph glyph-name="X" unicode="X" horiz-adv-x="677" 
d="M463 0l-71 125c-33 60 -57 110 -58 110h-2c-1 0 -24 -50 -57 -111l-68 -124h-189l218 360l-207 340h193l67 -120c30 -53 56 -106 57 -106h2c2 0 26 54 54 107l62 119h187l-207 -345l215 -355h-196z" />
    <glyph glyph-name="Y" unicode="Y" horiz-adv-x="645" 
d="M403 267v-267h-160v267l-231 433l183 1l92 -192c22 -44 39 -82 40 -83h3c1 1 18 40 40 83l95 191h168z" />
    <glyph glyph-name="Y.ss05" horiz-adv-x="645" 
d="M459 371h86v-150h-142v-221h-160v221h-141v150h85l-175 329l183 1l92 -192c22 -44 39 -82 40 -83h3c1 1 18 40 40 83l95 191h168z" />
    <glyph glyph-name="Yacute" unicode="&#xdd;" horiz-adv-x="645" 
d="M403 754h-140l103 179l126 -36zM403 267v-267h-160v267l-231 433l183 1l92 -192c22 -44 39 -82 40 -83h3c1 1 18 40 40 83l95 191h168z" />
    <glyph glyph-name="Yacute.ss05" horiz-adv-x="645" 
d="M397 754h-140l103 179l126 -36zM459 371h86v-150h-142v-221h-160v221h-141v150h85l-175 329l183 1l92 -192c22 -44 39 -82 40 -83h3c1 1 18 40 40 83l95 191h168z" />
    <glyph glyph-name="Ycircumflex" unicode="&#x176;" horiz-adv-x="645" 
d="M501 821l-71 -84l-97 72l-96 -72l-72 84l168 130zM403 267v-267h-160v267l-231 433l183 1l92 -192c22 -44 39 -82 40 -83h3c1 1 18 40 40 83l95 191h168z" />
    <glyph glyph-name="Ycircumflex.ss05" horiz-adv-x="645" 
d="M231 737l-72 84l168 130l168 -130l-71 -84l-97 72zM459 371h86v-150h-142v-221h-160v221h-141v150h85l-175 329l183 1l92 -192c22 -44 39 -82 40 -83h3c1 1 18 40 40 83l95 191h168z" />
    <glyph glyph-name="Ydieresis" unicode="&#x178;" horiz-adv-x="645" 
d="M236 763c-41 0 -70 32 -70 73c0 40 30 72 71 72c39 0 69 -32 69 -72c0 -41 -31 -73 -70 -73zM438 763c-41 0 -71 32 -71 73c0 40 30 72 71 72c39 0 70 -32 70 -72c0 -41 -31 -73 -70 -73zM403 267v-267h-160v267l-231 433l183 1l92 -192c22 -44 39 -82 40 -83h3
c1 1 18 40 40 83l95 191h168z" />
    <glyph glyph-name="Ydieresis.ss05" horiz-adv-x="645" 
d="M230 763c-41 0 -70 32 -70 73c0 40 30 72 71 72c39 0 69 -32 69 -72c0 -41 -31 -73 -70 -73zM431 763c-40 0 -70 32 -70 73c0 40 30 72 70 72s70 -32 70 -72c0 -41 -30 -73 -70 -73zM459 371h86v-150h-142v-221h-160v221h-141v150h85l-175 329l183 1l92 -192
c22 -44 39 -82 40 -83h3c1 1 18 40 40 83l95 191h168z" />
    <glyph glyph-name="Ygrave" unicode="&#x1ef2;" horiz-adv-x="645" 
d="M306 933l104 -179h-141l-89 143zM403 267v-267h-160v267l-231 433l183 1l92 -192c22 -44 39 -82 40 -83h3c1 1 18 40 40 83l95 191h168z" />
    <glyph glyph-name="Ygrave.ss05" horiz-adv-x="645" 
d="M263 754l-89 143l126 36l104 -179h-141zM459 371h86v-150h-142v-221h-160v221h-141v150h85l-175 329l183 1l92 -192c22 -44 39 -82 40 -83h3c1 1 18 40 40 83l95 191h168z" />
    <glyph glyph-name="Z" unicode="Z" horiz-adv-x="595" 
d="M560 543l-258 -309c-40 -47 -71 -80 -71 -81l1 -4c1 0 41 1 96 1h234v-150h-529v150l276 326c35 42 61 69 61 70l-2 5c-1 0 -45 -1 -87 -1h-238v150h517v-157z" />
    <glyph glyph-name="Zacute" unicode="&#x179;" horiz-adv-x="595" 
d="M373 754h-140l103 179l126 -36zM560 543l-258 -309c-40 -47 -71 -80 -71 -81l1 -4c1 0 41 1 96 1h234v-150h-529v150l276 326c35 42 61 69 61 70l-2 5c-1 0 -45 -1 -87 -1h-238v150h517v-157z" />
    <glyph glyph-name="Zacute.loclPLK" horiz-adv-x="595" 
d="M367 754h-126l58 193l126 -22zM560 543l-258 -309c-40 -47 -71 -80 -71 -81l1 -4c1 0 41 1 96 1h234v-150h-529v150l276 326c35 42 61 69 61 70l-2 5c-1 0 -45 -1 -87 -1h-238v150h517v-157z" />
    <glyph glyph-name="Zcaron" unicode="&#x17d;" horiz-adv-x="595" 
d="M138 862l71 83l98 -67l97 67l71 -83l-168 -124zM560 543l-258 -309c-40 -47 -71 -80 -71 -81l1 -4c1 0 41 1 96 1h234v-150h-529v150l276 326c35 42 61 69 61 70l-2 5c-1 0 -45 -1 -87 -1h-238v150h517v-157z" />
    <glyph glyph-name="Zdotaccent" unicode="&#x17b;" horiz-adv-x="595" 
d="M306 763c-40 0 -70 31 -70 73c0 40 30 72 70 72s70 -32 70 -72c0 -42 -30 -73 -70 -73zM560 543l-258 -309c-40 -47 -71 -80 -71 -81l1 -4c1 0 41 1 96 1h234v-150h-529v150l276 326c35 42 61 69 61 70l-2 5c-1 0 -45 -1 -87 -1h-238v150h517v-157z" />
    <glyph glyph-name="a" unicode="a" horiz-adv-x="562" 
d="M369 98h-181l-25 -98h-151l170 560h198l170 -560h-155zM336 226l-22 81c-23 89 -33 132 -34 134h-3l-36 -139l-20 -76h115z" />
    <glyph glyph-name="aacute" unicode="&#xe1;" horiz-adv-x="562" 
d="M349 614h-140l103 179l126 -36zM369 98h-181l-25 -98h-151l170 560h198l170 -560h-155zM336 226l-22 81c-23 89 -33 132 -34 134h-3l-36 -139l-20 -76h115z" />
    <glyph glyph-name="abreve" unicode="&#x103;" horiz-adv-x="562" 
d="M282 601c-104 0 -169 55 -173 154h114c1 -32 20 -53 59 -53c41 0 58 22 58 53h114c-3 -99 -69 -154 -172 -154zM369 98h-181l-25 -98h-151l170 560h198l170 -560h-155zM336 226l-22 81c-23 89 -33 132 -34 134h-3l-36 -139l-20 -76h115z" />
    <glyph glyph-name="acircumflex" unicode="&#xe2;" horiz-adv-x="562" 
d="M224 608l-75 80l133 123l134 -123l-75 -80l-59 55zM369 98h-181l-25 -98h-151l170 560h198l170 -560h-155zM336 226l-22 81c-23 89 -33 132 -34 134h-3l-36 -139l-20 -76h115z" />
    <glyph glyph-name="adieresis" unicode="&#xe4;" horiz-adv-x="562" 
d="M182 623c-41 0 -70 32 -70 73c0 40 30 72 71 72c39 0 69 -32 69 -72c0 -41 -31 -73 -70 -73zM384 623c-41 0 -71 32 -71 73c0 40 30 72 71 72c39 0 70 -32 70 -72c0 -41 -31 -73 -70 -73zM369 98h-181l-25 -98h-151l170 560h198l170 -560h-155zM336 226l-22 81
c-23 89 -33 132 -34 134h-3l-36 -139l-20 -76h115z" />
    <glyph glyph-name="agrave" unicode="&#xe0;" horiz-adv-x="562" 
d="M215 614l-89 143l126 36l104 -179h-141zM369 98h-181l-25 -98h-151l170 560h198l170 -560h-155zM336 226l-22 81c-23 89 -33 132 -34 134h-3l-36 -139l-20 -76h115z" />
    <glyph glyph-name="amacron" unicode="&#x101;" horiz-adv-x="562" 
d="M439 621h-313v133h313v-133zM369 98h-181l-25 -98h-151l170 560h198l170 -560h-155zM336 226l-22 81c-23 89 -33 132 -34 134h-3l-36 -139l-20 -76h115z" />
    <glyph glyph-name="aogonek" unicode="&#x105;" horiz-adv-x="562" 
d="M479 -69c39 0 65 8 82 16v-107c-21 -9 -66 -18 -105 -18c-89 0 -143 44 -143 112c0 45 23 84 70 112l-14 52h-181l-25 -98h-151l170 560h198l170 -560h-21c-56 -1 -87 -18 -87 -44c0 -19 14 -25 37 -25zM336 226l-22 81c-23 89 -33 132 -34 134h-3l-36 -139l-20 -76h115z
" />
    <glyph glyph-name="aring" unicode="&#xe5;" horiz-adv-x="562" 
d="M282 591c-77 0 -130 42 -130 118s53 118 130 118c78 0 131 -42 131 -118s-53 -118 -131 -118zM282 751c-27 0 -44 -15 -44 -42s17 -42 44 -42c28 0 45 15 45 42s-17 42 -45 42zM369 98h-181l-25 -98h-151l170 560h198l170 -560h-155zM336 226l-22 81
c-23 89 -33 132 -34 134h-3l-36 -139l-20 -76h115z" />
    <glyph glyph-name="atilde" unicode="&#xe3;" horiz-adv-x="562" 
d="M219 654c-33 0 -61 -14 -74 -27l-26 116c8 13 40 33 82 33c53 0 88 -27 141 -27c34 0 61 13 74 26l25 -116c-6 -12 -39 -32 -81 -32c-53 0 -89 27 -141 27zM369 98h-181l-25 -98h-151l170 560h198l170 -560h-155zM336 226l-22 81c-23 89 -33 132 -34 134h-3l-36 -139
l-20 -76h115z" />
    <glyph glyph-name="ae" unicode="&#xe6;" horiz-adv-x="759" 
d="M721 141v-141h-397v98h-136l-25 -98h-151l173 560h532v-141h-251v-75h172v-121h-172v-82h255zM324 220v203h-52l-52 -203h104z" />
    <glyph glyph-name="b" unicode="b" horiz-adv-x="508" 
d="M387 299v-4c55 -16 100 -59 100 -133c0 -90 -60 -162 -201 -162h-236v560h237c105 0 174 -66 174 -150c0 -62 -42 -100 -74 -111zM199 339h61c35 0 53 18 53 48c0 28 -15 47 -53 47h-61v-95zM199 126h76c39 0 57 19 57 53c0 35 -19 55 -58 55h-75v-108z" />
    <glyph glyph-name="c" unicode="c" horiz-adv-x="564" 
d="M397 190l142 -38c-39 -97 -113 -164 -241 -164c-162 0 -272 105 -272 292c0 184 108 291 271 291c121 0 208 -57 242 -170l-141 -37c-13 27 -40 68 -101 68c-75 0 -118 -55 -118 -150c0 -104 45 -155 118 -155c54 0 83 29 100 63z" />
    <glyph glyph-name="cacute" unicode="&#x107;" horiz-adv-x="564" 
d="M360 614h-141l103 179l127 -36zM397 190l142 -38c-39 -97 -113 -164 -241 -164c-162 0 -272 105 -272 292c0 184 108 291 271 291c121 0 208 -57 242 -170l-141 -37c-13 27 -40 68 -101 68c-75 0 -118 -55 -118 -150c0 -104 45 -155 118 -155c54 0 83 29 100 63z" />
    <glyph glyph-name="cacute.loclPLK" horiz-adv-x="564" 
d="M353 614h-126l59 193l126 -22zM397 190l142 -38c-39 -97 -113 -164 -241 -164c-162 0 -272 105 -272 292c0 184 108 291 271 291c121 0 208 -57 242 -170l-141 -37c-13 27 -40 68 -101 68c-75 0 -118 -55 -118 -150c0 -104 45 -155 118 -155c54 0 83 29 100 63z" />
    <glyph glyph-name="ccaron" unicode="&#x10d;" horiz-adv-x="564" 
d="M125 722l71 83l97 -67l97 67l71 -83l-168 -124zM397 190l142 -38c-39 -97 -113 -164 -241 -164c-162 0 -272 105 -272 292c0 184 108 291 271 291c121 0 208 -57 242 -170l-141 -37c-13 27 -40 68 -101 68c-75 0 -118 -55 -118 -150c0 -104 45 -155 118 -155
c54 0 83 29 100 63z" />
    <glyph glyph-name="ccedilla" unicode="&#xe7;" horiz-adv-x="564" 
d="M297 127c54 0 83 29 100 63l142 -38c-29 -72 -77 -127 -153 -151c23 -16 37 -41 37 -75c0 -62 -42 -103 -141 -103c-34 0 -71 5 -87 12v99c10 -5 31 -9 58 -9c40 0 57 8 57 24c0 23 -32 32 -108 30v23c-108 35 -176 131 -176 278c0 184 108 291 271 291
c121 0 208 -57 242 -170l-141 -37c-13 27 -40 68 -101 68c-75 0 -118 -55 -118 -150c0 -104 45 -155 118 -155z" />
    <glyph glyph-name="ccircumflex" unicode="&#x109;" horiz-adv-x="564" 
d="M458 681l-72 -84l-97 72l-96 -72l-72 84l168 130zM397 190l142 -38c-39 -97 -113 -164 -241 -164c-162 0 -272 105 -272 292c0 184 108 291 271 291c121 0 208 -57 242 -170l-141 -37c-13 27 -40 68 -101 68c-75 0 -118 -55 -118 -150c0 -104 45 -155 118 -155
c54 0 83 29 100 63z" />
    <glyph glyph-name="cdotaccent" unicode="&#x10b;" horiz-adv-x="564" 
d="M292 623c-40 0 -70 31 -70 73c0 40 30 72 70 72s70 -32 70 -72c0 -42 -30 -73 -70 -73zM397 190l142 -38c-39 -97 -113 -164 -241 -164c-162 0 -272 105 -272 292c0 184 108 291 271 291c121 0 208 -57 242 -170l-141 -37c-13 27 -40 68 -101 68
c-75 0 -118 -55 -118 -150c0 -104 45 -155 118 -155c54 0 83 29 100 63z" />
    <glyph glyph-name="d" unicode="d" horiz-adv-x="568" 
d="M50 560h210c169 0 282 -104 282 -282s-111 -278 -281 -278h-211v560zM201 141h57c86 0 131 34 131 136c0 106 -45 142 -130 142h-58v-278z" />
    <glyph glyph-name="eth" unicode="&#xf0;" horiz-adv-x="568" 
d="M50 560h210c169 0 282 -104 282 -282s-111 -278 -281 -278h-211v222h-40v115h40v223zM201 141h57c86 0 131 34 131 136c0 106 -45 142 -130 142h-58v-82h110v-115h-110v-81z" />
    <glyph glyph-name="dcaron" unicode="&#x10f;" horiz-adv-x="568" 
d="M93 722l71 83l98 -67l97 67l71 -83l-168 -124zM50 560h210c169 0 282 -104 282 -282s-111 -278 -281 -278h-211v560zM201 141h57c86 0 131 34 131 136c0 106 -45 142 -130 142h-58v-278z" />
    <glyph glyph-name="dcroat" unicode="&#x111;" horiz-adv-x="568" 
d="M50 560h210c169 0 282 -104 282 -282s-111 -278 -281 -278h-211v222h-40v115h40v223zM201 141h57c86 0 131 34 131 136c0 106 -45 142 -130 142h-58v-82h110v-115h-110v-81z" />
    <glyph glyph-name="e" unicode="e" horiz-adv-x="493" 
d="M50 0v560h401v-141h-251v-74h173v-124h-173v-80h256v-141h-406z" />
    <glyph glyph-name="eacute" unicode="&#xe9;" horiz-adv-x="493" 
d="M318 614h-140l103 179l126 -36zM50 0v560h401v-141h-251v-74h173v-124h-173v-80h256v-141h-406z" />
    <glyph glyph-name="ecaron" unicode="&#x11b;" horiz-adv-x="493" 
d="M83 722l71 83l97 -67l98 67l71 -83l-169 -124zM50 0v560h401v-141h-251v-74h173v-124h-173v-80h256v-141h-406z" />
    <glyph glyph-name="ecircumflex" unicode="&#xea;" horiz-adv-x="493" 
d="M416 681l-72 -84l-96 72l-97 -72l-71 84l168 130zM50 0v560h401v-141h-251v-74h173v-124h-173v-80h256v-141h-406z" />
    <glyph glyph-name="edieresis" unicode="&#xeb;" horiz-adv-x="493" 
d="M150 623c-40 0 -70 32 -70 73c0 40 31 72 71 72c39 0 69 -32 69 -72c0 -41 -30 -73 -70 -73zM352 623c-40 0 -70 32 -70 73c0 40 30 72 70 72s70 -32 70 -72c0 -41 -30 -73 -70 -73zM50 0v560h401v-141h-251v-74h173v-124h-173v-80h256v-141h-406z" />
    <glyph glyph-name="edotaccent" unicode="&#x117;" horiz-adv-x="493" 
d="M251 623c-40 0 -70 31 -70 73c0 40 30 72 70 72s70 -32 70 -72c0 -42 -30 -73 -70 -73zM50 0v560h401v-141h-251v-74h173v-124h-173v-80h256v-141h-406z" />
    <glyph glyph-name="egrave" unicode="&#xe8;" horiz-adv-x="493" 
d="M221 793l103 -179h-140l-89 143zM50 0v560h401v-141h-251v-74h173v-124h-173v-80h256v-141h-406z" />
    <glyph glyph-name="emacron" unicode="&#x113;" horiz-adv-x="493" 
d="M407 621h-312v133h312v-133zM50 0v560h401v-141h-251v-74h173v-124h-173v-80h256v-141h-406z" />
    <glyph glyph-name="eogonek" unicode="&#x119;" horiz-adv-x="493" 
d="M396 -69c31 0 46 8 61 16v-107c-16 -8 -54 -18 -91 -18c-81 0 -149 30 -149 101c0 36 15 60 38 77h-205v560h401v-141h-251v-74h173v-124h-173v-80h256v-141h-35c-45 -2 -74 -10 -74 -37c0 -26 25 -32 49 -32z" />
    <glyph glyph-name="f" unicode="f" horiz-adv-x="462" 
d="M430 419h-229v-104h165v-134h-165v-181h-151v560h380v-141z" />
    <glyph glyph-name="g" unicode="g" horiz-adv-x="600" 
d="M559 0h-133c0 32 1 38 1 43h-3c-25 -27 -77 -53 -144 -53c-141 0 -254 102 -254 290c0 189 111 291 272 291c125 0 209 -59 245 -170l-137 -36c-18 38 -54 68 -106 68c-78 0 -121 -50 -121 -147c0 -106 46 -159 137 -159c43 0 92 17 109 32v35h-122v132h256v-326z" />
    <glyph glyph-name="gbreve" unicode="&#x11f;" horiz-adv-x="600" 
d="M120 755h114c1 -32 19 -53 58 -53c41 0 59 22 59 53h114c-4 -99 -70 -154 -173 -154c-104 0 -169 55 -172 154zM559 0h-133c0 32 1 38 1 43h-3c-25 -27 -77 -53 -144 -53c-141 0 -254 102 -254 290c0 189 111 291 272 291c125 0 209 -59 245 -170l-137 -36
c-18 38 -54 68 -106 68c-78 0 -121 -50 -121 -147c0 -106 46 -159 137 -159c43 0 92 17 109 32v35h-122v132h256v-326z" />
    <glyph glyph-name="gcircumflex" unicode="&#x11d;" horiz-adv-x="600" 
d="M458 681l-72 -84l-96 72l-97 -72l-72 84l169 130zM559 0h-133c0 32 1 38 1 43h-3c-25 -27 -77 -53 -144 -53c-141 0 -254 102 -254 290c0 189 111 291 272 291c125 0 209 -59 245 -170l-137 -36c-18 38 -54 68 -106 68c-78 0 -121 -50 -121 -147c0 -106 46 -159 137 -159
c43 0 92 17 109 32v35h-122v132h256v-326z" />
    <glyph glyph-name="gcommaaccent" unicode="&#x123;" horiz-adv-x="600" 
d="M559 0h-133c0 32 1 38 1 43h-3c-25 -27 -77 -53 -144 -53c-141 0 -254 102 -254 290c0 189 111 291 272 291c125 0 209 -59 245 -170l-137 -36c-18 38 -54 68 -106 68c-78 0 -121 -50 -121 -147c0 -106 46 -159 137 -159c43 0 92 17 109 32v35h-122v132h256v-326z
M288 -134c-31 0 -49 21 -49 50c0 38 30 60 74 60c45 0 78 -23 78 -74c0 -56 -38 -101 -105 -122l-49 54c18 3 42 16 51 32z" />
    <glyph glyph-name="gdotaccent" unicode="&#x121;" horiz-adv-x="600" 
d="M292 623c-40 0 -70 31 -70 73c0 40 30 72 70 72c41 0 70 -32 70 -72c0 -42 -29 -73 -70 -73zM559 0h-133c0 32 1 38 1 43h-3c-25 -27 -77 -53 -144 -53c-141 0 -254 102 -254 290c0 189 111 291 272 291c125 0 209 -59 245 -170l-137 -36c-18 38 -54 68 -106 68
c-78 0 -121 -50 -121 -147c0 -106 46 -159 137 -159c43 0 92 17 109 32v35h-122v132h256v-326z" />
    <glyph glyph-name="h" unicode="h" horiz-adv-x="566" 
d="M516 0h-151v209h-164v-209h-151v560h151v-210h164v210h151v-560z" />
    <glyph glyph-name="hbar" unicode="&#x127;" horiz-adv-x="593" 
d="M580 399h-50v-399h-151v212h-165v-212h-150v399h-51v96h51v65h150v-65h165v65h151v-65h50v-96zM379 399h-165v-51h165v51z" />
    <glyph glyph-name="hcircumflex" unicode="&#x125;" horiz-adv-x="566" 
d="M449 681l-72 -84l-96 72l-97 -72l-71 84l168 130zM516 0h-151v209h-164v-209h-151v560h151v-210h164v210h151v-560z" />
    <glyph glyph-name="i" unicode="i" horiz-adv-x="250" 
d="M50 0v560h151v-560h-151z" />
    <glyph glyph-name="i.ss03" horiz-adv-x="442" 
d="M296 139h98v-139h-347v139h99v282h-99v139h347v-139h-98v-282z" />
    <glyph glyph-name="dotlessi" unicode="&#x131;" horiz-adv-x="250" 
d="M50 0v560h151v-560h-151z" />
    <glyph glyph-name="dotlessi.ss03" horiz-adv-x="442" 
d="M296 139h98v-139h-347v139h99v282h-99v139h347v-139h-98v-282z" />
    <glyph glyph-name="iacute" unicode="&#xed;" horiz-adv-x="250" 
d="M193 614h-140l103 179l126 -36zM50 0v560h151v-560h-151z" />
    <glyph glyph-name="iacute.ss03" horiz-adv-x="442" 
d="M283 614h-140l103 179l126 -36zM296 139h98v-139h-347v139h99v282h-99v139h347v-139h-98v-282z" />
    <glyph glyph-name="iacute_j.loclNLD" horiz-adv-x="679" 
d="M53 614l103 179l126 -36l-89 -143h-140zM627 614h-140l103 179l126 -36zM634 560v-322c0 -165 -76 -250 -224 -250c-77 0 -125 25 -158 63l91 104c15 -16 36 -27 65 -27c68 0 75 40 75 119v313h151zM50 560h151v-560h-151v560z" />
    <glyph glyph-name="icircumflex" unicode="&#xee;" horiz-adv-x="250" 
d="M260 688l-75 -80l-59 55l-58 -55l-75 80l133 123zM50 0v560h151v-560h-151z" />
    <glyph glyph-name="icircumflex.ss03" horiz-adv-x="442" 
d="M381 681l-72 -84l-96 72l-97 -72l-71 84l168 130zM296 139h98v-139h-347v139h99v282h-99v139h347v-139h-98v-282z" />
    <glyph glyph-name="idieresis" unicode="&#xef;" horiz-adv-x="250" 
d="M49 623c-41 0 -68 32 -68 73c0 40 28 72 69 72c39 0 66 -32 66 -72c0 -41 -28 -73 -67 -73zM204 623c-40 0 -68 32 -68 73c0 40 28 72 68 72s68 -32 68 -72c0 -41 -28 -73 -68 -73zM50 0v560h151v-560h-151z" />
    <glyph glyph-name="idieresis.ss03" horiz-adv-x="442" 
d="M115 623c-40 0 -70 32 -70 73c0 40 31 72 72 72c39 0 68 -32 68 -72c0 -41 -30 -73 -70 -73zM317 623c-40 0 -70 32 -70 73c0 40 30 72 70 72s70 -32 70 -72c0 -41 -30 -73 -70 -73zM296 139h98v-139h-347v139h99v282h-99v139h347v-139h-98v-282z" />
    <glyph glyph-name="i.loclTRK" horiz-adv-x="250" 
d="M126 623c-40 0 -70 31 -70 73c0 40 30 72 70 72s70 -32 70 -72c0 -42 -30 -73 -70 -73zM50 0v560h151v-560h-151z" />
    <glyph glyph-name="i.loclTRK.ss03" horiz-adv-x="442" 
d="M216 623c-40 0 -70 31 -70 73c0 40 30 72 70 72s70 -32 70 -72c0 -42 -30 -73 -70 -73zM296 139h98v-139h-347v139h99v282h-99v139h347v-139h-98v-282z" />
    <glyph glyph-name="igrave" unicode="&#xec;" horiz-adv-x="250" 
d="M96 793l103 -179h-140l-89 143zM50 0v560h151v-560h-151z" />
    <glyph glyph-name="igrave.ss03" horiz-adv-x="442" 
d="M186 793l103 -179h-140l-89 143zM296 139h98v-139h-347v139h99v282h-99v139h347v-139h-98v-282z" />
    <glyph glyph-name="ij" unicode="&#x133;" horiz-adv-x="679" 
d="M50 0v560h151v-560h-151zM634 560v-322c0 -165 -76 -250 -224 -250c-77 0 -125 25 -158 63l91 104c15 -16 36 -27 65 -27c68 0 75 40 75 119v313h151z" />
    <glyph glyph-name="ij.ss03" horiz-adv-x="868" 
d="M296 139h98v-139h-347v139h99v282h-99v139h347v-139h-98v-282zM823 560v-322c0 -165 -75 -250 -224 -250c-76 0 -125 25 -157 63l90 104c16 -16 36 -27 65 -27c69 0 76 40 76 119v313h150z" />
    <glyph glyph-name="ij.ss03.ss04" horiz-adv-x="869" 
d="M47 560h347v-139h-98v-282h98v-139h-347v139h99v282h-99v139zM824 419v-181c0 -165 -75 -250 -224 -250c-76 0 -125 25 -157 63l90 104c16 -16 36 -27 65 -27c69 0 76 40 76 119v172h-170v141h320v-141z" />
    <glyph glyph-name="ij.ss04" horiz-adv-x="678" 
d="M50 560h151v-560h-151v560zM633 419v-181c0 -165 -76 -250 -224 -250c-77 0 -125 25 -158 63l91 104c15 -16 36 -27 65 -27c68 0 75 40 75 119v172h-170v141h321v-141z" />
    <glyph glyph-name="imacron" unicode="&#x12b;" horiz-adv-x="250" 
d="M249 619h-245v134h245v-134zM50 0v560h151v-560h-151z" />
    <glyph glyph-name="imacron.ss03" horiz-adv-x="447" 
d="M397 621h-347v133h347v-133zM299 139h98v-139h-347v139h98v282h-98v139h347v-139h-98v-282z" />
    <glyph glyph-name="iogonek" unicode="&#x12f;" horiz-adv-x="250" 
d="M164 -69c21 0 46 6 59 13v-104c-16 -8 -54 -18 -88 -18c-57 0 -133 28 -133 118c0 47 20 79 48 100v520h151v-560h-13c-41 -2 -66 -15 -66 -39c0 -20 16 -30 42 -30z" />
    <glyph glyph-name="iogonek.ss03" horiz-adv-x="442" 
d="M296 421v-282h98v-139h-37c-44 -2 -74 -10 -74 -37c0 -26 26 -32 49 -32c31 0 47 8 62 16v-107c-16 -8 -55 -18 -91 -18c-81 0 -149 30 -149 101c0 36 14 60 37 77h-144v139h99v282h-99v139h347v-139h-98z" />
    <glyph glyph-name="j" unicode="j" horiz-adv-x="427" 
d="M382 560v-322c0 -165 -75 -250 -224 -250c-76 0 -125 25 -157 63l90 104c16 -16 36 -27 66 -27c68 0 75 40 75 119v313h150z" />
    <glyph glyph-name="j.ss04" horiz-adv-x="427" 
d="M382 419v-181c0 -165 -75 -250 -224 -250c-76 0 -125 25 -157 63l90 104c16 -16 36 -27 66 -27c68 0 75 40 75 119v172h-170v141h320v-141z" />
    <glyph glyph-name="dotlessj" unicode="&#x237;" horiz-adv-x="427" 
d="M382 560v-322c0 -165 -75 -250 -224 -250c-76 0 -125 25 -157 63l90 104c16 -16 36 -27 66 -27c68 0 75 40 75 119v313h150z" />
    <glyph glyph-name="dotlessj.ss04" horiz-adv-x="427" 
d="M382 419v-181c0 -165 -75 -250 -224 -250c-76 0 -125 25 -157 63l90 104c16 -16 36 -27 66 -27c68 0 75 40 75 119v172h-170v141h320v-141z" />
    <glyph glyph-name="jcircumflex" unicode="&#x135;" horiz-adv-x="427" 
d="M474 681l-72 -84l-97 72l-96 -72l-72 84l168 130zM382 560v-322c0 -165 -75 -250 -224 -250c-76 0 -125 25 -157 63l90 104c16 -16 36 -27 66 -27c68 0 75 40 75 119v313h150z" />
    <glyph glyph-name="jcircumflex.ss04" horiz-adv-x="427" 
d="M116 597l-72 84l169 130l168 -130l-72 -84l-96 72zM382 419v-181c0 -165 -75 -250 -224 -250c-76 0 -125 25 -157 63l90 104c16 -16 36 -27 66 -27c68 0 75 40 75 119v172h-170v141h320v-141z" />
    <glyph glyph-name="k" unicode="k" horiz-adv-x="576" 
d="M393 0l-122 228l-70 -88v-140h-151v560h151v-121l-1 -112h4c4 5 24 36 45 64l129 169h179l-178 -221l184 -339h-170z" />
    <glyph glyph-name="kcommaaccent" unicode="&#x137;" horiz-adv-x="576" 
d="M563 0h-170l-122 228l-70 -88v-140h-151v560h151v-121l-1 -112h4c4 5 24 36 45 64l129 169h179l-178 -221zM293 -24c46 0 78 -23 78 -74c0 -56 -37 -101 -105 -122l-48 54c18 3 42 16 51 32c-31 0 -49 21 -49 50c0 38 29 60 73 60z" />
    <glyph glyph-name="l" unicode="l" horiz-adv-x="449" 
d="M50 0v560h151v-419h221v-141h-372z" />
    <glyph glyph-name="lacute" unicode="&#x13a;" horiz-adv-x="449" 
d="M214 614h-140l103 179l126 -36zM50 0v560h151v-419h221v-141h-372z" />
    <glyph glyph-name="lcaron" unicode="&#x13e;" horiz-adv-x="449" 
d="M50 0v560h151v-419h221v-141h-372zM289 560h126c3 -52 -20 -152 -43 -196h-114c19 44 32 146 31 196z" />
    <glyph glyph-name="lcommaaccent" unicode="&#x13c;" horiz-adv-x="449" 
d="M50 0v560h151v-419h221v-141h-372zM212 -134c-31 0 -49 21 -49 50c0 38 29 60 73 60c46 0 78 -23 78 -74c0 -56 -37 -101 -105 -122l-48 54c18 3 42 16 51 32z" />
    <glyph glyph-name="ldot" unicode="&#x140;" horiz-adv-x="449" 
d="M50 0v560h151v-419h221v-141h-372zM345 233c-49 0 -75 33 -76 78c0 44 27 77 76 77c48 0 74 -32 74 -77s-26 -78 -74 -78z" />
    <glyph glyph-name="lslash" unicode="&#x142;" horiz-adv-x="449" 
d="M422 141v-141h-372v560h151v-210l154 75v-146l-154 -74v-64h221z" />
    <glyph glyph-name="m" unicode="m" horiz-adv-x="666" 
d="M465 0v213l1 121h-4l-83 -202h-96l-86 209h-4l1 -122v-219h-144v560h184l65 -140c23 -49 39 -88 40 -88h4c1 0 18 39 40 89l64 139h169v-560h-151z" />
    <glyph glyph-name="n" unicode="n" horiz-adv-x="598" 
d="M548 0h-156l-192 313h-4c0 -1 1 -61 1 -122v-191h-147v560h156l191 -301h4v107v194h147v-560z" />
    <glyph glyph-name="n.ss02" horiz-adv-x="598" 
d="M548 0h-150v176l-195 193h-4c-1 0 2 -72 2 -148v-221h-151v560h156l187 -182h4c1 0 1 50 1 84v98h150v-560z" />
    <glyph glyph-name="nacute" unicode="&#x144;" horiz-adv-x="598" 
d="M365 614h-141l104 179l126 -36zM548 0h-156l-192 313h-4c0 -1 1 -61 1 -122v-191h-147v560h156l191 -301h4v107v194h147v-560z" />
    <glyph glyph-name="nacute.loclPLK" horiz-adv-x="598" 
d="M359 614h-127l59 193l126 -22zM548 0h-156l-192 313h-4c0 -1 1 -61 1 -122v-191h-147v560h156l191 -301h4v107v194h147v-560z" />
    <glyph glyph-name="nacute.loclPLK.ss02" horiz-adv-x="598" 
d="M358 614h-126l58 193l126 -22zM548 0h-150v176l-195 193h-4c-1 0 2 -72 2 -148v-221h-151v560h156l187 -182h4c1 0 1 50 1 84v98h150v-560z" />
    <glyph glyph-name="nacute.ss02" horiz-adv-x="598" 
d="M364 614h-140l103 179l126 -36zM548 0h-150v176l-195 193h-4c-1 0 2 -72 2 -148v-221h-151v560h156l187 -182h4c1 0 1 50 1 84v98h150v-560z" />
    <glyph glyph-name="ncaron" unicode="&#x148;" horiz-adv-x="598" 
d="M130 722l71 83l97 -67l97 67l71 -83l-168 -124zM548 0h-156l-192 313h-4c0 -1 1 -61 1 -122v-191h-147v560h156l191 -301h4v107v194h147v-560z" />
    <glyph glyph-name="ncaron.ss02" horiz-adv-x="598" 
d="M129 722l71 83l97 -67l98 67l71 -83l-169 -124zM548 0h-150v176l-195 193h-4c-1 0 2 -72 2 -148v-221h-151v560h156l187 -182h4c1 0 1 50 1 84v98h150v-560z" />
    <glyph glyph-name="ncommaaccent" unicode="&#x146;" horiz-adv-x="598" 
d="M548 0h-156l-192 313h-4c0 -1 1 -61 1 -122v-191h-147v560h156l191 -301h4v107v194h147v-560zM271 -134c-31 0 -49 21 -49 50c0 38 29 60 74 60s78 -23 78 -74c0 -56 -38 -101 -106 -122l-48 54c18 3 42 16 51 32z" />
    <glyph glyph-name="ncommaaccent.ss02" horiz-adv-x="598" 
d="M548 0h-150v176l-195 193h-4c-1 0 2 -72 2 -148v-221h-151v560h156l187 -182h4c1 0 1 50 1 84v98h150v-560zM280 -134c-32 0 -50 21 -50 50c0 38 30 60 74 60c46 0 78 -23 78 -74c0 -56 -37 -101 -105 -122l-48 54c17 3 42 16 51 32z" />
    <glyph glyph-name="eng" unicode="&#x14b;" horiz-adv-x="598" 
d="M548 560v-560c0 -128 -72 -161 -175 -161h-55v118h50c24 0 31 18 24 43l-192 313h-4c0 -1 1 -61 1 -122v-191h-147v560h156l191 -301h4v107v194h147z" />
    <glyph glyph-name="eng.ss02" horiz-adv-x="598" 
d="M548 0h-150v176l-195 193h-4c-1 0 2 -72 2 -148v-221h-151v560h156l187 -182h4c1 0 1 50 1 84v98h150v-560zM398 0h150c0 -130 -65 -161 -168 -161h-43v112h25c32 0 36 19 36 49z" />
    <glyph glyph-name="ntilde" unicode="&#xf1;" horiz-adv-x="598" 
d="M432 775l25 -116c-7 -12 -40 -32 -82 -32c-53 0 -88 27 -140 27c-34 0 -61 -14 -75 -27l-26 116c8 13 40 33 82 33c53 0 88 -27 141 -27c34 0 61 13 75 26zM548 0h-156l-192 313h-4c0 -1 1 -61 1 -122v-191h-147v560h156l191 -301h4v107v194h147v-560z" />
    <glyph glyph-name="ntilde.ss02" horiz-adv-x="598" 
d="M431 775l25 -116c-7 -12 -39 -32 -81 -32c-53 0 -89 27 -141 27c-34 0 -61 -14 -75 -27l-25 116c7 13 40 33 82 33c53 0 87 -27 140 -27c34 0 61 13 75 26zM548 0h-150v176l-195 193h-4c-1 0 2 -72 2 -148v-221h-151v560h156l187 -182h4c1 0 1 50 1 84v98h150v-560z" />
    <glyph glyph-name="o" unicode="o" horiz-adv-x="594" 
d="M26 280c0 186 109 291 271 291c161 0 271 -105 271 -291c0 -185 -110 -292 -271 -292c-162 0 -271 107 -271 292zM179 280c0 -103 45 -153 118 -153s118 52 118 153s-45 152 -118 152s-118 -51 -118 -152z" />
    <glyph glyph-name="oacute" unicode="&#xf3;" horiz-adv-x="594" 
d="M364 614h-141l103 179l127 -36zM26 280c0 186 109 291 271 291c161 0 271 -105 271 -291c0 -185 -110 -292 -271 -292c-162 0 -271 107 -271 292zM179 280c0 -103 45 -153 118 -153s118 52 118 153s-45 152 -118 152s-118 -51 -118 -152z" />
    <glyph glyph-name="oacute.loclPLK" horiz-adv-x="594" 
d="M357 614h-126l59 193l125 -22zM26 280c0 186 109 291 271 291c161 0 271 -105 271 -291c0 -185 -110 -292 -271 -292c-162 0 -271 107 -271 292zM179 280c0 -103 45 -153 118 -153s118 52 118 153s-45 152 -118 152s-118 -51 -118 -152z" />
    <glyph glyph-name="ocircumflex" unicode="&#xf4;" horiz-adv-x="594" 
d="M461 681l-71 -84l-97 72l-96 -72l-72 84l168 130zM26 280c0 186 109 291 271 291c161 0 271 -105 271 -291c0 -185 -110 -292 -271 -292c-162 0 -271 107 -271 292zM179 280c0 -103 45 -153 118 -153s118 52 118 153s-45 152 -118 152s-118 -51 -118 -152z" />
    <glyph glyph-name="odieresis" unicode="&#xf6;" horiz-adv-x="594" 
d="M196 623c-41 0 -70 32 -70 73c0 40 30 72 71 72c39 0 69 -32 69 -72c0 -41 -31 -73 -70 -73zM398 623c-41 0 -71 32 -71 73c0 40 30 72 71 72c39 0 70 -32 70 -72c0 -41 -31 -73 -70 -73zM26 280c0 186 109 291 271 291c161 0 271 -105 271 -291
c0 -185 -110 -292 -271 -292c-162 0 -271 107 -271 292zM179 280c0 -103 45 -153 118 -153s118 52 118 153s-45 152 -118 152s-118 -51 -118 -152z" />
    <glyph glyph-name="ograve" unicode="&#xf2;" horiz-adv-x="594" 
d="M266 793l104 -179h-141l-89 143zM26 280c0 186 109 291 271 291c161 0 271 -105 271 -291c0 -185 -110 -292 -271 -292c-162 0 -271 107 -271 292zM179 280c0 -103 45 -153 118 -153s118 52 118 153s-45 152 -118 152s-118 -51 -118 -152z" />
    <glyph glyph-name="ohungarumlaut" unicode="&#x151;" horiz-adv-x="594" 
d="M253 614h-141l103 179l127 -36zM460 614h-141l103 179l127 -36zM26 280c0 186 109 291 271 291c161 0 271 -105 271 -291c0 -185 -110 -292 -271 -292c-162 0 -271 107 -271 292zM179 280c0 -103 45 -153 118 -153s118 52 118 153s-45 152 -118 152s-118 -51 -118 -152z
" />
    <glyph glyph-name="omacron" unicode="&#x14d;" horiz-adv-x="594" 
d="M453 621h-313v133h313v-133zM26 280c0 186 109 291 271 291c161 0 271 -105 271 -291c0 -185 -110 -292 -271 -292c-162 0 -271 107 -271 292zM179 280c0 -103 45 -153 118 -153s118 52 118 153s-45 152 -118 152s-118 -51 -118 -152z" />
    <glyph glyph-name="oslash" unicode="&#xf8;" horiz-adv-x="591" 
d="M555 558l-50 -76c41 -49 63 -117 63 -202c0 -185 -110 -292 -271 -292c-37 0 -72 6 -103 17l-44 -67l-110 69l48 73c-40 49 -62 116 -62 200c0 186 109 291 271 291c36 0 70 -5 101 -16l47 71zM297 432c-73 0 -118 -51 -118 -152c0 -34 5 -62 14 -84l143 230
c-12 4 -25 6 -39 6zM297 127c73 0 118 52 118 153c0 36 -6 66 -17 90l-145 -235c13 -5 28 -8 44 -8z" />
    <glyph glyph-name="otilde" unicode="&#xf5;" horiz-adv-x="594" 
d="M430 775l25 -116c-6 -12 -39 -32 -81 -32c-53 0 -89 27 -141 27c-33 0 -61 -14 -74 -27l-26 116c8 13 40 33 82 33c53 0 88 -27 141 -27c34 0 61 13 74 26zM26 280c0 186 109 291 271 291c161 0 271 -105 271 -291c0 -185 -110 -292 -271 -292c-162 0 -271 107 -271 292z
M179 280c0 -103 45 -153 118 -153s118 52 118 153s-45 152 -118 152s-118 -51 -118 -152z" />
    <glyph glyph-name="oe" unicode="&#x153;" horiz-adv-x="779" 
d="M741 0h-381c-21 -2 -43 -3 -65 -3c-157 0 -269 99 -269 284c0 186 112 282 268 282c15 0 40 0 66 -3h376v-141h-251v-75h173v-121h-173v-82h256v-141zM178 280c0 -97 41 -146 119 -146c16 0 32 1 46 3v286c-14 2 -30 3 -46 3c-78 0 -119 -50 -119 -146z" />
    <glyph glyph-name="p" unicode="p" horiz-adv-x="498" 
d="M50 560h212c133 0 216 -77 216 -199s-83 -196 -216 -196h-61v-165h-151v560zM201 289h64c42 0 63 27 63 69c0 38 -18 67 -63 67h-64v-136z" />
    <glyph glyph-name="thorn" unicode="&#xfe;" horiz-adv-x="487" 
d="M201 465h51c132 0 215 -69 215 -191c0 -115 -83 -183 -215 -183h-51v-91h-151v560h151v-95zM201 212h53c42 0 63 21 63 60c0 34 -18 57 -63 57h-53v-117z" />
    <glyph glyph-name="q" unicode="q" horiz-adv-x="591" 
d="M568 280c0 -155 -77 -255 -197 -283v-113h-150v113c-119 29 -195 129 -195 283c0 186 109 291 271 291c161 0 271 -105 271 -291zM297 127c73 0 118 52 118 153s-45 152 -118 152s-118 -51 -118 -152c0 -103 45 -153 118 -153z" />
    <glyph glyph-name="q.ss01" horiz-adv-x="622" 
d="M597 0h-303c-152 0 -268 99 -268 287c0 189 114 284 270 284c155 0 270 -93 270 -276c0 -77 -26 -127 -58 -154l2 -3c4 1 34 3 65 3h22v-141zM179 286c0 -97 46 -147 118 -147s118 51 118 147c0 97 -46 146 -118 146s-118 -50 -118 -146z" />
    <glyph glyph-name="r" unicode="r" horiz-adv-x="528" 
d="M352 0l-91 182h-42h-19v-182h-150v560h219c141 0 218 -76 218 -191c0 -81 -38 -132 -87 -155l113 -214h-161zM200 298h71c42 0 63 23 63 62s-20 62 -63 62h-71v-124z" />
    <glyph glyph-name="racute" unicode="&#x155;" horiz-adv-x="528" 
d="M314 614h-141l104 179l126 -36zM352 0l-91 182h-42h-19v-182h-150v560h219c141 0 218 -76 218 -191c0 -81 -38 -132 -87 -155l113 -214h-161zM200 298h71c42 0 63 23 63 62s-20 62 -63 62h-71v-124z" />
    <glyph glyph-name="rcaron" unicode="&#x159;" horiz-adv-x="528" 
d="M79 722l71 83l97 -67l97 67l71 -83l-168 -124zM352 0l-91 182h-42h-19v-182h-150v560h219c141 0 218 -76 218 -191c0 -81 -38 -132 -87 -155l113 -214h-161zM200 298h71c42 0 63 23 63 62s-20 62 -63 62h-71v-124z" />
    <glyph glyph-name="rcommaaccent" unicode="&#x157;" horiz-adv-x="528" 
d="M352 0l-91 182h-42h-19v-182h-150v560h219c141 0 218 -76 218 -191c0 -81 -38 -132 -87 -155l113 -214h-161zM200 298h71c42 0 63 23 63 62s-20 62 -63 62h-71v-124zM254 -134c-31 0 -49 21 -49 50c0 38 29 60 73 60c46 0 79 -23 79 -74c0 -56 -38 -101 -106 -122l-48 54
c18 3 42 16 51 32z" />
    <glyph glyph-name="s" unicode="s" horiz-adv-x="492" 
d="M24 141l136 36c5 -31 28 -68 91 -68c40 0 64 16 64 49c0 46 -47 50 -137 75c-65 19 -144 55 -144 169c0 113 78 169 207 169c123 0 200 -50 221 -142l-131 -35c-9 35 -37 56 -82 56c-39 0 -62 -16 -62 -44c0 -37 37 -44 121 -68c68 -19 160 -56 160 -177
c0 -124 -93 -173 -216 -173c-98 0 -206 33 -228 153z" />
    <glyph glyph-name="sacute" unicode="&#x15b;" horiz-adv-x="492" 
d="M311 614h-140l103 179l126 -36zM24 141l136 36c5 -31 28 -68 91 -68c40 0 64 16 64 49c0 46 -47 50 -137 75c-65 19 -144 55 -144 169c0 113 78 169 207 169c123 0 200 -50 221 -142l-131 -35c-9 35 -37 56 -82 56c-39 0 -62 -16 -62 -44c0 -37 37 -44 121 -68
c68 -19 160 -56 160 -177c0 -124 -93 -173 -216 -173c-98 0 -206 33 -228 153z" />
    <glyph glyph-name="sacute.loclPLK" horiz-adv-x="492" 
d="M305 614h-126l58 193l126 -22zM24 141l136 36c5 -31 28 -68 91 -68c40 0 64 16 64 49c0 46 -47 50 -137 75c-65 19 -144 55 -144 169c0 113 78 169 207 169c123 0 200 -50 221 -142l-131 -35c-9 35 -37 56 -82 56c-39 0 -62 -16 -62 -44c0 -37 37 -44 121 -68
c68 -19 160 -56 160 -177c0 -124 -93 -173 -216 -173c-98 0 -206 33 -228 153z" />
    <glyph glyph-name="scaron" unicode="&#x161;" horiz-adv-x="492" 
d="M76 722l71 83l98 -67l97 67l71 -83l-168 -124zM24 141l136 36c5 -31 28 -68 91 -68c40 0 64 16 64 49c0 46 -47 50 -137 75c-65 19 -144 55 -144 169c0 113 78 169 207 169c123 0 200 -50 221 -142l-131 -35c-9 35 -37 56 -82 56c-39 0 -62 -16 -62 -44
c0 -37 37 -44 121 -68c68 -19 160 -56 160 -177c0 -124 -93 -173 -216 -173c-98 0 -206 33 -228 153z" />
    <glyph glyph-name="scedilla" unicode="&#x15f;" horiz-adv-x="492" 
d="M468 161c0 -86 -45 -136 -114 -158c24 -17 39 -42 39 -78c0 -61 -42 -103 -141 -103c-34 0 -71 6 -87 13v99c10 -5 31 -9 58 -9c39 0 57 7 57 24c0 22 -33 31 -108 30v18c-71 15 -132 56 -148 144l136 36c5 -31 28 -68 91 -68c40 0 64 16 64 49c0 46 -47 50 -137 75
c-65 19 -144 55 -144 169c0 113 78 169 207 169c123 0 200 -50 221 -142l-131 -35c-9 35 -37 56 -82 56c-39 0 -62 -16 -62 -44c0 -37 37 -44 121 -68c68 -19 160 -56 160 -177z" />
    <glyph glyph-name="scircumflex" unicode="&#x15d;" horiz-adv-x="492" 
d="M409 681l-72 -84l-96 72l-97 -72l-71 84l168 130zM24 141l136 36c5 -31 28 -68 91 -68c40 0 64 16 64 49c0 46 -47 50 -137 75c-65 19 -144 55 -144 169c0 113 78 169 207 169c123 0 200 -50 221 -142l-131 -35c-9 35 -37 56 -82 56c-39 0 -62 -16 -62 -44
c0 -37 37 -44 121 -68c68 -19 160 -56 160 -177c0 -124 -93 -173 -216 -173c-98 0 -206 33 -228 153z" />
    <glyph glyph-name="scommaaccent" unicode="&#x219;" horiz-adv-x="492" 
d="M24 141l136 36c5 -31 28 -68 91 -68c40 0 64 16 64 49c0 46 -47 50 -137 75c-65 19 -144 55 -144 169c0 113 78 169 207 169c123 0 200 -50 221 -142l-131 -35c-9 35 -37 56 -82 56c-39 0 -62 -16 -62 -44c0 -37 37 -44 121 -68c68 -19 160 -56 160 -177
c0 -124 -93 -173 -216 -173c-98 0 -206 33 -228 153zM226 -134c-31 0 -49 21 -49 50c0 38 30 60 74 60c45 0 78 -23 78 -74c0 -56 -38 -101 -106 -122l-48 54c18 3 42 16 51 32z" />
    <glyph glyph-name="germandbls" unicode="&#xdf;" horiz-adv-x="566" 
d="M394 338h3c83 0 149 -70 149 -173c0 -97 -60 -179 -172 -179c-75 0 -117 25 -135 49l60 105c11 -14 27 -29 53 -29c35 0 51 25 51 54c0 37 -21 61 -65 61h-76v103l43 87l-1 3h-55h-48v-419h-151v560h453l-111 -218z" />
    <glyph glyph-name="germandbls.calt" horiz-adv-x="645" 
d="M439 429h4c111 0 183 -93 183 -217c0 -118 -63 -226 -222 -226c-86 0 -130 33 -154 56l67 122c19 -21 41 -31 69 -31c54 0 79 34 79 82c0 52 -28 86 -89 86h-86v130l56 116l-3 4h-60h-73v-551h-160v700h520l-133 -268z" />
    <glyph glyph-name="t" unicode="t" horiz-adv-x="518" 
d="M492 419h-158v-419h-150v419h-158v141h466v-141z" />
    <glyph glyph-name="tbar" unicode="&#x167;" horiz-adv-x="518" 
d="M334 321h79v-114h-79v-207h-150v207h-79v114h79v98h-158v141h466v-141h-158v-98z" />
    <glyph glyph-name="tcaron" unicode="&#x165;" horiz-adv-x="518" 
d="M87 722l71 83l97 -67l97 67l71 -83l-168 -124zM492 419h-158v-419h-150v419h-158v141h466v-141z" />
    <glyph glyph-name="tcedilla" unicode="&#x163;" horiz-adv-x="518" 
d="M334 419v-402c42 -13 71 -42 71 -92c0 -61 -42 -103 -141 -103c-34 0 -71 6 -87 13v99c10 -5 31 -9 58 -9c40 0 57 7 57 24c0 22 -32 31 -108 30v21v419h-158v141h466v-141h-158z" />
    <glyph glyph-name="uni021B" unicode="&#x21b;" horiz-adv-x="518" 
d="M492 419h-158v-419h-150v419h-158v141h466v-141zM239 -134c-32 0 -50 21 -50 50c0 38 30 60 74 60c45 0 78 -23 78 -74c0 -56 -38 -101 -105 -122l-49 54c18 3 42 16 52 32z" />
    <glyph glyph-name="u" unicode="u" horiz-adv-x="571" 
d="M526 560v-313c0 -180 -95 -259 -240 -259c-148 0 -241 79 -241 259v313h152v-326c0 -74 30 -107 90 -107c61 0 91 33 91 107v326h148z" />
    <glyph glyph-name="uacute" unicode="&#xfa;" horiz-adv-x="571" 
d="M355 614h-140l103 179l126 -36zM526 560v-313c0 -180 -95 -259 -240 -259c-148 0 -241 79 -241 259v313h152v-326c0 -74 30 -107 90 -107c61 0 91 33 91 107v326h148z" />
    <glyph glyph-name="ubreve" unicode="&#x16d;" horiz-adv-x="571" 
d="M115 755h114c1 -32 19 -53 58 -53c41 0 59 22 59 53h114c-4 -99 -69 -154 -173 -154s-168 55 -172 154zM526 560v-313c0 -180 -95 -259 -240 -259c-148 0 -241 79 -241 259v313h152v-326c0 -74 30 -107 90 -107c61 0 91 33 91 107v326h148z" />
    <glyph glyph-name="ucircumflex" unicode="&#xfb;" horiz-adv-x="571" 
d="M453 681l-72 -84l-96 72l-97 -72l-71 84l168 130zM526 560v-313c0 -180 -95 -259 -240 -259c-148 0 -241 79 -241 259v313h152v-326c0 -74 30 -107 90 -107c61 0 91 33 91 107v326h148z" />
    <glyph glyph-name="udieresis" unicode="&#xfc;" horiz-adv-x="571" 
d="M187 623c-40 0 -70 32 -70 73c0 40 31 72 72 72c39 0 68 -32 68 -72c0 -41 -30 -73 -70 -73zM389 623c-40 0 -70 32 -70 73c0 40 30 72 70 72s70 -32 70 -72c0 -41 -30 -73 -70 -73zM526 560v-313c0 -180 -95 -259 -240 -259c-148 0 -241 79 -241 259v313h152v-326
c0 -74 30 -107 90 -107c61 0 91 33 91 107v326h148z" />
    <glyph glyph-name="ugrave" unicode="&#xf9;" horiz-adv-x="571" 
d="M258 793l103 -179h-140l-89 143zM526 560v-313c0 -180 -95 -259 -240 -259c-148 0 -241 79 -241 259v313h152v-326c0 -74 30 -107 90 -107c61 0 91 33 91 107v326h148z" />
    <glyph glyph-name="uhungarumlaut" unicode="&#x171;" horiz-adv-x="571" 
d="M244 614h-140l103 179l126 -36zM451 614h-140l103 179l126 -36zM526 560v-313c0 -180 -95 -259 -240 -259c-148 0 -241 79 -241 259v313h152v-326c0 -74 30 -107 90 -107c61 0 91 33 91 107v326h148z" />
    <glyph glyph-name="umacron" unicode="&#x16b;" horiz-adv-x="571" 
d="M444 621h-312v133h312v-133zM526 560v-313c0 -180 -95 -259 -240 -259c-148 0 -241 79 -241 259v313h152v-326c0 -74 30 -107 90 -107c61 0 91 33 91 107v326h148z" />
    <glyph glyph-name="uogonek" unicode="&#x173;" horiz-adv-x="570" 
d="M526 560v-313c0 -155 -70 -235 -182 -254c-16 -6 -24 -13 -24 -29c0 -20 12 -32 50 -32c30 0 54 7 75 15v-107c-18 -8 -52 -18 -98 -18c-84 0 -159 35 -159 113c0 22 6 43 19 62c-102 25 -162 105 -162 250v313h152v-326c0 -74 30 -107 90 -107c61 0 91 33 91 107v326
h148z" />
    <glyph glyph-name="uring" unicode="&#x16f;" horiz-adv-x="571" 
d="M288 591c-78 0 -131 42 -131 118s53 118 131 118s131 -42 131 -118s-53 -118 -131 -118zM288 667c28 0 45 15 45 42s-17 42 -45 42s-45 -15 -45 -42s17 -42 45 -42zM526 560v-313c0 -180 -95 -259 -240 -259c-148 0 -241 79 -241 259v313h152v-326c0 -74 30 -107 90 -107
c61 0 91 33 91 107v326h148z" />
    <glyph glyph-name="v" unicode="v" horiz-adv-x="578" 
d="M387 0h-195l-180 560h167l66 -230c32 -113 48 -174 49 -177h3l49 177l63 230h158z" />
    <glyph glyph-name="w" unicode="w" horiz-adv-x="822" 
d="M495 0l-48 200c-24 100 -35 149 -35 150h-3c-1 -1 -12 -50 -36 -151l-48 -199h-171l-138 560h160l47 -214c23 -104 32 -165 33 -166h3c1 1 11 61 33 154l44 189h170l41 -189c20 -94 29 -153 30 -154h3c0 1 10 61 33 166l49 214h144l-138 -560h-173z" />
    <glyph glyph-name="wacute" unicode="&#x1e83;" horiz-adv-x="822" 
d="M486 614h-141l103 179l127 -36zM495 0l-48 200c-24 100 -35 149 -35 150h-3c-1 -1 -12 -50 -36 -151l-48 -199h-171l-138 560h160l47 -214c23 -104 32 -165 33 -166h3c1 1 11 61 33 154l44 189h170l41 -189c20 -94 29 -153 30 -154h3c0 1 10 61 33 166l49 214h144
l-138 -560h-173z" />
    <glyph glyph-name="wcircumflex" unicode="&#x175;" horiz-adv-x="822" 
d="M583 681l-71 -84l-97 72l-96 -72l-72 84l168 130zM495 0l-48 200c-24 100 -35 149 -35 150h-3c-1 -1 -12 -50 -36 -151l-48 -199h-171l-138 560h160l47 -214c23 -104 32 -165 33 -166h3c1 1 11 61 33 154l44 189h170l41 -189c20 -94 29 -153 30 -154h3c0 1 10 61 33 166
l49 214h144l-138 -560h-173z" />
    <glyph glyph-name="wdieresis" unicode="&#x1e85;" horiz-adv-x="822" 
d="M318 623c-41 0 -70 32 -70 73c0 40 30 72 71 72c39 0 69 -32 69 -72c0 -41 -31 -73 -70 -73zM520 623c-41 0 -71 32 -71 73c0 40 30 72 71 72c39 0 70 -32 70 -72c0 -41 -31 -73 -70 -73zM495 0l-48 200c-24 100 -35 149 -35 150h-3c-1 -1 -12 -50 -36 -151l-48 -199
h-171l-138 560h160l47 -214c23 -104 32 -165 33 -166h3c1 1 11 61 33 154l44 189h170l41 -189c20 -94 29 -153 30 -154h3c0 1 10 61 33 166l49 214h144l-138 -560h-173z" />
    <glyph glyph-name="wgrave" unicode="&#x1e81;" horiz-adv-x="822" 
d="M388 793l104 -179h-141l-89 143zM495 0l-48 200c-24 100 -35 149 -35 150h-3c-1 -1 -12 -50 -36 -151l-48 -199h-171l-138 560h160l47 -214c23 -104 32 -165 33 -166h3c1 1 11 61 33 154l44 189h170l41 -189c20 -94 29 -153 30 -154h3c0 1 10 61 33 166l49 214h144
l-138 -560h-173z" />
    <glyph glyph-name="x" unicode="x" horiz-adv-x="573" 
d="M377 0l-52 91c-28 48 -46 85 -47 85h-1c-1 0 -18 -34 -45 -85l-48 -91h-166l167 284l-155 276h177l44 -86c29 -58 43 -88 44 -88h2c1 0 17 33 46 90l39 84h160l-157 -279l170 -281h-178z" />
    <glyph glyph-name="y" unicode="y" horiz-adv-x="544" 
d="M348 0h-151v191l-185 369h169l52 -115c25 -56 45 -105 46 -106h4c1 1 21 49 46 106l50 115h153l-184 -369v-191z" />
    <glyph glyph-name="y.ss05" horiz-adv-x="544" 
d="M395 286h71v-130h-118v-156h-151v156h-113v130h65l-137 274h169l52 -115c25 -56 45 -105 46 -106h4c1 1 21 49 46 106l50 115h153z" />
    <glyph glyph-name="yacute" unicode="&#xfd;" horiz-adv-x="544" 
d="M351 614h-141l104 179l126 -36zM348 0h-151v191l-185 369h169l52 -115c25 -56 45 -105 46 -106h4c1 1 21 49 46 106l50 115h153l-184 -369v-191z" />
    <glyph glyph-name="yacute.ss05" horiz-adv-x="544" 
d="M353 614h-140l103 179l126 -36zM395 286h71v-130h-118v-156h-151v156h-113v130h65l-137 274h169l52 -115c25 -56 45 -105 46 -106h4c1 1 21 49 46 106l50 115h153z" />
    <glyph glyph-name="ycircumflex" unicode="&#x177;" horiz-adv-x="544" 
d="M449 681l-72 -84l-96 72l-97 -72l-72 84l169 130zM348 0h-151v191l-185 369h169l52 -115c25 -56 45 -105 46 -106h4c1 1 21 49 46 106l50 115h153l-184 -369v-191z" />
    <glyph glyph-name="ycircumflex.ss05" horiz-adv-x="544" 
d="M186 597l-71 84l168 130l168 -130l-72 -84l-96 72zM395 286h71v-130h-118v-156h-151v156h-113v130h65l-137 274h169l52 -115c25 -56 45 -105 46 -106h4c1 1 21 49 46 106l50 115h153z" />
    <glyph glyph-name="ydieresis" unicode="&#xff;" horiz-adv-x="544" 
d="M183 623c-40 0 -70 32 -70 73c0 40 30 72 71 72c39 0 69 -32 69 -72c0 -41 -30 -73 -70 -73zM385 623c-41 0 -70 32 -70 73c0 40 29 72 70 72c39 0 70 -32 70 -72c0 -41 -31 -73 -70 -73zM348 0h-151v191l-185 369h169l52 -115c25 -56 45 -105 46 -106h4
c1 1 21 49 46 106l50 115h153l-184 -369v-191z" />
    <glyph glyph-name="ydieresis.ss05" horiz-adv-x="544" 
d="M185 623c-40 0 -70 32 -70 73c0 40 31 72 72 72c39 0 68 -32 68 -72c0 -41 -30 -73 -70 -73zM387 623c-40 0 -70 32 -70 73c0 40 30 72 70 72s70 -32 70 -72c0 -41 -30 -73 -70 -73zM395 286h71v-130h-118v-156h-151v156h-113v130h65l-137 274h169l52 -115
c25 -56 45 -105 46 -106h4c1 1 21 49 46 106l50 115h153z" />
    <glyph glyph-name="ygrave" unicode="&#x1ef3;" horiz-adv-x="544" 
d="M253 793l104 -179h-141l-89 143zM348 0h-151v191l-185 369h169l52 -115c25 -56 45 -105 46 -106h4c1 1 21 49 46 106l50 115h153l-184 -369v-191z" />
    <glyph glyph-name="ygrave.ss05" horiz-adv-x="544" 
d="M219 614l-89 143l126 36l103 -179h-140zM395 286h71v-130h-118v-156h-151v156h-113v130h65l-137 274h169l52 -115c25 -56 45 -105 46 -106h4c1 1 21 49 46 106l50 115h153z" />
    <glyph glyph-name="z" unicode="z" horiz-adv-x="516" 
d="M482 408l-176 -179c-54 -55 -87 -83 -87 -85l2 -3h88h174v-141h-450v152l191 192c50 49 71 69 71 70l-2 5h-78h-172v141h439v-152z" />
    <glyph glyph-name="zacute" unicode="&#x17a;" horiz-adv-x="516" 
d="M327 614h-140l103 179l126 -36zM482 408l-176 -179c-54 -55 -87 -83 -87 -85l2 -3h88h174v-141h-450v152l191 192c50 49 71 69 71 70l-2 5h-78h-172v141h439v-152z" />
    <glyph glyph-name="zacute.loclPLK" horiz-adv-x="516" 
d="M321 614h-126l58 193l126 -22zM482 408l-176 -179c-54 -55 -87 -83 -87 -85l2 -3h88h174v-141h-450v152l191 192c50 49 71 69 71 70l-2 5h-78h-172v141h439v-152z" />
    <glyph glyph-name="zcaron" unicode="&#x17e;" horiz-adv-x="516" 
d="M92 722l71 83l98 -67l97 67l71 -83l-168 -124zM482 408l-176 -179c-54 -55 -87 -83 -87 -85l2 -3h88h174v-141h-450v152l191 192c50 49 71 69 71 70l-2 5h-78h-172v141h439v-152z" />
    <glyph glyph-name="zdotaccent" unicode="&#x17c;" horiz-adv-x="516" 
d="M260 623c-40 0 -70 31 -70 73c0 40 30 72 70 72s70 -32 70 -72c0 -42 -30 -73 -70 -73zM482 408l-176 -179c-54 -55 -87 -83 -87 -85l2 -3h88h174v-141h-450v152l191 192c50 49 71 69 71 70l-2 5h-78h-172v141h439v-152z" />
    <glyph glyph-name="Iacute.ss03_J.loclNLD" horiz-adv-x="975" 
d="M314 754h-141l104 179l126 -36zM921 754h-140l103 179l126 -36zM327 147h119v-147h-399v147h120v406h-120v147h399v-147h-119v-406zM930 700v-414c0 -197 -86 -300 -255 -300c-86 0 -143 30 -180 76l99 116c21 -25 44 -40 80 -40c84 0 96 55 96 161v401h160z" />
    <glyph glyph-name="Iacute.ss03_J.ss04.loclNLD" horiz-adv-x="975" 
d="M314 754h-141l104 179l126 -36zM812 754h-140l103 179l126 -36zM930 700v-414c0 -197 -86 -300 -255 -300c-86 0 -143 30 -180 76l99 116c21 -25 44 -40 80 -40c84 0 96 55 96 161v251h-219v150h379zM47 700h399v-147h-119v-406h119v-147h-399v147h120v406h-120v147z" />
    <glyph glyph-name="uni00CD004A.ss04.loclNLD" horiz-adv-x="741" 
d="M196 754h-140l103 179l126 -36zM578 754h-140l103 179l126 -36zM696 700v-414c0 -197 -86 -300 -255 -300c-86 0 -143 30 -180 76l99 116c20 -25 44 -40 79 -40c85 0 97 55 97 161v251h-219v150h379zM50 700h160v-700h-160v700z" />
    <glyph glyph-name="iacute.ss03_j.loclNLD" horiz-adv-x="868" 
d="M816 614h-140l103 179l126 -36zM283 614h-140l103 179l126 -36zM296 139h98v-139h-347v139h99v282h-99v139h347v-139h-98v-282zM823 560v-322c0 -165 -75 -250 -224 -250c-76 0 -125 25 -157 63l90 104c16 -16 36 -27 65 -27c69 0 76 40 76 119v313h150z" />
    <glyph glyph-name="iacute.ss03_j.ss04.loclNLD" horiz-adv-x="869" 
d="M283 614h-140l103 179l126 -36zM725 614h-141l103 179l127 -36zM47 560h347v-139h-98v-282h98v-139h-347v139h99v282h-99v139zM824 419v-181c0 -165 -75 -250 -224 -250c-76 0 -125 25 -157 63l90 104c16 -16 36 -27 65 -27c69 0 76 40 76 119v172h-170v141h320v-141z
" />
    <glyph glyph-name="uni00ED006A.ss04.loclNLD" horiz-adv-x="678" 
d="M193 614h-140l103 179l126 -36zM533 614h-140l103 179l126 -36zM633 419v-181c0 -165 -76 -250 -224 -250c-77 0 -125 25 -158 63l91 104c15 -16 36 -27 65 -27c68 0 75 40 75 119v172h-170v141h321v-141zM50 560h151v-560h-151v560z" />
    <glyph glyph-name="ordfeminine" unicode="&#xaa;" horiz-adv-x="397" 
d="M129 235h-93l97 325h132l95 -325h-98l-13 52h-106zM198 484h-4c-1 0 -8 -33 -18 -72l-14 -52h68l-14 52c-11 39 -17 72 -18 72zM362 173v-100h-327v100h327z" />
    <glyph glyph-name="ordfeminine.case" horiz-adv-x="397" 
d="M129 375h-93l97 325h132l95 -325h-98l-13 52h-106zM198 624h-4c-1 0 -8 -33 -18 -72l-14 -52h68l-14 52c-11 39 -17 72 -18 72zM362 313v-100h-327v100h327z" />
    <glyph glyph-name="ordmasculine" unicode="&#xba;" horiz-adv-x="388" 
d="M35 400c0 105 66 171 159 171c92 0 159 -66 159 -171c0 -104 -68 -170 -159 -170c-93 0 -159 66 -159 170zM130 400c0 -51 21 -79 64 -79c42 0 63 28 63 79s-21 80 -63 80c-43 0 -64 -29 -64 -80zM343 72h-298v99h298v-99z" />
    <glyph glyph-name="ordmasculine.case" horiz-adv-x="388" 
d="M35 540c0 105 66 171 159 171c92 0 159 -66 159 -171c0 -104 -68 -170 -159 -170c-93 0 -159 66 -159 170zM130 540c0 -51 21 -79 64 -79c42 0 63 28 63 79s-21 80 -63 80c-43 0 -64 -29 -64 -80zM343 212h-298v99h298v-99z" />
    <glyph glyph-name="zero" unicode="0" horiz-adv-x="502" 
d="M251 571c137 0 220 -89 220 -291s-83 -291 -220 -291s-220 89 -220 291s83 291 220 291zM251 432c-52 0 -69 -39 -69 -152c0 -115 17 -152 69 -152c50 0 69 37 69 152c0 113 -19 152 -69 152z" />
    <glyph glyph-name="one" unicode="1" horiz-adv-x="375" 
d="M163 0v266c0 47 4 122 4 122h-4c-1 0 -19 -25 -33 -36l-24 -21l-86 109l149 120h145v-560h-151z" />
    <glyph glyph-name="two" unicode="2" horiz-adv-x="478" 
d="M42 0v169l168 121c51 38 81 63 81 102c0 27 -17 50 -58 50c-36 0 -55 -22 -61 -53l-141 38c24 108 109 144 212 144c127 0 201 -59 201 -170c0 -99 -61 -148 -136 -196l-101 -67l1 -5c11 1 43 3 79 3h158v-136h-403z" />
    <glyph glyph-name="three" unicode="3" horiz-adv-x="484" 
d="M346 292v-4c50 -4 107 -44 107 -133c0 -101 -74 -166 -205 -166c-119 0 -195 52 -216 156l132 37c9 -39 31 -63 76 -63s66 23 66 57c0 39 -25 56 -66 56h-54v110h50c42 0 63 24 63 53s-21 51 -60 51c-43 0 -61 -26 -65 -55l-135 36c24 109 113 143 214 143
c130 0 194 -54 194 -147s-65 -128 -101 -131z" />
    <glyph glyph-name="four" unicode="4" horiz-adv-x="522" 
d="M418 0h-151v119h-236v134l155 307h232v-311h72v-130h-72v-119zM267 249v66c0 64 1 131 1 132h-5l-96 -195l3 -3h62h35z" />
    <glyph glyph-name="five" unicode="5" horiz-adv-x="477" 
d="M187 347l5 -2c13 8 41 18 76 18c119 0 176 -75 176 -178c0 -120 -74 -196 -206 -196c-121 0 -190 64 -207 142l131 33c7 -25 28 -48 70 -48c46 0 69 27 69 68c0 45 -25 68 -70 68c-37 0 -53 -17 -62 -29l-124 34l54 303h314v-141h-211l-6 -32c-4 -19 -7 -34 -9 -40z" />
    <glyph glyph-name="six" unicode="6" horiz-adv-x="483" 
d="M219 339l4 -3c14 13 37 21 69 21c91 0 166 -70 166 -173c0 -125 -89 -195 -216 -195c-120 0 -215 61 -215 204c0 89 36 154 91 230l100 137h158zM244 118c45 0 71 24 71 70c0 45 -25 69 -71 69c-44 0 -69 -24 -69 -69c0 -46 25 -70 69 -70z" />
    <glyph glyph-name="seven" unicode="7" horiz-adv-x="472" 
d="M453 442l-230 -442h-154l143 274c39 74 77 140 77 141l-3 4h-73h-184v141h424v-118z" />
    <glyph glyph-name="eight" unicode="8" horiz-adv-x="486" 
d="M31 153c0 88 56 129 101 143v3c-26 8 -79 44 -79 122c0 85 71 150 189 150c119 0 190 -64 190 -150c0 -78 -52 -114 -79 -122v-3c42 -14 102 -52 102 -143c0 -92 -69 -165 -211 -165c-137 0 -213 69 -213 165zM183 411c0 -35 23 -54 59 -54c37 0 60 19 60 54
c0 38 -25 54 -60 54s-59 -17 -59 -54zM174 166c0 -43 29 -63 68 -63c42 0 69 22 69 63s-28 62 -69 62s-68 -23 -68 -62z" />
    <glyph glyph-name="nine" unicode="9" horiz-adv-x="485" 
d="M268 216l-4 3c-10 -8 -31 -18 -69 -18c-102 0 -166 74 -166 174c0 125 93 196 214 196c115 0 215 -61 215 -203c0 -114 -56 -184 -104 -247l-99 -121h-164zM240 441c-43 0 -69 -22 -69 -68c0 -49 26 -71 69 -71c45 0 70 22 70 71c0 46 -26 68 -70 68z" />
    <glyph glyph-name="zero.slsh.dnom" horiz-adv-x="322" 
d="M162 396c90 0 141 -57 141 -202c0 -144 -51 -200 -141 -200c-91 0 -142 56 -142 200c0 145 51 202 142 202zM162 298c-27 0 -37 -19 -37 -104v-25l62 115c-6 10 -14 14 -25 14zM162 91c27 0 36 20 36 103l-1 20l-59 -111c6 -9 13 -12 24 -12z" />
    <glyph glyph-name="zero.lf" horiz-adv-x="589" 
d="M294 714c189 0 264 -146 264 -364c0 -227 -75 -364 -264 -364s-263 137 -263 364c0 217 74 364 263 364zM294 562c-79 0 -101 -67 -101 -212c0 -147 22 -212 101 -212c80 0 102 65 102 212c0 145 -22 212 -102 212z" />
    <glyph glyph-name="one.lf" horiz-adv-x="452" 
d="M201 0v333c0 86 6 181 5 181h-4c-1 0 -16 -17 -39 -35l-38 -34l-90 107l172 148h154v-700h-160z" />
    <glyph glyph-name="two.lf" horiz-adv-x="561" 
d="M46 0v185l194 159c76 63 118 90 118 149c0 50 -31 80 -88 80c-53 0 -83 -34 -89 -86l-146 39c15 113 90 188 245 188c159 0 241 -74 241 -209c0 -124 -73 -189 -175 -263l-120 -91l2 -4c8 1 36 3 88 3h207v-150h-477z" />
    <glyph glyph-name="three.lf" horiz-adv-x="563" 
d="M402 367v-4c65 -8 129 -54 129 -168c0 -130 -89 -209 -242 -209c-147 0 -233 73 -257 195l147 41c11 -57 42 -88 99 -88s91 32 91 82c0 55 -35 82 -90 82h-60v131h55c59 0 88 33 88 79c0 45 -30 69 -81 69c-62 0 -90 -36 -95 -91l-146 40c21 128 103 188 243 188
c160 0 241 -76 241 -186c0 -108 -77 -159 -122 -161z" />
    <glyph glyph-name="four.lf" horiz-adv-x="590" 
d="M480 0h-160v151h-285v143l199 406h246v-406h83v-143h-83v-151zM320 294v132c0 80 1 138 1 139h-6l-133 -267l3 -4h95h40z" />
    <glyph glyph-name="five.lf" horiz-adv-x="561" 
d="M210 428l5 -2c12 10 41 28 96 28c129 0 212 -87 212 -228c0 -143 -90 -240 -244 -240c-138 0 -222 78 -244 181l148 39c8 -41 38 -74 92 -74c62 0 90 42 90 100c0 62 -32 99 -93 99c-48 0 -72 -25 -82 -46l-139 37l65 378h385v-150h-269l-8 -49z" />
    <glyph glyph-name="six.lf" horiz-adv-x="570" 
d="M250 426l3 -4c17 14 46 26 88 26c111 0 201 -87 201 -217c0 -154 -105 -245 -256 -245c-143 0 -255 81 -255 254c0 108 42 188 107 279l124 181h176zM289 133c57 0 94 36 94 100s-36 101 -94 101s-93 -37 -93 -101s35 -100 93 -100z" />
    <glyph glyph-name="seven.lf" horiz-adv-x="547" 
d="M533 569l-276 -569h-171l179 377c40 86 86 169 87 171l-3 4c-1 0 -52 -2 -89 -2h-211v150h484v-131z" />
    <glyph glyph-name="eight.lf" horiz-adv-x="567" 
d="M32 191c0 112 68 163 125 179v4c-33 10 -98 55 -98 154c0 106 84 186 225 186s225 -81 225 -186c0 -99 -66 -144 -99 -154v-4c52 -15 125 -64 125 -179c0 -114 -82 -205 -249 -205c-163 0 -254 86 -254 205zM203 517c0 -52 33 -78 81 -78c49 0 80 26 80 78
c0 53 -33 78 -80 78c-49 0 -81 -27 -81 -78zM191 205c0 -59 37 -90 93 -90c57 0 92 32 92 90c0 59 -37 90 -92 90c-58 0 -93 -33 -93 -90z" />
    <glyph glyph-name="nine.lf" horiz-adv-x="570" 
d="M320 270l-4 3c-15 -10 -39 -22 -86 -22c-123 0 -202 92 -202 219c0 154 110 244 255 244c138 0 255 -78 255 -253c0 -128 -63 -221 -125 -305l-121 -156h-182zM280 568c-56 0 -94 -35 -94 -100s38 -99 94 -99c57 0 94 35 94 99c0 65 -38 100 -94 100z" />
    <glyph glyph-name="zero.slsh.lf" horiz-adv-x="589" 
d="M294 714c189 0 264 -146 264 -364c0 -227 -75 -364 -264 -364s-263 137 -263 364c0 217 74 364 263 364zM294 562c-79 0 -101 -67 -101 -212c0 -41 2 -76 6 -104l156 294c-15 15 -35 22 -61 22zM294 138c80 0 102 65 102 212c0 41 -2 75 -6 104l-156 -295
c15 -14 34 -21 60 -21z" />
    <glyph glyph-name="zero.slsh.numr" horiz-adv-x="322" 
d="M162 708c90 0 141 -57 141 -201c0 -145 -51 -201 -141 -201c-91 0 -142 56 -142 201c0 144 51 201 142 201zM162 610c-27 0 -37 -19 -37 -104v-25l62 116c-6 9 -14 13 -25 13zM162 403c27 0 36 20 36 103l-1 20l-59 -111c6 -9 13 -12 24 -12z" />
    <glyph glyph-name="zero.slsh" horiz-adv-x="502" 
d="M251 571c137 0 220 -89 220 -291s-83 -291 -220 -291s-220 89 -220 291s83 291 220 291zM251 432c-52 0 -69 -39 -69 -152c0 -23 1 -43 2 -59l104 199c-9 8 -22 12 -37 12zM251 128c50 0 69 37 69 152c0 21 -1 39 -2 55l-103 -197c9 -7 21 -10 36 -10z" />
    <glyph glyph-name="zero.tf.slsh" 
d="M312 714c188 0 264 -145 264 -364c0 -227 -76 -364 -264 -364c-189 0 -264 137 -264 364c0 218 75 364 264 364zM312 562c-80 0 -102 -67 -102 -212c0 -43 2 -79 6 -108l158 297c-15 15 -35 23 -62 23zM312 138c79 0 102 64 102 212c0 39 -2 72 -6 100l-156 -292
c15 -14 35 -20 60 -20z" />
    <glyph glyph-name="zero.sups" horiz-adv-x="322" 
d="M162 468c-91 0 -142 56 -142 201c0 144 51 201 142 201c90 0 141 -57 141 -201c0 -145 -51 -201 -141 -201zM162 565c27 0 36 20 36 103c0 85 -9 104 -36 104s-37 -19 -37 -104c0 -83 10 -103 37 -103z" />
    <glyph glyph-name="four.sups" horiz-adv-x="322" 
d="M264 476h-96v77h-156v89l102 220h150v-217h46v-92h-46v-77zM168 645v67c0 30 2 66 2 72h-6c-1 0 -56 -132 -58 -135l3 -5l37 1h22z" />
    <glyph glyph-name="five.sups" horiz-adv-x="322" 
d="M115 702l4 -1c11 8 35 18 65 18c65 0 116 -41 116 -121c0 -78 -47 -130 -136 -130c-93 0 -134 57 -141 105l88 24c4 -20 15 -44 49 -44c26 0 44 16 44 48c0 29 -16 47 -45 47c-23 0 -34 -11 -40 -22l-90 24l38 212h213v-91h-149l-6 -27c-4 -20 -10 -40 -10 -42z" />
    <glyph glyph-name="six.sups" horiz-adv-x="322" 
d="M141 697l5 -3c4 4 22 22 60 22c47 0 102 -37 102 -116c0 -85 -59 -132 -140 -132c-80 0 -147 44 -147 144c0 58 19 100 50 144l74 106h112zM167 552c29 0 47 15 47 48c0 34 -20 49 -47 49s-47 -16 -47 -49s20 -48 47 -48z" />
    <glyph glyph-name="seven.sups" horiz-adv-x="322" 
d="M299 764l-142 -288h-105l99 204l44 88l-2 4c-7 -1 -37 -1 -50 -1h-109v91h265v-98z" />
    <glyph glyph-name="eight.sups" horiz-adv-x="322" 
d="M19 581c0 61 40 89 68 98v4c-21 6 -52 32 -52 83c0 66 49 104 126 104s127 -38 127 -103c0 -51 -32 -77 -52 -84v-4c28 -8 67 -37 67 -98c0 -72 -53 -113 -142 -113c-88 0 -142 41 -142 113zM120 760c0 -24 16 -38 41 -38c26 0 42 14 42 38s-16 37 -42 37
c-25 0 -41 -13 -41 -37zM114 590c0 -28 19 -43 47 -43c29 0 47 15 47 43c0 29 -18 43 -47 43c-28 0 -47 -14 -47 -43z" />
    <glyph glyph-name="nine.sups" horiz-adv-x="322" 
d="M181 634l-4 3c-6 -5 -18 -19 -54 -19c-67 0 -108 49 -108 118c0 88 62 134 144 134c74 0 142 -41 142 -142c0 -56 -22 -110 -65 -169l-62 -83h-112zM154 784c-27 0 -46 -15 -46 -47c0 -34 20 -48 46 -48c27 0 47 14 47 47s-20 48 -47 48z" />
    <glyph glyph-name="zero.slsh.sups" horiz-adv-x="322" 
d="M162 870c90 0 141 -57 141 -201c0 -145 -51 -201 -141 -201c-91 0 -142 56 -142 201c0 144 51 201 142 201zM162 772c-27 0 -37 -19 -37 -104v-25l62 116c-6 9 -14 13 -25 13zM162 565c27 0 36 20 36 103l-1 20l-59 -111c6 -9 13 -12 24 -12z" />
    <glyph glyph-name="zero.tf" 
d="M312 714c188 0 264 -145 264 -364c0 -227 -76 -364 -264 -364c-189 0 -264 137 -264 364c0 218 75 364 264 364zM312 562c-80 0 -102 -67 -102 -212c0 -148 22 -212 102 -212c79 0 102 64 102 212c0 145 -23 212 -102 212z" />
    <glyph glyph-name="one.tf" 
d="M562 0h-453v150h147v231c0 78 4 148 3 148h-3c-1 0 -39 -33 -72 -58l-46 -39l-84 113l192 155h170v-550h146v-150z" />
    <glyph glyph-name="two.tf" 
d="M79 0v185l195 159c76 63 118 90 118 149c0 50 -31 80 -88 80c-53 0 -83 -34 -89 -86l-146 39c15 113 90 188 244 188c160 0 242 -74 242 -209c0 -124 -73 -189 -175 -263l-120 -91l2 -4c7 1 35 3 88 3h207v-150h-478z" />
    <glyph glyph-name="three.tf" 
d="M425 367v-4c65 -8 129 -54 129 -168c0 -130 -89 -209 -242 -209c-146 0 -233 73 -257 195l147 41c11 -57 42 -88 99 -88c58 0 91 32 91 82c0 55 -35 82 -90 82h-60v131h55c59 0 88 33 88 79c0 45 -30 69 -81 69c-62 0 -89 -36 -95 -91l-146 40c21 128 103 188 243 188
c160 0 241 -76 241 -186c0 -108 -77 -159 -122 -161z" />
    <glyph glyph-name="four.tf" 
d="M482 0h-159v151h-286v143l200 406h245v-406h83v-143h-83v-151zM323 294v132v139h-5l-134 -267l3 -4h95h41z" />
    <glyph glyph-name="five.tf" 
d="M239 428l5 -2c12 10 41 28 96 28c129 0 212 -87 212 -228c0 -143 -91 -240 -244 -240c-138 0 -222 78 -244 181l148 39c8 -41 38 -74 92 -74c62 0 90 42 90 100c0 62 -32 99 -93 99c-48 0 -72 -25 -82 -46l-139 37l65 378h384v-150h-268l-8 -49z" />
    <glyph glyph-name="six.tf" 
d="M270 426l3 -4c17 14 46 26 88 26c111 0 201 -87 201 -217c0 -154 -105 -245 -256 -245c-143 0 -255 81 -255 254c0 108 42 188 107 279l124 181h176zM309 133c57 0 93 36 93 100c1 64 -35 101 -93 101s-93 -37 -93 -101s35 -100 93 -100z" />
    <glyph glyph-name="seven.tf" 
d="M563 569l-279 -569h-170l181 377c41 86 88 175 88 177l-3 4c-1 0 -53 -2 -90 -2h-224v144h497v-131z" />
    <glyph glyph-name="eight.tf" 
d="M52 191c0 112 69 163 125 179v4c-32 10 -98 55 -98 154c0 106 84 186 225 186s225 -81 225 -186c0 -99 -66 -144 -99 -154v-4c52 -15 125 -64 125 -179c0 -114 -82 -205 -249 -205c-163 0 -254 86 -254 205zM224 517c0 -52 32 -78 80 -78c49 0 80 26 80 78
c0 53 -33 78 -80 78c-49 0 -80 -27 -80 -78zM211 205c0 -59 38 -90 93 -90c58 0 92 32 92 90c0 59 -37 90 -92 90c-58 0 -93 -33 -93 -90z" />
    <glyph glyph-name="nine.tf" 
d="M355 270l-4 3c-15 -10 -39 -22 -86 -22c-123 0 -202 92 -202 219c0 154 110 244 255 244c138 0 255 -78 255 -253c0 -128 -63 -221 -125 -305l-121 -156h-182zM315 568c-56 0 -94 -35 -94 -100s38 -99 94 -99c57 0 94 35 94 99c0 65 -38 100 -94 100z" />
    <glyph glyph-name="zero.tosf" 
d="M311 571c137 0 220 -89 220 -291s-83 -291 -220 -291c-136 0 -220 89 -220 291s84 291 220 291zM311 432c-52 0 -69 -39 -69 -152c0 -115 17 -152 69 -152c50 0 69 37 69 152c0 113 -19 152 -69 152z" />
    <glyph glyph-name="one.tosf" 
d="M532 0h-398v141h125v124c0 65 5 134 5 134h-3c-1 0 -20 -21 -34 -32l-48 -45l-82 98l167 139h145v-418h123v-141z" />
    <glyph glyph-name="two.tosf" 
d="M127 0v169l168 121c51 38 81 63 81 102c0 27 -17 50 -58 50c-36 0 -55 -22 -61 -53l-141 38c24 108 109 144 211 144c128 0 201 -59 201 -170c0 -99 -60 -148 -135 -196l-101 -67l1 -5c11 1 43 3 79 3h158v-136h-403z" />
    <glyph glyph-name="three.tosf" 
d="M412 292v-4c51 -4 107 -44 107 -133c0 -101 -74 -166 -205 -166c-119 0 -194 52 -216 156l132 37c9 -39 31 -63 76 -63s66 23 66 57c0 39 -25 56 -66 56h-54v110h50c42 0 63 24 63 53s-20 51 -60 51c-43 0 -61 -26 -65 -55l-135 36c24 109 113 143 214 143
c130 0 194 -54 194 -147s-65 -128 -101 -131z" />
    <glyph glyph-name="four.tosf" 
d="M482 0h-151v119h-236v134l156 307h231v-311h72v-130h-72v-119zM331 249v66c0 64 1 131 1 132h-5l-96 -195l3 -3h62h35z" />
    <glyph glyph-name="five.tosf" 
d="M260 347l5 -2c13 8 41 18 76 18c119 0 176 -75 176 -178c0 -120 -74 -196 -206 -196c-121 0 -190 64 -207 142l130 33c8 -25 29 -48 71 -48c46 0 69 27 69 68c0 45 -25 68 -70 68c-37 0 -53 -17 -62 -29l-124 34l54 303h314v-141h-211l-6 -32c-4 -19 -7 -34 -9 -40z" />
    <glyph glyph-name="six.tosf" 
d="M286 339l4 -3c14 13 36 21 69 21c91 0 165 -70 165 -173c0 -125 -88 -195 -215 -195c-120 0 -215 61 -215 204c0 89 36 154 91 230l100 137h157zM311 118c45 0 70 24 70 70c1 45 -25 69 -70 69s-70 -24 -70 -69c0 -46 26 -70 70 -70z" />
    <glyph glyph-name="seven.tosf" 
d="M528 442l-230 -442h-154l144 274c38 74 76 140 76 141l-2 4h-73h-185v141h424v-118z" />
    <glyph glyph-name="eight.tosf" 
d="M99 153c0 88 56 129 101 143v3c-26 8 -79 44 -79 122c0 85 71 150 189 150c119 0 190 -64 190 -150c0 -78 -52 -114 -79 -122v-3c42 -14 102 -52 102 -143c0 -92 -69 -165 -211 -165c-137 0 -213 69 -213 165zM251 411c0 -35 23 -54 59 -54c37 0 60 19 60 54
c0 38 -25 54 -60 54s-59 -17 -59 -54zM242 166c0 -43 29 -63 68 -63c42 0 69 22 69 63s-28 62 -69 62s-68 -23 -68 -62z" />
    <glyph glyph-name="nine.tosf" 
d="M341 216l-3 3c-11 -8 -32 -18 -69 -18c-102 0 -167 74 -167 174c0 125 93 196 215 196c115 0 215 -61 215 -203c0 -114 -56 -184 -104 -247l-100 -121h-163zM314 441c-44 0 -70 -22 -70 -68c0 -49 26 -71 70 -71c45 0 70 22 70 71c0 46 -26 68 -70 68z" />
    <glyph glyph-name="zero.slsh.tosf" 
d="M310 571c137 0 220 -89 220 -291s-83 -291 -220 -291s-220 89 -220 291s83 291 220 291zM310 432c-52 0 -69 -39 -69 -152c0 -22 1 -42 2 -58l104 198c-10 8 -22 12 -37 12zM310 128c50 0 69 37 69 152c0 20 -1 38 -2 54l-103 -197c10 -6 22 -9 36 -9z" />
    <glyph glyph-name="fraction" unicode="&#x2044;" horiz-adv-x="159" 
d="M231 700l-209 -700h-94l209 700h94z" />
    <glyph glyph-name="onefraction" unicode="&#x215f;" horiz-adv-x="482" 
d="M298 314h-241v91h70v98c0 20 4 71 6 81h-4c-1 0 -12 -15 -22 -25l-22 -21l-63 65l106 97h101v-295h69v-91zM554 700l-210 -700h-93l209 700h94z" />
    <glyph glyph-name="onehalf" unicode="&#xbd;" horiz-adv-x="804" 
d="M298 314h-241v91h70v98c0 20 4 71 6 81h-4c-1 0 -12 -15 -22 -25l-22 -21l-63 65l106 97h101v-295h69v-91zM554 700l-210 -700h-93l209 700h94zM511 1v121l116 78c33 22 50 41 50 67c0 23 -13 37 -40 37c-25 0 -40 -12 -46 -42l-85 23c15 69 58 110 141 110
c84 0 130 -42 130 -119c0 -45 -16 -80 -61 -115c-34 -28 -92 -64 -92 -66l2 -4c10 0 38 1 48 1h108v-91h-271z" />
    <glyph glyph-name="zerothird" unicode="&#x2189;" horiz-adv-x="786" 
d="M162 306c-91 0 -142 56 -142 201c0 144 51 201 142 201c90 0 141 -57 141 -201c0 -145 -51 -201 -141 -201zM536 700l-210 -700h-93l209 700h94zM162 403c27 0 36 20 36 103c0 85 -9 104 -36 104s-37 -19 -37 -104c0 -83 10 -103 37 -103zM698 200v-4
c30 -3 68 -34 68 -91c0 -62 -50 -112 -131 -112c-99 0 -138 54 -149 110l88 25c4 -30 19 -46 49 -46c29 0 45 17 45 42s-16 41 -45 41h-24v68h20c28 0 44 16 44 41c0 23 -14 37 -41 37c-26 0 -41 -13 -46 -49l-84 23c8 64 50 110 137 110c86 0 130 -41 130 -105
c0 -56 -33 -86 -61 -90z" />
    <glyph glyph-name="uni2153" unicode="&#x2153;" horiz-adv-x="804" 
d="M298 314h-241v91h70v98c0 20 4 71 6 81h-4c-1 0 -12 -15 -22 -25l-22 -21l-63 65l106 97h101v-295h69v-91zM554 700l-210 -700h-93l209 700h94zM716 200v-4c30 -3 68 -34 68 -91c0 -62 -50 -112 -131 -112c-99 0 -138 54 -149 110l88 25c4 -30 19 -46 49 -46
c29 0 45 17 45 42s-16 41 -45 41h-24v68h20c28 0 44 16 44 41c0 23 -14 37 -41 37c-26 0 -41 -13 -46 -49l-84 23c8 64 50 110 137 110c86 0 130 -41 130 -105c0 -56 -33 -86 -61 -90z" />
    <glyph glyph-name="uni2154" unicode="&#x2154;" horiz-adv-x="804" 
d="M30 314v121l115 78c34 22 50 41 50 67c0 23 -13 37 -40 37c-25 0 -40 -12 -46 -42l-85 23c15 69 58 110 141 110c84 0 131 -42 131 -119c0 -45 -17 -80 -61 -115c-34 -28 -92 -64 -93 -66l2 -4c11 0 38 1 48 1h108v-91h-270zM554 700l-210 -700h-93l209 700h94zM716 200
v-4c30 -3 68 -34 68 -91c0 -62 -50 -112 -131 -112c-99 0 -138 54 -149 110l88 25c4 -30 19 -46 49 -46c29 0 45 17 45 42s-16 41 -45 41h-24v68h20c28 0 44 16 44 41c0 23 -14 37 -41 37c-26 0 -41 -13 -46 -49l-84 23c8 64 50 110 137 110c86 0 130 -41 130 -105
c0 -56 -33 -86 -61 -90z" />
    <glyph glyph-name="onequarter" unicode="&#xbc;" horiz-adv-x="804" 
d="M298 314h-241v91h70v98c0 20 4 71 6 81h-4c-1 0 -12 -15 -22 -25l-22 -21l-63 65l106 97h101v-295h69v-91zM554 700l-210 -700h-93l209 700h94zM746 1h-96v77h-156v89l102 220h150v-217h45v-92h-45v-77zM650 170v67c0 30 1 66 2 72h-6c-1 0 -56 -132 -58 -135l3 -4h37h22
z" />
    <glyph glyph-name="threequarters" unicode="&#xbe;" horiz-adv-x="804" 
d="M235 513v-4c30 -3 67 -34 67 -91c0 -62 -50 -112 -131 -112c-99 0 -138 54 -149 110l88 25c5 -30 19 -46 49 -46c29 0 45 17 45 42s-16 40 -45 40h-24v69h20c29 0 44 16 44 41c0 23 -14 37 -40 37c-27 0 -42 -13 -47 -49l-84 23c9 64 50 110 137 110
c86 0 130 -41 130 -105c0 -56 -32 -86 -60 -90zM554 700l-210 -700h-93l209 700h94zM746 1h-96v77h-156v89l102 220h150v-217h45v-92h-45v-77zM650 170v67c0 30 1 66 2 72h-6c-1 0 -56 -132 -58 -135l3 -4h37h22z" />
    <glyph glyph-name="uni2155" unicode="&#x2155;" horiz-adv-x="804" 
d="M298 314h-241v91h70v98c0 20 4 71 6 81h-4c-1 0 -12 -15 -22 -25l-22 -21l-63 65l106 97h101v-295h69v-91zM554 700l-210 -700h-93l209 700h94zM596 227l5 -1c10 8 35 18 65 18c65 0 116 -41 116 -121c0 -78 -47 -130 -136 -130c-93 0 -134 57 -141 105l88 24
c3 -20 15 -44 49 -44c26 0 44 16 44 48c0 29 -17 47 -45 47c-23 0 -35 -11 -40 -22l-90 24l38 212h212v-91h-148l-6 -27c-5 -20 -10 -40 -11 -42z" />
    <glyph glyph-name="uni2156" unicode="&#x2156;" horiz-adv-x="804" 
d="M30 314v121l115 78c34 22 50 41 50 67c0 23 -13 37 -40 37c-25 0 -40 -12 -46 -42l-85 23c15 69 58 110 141 110c84 0 131 -42 131 -119c0 -45 -17 -80 -61 -115c-34 -28 -92 -64 -93 -66l2 -4c11 0 38 1 48 1h108v-91h-270zM554 700l-210 -700h-93l209 700h94zM596 227
l5 -1c10 8 35 18 65 18c65 0 116 -41 116 -121c0 -78 -47 -130 -136 -130c-93 0 -134 57 -141 105l88 24c3 -20 15 -44 49 -44c26 0 44 16 44 48c0 29 -17 47 -45 47c-23 0 -35 -11 -40 -22l-90 24l38 212h212v-91h-148l-6 -27c-5 -20 -10 -40 -11 -42z" />
    <glyph glyph-name="uni2157" unicode="&#x2157;" horiz-adv-x="804" 
d="M235 513v-4c30 -3 67 -34 67 -91c0 -62 -50 -112 -131 -112c-99 0 -138 54 -149 110l88 25c5 -30 19 -46 49 -46c29 0 45 17 45 42s-16 40 -45 40h-24v69h20c29 0 44 16 44 41c0 23 -14 37 -40 37c-27 0 -42 -13 -47 -49l-84 23c9 64 50 110 137 110
c86 0 130 -41 130 -105c0 -56 -32 -86 -60 -90zM554 700l-210 -700h-93l209 700h94zM596 227l5 -1c10 8 35 18 65 18c65 0 116 -41 116 -121c0 -77 -47 -130 -136 -130c-93 0 -134 57 -141 105l88 24c3 -20 15 -44 49 -44c26 0 44 16 44 48c0 29 -17 47 -45 47
c-23 0 -35 -11 -40 -22l-90 24l38 212h212v-91h-148l-6 -27c-5 -20 -10 -40 -11 -42z" />
    <glyph glyph-name="uni2158" unicode="&#x2158;" horiz-adv-x="804" 
d="M264 314h-96v77h-156v89l102 220h150v-217h46v-92h-46v-77zM554 700l-210 -700h-93l209 700h94zM168 483v67c0 30 2 66 2 72h-6c-1 0 -56 -132 -58 -135l3 -5l37 1h22zM596 227l5 -1c10 8 35 18 65 18c65 0 116 -41 116 -121c0 -77 -47 -130 -136 -130
c-93 0 -134 57 -141 105l88 24c3 -20 15 -44 49 -44c26 0 44 16 44 48c0 29 -17 47 -45 47c-23 0 -35 -11 -40 -22l-90 24l38 212h212v-91h-148l-6 -27c-5 -20 -10 -40 -11 -42z" />
    <glyph glyph-name="uni2159" unicode="&#x2159;" horiz-adv-x="804" 
d="M298 314h-241v91h70v98c0 20 4 71 6 81h-4c-1 0 -12 -15 -22 -25l-22 -21l-63 65l106 97h101v-295h69v-91zM554 700l-210 -700h-93l209 700h94zM623 222l4 -3c4 4 23 22 61 22c47 0 102 -37 102 -116c0 -85 -59 -132 -140 -132c-80 0 -147 44 -147 144
c0 58 19 100 49 144l74 106h112zM649 77c28 0 47 15 47 48c0 34 -20 49 -47 49s-47 -16 -47 -49s20 -48 47 -48z" />
    <glyph glyph-name="uni215A" unicode="&#x215a;" horiz-adv-x="804" 
d="M554 700l-210 -700h-93l209 700h94zM115 540l4 -1c11 8 35 18 65 18c65 0 116 -41 116 -121c0 -78 -47 -130 -136 -130c-93 0 -134 57 -141 105l88 24c4 -20 15 -44 49 -44c26 0 44 16 44 48c0 29 -16 47 -45 47c-23 0 -34 -11 -40 -22l-90 24l38 212h213v-91h-149
l-6 -27c-4 -20 -10 -40 -10 -42zM623 222l4 -3c4 4 23 22 61 22c47 0 102 -37 102 -116c0 -85 -59 -132 -140 -132c-80 0 -147 44 -147 144c0 58 19 100 49 144l74 106h112zM649 77c28 0 47 15 47 48c0 34 -20 49 -47 49s-47 -16 -47 -49s20 -48 47 -48z" />
    <glyph glyph-name="uni2150" unicode="&#x2150;" horiz-adv-x="804" 
d="M298 314h-241v91h70v98c0 20 4 71 6 81h-4c-1 0 -12 -15 -22 -25l-22 -21l-63 65l106 97h101v-295h69v-91zM554 700l-210 -700h-93l209 700h94zM780 289l-141 -288h-105l98 204c22 46 44 86 45 88l-3 4c-6 -1 -36 -1 -50 -1h-108v91h264v-98z" />
    <glyph glyph-name="oneeighth" unicode="&#x215b;" horiz-adv-x="804" 
d="M298 314h-241v91h70v98c0 20 4 71 6 81h-4c-1 0 -12 -15 -22 -25l-22 -21l-63 65l106 97h101v-295h69v-91zM554 700l-210 -700h-93l209 700h94zM501 106c0 61 39 90 68 98v4c-22 6 -52 32 -52 83c0 66 49 104 126 104s127 -38 127 -103c0 -51 -32 -77 -52 -84v-4
c27 -8 67 -37 67 -98c0 -72 -53 -113 -142 -113c-88 0 -142 41 -142 113zM602 285c0 -24 16 -38 41 -38c26 0 41 14 41 38s-15 37 -41 37c-25 0 -41 -13 -41 -37zM596 115c0 -28 19 -43 47 -43s47 15 47 43c0 29 -18 43 -47 43c-28 0 -47 -14 -47 -43z" />
    <glyph glyph-name="threeeighths" unicode="&#x215c;" horiz-adv-x="804" 
d="M235 513v-4c30 -3 67 -34 67 -91c0 -62 -50 -112 -131 -112c-99 0 -138 54 -149 110l88 25c5 -30 19 -46 49 -46c29 0 45 17 45 42s-16 40 -45 40h-24v69h20c29 0 44 16 44 41c0 23 -14 37 -40 37c-27 0 -42 -13 -47 -49l-84 23c9 64 50 110 137 110
c86 0 130 -41 130 -105c0 -56 -32 -86 -60 -90zM554 700l-210 -700h-93l209 700h94zM501 106c0 61 39 90 68 98v4c-22 6 -52 32 -52 83c0 66 49 104 126 104s127 -38 127 -103c0 -51 -32 -77 -52 -84v-4c27 -8 67 -37 67 -98c0 -72 -53 -113 -142 -113
c-88 0 -142 41 -142 113zM602 285c0 -24 16 -38 41 -38c26 0 41 14 41 38s-15 37 -41 37c-25 0 -41 -13 -41 -37zM596 115c0 -28 19 -43 47 -43s47 15 47 43c0 29 -18 43 -47 43c-28 0 -47 -14 -47 -43z" />
    <glyph glyph-name="fiveeighths" unicode="&#x215d;" horiz-adv-x="804" 
d="M115 540l4 -1c11 8 35 18 65 18c65 0 116 -41 116 -121c0 -78 -47 -130 -136 -130c-93 0 -134 57 -141 105l88 24c4 -20 15 -44 49 -44c26 0 44 16 44 48c0 29 -16 47 -45 47c-23 0 -34 -11 -40 -22l-90 24l38 212h213v-91h-149l-6 -27c-4 -20 -10 -40 -10 -42zM554 700
l-210 -700h-93l209 700h94zM501 106c0 61 39 90 68 98v4c-22 6 -52 32 -52 83c0 66 49 104 126 104s127 -38 127 -103c0 -51 -32 -77 -53 -84v-4c28 -8 68 -37 68 -98c0 -72 -53 -113 -142 -113c-88 0 -142 41 -142 113zM602 285c0 -24 16 -38 41 -38c26 0 41 14 41 38
s-15 37 -41 37c-25 0 -41 -13 -41 -37zM596 115c0 -28 19 -43 47 -43s47 15 47 43c0 29 -18 43 -47 43c-28 0 -47 -14 -47 -43z" />
    <glyph glyph-name="seveneighths" unicode="&#x215e;" horiz-adv-x="804" 
d="M299 602l-142 -288h-105l99 204l44 88l-2 4c-7 -1 -37 -1 -50 -1h-109v91h265v-98zM554 700l-210 -700h-93l209 700h94zM501 106c0 61 39 90 68 98v4c-22 6 -52 32 -52 83c0 66 49 104 126 104s127 -38 127 -103c0 -51 -32 -77 -52 -84v-4c27 -8 67 -37 67 -98
c0 -72 -53 -113 -142 -113c-88 0 -142 41 -142 113zM602 285c0 -24 16 -38 41 -38c26 0 41 14 41 38s-15 37 -41 37c-25 0 -41 -13 -41 -37zM596 115c0 -28 19 -43 47 -43s47 15 47 43c0 29 -18 43 -47 43c-28 0 -47 -14 -47 -43z" />
    <glyph glyph-name="uni2151" unicode="&#x2151;" horiz-adv-x="804" 
d="M298 314h-241v91h70v98c0 20 4 71 6 81h-4c-1 0 -12 -15 -22 -25l-22 -21l-63 65l106 97h101v-295h69v-91zM554 700l-210 -700h-93l209 700h94zM663 159l-4 3c-6 -5 -18 -19 -54 -19c-68 0 -108 49 -108 118c0 88 62 134 144 134c74 0 142 -41 142 -142
c0 -56 -22 -110 -65 -169l-62 -83h-112zM636 309c-27 0 -46 -15 -46 -47c0 -34 20 -48 46 -48c27 0 47 14 47 47s-20 48 -47 48z" />
    <glyph glyph-name="uni2152" unicode="&#x2152;" horiz-adv-x="1127" 
d="M298 314h-241v91h70v98c0 20 4 71 6 81h-4c-1 0 -12 -15 -22 -25l-22 -21l-63 65l106 97h101v-295h69v-91zM554 700l-210 -700h-93l209 700h94zM966 -7c-90 0 -142 56 -142 201c0 144 52 201 142 201s141 -57 141 -201c0 -145 -51 -201 -141 -201zM780 1h-241v91h70v98
c0 20 4 71 6 81h-4c-1 0 -12 -15 -23 -25l-21 -21l-64 65l107 97h100v-295h70v-91zM966 90c28 0 36 20 36 103c0 85 -8 104 -36 104c-27 0 -37 -19 -37 -104c0 -83 10 -103 37 -103z" />
    <glyph glyph-name="zero.dnom" horiz-adv-x="322" 
d="M162 -7c-91 0 -142 56 -142 201c0 144 51 201 142 201c90 0 141 -57 141 -201c0 -145 -51 -201 -141 -201zM162 90c27 0 36 20 36 103c0 85 -9 104 -36 104s-37 -19 -37 -104c0 -83 10 -103 37 -103z" />
    <glyph glyph-name="one.dnom" horiz-adv-x="322" 
d="M298 1h-241v91h70v98c0 20 4 71 6 81h-4c-1 0 -12 -15 -22 -25l-22 -21l-63 65l106 97h101v-295h69v-91z" />
    <glyph glyph-name="two.dnom" horiz-adv-x="322" 
d="M30 1v121l115 78c34 22 50 41 50 67c0 23 -13 37 -40 37c-25 0 -40 -12 -46 -42l-85 23c15 69 58 110 141 110c84 0 131 -42 131 -119c0 -45 -17 -80 -61 -115c-34 -28 -92 -64 -93 -66l2 -4c11 0 38 1 48 1h108v-91h-270z" />
    <glyph glyph-name="three.dnom" horiz-adv-x="322" 
d="M235 200v-4c30 -3 67 -34 67 -91c0 -62 -50 -112 -131 -112c-99 0 -138 54 -149 110l88 25c5 -30 19 -46 49 -46c29 0 45 17 45 42s-16 41 -45 41h-24v68h20c29 0 44 16 44 41c0 23 -14 37 -40 37c-27 0 -42 -13 -47 -49l-84 23c9 64 50 110 137 110
c86 0 130 -41 130 -105c0 -56 -32 -86 -60 -90z" />
    <glyph glyph-name="four.dnom" horiz-adv-x="322" 
d="M264 1h-96v77h-156v89l102 220h150v-217h46v-92h-46v-77zM168 170v67c0 30 2 66 2 72h-6c-1 0 -56 -132 -58 -135l3 -4h37h22z" />
    <glyph glyph-name="five.dnom" horiz-adv-x="322" 
d="M115 227l4 -1c11 8 35 18 65 18c65 0 116 -41 116 -121c0 -77 -47 -130 -136 -130c-93 0 -134 57 -141 105l88 24c4 -20 15 -44 49 -44c26 0 44 16 44 48c0 29 -16 47 -45 47c-23 0 -34 -11 -40 -22l-90 24l38 212h213v-91h-149l-6 -27c-4 -20 -10 -40 -10 -42z" />
    <glyph glyph-name="six.dnom" horiz-adv-x="322" 
d="M141 222l5 -3c4 4 22 22 60 22c47 0 102 -37 102 -116c0 -85 -59 -132 -140 -132c-80 0 -147 44 -147 144c0 58 19 100 50 144l74 106h112zM167 77c29 0 47 15 47 48c0 34 -20 49 -47 49s-47 -16 -47 -49s20 -48 47 -48z" />
    <glyph glyph-name="seven.dnom" horiz-adv-x="322" 
d="M299 289l-142 -288h-105l99 204l44 88l-2 4c-7 -1 -37 -1 -50 -1h-109v91h265v-98z" />
    <glyph glyph-name="eight.dnom" horiz-adv-x="322" 
d="M19 106c0 61 40 90 68 98v4c-21 6 -52 32 -52 83c0 66 49 104 126 104s127 -38 127 -103c0 -51 -32 -77 -52 -84v-4c28 -8 67 -37 67 -98c0 -72 -53 -113 -142 -113c-88 0 -142 41 -142 113zM120 285c0 -24 16 -38 41 -38c26 0 42 14 42 38s-16 37 -42 37
c-25 0 -41 -13 -41 -37zM114 115c0 -28 19 -43 47 -43c29 0 47 15 47 43c0 29 -18 43 -47 43c-28 0 -47 -14 -47 -43z" />
    <glyph glyph-name="nine.dnom" horiz-adv-x="322" 
d="M181 159l-4 3c-6 -5 -18 -19 -54 -19c-67 0 -108 49 -108 118c0 88 62 134 144 134c74 0 142 -41 142 -142c0 -56 -22 -110 -65 -169l-62 -83h-112zM154 309c-27 0 -46 -15 -46 -47c0 -34 20 -48 46 -48c27 0 47 14 47 47s-20 48 -47 48z" />
    <glyph glyph-name="zero.numr" horiz-adv-x="322" 
d="M162 306c-91 0 -142 56 -142 201c0 144 51 201 142 201c90 0 141 -57 141 -201c0 -145 -51 -201 -141 -201zM162 403c27 0 36 20 36 103c0 85 -9 104 -36 104s-37 -19 -37 -104c0 -83 10 -103 37 -103z" />
    <glyph glyph-name="one.numr" horiz-adv-x="322" 
d="M298 314h-241v91h70v98c0 20 4 71 6 81h-4c-1 0 -12 -15 -22 -25l-22 -21l-63 65l106 97h101v-295h69v-91z" />
    <glyph glyph-name="two.numr" horiz-adv-x="322" 
d="M30 314v121l115 78c34 22 50 41 50 67c0 23 -13 37 -40 37c-25 0 -40 -12 -46 -42l-85 23c15 69 58 110 141 110c84 0 131 -42 131 -119c0 -45 -17 -80 -61 -115c-34 -28 -92 -64 -93 -66l2 -4c11 0 38 1 48 1h108v-91h-270z" />
    <glyph glyph-name="three.numr" horiz-adv-x="322" 
d="M235 513v-4c30 -3 67 -34 67 -91c0 -62 -50 -112 -131 -112c-99 0 -138 54 -149 110l88 25c5 -30 19 -46 49 -46c29 0 45 17 45 42s-16 40 -45 40h-24v69h20c29 0 44 16 44 41c0 23 -14 37 -40 37c-27 0 -42 -13 -47 -49l-84 23c9 64 50 110 137 110
c86 0 130 -41 130 -105c0 -56 -32 -86 -60 -90z" />
    <glyph glyph-name="four.numr" horiz-adv-x="322" 
d="M264 314h-96v77h-156v89l102 220h150v-217h46v-92h-46v-77zM168 483v67c0 30 2 66 2 72h-6c-1 0 -56 -132 -58 -135l3 -5l37 1h22z" />
    <glyph glyph-name="five.numr" horiz-adv-x="322" 
d="M115 540l4 -1c11 8 35 18 65 18c65 0 116 -41 116 -121c0 -78 -47 -130 -136 -130c-93 0 -134 57 -141 105l88 24c4 -20 15 -44 49 -44c26 0 44 16 44 48c0 29 -16 47 -45 47c-23 0 -34 -11 -40 -22l-90 24l38 212h213v-91h-149l-6 -27c-4 -20 -10 -40 -10 -42z" />
    <glyph glyph-name="six.numr" horiz-adv-x="322" 
d="M141 535l5 -3c4 4 22 22 60 22c47 0 102 -37 102 -116c0 -85 -59 -132 -140 -132c-80 0 -147 44 -147 144c0 58 19 100 50 144l74 106h112zM167 390c29 0 47 15 47 48c0 34 -20 49 -47 49s-47 -16 -47 -49s20 -48 47 -48z" />
    <glyph glyph-name="seven.numr" horiz-adv-x="322" 
d="M299 602l-142 -288h-105l99 204l44 88l-2 4c-7 -1 -37 -1 -50 -1h-109v91h265v-98z" />
    <glyph glyph-name="eight.numr" horiz-adv-x="322" 
d="M19 419c0 61 40 89 68 98v4c-21 6 -52 32 -52 83c0 66 49 104 126 104s127 -38 127 -103c0 -51 -32 -77 -52 -84v-4c28 -8 67 -37 67 -98c0 -72 -53 -113 -142 -113c-88 0 -142 41 -142 113zM120 598c0 -24 16 -38 41 -38c26 0 42 14 42 38s-16 37 -42 37
c-25 0 -41 -13 -41 -37zM114 428c0 -28 19 -43 47 -43c29 0 47 15 47 43c0 29 -18 43 -47 43c-28 0 -47 -14 -47 -43z" />
    <glyph glyph-name="nine.numr" horiz-adv-x="322" 
d="M181 472l-4 3c-6 -5 -18 -19 -54 -19c-67 0 -108 49 -108 118c0 88 62 134 144 134c74 0 142 -41 142 -142c0 -56 -22 -110 -65 -169l-62 -83h-112zM154 622c-27 0 -46 -15 -46 -47c0 -34 20 -48 46 -48c27 0 47 14 47 47s-20 48 -47 48z" />
    <glyph glyph-name="onesuperior" unicode="&#xb9;" horiz-adv-x="322" 
d="M298 476h-241v91h70v98c0 20 4 71 6 81h-4c-1 0 -12 -15 -22 -25l-22 -21l-63 65l106 97h101v-295h69v-91z" />
    <glyph glyph-name="twosuperior" unicode="&#xb2;" horiz-adv-x="322" 
d="M30 476v121l115 78c34 22 50 41 50 67c0 23 -13 37 -40 37c-25 0 -40 -12 -46 -42l-85 23c15 69 58 110 141 110c84 0 131 -42 131 -119c0 -45 -17 -80 -61 -115c-34 -28 -92 -64 -93 -66l2 -4c11 0 38 1 48 1h108v-91h-270z" />
    <glyph glyph-name="threesuperior" unicode="&#xb3;" horiz-adv-x="322" 
d="M235 675v-4c30 -3 67 -34 67 -91c0 -62 -50 -112 -131 -112c-99 0 -138 54 -149 110l88 25c5 -30 19 -46 49 -46c29 0 45 17 45 42s-16 40 -45 40h-24v69h20c29 0 44 16 44 41c0 23 -14 37 -40 37c-27 0 -42 -13 -47 -49l-84 23c9 64 50 110 137 110
c86 0 130 -41 130 -105c0 -56 -32 -86 -60 -90z" />
    <glyph glyph-name="braceleft" unicode="{" horiz-adv-x="446" 
d="M271 515v-64c0 -128 -79 -159 -89 -161c10 -1 89 -39 89 -161v-64c0 -121 67 -141 134 -142v-139c-181 1 -280 109 -280 260v80c0 92 -65 94 -75 96v141c10 1 75 3 75 95v81c0 150 99 258 280 258v-140c-67 -1 -135 -19 -134 -140z" />
    <glyph glyph-name="braceright" unicode="}" horiz-adv-x="446" 
d="M175 65v64c0 127 78 159 89 161c-11 1 -89 39 -89 160v65c0 121 -67 141 -135 141v140c182 -1 280 -109 280 -260v-80c0 -92 66 -94 76 -96v-141c-10 -2 -76 -4 -76 -96v-80c0 -150 -98 -258 -280 -259v141c68 1 135 19 135 140z" />
    <glyph glyph-name="bracketleft" unicode="[" horiz-adv-x="418" 
d="M381 -69v-143h-289v1006h289v-142h-138v-721h138z" />
    <glyph glyph-name="bracketright" unicode="]" horiz-adv-x="418" 
d="M38 654v143h289v-1006h-289v142h137v721h-137z" />
    <glyph glyph-name="braceleft.case" horiz-adv-x="449" 
d="M276 575v-62c0 -125 -78 -159 -89 -161c11 -2 89 -43 89 -161v-60c0 -123 68 -140 133 -140v-145c-189 0 -286 106 -286 255v84c0 94 -67 94 -73 94v146c6 1 73 1 73 94v83c0 149 97 256 286 256v-145c-65 0 -133 -17 -133 -138z" />
    <glyph glyph-name="braceright.case" horiz-adv-x="449" 
d="M173 129v62c0 125 78 159 89 160c-11 2 -89 43 -89 161v61c0 123 -68 139 -133 139v146c189 0 286 -107 286 -256v-84c0 -93 67 -93 73 -94v-145c-6 -1 -73 -1 -73 -94v-84c0 -149 -97 -255 -286 -255v145c65 0 133 17 133 138z" />
    <glyph glyph-name="bracketleft.case" horiz-adv-x="418" 
d="M381 -1v-151h-289v1006h289v-150h-130v-705h130z" />
    <glyph glyph-name="bracketright.case" horiz-adv-x="418" 
d="M38 704v151h289v-1007h-289v151h129v705h-129z" />
    <glyph glyph-name="parenleft.case" horiz-adv-x="401" 
d="M335 862l42 -154c-129 -40 -167 -175 -167 -353s38 -313 167 -352l-42 -155c-100 34 -286 126 -286 507s186 473 286 507z" />
    <glyph glyph-name="parenright.case" horiz-adv-x="401" 
d="M67 -146l-42 154c128 39 166 174 166 353c0 177 -38 313 -166 351l42 156c100 -35 285 -126 285 -508c0 -381 -185 -472 -285 -506z" />
    <glyph glyph-name="parenleft" unicode="(" horiz-adv-x="400" 
d="M335 787l40 -146c-130 -39 -172 -181 -172 -356c0 -174 42 -318 172 -356l-40 -147c-109 35 -286 129 -286 503c0 373 177 467 286 502z" />
    <glyph glyph-name="parenright" unicode=")" horiz-adv-x="400" 
d="M65 -217l-40 146c130 39 172 181 172 356c0 174 -42 318 -172 357l40 146c109 -35 286 -129 286 -503c0 -373 -177 -467 -286 -502z" />
    <glyph glyph-name="emdash.case" horiz-adv-x="892" 
d="M832 294h-752v133h752v-133z" />
    <glyph glyph-name="endash.case" 
d="M553 293h-483v133h483v-133z" />
    <glyph glyph-name="hyphen.case" horiz-adv-x="503" 
d="M452 294h-382v131h382v-131z" />
    <glyph glyph-name="softhyphen.case" horiz-adv-x="522" 
d="M451 294h-382v131h382v-131z" />
    <glyph glyph-name="emdash" unicode="&#x2014;" horiz-adv-x="892" 
d="M822 215h-752v133h752v-133z" />
    <glyph glyph-name="endash" unicode="&#x2013;" 
d="M553 215h-483v133h483v-133z" />
    <glyph glyph-name="hyphen" unicode="-" horiz-adv-x="522" 
d="M452 216h-382v131h382v-131z" />
    <glyph glyph-name="softhyphen" unicode="&#xad;" horiz-adv-x="522" 
d="M452 216h-382v131h382v-131z" />
    <glyph glyph-name="guillemotleft.case" horiz-adv-x="701" 
d="M275 584l92 -84l-139 -147v-3l140 -147l-94 -85l-214 234zM548 584l93 -84l-139 -147v-3l139 -147l-93 -85l-214 234z" />
    <glyph glyph-name="guillemotright.case" horiz-adv-x="701" 
d="M427 118l-93 85l139 147v3l-138 147l92 84l214 -232zM153 118l-93 85l139 147v3l-138 147l92 84l215 -232z" />
    <glyph glyph-name="guilsinglleft.case" horiz-adv-x="428" 
d="M275 584l92 -84l-139 -147v-3l140 -147l-94 -85l-214 234z" />
    <glyph glyph-name="guilsinglright.case" horiz-adv-x="428" 
d="M153 118l-93 85l139 147v3l-138 147l92 84l215 -232z" />
    <glyph glyph-name="guillemotleft" unicode="&#xab;" horiz-adv-x="701" 
d="M275 512l92 -85l-139 -146v-4l140 -146l-94 -85l-214 233zM548 512l93 -85l-139 -146v-4l139 -146l-93 -85l-214 233z" />
    <glyph glyph-name="guillemotright" unicode="&#xbb;" horiz-adv-x="701" 
d="M427 46l-93 85l139 146v4l-138 146l92 85l214 -233zM153 46l-93 85l139 146v4l-138 146l92 85l215 -233z" />
    <glyph glyph-name="guilsinglleft" unicode="&#x2039;" horiz-adv-x="428" 
d="M275 512l92 -85l-139 -146v-4l140 -146l-94 -85l-214 233z" />
    <glyph glyph-name="guilsinglright" unicode="&#x203a;" horiz-adv-x="428" 
d="M153 46l-93 85l139 146v4l-138 146l92 85l215 -233z" />
    <glyph glyph-name="quotedblbase" unicode="&#x201e;" horiz-adv-x="497" 
d="M111 12c-34 1 -57 23 -57 64c0 40 33 71 79 71c54 0 93 -37 93 -99c0 -67 -46 -127 -118 -151l-60 66c27 7 52 25 63 49zM333 12c-35 1 -57 23 -57 64c0 40 32 71 78 71c55 0 93 -37 93 -99c0 -67 -45 -127 -117 -151l-60 66c26 7 52 25 63 49z" />
    <glyph glyph-name="quotedblleft" unicode="&#x201c;" horiz-adv-x="496" 
d="M162 595c35 -1 58 -23 58 -63s-33 -72 -79 -72c-54 0 -93 37 -93 99c0 67 45 127 117 151l61 -66c-27 -7 -52 -25 -64 -49zM383 594c35 0 57 -23 57 -63s-32 -71 -78 -71c-54 0 -93 37 -93 99c0 67 45 127 117 151l60 -67c-26 -6 -51 -24 -63 -49z" />
    <glyph glyph-name="quotedblright" unicode="&#x201d;" horiz-adv-x="496" 
d="M111 578c-34 0 -57 23 -57 63s33 71 79 71c54 0 93 -37 93 -99c0 -67 -46 -126 -118 -151l-60 67c27 7 52 24 63 49zM332 578c-35 0 -57 23 -57 63s32 71 79 71c54 0 92 -37 92 -99c0 -67 -45 -126 -117 -151l-60 67c26 7 52 24 63 49z" />
    <glyph glyph-name="quoteleft" unicode="&#x2018;" horiz-adv-x="275" 
d="M164 594c34 0 57 -23 57 -63s-32 -71 -79 -71c-54 0 -92 37 -92 99c0 67 45 126 117 151l60 -67c-26 -6 -52 -24 -63 -49z" />
    <glyph glyph-name="quoteright" unicode="&#x2019;" horiz-adv-x="275" 
d="M111 577c-34 1 -57 23 -57 63c0 41 33 72 79 72c54 0 93 -37 93 -99c0 -67 -46 -127 -118 -151l-60 66c27 7 52 25 63 49z" />
    <glyph glyph-name="quotesinglbase" unicode="&#x201a;" horiz-adv-x="275" 
d="M111 13c-34 0 -57 23 -57 63s33 71 79 71c54 0 93 -37 93 -99c0 -67 -46 -126 -118 -151l-60 67c27 6 52 24 63 49z" />
    <glyph glyph-name="asterisk" unicode="*" horiz-adv-x="431" 
d="M292 506l56 -86l-82 -55l-51 83l-50 -83l-83 54l56 87l-88 26l28 95l88 -27l-1 100h99v-100l88 27l29 -95z" />
    <glyph glyph-name="backslash" unicode="\" horiz-adv-x="474" 
d="M461 0h-132l-317 700h128z" />
    <glyph glyph-name="bullet" unicode="&#x2022;" horiz-adv-x="315" 
d="M158 179c-64 0 -108 43 -108 108c0 64 44 106 108 106c63 0 107 -42 107 -106c0 -65 -44 -108 -107 -108z" />
    <glyph glyph-name="bullet.case" horiz-adv-x="339" 
d="M170 234c-71 0 -120 48 -120 121s49 119 120 119s120 -46 120 -119c0 -74 -49 -121 -120 -121z" />
    <glyph glyph-name="colon.case" horiz-adv-x="275" 
d="M138 424c-54 0 -84 34 -84 80c0 45 29 79 84 79c53 0 83 -33 83 -79s-29 -80 -83 -80zM138 100c-54 0 -84 34 -84 80c0 45 29 79 84 79c53 0 83 -33 83 -79s-29 -80 -83 -80z" />
    <glyph glyph-name="numbersign.case" horiz-adv-x="622" 
d="M467 274h54l-39 -150h-54l-32 -124h-124l32 124h-99l-32 -124h-124l32 124h-55l38 150h55l37 147h-54l38 149h55l33 130h125l-34 -130h99l33 130h125l-33 -130h54l-39 -149h-54zM277 429l-42 -164h112l41 164h-111z" />
    <glyph glyph-name="periodcentered.case" horiz-adv-x="275" 
d="M138 267c-54 0 -84 34 -84 80c0 45 29 79 84 79c53 0 83 -33 83 -79s-29 -80 -83 -80z" />
    <glyph glyph-name="semicolon.case" horiz-adv-x="275" 
d="M138 424c-54 0 -84 34 -84 80c0 45 29 79 84 79c53 0 83 -33 83 -79s-29 -80 -83 -80zM112 121c-36 0 -58 24 -58 63c0 41 33 72 79 72c54 0 93 -37 93 -100c0 -66 -46 -126 -118 -150l-60 66c27 7 52 24 64 49z" />
    <glyph glyph-name="colon" unicode=":" horiz-adv-x="275" 
d="M138 317c-54 0 -84 34 -84 80c0 45 29 79 84 79c53 0 83 -33 83 -79s-29 -80 -83 -80zM138 -10c-54 0 -84 35 -84 80s29 79 84 79c53 0 83 -33 83 -79s-29 -80 -83 -80z" />
    <glyph glyph-name="comma" unicode="," horiz-adv-x="275" 
d="M112 13c-36 1 -58 25 -58 63c0 42 33 72 79 72c54 0 93 -37 93 -100c0 -66 -46 -126 -118 -150l-60 66c27 7 52 25 64 49z" />
    <glyph glyph-name="ellipsis" unicode="&#x2026;" horiz-adv-x="724" 
d="M123 -11c-44 0 -69 28 -69 66c0 37 24 65 69 65c44 0 68 -28 68 -65c0 -38 -23 -66 -68 -66zM359 -11c-45 0 -69 28 -69 66c0 37 24 65 69 65c44 0 68 -28 68 -65c0 -38 -24 -66 -68 -66zM601 -11c-45 0 -69 28 -69 66c0 37 24 65 69 65c44 0 68 -28 68 -65
c0 -38 -23 -66 -68 -66z" />
    <glyph glyph-name="exclam" unicode="!" horiz-adv-x="340" 
d="M250 700v-499h-160v499h160zM170 -10c-54 0 -83 35 -84 80c0 45 30 79 84 79s83 -33 83 -79s-29 -80 -83 -80z" />
    <glyph glyph-name="exclamdown" unicode="&#xa1;" horiz-adv-x="340" 
d="M170 710c54 0 83 -35 84 -80c0 -45 -30 -79 -84 -79s-83 33 -83 79s29 80 83 80zM90 0v499h160v-499h-160z" />
    <glyph glyph-name="numbersign" unicode="#" horiz-adv-x="622" 
d="M464 216h64l-37 -141h-64l-18 -75h-118l19 75h-103l-19 -75h-117l19 75h-64l37 141h63l32 129h-64l37 141h64l18 74h117l-19 -74h104l18 74h118l-19 -74h65l-38 -141h-63zM271 352l-37 -144h117l37 144h-117z" />
    <glyph glyph-name="period" unicode="." horiz-adv-x="275" 
d="M138 -10c-54 0 -84 35 -84 80s29 79 84 79c53 0 83 -33 83 -79s-29 -80 -83 -80z" />
    <glyph glyph-name="periodcentered" unicode="&#xb7;" horiz-adv-x="275" 
d="M138 205c-54 0 -84 34 -84 80c0 45 29 79 84 79c53 0 83 -33 83 -79s-29 -80 -83 -80z" />
    <glyph glyph-name="question" unicode="?" horiz-adv-x="536" 
d="M180 200v169c129 42 168 75 168 125c0 36 -20 68 -76 68s-79 -28 -95 -74l-151 41c29 116 115 185 252 185c149 0 232 -89 232 -202c0 -124 -92 -185 -170 -215v-97h-160zM259 -10c-54 0 -83 35 -83 80s29 79 83 79s83 -33 83 -79s-28 -80 -83 -80z" />
    <glyph glyph-name="questiondown" unicode="&#xbf;" horiz-adv-x="536" 
d="M277 710c54 0 83 -35 83 -80s-29 -79 -83 -79s-83 33 -83 79s28 80 83 80zM356 500v-169c-129 -42 -168 -75 -168 -125c0 -36 20 -68 76 -68s79 28 95 74l151 -41c-29 -116 -115 -185 -252 -185c-149 0 -232 89 -232 202c0 124 92 185 170 215v97h160z" />
    <glyph glyph-name="quotedbl" unicode="&#x22;" horiz-adv-x="457" 
d="M198 700l-8 -247h-133l-9 247h150zM407 700l-8 -247h-133l-9 247h150z" />
    <glyph glyph-name="quotesingle" unicode="'" horiz-adv-x="248" 
d="M198 700l-8 -247h-133l-9 247h150z" />
    <glyph glyph-name="semicolon" unicode=";" horiz-adv-x="275" 
d="M138 317c-54 0 -84 34 -84 80c0 45 29 79 84 79c53 0 83 -33 83 -79s-29 -80 -83 -80zM112 14c-36 0 -58 24 -58 63c0 41 33 72 79 72c54 0 93 -37 93 -100c0 -66 -46 -126 -118 -150l-60 66c27 7 52 25 64 49z" />
    <glyph glyph-name="slash" unicode="/" horiz-adv-x="474" 
d="M461 700l-316 -700h-133l321 700h128z" />
    <glyph glyph-name="underscore" unicode="_" horiz-adv-x="694" 
d="M644 -130h-594v130h594v-130z" />
    <glyph glyph-name="space.dnom" horiz-adv-x="114" 
 />
    <glyph glyph-name="uni2003" unicode="&#x2003;" horiz-adv-x="592" 
 />
    <glyph glyph-name="enspace" unicode="&#x2002;" horiz-adv-x="317" 
 />
    <glyph glyph-name="uni2007" unicode="&#x2007;" 
 />
    <glyph glyph-name="uni200A" unicode="&#x200a;" horiz-adv-x="37" 
 />
    <glyph glyph-name="space.numr" horiz-adv-x="114" 
 />
    <glyph glyph-name="uni2008" unicode="&#x2008;" horiz-adv-x="275" 
 />
    <glyph glyph-name="space" unicode=" " horiz-adv-x="227" 
 />
    <glyph glyph-name="space.sups" horiz-adv-x="114" 
 />
    <glyph glyph-name="uni2009" unicode="&#x2009;" horiz-adv-x="114" 
 />
    <glyph glyph-name="zerowidthspace" unicode="&#x200b;" horiz-adv-x="0" 
 />
    <glyph glyph-name="cent" unicode="&#xa2;" horiz-adv-x="523" 
d="M271 144c46 0 73 25 89 67l137 -38c-26 -78 -86 -138 -166 -158v-92h-124v92c-103 25 -181 116 -181 271c0 153 72 239 181 261v102h125v-102c73 -15 141 -60 167 -161l-135 -38c-17 52 -45 74 -91 74c-67 0 -100 -46 -100 -137s34 -141 98 -141z" />
    <glyph glyph-name="currency" unicode="&#xa4;" horiz-adv-x="607" 
d="M580 504l-65 -68c24 -42 38 -95 38 -155c0 -62 -15 -117 -41 -160l63 -66l-78 -76l-62 63c-37 -24 -83 -37 -133 -37c-49 0 -94 13 -131 37l-61 -63l-79 76l63 66c-25 43 -40 96 -40 160c0 61 14 114 38 156l-65 67l79 77l63 -65c38 25 83 38 133 38s97 -13 136 -37
l62 64zM303 415c-61 0 -106 -47 -106 -135c0 -92 45 -135 106 -135c63 0 106 43 106 135c0 88 -43 135 -106 135z" />
    <glyph glyph-name="dollar" unicode="$" horiz-adv-x="464" 
d="M440 161c0 -98 -61 -153 -151 -168v-81h-108v81c-73 12 -141 52 -157 148l136 36c5 -32 25 -69 77 -69c33 0 55 15 55 46c0 48 -52 54 -115 75c-69 24 -144 63 -144 176c0 93 52 147 141 162v81h109v-81c83 -14 135 -62 151 -138l-130 -35c-7 37 -30 59 -74 59
c-41 0 -56 -19 -56 -44c0 -38 32 -49 99 -70c79 -27 167 -60 167 -178z" />
    <glyph glyph-name="Euro" unicode="&#x20ac;" horiz-adv-x="542" 
d="M294 122c44 0 66 24 77 60l146 -39c-20 -73 -77 -155 -221 -155c-111 0 -199 48 -228 188h-42v85h32v25v13h-32v85h40c24 135 104 187 228 187c118 0 201 -48 224 -173l-145 -39c-9 44 -25 79 -79 79c-40 0 -62 -16 -74 -54h89v-85h-98v-14v-24h98v-85h-86
c12 -40 36 -54 71 -54z" />
    <glyph glyph-name="cent.lf" horiz-adv-x="523" 
d="M271 208c46 0 73 25 89 67l137 -38c-26 -78 -86 -138 -166 -158v-92h-124v92c-103 25 -181 116 -181 271c0 153 72 239 181 261v102h125v-102c73 -15 141 -60 167 -161l-135 -38c-17 52 -45 75 -91 75c-67 0 -100 -47 -100 -138s34 -141 98 -141z" />
    <glyph glyph-name="currency.lf" horiz-adv-x="607" 
d="M580 563l-65 -68c24 -42 38 -95 38 -155c0 -62 -15 -117 -41 -160l63 -66l-78 -76l-62 63c-37 -24 -83 -37 -133 -37c-49 0 -94 13 -131 37l-61 -63l-79 76l63 66c-25 43 -40 96 -40 160c0 61 14 114 38 156l-65 67l79 77l63 -65c38 25 83 38 133 38s97 -13 136 -37
l62 64zM303 474c-61 0 -106 -47 -106 -135c0 -92 45 -135 106 -135c63 0 106 43 106 135c0 88 -43 135 -106 135z" />
    <glyph glyph-name="dollar.lf" horiz-adv-x="541" 
d="M320 422c103 -41 194 -85 194 -224c0 -114 -60 -187 -171 -206v-82h-130v82c-86 16 -164 67 -189 183l151 41c8 -54 44 -86 102 -86c41 0 75 16 75 62c0 59 -59 70 -133 95c-76 31 -178 76 -178 223c0 111 61 181 172 199v90h131v-91c86 -16 151 -66 173 -177l-151 -44
c-13 66 -52 83 -94 83c-49 0 -69 -22 -69 -57c0 -52 44 -64 117 -91z" />
    <glyph glyph-name="Euro.lf" horiz-adv-x="612" 
d="M440 216l148 -40c-24 -91 -89 -188 -248 -188c-134 0 -234 65 -268 225h-46v114h33l-1 24c0 7 1 14 1 21h-33v114h43c31 164 122 226 265 226c140 0 226 -60 254 -202l-149 -40c-13 59 -36 103 -108 103c-59 0 -88 -26 -102 -87h138v-114h-147v-7c0 -13 0 -26 1 -38h146
v-114h-133c16 -61 49 -78 102 -78c46 0 86 20 104 81z" />
    <glyph glyph-name="uni20BA.lf" horiz-adv-x="598" 
d="M430 275l146 -40c-21 -125 -104 -235 -282 -235h-189v271l-62 -12v114l62 12v42l-62 -12v114l62 12v159h159v-128l105 21v-114l-105 -21v-42l105 21v-114l-105 -21v-158h25c102 0 129 73 141 131z" />
    <glyph glyph-name="uni20B9.lf" horiz-adv-x="537" 
d="M373 586l-2 -4c10 -13 18 -28 23 -47h112v-114h-103c-7 -102 -61 -164 -138 -190l151 -232l-188 1l-151 246v103h75c63 0 88 34 97 72h-199v114h191c-15 34 -45 51 -88 51h-103v114h456v-114h-133z" />
    <glyph glyph-name="sterling.lf" horiz-adv-x="562" 
d="M530 144v-144h-493v144c46 8 59 34 59 86c0 14 -1 30 -2 48h-58v115h45c-6 45 -11 92 -11 131c0 114 74 190 214 190c113 0 216 -41 241 -206l-146 -38c-11 77 -40 102 -86 102c-53 0 -74 -30 -74 -86c0 -24 4 -58 9 -93h178v-115h-161c2 -18 4 -34 4 -45
c0 -39 -11 -73 -30 -88l2 -4c1 0 46 3 147 3h162z" />
    <glyph glyph-name="yen.lf" horiz-adv-x="582" 
d="M473 486h70v-114h-118l-19 -45h137v-114h-172v-213h-160v213h-165v114h130l-19 45h-111v114h63l-91 214h176l78 -215c11 -32 24 -80 24 -82h4c1 2 14 50 25 83l73 214h166z" />
    <glyph glyph-name="uni20BA" unicode="&#x20ba;" horiz-adv-x="548" 
d="M380 230l141 -38c-17 -98 -89 -192 -241 -192h-181v201l-51 -9v85l51 9v38l-51 -9v85l51 9v151h151v-124l81 15v-86l-81 -14v-38l81 15v-85l-81 -15v-87h25c81 0 97 58 105 89z" />
    <glyph glyph-name="uni20B9" unicode="&#x20b9;" horiz-adv-x="477" 
d="M350 475l-1 -6c5 -6 10 -17 14 -32h83v-85h-76c-7 -74 -55 -126 -124 -144l114 -208h-179l-109 207v107h70c33 0 57 8 68 38h-160v85h160c-10 27 -29 38 -60 38h-100v85h396v-85h-96z" />
    <glyph glyph-name="sterling" unicode="&#xa3;" horiz-adv-x="493" 
d="M34 0v141c35 6 45 19 45 55v6h-46v107h35c-6 38 -11 77 -11 104c0 97 62 158 191 158c95 0 189 -33 210 -170l-140 -37c-13 61 -35 74 -64 74c-31 0 -49 -13 -49 -56c0 -18 3 -45 7 -73h142v-107h-127v-8c0 -18 -4 -39 -16 -50l2 -4c2 0 43 1 114 1h133v-141h-426z" />
    <glyph glyph-name="cent.tf" 
d="M320 208c46 0 73 25 89 67l137 -38c-26 -78 -86 -138 -166 -158v-92h-124v92c-103 25 -181 116 -181 271c0 153 72 239 181 261v102h125v-102c73 -15 141 -60 167 -161l-135 -38c-17 52 -45 75 -91 75c-67 0 -100 -47 -100 -138s34 -141 98 -141z" />
    <glyph glyph-name="currency.tf" 
d="M588 563l-65 -68c24 -42 38 -95 38 -155c0 -62 -15 -117 -41 -160l63 -66l-78 -76l-62 63c-37 -24 -83 -37 -133 -37c-49 0 -94 13 -131 37l-61 -63l-79 76l63 66c-25 43 -40 96 -40 160c0 61 14 114 38 156l-65 67l79 77l63 -65c38 25 83 38 133 38s97 -13 136 -37
l62 64zM311 474c-62 0 -106 -47 -106 -135c0 -92 44 -135 106 -135c63 0 106 43 106 135c0 88 -43 135 -106 135z" />
    <glyph glyph-name="dollar.tf" 
d="M356 422c103 -41 194 -85 194 -224c0 -114 -61 -187 -171 -206v-82h-130v82c-86 16 -164 67 -189 183l151 41c8 -54 44 -86 102 -86c40 0 75 16 75 62c0 59 -59 70 -133 95c-77 31 -178 76 -178 223c0 111 61 181 172 199v90h131v-91c86 -16 151 -66 173 -177l-151 -44
c-13 66 -52 83 -94 83c-49 0 -69 -22 -69 -57c0 -52 44 -64 117 -91z" />
    <glyph glyph-name="Euro.tf" 
d="M436 216l149 -40c-24 -91 -89 -188 -249 -188c-133 0 -233 65 -268 225h-46v114h34l-1 24c0 7 0 14 1 21h-33v114h43c30 164 122 226 265 226c140 0 226 -60 254 -202l-149 -40c-13 59 -36 103 -108 103c-59 0 -88 -26 -102 -87h138v-114h-147v-7c0 -13 0 -26 1 -38h146
v-114h-133c16 -61 48 -78 102 -78c46 0 86 20 103 81z" />
    <glyph glyph-name="uni20BA.tf" 
d="M439 275l146 -40c-21 -125 -104 -235 -282 -235h-190v271l-61 -12v114l61 12v42l-61 -12v114l61 12v159h160v-128l105 21v-114l-105 -21v-42l105 21v-114l-105 -21v-158h25c102 0 129 73 141 131z" />
    <glyph glyph-name="uni20B9.tf" 
d="M418 586l-2 -4c10 -13 17 -28 23 -47h111v-114h-102c-7 -102 -61 -164 -138 -190l151 -232l-188 1l-151 246v103h75c63 0 88 34 97 72h-199v114h191c-16 34 -45 51 -89 51h-102v114h455v-114h-132z" />
    <glyph glyph-name="sterling.tf" 
d="M565 144v-144h-492v144c45 8 58 34 58 86c0 14 0 30 -2 48h-58v115h45c-6 45 -10 92 -10 131c0 114 74 190 213 190c114 0 217 -41 241 -206l-146 -38c-11 77 -40 102 -85 102c-53 0 -74 -30 -74 -86c0 -24 4 -58 9 -93h178v-115h-161c2 -18 3 -34 3 -45
c0 -39 -10 -73 -29 -88l2 -4c1 0 46 3 147 3h161z" />
    <glyph glyph-name="yen.tf" 
d="M494 486h70v-114h-118l-19 -45h137v-114h-172v-213h-160v213h-165v114h130l-19 45h-111v114h63l-91 214h176l78 -215c11 -32 23 -80 24 -82h4c1 2 14 50 25 83l72 214h167z" />
    <glyph glyph-name="cent.tosf" 
d="M320 144c46 0 73 25 89 67l137 -38c-26 -78 -86 -138 -166 -158v-92h-124v92c-103 25 -181 116 -181 271c0 153 72 239 181 261v102h125v-102c73 -15 141 -60 167 -161l-135 -38c-17 52 -45 74 -91 74c-67 0 -100 -46 -100 -137s34 -141 98 -141z" />
    <glyph glyph-name="currency.tosf" 
d="M588 504l-65 -68c24 -42 38 -95 38 -155c0 -62 -15 -117 -41 -160l63 -66l-78 -76l-62 63c-37 -24 -83 -37 -133 -37c-49 0 -94 13 -131 37l-61 -63l-79 76l63 66c-25 43 -40 96 -40 160c0 61 14 114 38 156l-65 67l79 77l63 -65c38 25 83 38 133 38s97 -13 136 -37
l62 64zM311 415c-62 0 -106 -47 -106 -135c0 -92 44 -135 106 -135c63 0 106 43 106 135c0 88 -43 135 -106 135z" />
    <glyph glyph-name="dollar.tosf" 
d="M519 161c0 -98 -61 -153 -151 -168v-81h-108v81c-73 12 -141 52 -157 148l136 36c5 -32 25 -69 77 -69c34 0 55 15 55 46c0 48 -52 54 -115 75c-69 24 -144 63 -144 176c0 93 52 147 141 162v81h109v-81c83 -14 135 -62 151 -138l-130 -35c-7 37 -30 59 -74 59
c-41 0 -56 -19 -56 -44c0 -38 33 -49 99 -70c79 -27 167 -60 167 -178z" />
    <glyph glyph-name="Euro.tosf" 
d="M330 122c44 0 67 24 77 60l146 -39c-20 -73 -76 -155 -221 -155c-110 0 -198 48 -227 188h-43v85h33v25v13h-32v85h39c25 135 105 187 228 187c118 0 202 -48 225 -173l-146 -39c-8 44 -25 79 -79 79c-40 0 -62 -16 -73 -54h88v-85h-98v-14c0 -8 0 -16 1 -24h97v-85h-86
c13 -40 36 -54 71 -54z" />
    <glyph glyph-name="uni20BA.tosf" 
d="M442 230l141 -38c-16 -98 -89 -192 -241 -192h-181v201l-51 -9v85l51 9v38l-51 -9v85l51 9v151h151v-124l81 15v-86l-81 -14v-38l81 15v-85l-81 -15v-87h25c81 0 97 58 105 89z" />
    <glyph glyph-name="uni20B9.tosf" 
d="M442 475l-1 -6c5 -6 10 -17 14 -32h83v-85h-76c-7 -74 -55 -126 -124 -144l114 -208h-179l-109 207v107h70c33 0 57 8 68 38h-160v85h160c-9 27 -29 38 -60 38h-100v85h396v-85h-96z" />
    <glyph glyph-name="sterling.tosf" 
d="M110 0v141c35 6 45 19 45 55v6h-46v107h34c-5 38 -10 77 -10 104c0 97 62 158 191 158c94 0 189 -33 210 -170l-140 -37c-14 61 -35 74 -64 74c-31 0 -50 -13 -50 -56c0 -18 4 -45 8 -73h142v-107h-127v-8c0 -18 -5 -39 -16 -50l2 -4c2 0 42 1 113 1h134v-141h-426z" />
    <glyph glyph-name="yen.tosf" 
d="M468 384h49v-85h-85l-16 -38h101v-85h-130v-176h-151v176h-128v85h98l-16 38h-82v85h47l-75 176h163l47 -148l22 -73h3c1 0 12 40 22 73l46 148h159z" />
    <glyph glyph-name="yen" unicode="&#xa5;" horiz-adv-x="497" 
d="M405 384h50v-85h-85l-16 -38h101v-85h-131v-176h-150v176h-128v85h98l-16 38h-82v85h46l-74 176h162l47 -148l22 -73h4c1 0 12 40 22 73l46 148h159z" />
    <glyph glyph-name="asciitilde" unicode="~" 
d="M500 362l26 -127c-9 -16 -52 -45 -109 -45c-72 0 -122 36 -193 36c-46 0 -81 -19 -101 -39l-26 127c11 16 53 45 111 45c70 0 119 -36 191 -36c46 0 82 21 101 39z" />
    <glyph glyph-name="asciitilde.case" 
d="M500 439l26 -127c-9 -16 -52 -45 -109 -45c-72 0 -122 36 -193 36c-46 0 -81 -18 -101 -39l-26 127c11 16 53 45 111 45c70 0 119 -36 191 -36c46 0 82 21 101 39z" />
    <glyph glyph-name="divide.case" 
d="M312 476c-54 0 -83 35 -83 80c0 46 29 80 83 80s83 -34 83 -80c0 -45 -28 -80 -83 -80zM503 295h-383v132h383v-132zM312 86c-54 0 -83 35 -83 80s29 79 83 79s83 -33 83 -79s-28 -80 -83 -80z" />
    <glyph glyph-name="equal.case" 
d="M503 406h-383v132h383v-132zM503 179h-383v132h383v-132z" />
    <glyph glyph-name="greater.case" 
d="M356 355v4l-232 102v144l398 -193v-111l-398 -192v143z" />
    <glyph glyph-name="greaterequal.case" 
d="M375 436v4l-267 72v138l408 -133v-158l-408 -133v138zM516 0h-408v132h408v-132z" />
    <glyph glyph-name="less.case" 
d="M499 109l-398 193v111l398 192v-143l-232 -103v-3l232 -103v-144z" />
    <glyph glyph-name="lessequal.case" 
d="M516 226l-409 133v158l409 133v-138l-268 -72v-4l268 -72v-138zM516 132v-132h-409v132h409z" />
    <glyph glyph-name="minus.case" 
d="M503 294h-383v132h383v-132z" />
    <glyph glyph-name="multiply.case" 
d="M403 356l107 -112l-97 -92l-101 107l-102 -107l-96 92l107 112l-108 112l97 92l102 -106l101 106l97 -92z" />
    <glyph glyph-name="notequal.case" 
d="M395 410l-33 -95h141v-131h-186l-33 -94h-132l33 94h-65v131h111l33 95h-144v132h191l32 93h129l-32 -93h63v-132h-108z" />
    <glyph glyph-name="plus.case" 
d="M503 294h-123v-135h-136v135h-124v132h124v134h136v-134h123v-132z" />
    <glyph glyph-name="plusminus.case" 
d="M503 506v-132h-121v-139h-140v139h-122v132h122v139h139l1 -139h121zM120 132h383v-131h-383v131z" />
    <glyph glyph-name="divide" unicode="&#xf7;" 
d="M312 392c-54 0 -83 35 -83 80c0 46 29 80 83 80s83 -34 83 -80c0 -45 -28 -80 -83 -80zM503 211h-383v132h383v-132zM312 2c-54 0 -83 35 -83 80c0 46 29 79 83 79s83 -33 83 -79s-28 -80 -83 -80z" />
    <glyph glyph-name="equal" unicode="=" 
d="M503 330h-383v132h383v-132zM503 103h-383v132h383v-132z" />
    <glyph glyph-name="greater" unicode="&#x3e;" 
d="M356 280v4l-232 102v144l398 -193v-111l-398 -192v143z" />
    <glyph glyph-name="greaterequal" unicode="&#x2265;" 
d="M375 363v4l-267 66v139l408 -128v-159l-408 -128v140zM516 0h-408v132h408v-132z" />
    <glyph glyph-name="less" unicode="&#x3c;" 
d="M499 34l-398 192v111l398 193v-144l-232 -102v-4l232 -103v-143z" />
    <glyph glyph-name="lessequal" unicode="&#x2264;" 
d="M516 157l-409 128v159l409 128v-139l-268 -66v-4l268 -66v-140zM516 132v-132h-409v132h409z" />
    <glyph glyph-name="percent.lf" horiz-adv-x="792" 
d="M174 306c-91 0 -142 56 -142 201c0 144 51 201 142 201c90 0 141 -57 141 -201c0 -145 -51 -201 -141 -201zM547 700l-209 -700h-94l209 700h94zM174 403c27 0 36 20 36 103c0 85 -9 104 -36 104s-37 -19 -37 -104c0 -83 10 -103 37 -103zM619 -7c-91 0 -142 56 -142 201
c0 144 51 201 142 201c90 0 141 -57 141 -201c0 -145 -51 -201 -141 -201zM619 90c27 0 35 20 35 103c0 85 -8 104 -35 104s-37 -19 -37 -104c0 -83 10 -103 37 -103z" />
    <glyph glyph-name="perthousand.lf" horiz-adv-x="1123" 
d="M174 306c-91 0 -142 56 -142 201c0 144 51 201 142 201c90 0 141 -57 141 -201c0 -145 -51 -201 -141 -201zM547 700l-209 -700h-94l209 700h94zM174 403c27 0 36 20 36 103c0 85 -9 104 -36 104s-37 -19 -37 -104c0 -83 10 -103 37 -103zM619 -7c-91 0 -142 56 -142 201
c0 144 51 201 142 201c90 0 141 -57 141 -201c0 -145 -51 -201 -141 -201zM950 -7c-91 0 -142 56 -142 201c0 144 51 201 142 201c90 0 141 -57 141 -201c0 -145 -51 -201 -141 -201zM619 90c27 0 35 20 35 103c0 85 -8 104 -35 104s-37 -19 -37 -104c0 -83 10 -103 37 -103
zM950 90c27 0 36 20 36 103c0 85 -9 104 -36 104s-37 -19 -37 -104c0 -83 10 -103 37 -103z" />
    <glyph glyph-name="minus" unicode="&#x2212;" 
d="M503 216h-383v131h383v-131z" />
    <glyph glyph-name="multiply" unicode="&#xd7;" 
d="M403 279l107 -112l-97 -92l-101 107l-102 -107l-96 92l107 112l-108 113l97 91l102 -106l101 106l97 -91z" />
    <glyph glyph-name="notequal" unicode="&#x2260;" 
d="M395 330l-33 -95h141v-132h-186l-33 -94h-132l33 94h-65v132h111l33 95h-144v132h191l32 93h129l-32 -93h63v-132h-108z" />
    <glyph glyph-name="percent" unicode="%" horiz-adv-x="705" 
d="M164 226c-93 0 -132 63 -132 172s39 173 132 173c94 0 132 -64 132 -173s-38 -172 -132 -172zM480 560l-178 -560h-78l178 560h78zM164 315c26 0 39 13 39 83c0 69 -13 84 -39 84c-24 0 -38 -15 -38 -84c0 -70 14 -83 38 -83zM542 -6c-94 0 -133 64 -133 173
c0 108 39 172 133 172c93 0 131 -64 131 -172c0 -109 -38 -173 -131 -173zM542 84c25 0 38 13 38 83c0 69 -13 83 -38 83s-40 -14 -40 -83c0 -70 15 -83 40 -83z" />
    <glyph glyph-name="perthousand" unicode="&#x2030;" horiz-adv-x="990" 
d="M164 226c-93 0 -132 63 -132 172s39 173 132 173c94 0 132 -64 132 -173s-38 -172 -132 -172zM480 560l-178 -560h-78l178 560h78zM164 315c26 0 39 13 39 83c0 69 -13 84 -39 84c-24 0 -38 -15 -38 -84c0 -70 14 -83 38 -83zM542 -6c-94 0 -133 64 -133 173
c0 108 39 172 133 172c93 0 131 -64 131 -172c0 -109 -38 -173 -131 -173zM826 -6c-94 0 -132 64 -132 173c0 108 38 172 132 172s132 -64 132 -172c0 -109 -38 -173 -132 -173zM542 84c25 0 38 13 38 83c0 69 -13 83 -38 83s-40 -14 -40 -83c0 -70 15 -83 40 -83zM826 84
c25 0 39 13 39 83c0 69 -14 83 -39 83c-24 0 -39 -14 -39 -83c0 -70 15 -83 39 -83z" />
    <glyph glyph-name="plus" unicode="+" 
d="M503 216h-123v-135h-136v135h-124v131h124v135h136v-135h123v-131z" />
    <glyph glyph-name="plusminus" unicode="&#xb1;" 
d="M503 454v-132h-122v-116h-137l-1 116h-123v132h123v129h137l1 -129h122zM120 132h383v-131h-383v131z" />
    <glyph glyph-name="percent.tf" 
d="M148 306c-98 0 -138 72 -138 201s40 201 138 201s137 -72 137 -201s-39 -201 -137 -201zM501 700l-319 -700h-61l320 700h60zM149 403c29 0 35 26 35 103c0 79 -6 104 -35 104c-28 0 -36 -25 -36 -104c0 -77 8 -103 36 -103zM476 -7c-98 0 -138 72 -138 201
s40 201 138 201s137 -72 137 -201s-39 -201 -137 -201zM476 90c29 0 35 26 35 103c0 79 -6 104 -35 104c-28 0 -36 -25 -36 -104c0 -77 8 -103 36 -103z" />
    <glyph glyph-name="percent.tosf" 
d="M147 225c-91 0 -121 62 -121 173s30 173 121 173c90 0 120 -62 120 -173s-30 -173 -120 -173zM430 560l-177 -560h-62l178 560h61zM147 312c24 0 31 21 31 86s-7 86 -31 86s-31 -21 -31 -86s7 -86 31 -86zM477 -6c-91 0 -121 62 -121 173s30 173 121 173
c90 0 120 -62 120 -173s-30 -173 -120 -173zM477 81c25 0 31 21 31 86s-6 86 -31 86c-24 0 -32 -21 -32 -86s8 -86 32 -86z" />
    <glyph glyph-name="lozenge" unicode="&#x25ca;" horiz-adv-x="710" 
d="M355 714l343 -364l-343 -364l-343 364zM355 174l166 176l-166 177l-165 -177z" />
    <glyph glyph-name="ampersand" unicode="&#x26;" horiz-adv-x="575" 
d="M480 230v-58c0 -115 -77 -184 -226 -184c-148 0 -218 66 -218 166c0 78 42 120 84 132v2c-36 8 -82 45 -82 128c0 109 79 155 203 155c120 0 200 -41 234 -143l-140 -38c-14 36 -37 54 -80 54c-46 0 -61 -18 -61 -46c0 -29 15 -56 70 -56h290v-111zM330 231h-74
c-47 0 -68 -21 -68 -61c0 -35 20 -57 68 -57c56 0 74 28 74 74v44z" />
    <glyph glyph-name="uniF8FF" unicode="&#xf8ff;" horiz-adv-x="718" 
d="M668 82v45c-1 196 -13 210 -22 222l-25 29l-11 13l11 12l22 26c12 12 24 24 25 227v44h-44c-202 0 -214 -13 -227 -25l-20 -17l-17 -16l-18 16l-20 19c-12 10 -25 22 -229 23h-43v-44c0 -201 13 -215 23 -227l24 -27l10 -11l-10 -12l-24 -27c-10 -11 -23 -24 -23 -227
v-43h43c200 0 215 13 227 24l27 23l11 10l13 -10l27 -23c12 -11 24 -23 226 -24h44zM223 391l-79 89c-3 20 -5 76 -7 133c57 -1 113 -4 133 -7l88 -81l91 81c20 3 76 6 132 7c-2 -56 -4 -112 -7 -133l-81 -89l81 -91c2 -20 5 -75 7 -130c-57 1 -112 3 -133 7l-90 79l-89 -79
c-20 -4 -76 -6 -132 -7c2 55 4 111 7 132zM54 14l-4 -12c4 -2 9 -3 16 -3c17 0 24 8 24 17c0 8 -6 13 -14 16c-6 2 -11 5 -11 7s3 4 7 4c6 0 10 -3 12 -4l3 12c-3 2 -8 3 -15 3c-13 0 -21 -8 -21 -17c0 -8 6 -13 15 -16c6 -2 9 -4 9 -6c0 -4 -3 -5 -7 -5c-6 0 -11 3 -14 4z
M532 1l-3 12c-2 -2 -5 -3 -9 -3c-9 0 -15 6 -15 16c0 11 7 17 15 17c5 0 7 -1 9 -3l4 12c-2 1 -7 2 -14 2c-16 0 -29 -10 -29 -29c0 -14 8 -26 28 -26c7 0 11 1 14 2zM588 26c0 16 -10 28 -27 28s-27 -12 -27 -28c0 -15 9 -27 27 -27c16 0 27 10 27 27zM122 0v20l17 33h-16
l-8 -23l-7 23h-17l17 -33v-20h14zM158 0l-1 35l19 -35h15v53h-13v-32l-16 32h-18v-53h14zM210 0h13v42h14v11h-41v-11h14v-42zM242 53v-53h15v21h18v-21h14v53h-14v-20h-18v20h-15zM327 0l17 53h-15l-10 -39l-9 39h-16l17 -53h16zM349 53v-53h15v53h-15zM406 32h-19v10h21
v11h-36v-53h36v11h-21v10h19v11zM440 0l7 35l6 -35h16l13 53h-14l-7 -36l-6 36h-15l-6 -36l-7 36h-15l13 -53h15zM653 0l-2 53h-19l-9 -34l-8 34h-19l-4 -53h14l1 40l11 -39h10l11 39v-40h14zM549 26c0 11 5 17 12 17s11 -7 11 -17s-4 -16 -11 -16c-8 0 -12 6 -12 16z
M483 -1c-4 0 -6 3 -6 6c0 4 3 6 6 6c4 0 6 -3 6 -6c0 -4 -3 -6 -6 -6z" />
    <glyph glyph-name="asciicircum" unicode="^" 
d="M311 563l-128 -198l-120 68l183 268h131l183 -268l-120 -68z" />
    <glyph glyph-name="at" unicode="@" horiz-adv-x="750" 
d="M554 444v-202c0 -65 5 -96 38 -96c38 0 46 49 46 124c0 180 -92 286 -259 286c-173 0 -267 -119 -267 -297c0 -205 104 -287 259 -287c74 0 123 25 148 40l76 -44c-37 -30 -112 -74 -227 -74c-211 0 -342 117 -342 367c0 230 131 374 350 374c226 0 349 -145 349 -367
c0 -117 -52 -212 -153 -212c-69 0 -104 38 -119 74h-3c-12 -35 -49 -75 -121 -75c-105 0 -160 73 -160 198c0 128 50 202 158 202c55 0 85 -32 94 -47h3v36h130zM366 169c38 0 57 28 58 82v9c0 53 -20 81 -58 81s-57 -28 -57 -84c0 -61 21 -88 57 -88z" />
    <glyph glyph-name="bar" unicode="|" horiz-adv-x="249" 
d="M60 775h129v-849h-129v849z" />
    <glyph glyph-name="brokenbar" unicode="&#xa6;" horiz-adv-x="249" 
d="M189 490h-129v285h129v-285zM189 -74h-129v285h129v-285z" />
    <glyph glyph-name="ampersand.case" horiz-adv-x="672" 
d="M554 290v-90c0 -131 -86 -214 -264 -214c-171 0 -254 81 -254 204c0 102 58 158 117 170v3c-48 10 -109 59 -109 163c0 125 89 188 237 188c133 0 230 -50 267 -188l-147 -39c-16 59 -55 90 -113 90c-59 0 -81 -32 -81 -76s25 -74 88 -74h352v-137h-93zM400 290h-113
c-66 0 -88 -32 -88 -81c0 -52 30 -82 96 -82c81 0 105 37 105 101v62z" />
    <glyph glyph-name="at.case" horiz-adv-x="741" 
d="M453 212h-3c-12 -35 -49 -74 -121 -74c-105 0 -160 73 -160 197c0 128 50 202 158 202c55 0 85 -31 94 -47h3v36h130v-202c0 -64 5 -96 38 -96c38 0 46 49 46 124c0 180 -92 286 -259 286c-173 0 -267 -118 -267 -297c0 -205 104 -286 259 -286c74 0 123 24 148 39
l76 -44c-37 -29 -112 -74 -227 -74c-211 0 -342 117 -342 367c0 230 131 374 350 374c226 0 349 -145 349 -366c0 -118 -52 -213 -153 -213c-69 0 -104 38 -119 74zM424 334v8c0 53 -20 81 -58 81s-57 -28 -57 -84c0 -60 21 -87 57 -87c38 0 57 28 58 82z" />
    <glyph glyph-name="copyright.case" horiz-adv-x="719" 
d="M359 714c193 0 335 -134 335 -364c0 -228 -142 -364 -335 -364c-192 0 -333 136 -333 364c0 230 141 364 333 364zM359 635c-154 0 -253 -106 -253 -284c0 -179 99 -286 253 -286c155 0 254 107 254 286c0 178 -99 284 -254 284zM420 292l94 -30
c-23 -60 -73 -104 -156 -104c-103 0 -174 67 -174 192c0 122 70 190 174 190c81 0 134 -40 154 -112l-94 -26c-6 18 -19 41 -57 41c-48 0 -74 -33 -74 -93c0 -64 28 -95 74 -95c32 0 48 16 59 37z" />
    <glyph glyph-name="uni2116.case" horiz-adv-x="1067" 
d="M714 540c0 105 66 171 159 171c92 0 159 -66 159 -171c0 -104 -68 -170 -159 -170c-93 0 -159 66 -159 170zM467 0l-258 408h-3c0 -1 2 -87 2 -174v-234h-158v700h162l257 -408h4c0 1 -2 86 -2 167v241h158v-700h-162zM809 540c0 -51 21 -79 64 -79c42 0 63 28 63 79
s-21 80 -63 80c-43 0 -64 -29 -64 -80zM1022 212h-298v99h298v-99z" />
    <glyph glyph-name="paragraph.case" horiz-adv-x="645" 
d="M437 0v549h-62v-549h-158v338c-124 0 -191 65 -191 184c0 116 67 178 191 178h376l2 -700h-158z" />
    <glyph glyph-name="uni2117.case" horiz-adv-x="719" 
d="M359 714c193 0 335 -134 335 -364c0 -228 -142 -364 -335 -364c-192 0 -333 136 -333 364c0 230 141 364 333 364zM359 635c-154 0 -253 -106 -253 -284c0 -179 99 -286 253 -286c155 0 254 107 254 286c0 178 -99 284 -254 284zM231 536h148c88 0 142 -51 142 -137
c0 -79 -48 -130 -156 -130h-31v-102h-103v369zM334 354h42c28 0 42 15 42 42s-13 40 -42 40h-42v-82z" />
    <glyph glyph-name="registered.case" horiz-adv-x="719" 
d="M359 714c193 0 335 -134 335 -364c0 -228 -142 -364 -335 -364c-192 0 -333 136 -333 364c0 230 141 364 333 364zM359 635c-154 0 -253 -106 -253 -284c0 -179 99 -286 253 -286c155 0 254 107 254 286c0 178 -99 284 -254 284zM409 167l-57 126h-22h-11v-126h-105v369
h151c96 0 149 -51 149 -127c0 -48 -26 -80 -60 -95l72 -147h-117zM319 370h48c25 0 38 13 38 37c0 23 -12 36 -39 36h-47v-73z" />
    <glyph glyph-name="copyright" unicode="&#xa9;" horiz-adv-x="719" 
d="M359 632c193 0 335 -134 335 -364c0 -228 -142 -364 -335 -364c-192 0 -333 136 -333 364c0 230 141 364 333 364zM359 553c-154 0 -253 -106 -253 -284s99 -285 253 -285c155 0 254 107 254 285s-99 284 -254 284zM420 210l94 -30c-23 -60 -73 -103 -156 -103
c-103 0 -174 67 -174 191c0 122 70 191 174 191c81 0 134 -40 154 -113l-94 -25c-6 17 -19 41 -57 41c-48 0 -74 -33 -74 -94c0 -64 28 -94 74 -94c32 0 48 15 59 36z" />
    <glyph glyph-name="dagger" unicode="&#x2020;" 
d="M392 540h134v-140h-134v-96c0 -171 -20 -303 -21 -304h-119c-1 1 -20 133 -20 304v96h-135v140h135v160h160v-160z" />
    <glyph glyph-name="daggerdbl" unicode="&#x2021;" 
d="M392 304v-4h134v-140h-139c-6 -96 -15 -159 -16 -160h-119c-1 1 -10 64 -16 160h-139v140h135v4v96h-135v140h135v160h160v-160h134v-140h-134v-96z" />
    <glyph glyph-name="degree" unicode="&#xb0;" horiz-adv-x="291" 
d="M146 566c-79 0 -134 49 -134 134s55 134 134 134s133 -49 133 -134s-54 -134 -133 -134zM146 646c28 0 47 18 47 54s-19 54 -47 54c-29 0 -48 -18 -48 -54s19 -54 48 -54z" />
    <glyph glyph-name="uni2116" unicode="&#x2116;" horiz-adv-x="986" 
d="M633 400c0 105 67 171 159 171s159 -66 159 -171c0 -104 -68 -170 -159 -170c-93 0 -159 66 -159 170zM548 0h-156l-192 313h-4c0 -1 1 -61 1 -122v-191h-147v560h156l191 -301h4v107v194h147v-560zM728 400c0 -51 21 -79 64 -79c42 0 64 28 64 79s-22 80 -64 80
c-43 0 -64 -29 -64 -80zM941 72h-298v99h298v-99z" />
    <glyph glyph-name="paragraph" unicode="&#xb6;" horiz-adv-x="645" 
d="M437 -140v549h-62v-549h-158v338c-124 0 -191 65 -191 184c0 116 67 178 191 178h376l2 -700h-158z" />
    <glyph glyph-name="uni2117" unicode="&#x2117;" horiz-adv-x="719" 
d="M359 632c193 0 335 -134 335 -364c0 -228 -142 -364 -335 -364c-192 0 -333 136 -333 364c0 230 141 364 333 364zM359 553c-154 0 -253 -106 -253 -284s99 -285 253 -285c155 0 254 107 254 285s-99 284 -254 284zM231 454h148c88 0 142 -51 142 -137
c0 -78 -48 -129 -156 -129h-31v-103h-103v369zM334 273h42c28 0 42 14 42 42c0 26 -13 40 -42 40h-42v-82z" />
    <glyph glyph-name="registered" unicode="&#xae;" horiz-adv-x="719" 
d="M359 632c193 0 335 -134 335 -364c0 -228 -142 -364 -335 -364c-192 0 -333 136 -333 364c0 230 141 364 333 364zM359 553c-154 0 -253 -106 -253 -284s99 -285 253 -285c155 0 254 107 254 285s-99 284 -254 284zM409 85l-57 127h-22h-11v-127h-105v369h151
c96 0 149 -50 149 -127c0 -47 -26 -80 -60 -94l72 -148h-117zM319 289h48c25 0 38 13 38 37c0 22 -12 36 -39 36h-47v-73z" />
    <glyph glyph-name="section" unicode="&#xa7;" 
d="M483 257c41 -25 69 -62 69 -119c0 -102 -84 -152 -227 -152c-128 0 -235 40 -258 145l144 38c8 -47 47 -69 103 -69c50 0 77 14 77 45c0 37 -45 38 -170 66c-71 17 -147 48 -147 137c0 54 29 90 72 111c-38 22 -62 55 -62 110c0 102 86 145 215 145
c127 0 217 -41 246 -136l-130 -35c-17 44 -56 65 -111 65c-40 0 -62 -11 -62 -37c0 -39 45 -41 137 -62c102 -23 176 -54 176 -142c0 -54 -28 -90 -72 -110zM215 372c0 -52 84 -60 160 -77c22 8 35 24 35 46c0 51 -64 59 -141 77l-9 2c-26 -8 -45 -23 -45 -48z" />
    <glyph glyph-name="trademark" unicode="&#x2122;" horiz-adv-x="757" 
d="M314 700v-89h-96v-236h-95v236h-97v89h288zM707 375h-93v89c0 51 1 106 1 107h-2c-1 -1 -18 -48 -33 -80l-21 -45h-46l-22 45c-17 34 -36 82 -37 83h-1l1 -110v-89h-89v325h109l39 -80c11 -23 25 -50 26 -51h1c1 1 14 28 24 51l35 80h108v-325z" />
    <glyph glyph-name="acute" unicode="&#xb4;" horiz-adv-x="531" 
d="M291 754h-140l103 179l126 -36z" />
    <glyph glyph-name="breve" unicode="&#x2d8;" horiz-adv-x="531" 
d="M92 895h114c2 -32 20 -53 59 -53c41 0 59 22 59 53h114c-4 -99 -70 -154 -173 -154c-104 0 -169 55 -173 154z" />
    <glyph glyph-name="tilde.cap" horiz-adv-x="531" 
d="M419 915l24 -116c-7 -12 -41 -32 -91 -32c-59 0 -98 27 -157 27c-39 0 -69 -13 -84 -27l-25 116c9 13 41 33 92 33c60 0 97 -27 158 -27c38 0 67 14 83 26z" />
    <glyph glyph-name="caron" unicode="&#x2c7;" horiz-adv-x="531" 
d="M97 862l71 83l98 -67l97 67l71 -83l-168 -124z" />
    <glyph glyph-name="cedilla" unicode="&#xb8;" horiz-adv-x="531" 
d="M380 -75c0 -61 -42 -103 -142 -103c-33 0 -70 6 -86 13v99c10 -5 30 -9 58 -9c39 0 57 7 57 24c0 22 -33 31 -109 30v77l112 -1v-30c61 -6 110 -35 110 -100z" />
    <glyph glyph-name="circumflex" unicode="&#x2c6;" horiz-adv-x="531" 
d="M434 821l-72 -84l-96 72l-97 -72l-72 84l169 130z" />
    <glyph glyph-name="dieresis" unicode="&#xa8;" horiz-adv-x="531" 
d="M164 763c-40 0 -69 32 -69 73c0 40 30 72 71 72c39 0 68 -32 68 -72c0 -41 -30 -73 -70 -73zM366 763c-40 0 -70 32 -70 73c0 40 30 72 70 72s70 -32 70 -72c0 -41 -30 -73 -70 -73z" />
    <glyph glyph-name="dotaccent" unicode="&#x2d9;" horiz-adv-x="531" 
d="M266 763c-40 0 -70 31 -70 73c0 40 30 72 70 72s70 -32 70 -72c0 -42 -30 -73 -70 -73z" />
    <glyph glyph-name="grave" unicode="`" horiz-adv-x="531" 
d="M277 933l103 -179h-140l-89 143z" />
    <glyph glyph-name="hungarumlaut" unicode="&#x2dd;" horiz-adv-x="531" 
d="M434 754h-140l103 179l126 -36zM227 754h-140l103 179l126 -36z" />
    <glyph glyph-name="caron.l" horiz-adv-x="531" 
d="M211 700h126c2 -52 -20 -152 -43 -196h-114c19 44 32 146 31 196z" />
    <glyph glyph-name="macron" unicode="&#xaf;" horiz-adv-x="531" 
d="M422 761h-313v133h313v-133z" />
    <glyph glyph-name="ogonek" unicode="&#x2db;" horiz-adv-x="525" 
d="M290 43l35 -43c-45 -2 -75 -10 -75 -37c0 -26 26 -32 49 -32c31 0 47 8 62 16v-107c-16 -8 -55 -18 -91 -18c-81 0 -149 30 -149 101c0 85 82 106 169 120z" />
    <glyph glyph-name="ring" unicode="&#x2da;" horiz-adv-x="531" 
d="M266 732c-78 0 -131 42 -131 117c0 76 53 118 131 118c77 0 130 -42 130 -118c0 -75 -53 -117 -130 -117zM266 808c27 0 44 15 44 41c0 27 -17 42 -44 42c-28 0 -45 -15 -45 -42c0 -26 17 -41 45 -41z" />
    <glyph glyph-name="tilde" unicode="&#x2dc;" horiz-adv-x="531" 
d="M401 915l25 -116c-7 -12 -39 -32 -82 -32c-53 0 -88 27 -140 27c-34 0 -61 -14 -75 -27l-26 116c8 13 40 33 82 33c53 0 88 -27 141 -27c34 0 61 13 75 26z" />
    <glyph glyph-name="commaaccentcomb" unicode="&#x326;" horiz-adv-x="0" 
d="M242 -134c-32 0 -50 21 -50 50c0 38 30 60 74 60c46 0 78 -23 78 -74c0 -56 -37 -101 -105 -122l-48 54c17 3 42 16 51 32z" />
    </font>
</defs>
</svg>
