<?xml version="1.0" standalone="no"?>
<!DOCTYPE svg PUBLIC "-//W3C//DTD SVG 1.1//EN" "http://www.w3.org/Graphics/SVG/1.1/DTD/svg11.dtd" >
<svg xmlns="http://www.w3.org/2000/svg" width="100%" height="100%">
<metadata>
Created by FontXChange 20100429 at Thu May  1 17:01:28 2014
 By Anders Poulsen
Copyright 1990 as an unpublished work by Bitstream Inc.  All rights reserved.  Confidential.
</metadata>
<defs>
<font id="LydianBT-Roman" horiz-adv-x="500" >
  <font-face 
    font-family="Lydian"
    font-weight="400"
    font-stretch="normal"
    units-per-em="1000"
    panose-1="2 0 5 3 0 0 0 0 0 0"
    ascent="800"
    descent="-200"
    x-height="465"
    cap-height="708"
    bbox="-167 -251 1143 963"
    underline-thickness="60"
    underline-position="-118"
    stemh="70"
    stemv="90"
    unicode-range="U+0020-FB02"
  />
    <missing-glyph />
    <glyph glyph-name="space" unicode=" " horiz-adv-x="271" 
 />
    <glyph glyph-name="exclam" unicode="!" horiz-adv-x="294" 
d="M147 119c21 -24 44 -48 68 -69c-24 -22 -46 -45 -68 -69c-22 24 -45 47 -69 69c25 21 48 44 69 69zM123 154c-4 250 -13 421 -29 512l109 18c-15 -171 -27 -345 -34 -521z" />
    <glyph glyph-name="quotedbl" unicode="&#x22;" horiz-adv-x="300" 
d="M112 701v-271h-68v271h68zM256 701v-271h-68v271h68z" />
    <glyph glyph-name="numbersign" unicode="#" horiz-adv-x="769" 
d="M451 712l-79 -222h125l80 222h80l-78 -222h147l-25 -71h-148l-45 -129h157l-25 -71h-157l-79 -221h-81l79 221h-126l-79 -221h-81l78 221h-151l26 71h151l45 129h-161l25 71h162l79 222h81zM473 419h-127l-45 -129h127z" />
    <glyph glyph-name="dollar" unicode="$" horiz-adv-x="542" 
d="M101 83l63 85c28 -29 58 -47 91 -53v186c-104 41 -153 86 -153 157c0 47 17 82 48 122c48 62 83 94 105 97l-3 48l44 8l-2 -52h8c60 0 109 -23 145 -69l-69 -76c-21 28 -50 46 -84 52v-185c115 -44 165 -81 165 -162c0 -41 -34 -112 -111 -195c-14 -15 -33 -25 -54 -29
c0 -24 2 -48 5 -69l-49 -11c3 32 5 57 5 76h-4c-60 0 -110 24 -150 70zM255 416v176h-8c-28 0 -53 -9 -72 -26c-4 -16 -6 -31 -6 -44c0 -50 27 -80 86 -106zM388 144v13c0 64 -28 102 -94 127v-174h8c37 0 66 12 86 34z" />
    <glyph glyph-name="percent" unicode="%" horiz-adv-x="794" 
d="M166 -19l418 741h37l-418 -741h-37zM204 287c-8 -5 -17 -6 -27 -6c-82 0 -142 73 -142 191c0 63 15 119 46 169l92 77c9 3 18 4 26 4c87 0 145 -68 145 -172c0 -83 -27 -158 -72 -208zM245 346c22 39 36 88 36 152c0 108 -47 168 -114 168c-12 0 -23 -2 -33 -6
c-23 -32 -36 -83 -36 -148c0 -104 55 -170 123 -170c7 0 15 2 24 4zM621 -12c-8 -4 -18 -7 -28 -7c-82 0 -142 74 -142 192c0 63 15 118 46 168l92 78c9 3 18 4 26 4c87 0 145 -68 145 -172c0 -83 -27 -158 -72 -208zM661 47c25 44 36 94 36 152c0 108 -47 168 -114 168
c-12 0 -23 -2 -33 -6c-23 -32 -36 -83 -36 -148c0 -104 55 -170 123 -170c7 0 15 2 24 4z" />
    <glyph glyph-name="ampersand" unicode="&#x26;" horiz-adv-x="521" 
d="M498 288l-44 -73h-32c13 -11 20 -30 20 -59c0 -37 -23 -87 -68 -128c-31 -28 -78 -47 -130 -47c-104 0 -195 87 -195 194c0 87 54 165 161 222c-79 26 -119 70 -119 129c0 38 20 67 43 106c28 47 109 90 181 90c40 0 78 -13 111 -39l-70 -89c-33 32 -80 49 -135 49
c-40 0 -52 -8 -52 -38c0 -78 84 -127 248 -138l-58 -91c-14 1 -33 2 -58 5c-115 -14 -169 -53 -169 -129c0 -104 80 -180 198 -180c47 0 59 8 59 34c0 61 -53 110 -147 110c-11 0 -23 0 -35 -2l49 74h242z" />
    <glyph glyph-name="quoteright" unicode="&#x2019;" horiz-adv-x="271" 
d="M99 469l-13 12c26 32 40 57 40 81c0 30 -21 53 -60 82l64 78c44 -28 66 -58 66 -95c0 -41 -34 -90 -97 -158z" />
    <glyph glyph-name="parenleft" unicode="(" horiz-adv-x="266" 
d="M199 -251c-92 146 -138 306 -138 479c0 183 48 351 140 497l43 -21c-70 -152 -105 -309 -105 -468c0 -166 35 -323 104 -464z" />
    <glyph glyph-name="parenright" unicode=")" horiz-adv-x="266" 
d="M67 725c92 -146 138 -304 138 -475c0 -186 -48 -355 -140 -501l-42 22c70 153 104 309 104 468c0 166 -34 322 -103 464z" />
    <glyph glyph-name="asterisk" unicode="*" 
d="M231 540l-99 -63l-23 40l104 55l-103 54l23 40l98 -62l-4 118h46l-5 -118l100 63l23 -40l-104 -55l103 -54l-23 -40l-98 62l4 -118h-46z" />
    <glyph glyph-name="plus" unicode="+" horiz-adv-x="833" 
d="M451 596v-264h258v-68h-258v-264h-69v264h-258v68h258v264h69z" />
    <glyph glyph-name="comma" unicode="," horiz-adv-x="271" 
d="M90 -108l-12 12c28 32 44 57 44 82c0 28 -19 51 -54 80l67 77c41 -28 61 -59 61 -94c0 -44 -38 -91 -106 -157z" />
    <glyph glyph-name="hyphen" unicode="-" horiz-adv-x="245" 
d="M225 270l-28 -70h-176l28 70h176z" />
    <glyph glyph-name="period" unicode="." horiz-adv-x="271" 
d="M135 119c21 -24 45 -48 69 -69c-24 -22 -47 -45 -69 -69c-22 24 -44 47 -68 69c25 21 47 44 68 69z" />
    <glyph glyph-name="slash" unicode="/" horiz-adv-x="366" 
d="M359 722l-315 -815h-37l315 815h37z" />
    <glyph glyph-name="zero" unicode="0" horiz-adv-x="542" 
d="M308 -12c-23 -5 -41 -7 -53 -7c-139 0 -230 118 -230 318c0 112 28 209 86 293c44 47 88 88 132 123c14 5 28 7 43 7c126 0 230 -118 230 -300c0 -147 -31 -259 -97 -339c-27 -35 -63 -66 -111 -95zM384 86c28 49 47 134 47 247c0 186 -93 296 -211 296
c-15 0 -28 -3 -42 -8c-44 -67 -67 -153 -67 -251c0 -192 82 -297 220 -297c23 0 40 3 53 13z" />
    <glyph glyph-name="one" unicode="1" horiz-adv-x="542" 
d="M214 0c5 111 8 283 8 515c0 50 -1 110 -3 179l108 28c-4 -165 -6 -309 -6 -432c0 -91 1 -188 6 -290h-113z" />
    <glyph glyph-name="two" unicode="2" horiz-adv-x="542" 
d="M39 0l27 83c96 29 151 50 166 61c12 9 33 31 55 67c38 61 59 130 59 198c0 143 -75 225 -192 225c-43 0 -77 -9 -105 -31l-6 6l77 86c8 9 48 27 107 27c123 0 212 -94 212 -240c0 -142 -77 -284 -226 -399h236l-30 -83h-380z" />
    <glyph glyph-name="three" unicode="3" horiz-adv-x="542" 
d="M79 63l83 77c46 -54 99 -81 149 -81c13 0 25 2 36 9c12 16 19 37 19 61c0 108 -83 195 -198 195c-13 0 -32 -2 -56 -9l-5 6l85 87c13 4 27 6 43 6c23 0 44 -3 62 -10c21 32 32 69 32 104c0 90 -46 138 -127 138c-32 0 -63 -9 -95 -27l-4 8l88 81c28 9 55 14 81 14
c98 0 165 -65 165 -157c0 -57 -37 -119 -110 -172c81 -34 130 -111 130 -195c0 -83 -57 -139 -179 -214c-12 -3 -24 -3 -36 -3c-70 0 -128 30 -163 82z" />
    <glyph glyph-name="four" unicode="4" horiz-adv-x="542" 
d="M303 0c3 82 6 160 6 233h-273c142 230 232 386 273 466l96 23c-1 -43 -2 -130 -2 -261c0 -23 1 -76 1 -159h83l-22 -69h-61c0 -74 2 -152 5 -233h-106zM309 302v336l-196 -336h196z" />
    <glyph glyph-name="five" unicode="5" horiz-adv-x="542" 
d="M76 21l68 96c39 -28 76 -38 121 -38c78 0 115 36 115 115c0 96 -73 168 -174 168c-35 0 -68 -7 -104 -23v365h314l-16 -84h-254v-197c43 21 84 32 124 32c111 0 191 -73 191 -184c0 -99 -59 -163 -154 -251c-26 -24 -67 -39 -117 -39c-42 0 -81 14 -114 40z" />
    <glyph glyph-name="six" unicode="6" horiz-adv-x="542" 
d="M418 546c-63 52 -129 76 -175 76c-18 0 -34 -3 -50 -10c-32 -53 -54 -145 -58 -275c52 52 90 86 111 104c19 11 43 17 71 17c104 0 171 -76 171 -194c0 -68 -20 -122 -47 -151c-36 -39 -88 -81 -156 -126c-17 -4 -34 -6 -51 -6c-110 0 -186 103 -186 288
c0 142 32 252 74 312c12 17 58 66 144 133c16 6 31 8 47 8c63 0 118 -27 168 -83zM138 309c6 -154 68 -236 167 -236c28 0 52 5 74 18c19 30 28 65 28 106c0 100 -61 164 -153 164c-42 0 -82 -18 -116 -52z" />
    <glyph glyph-name="seven" unicode="7" horiz-adv-x="542" 
d="M194 -19l198 639h-309l23 84h369l-220 -718z" />
    <glyph glyph-name="eight" unicode="8" horiz-adv-x="542" 
d="M301 -12c-16 -5 -32 -7 -50 -7c-104 0 -172 68 -172 167c0 68 37 110 111 171c-69 35 -103 92 -103 172c0 82 51 142 152 216c19 11 41 15 68 15c94 0 154 -57 154 -153c0 -71 -43 -125 -128 -188c90 -35 134 -81 134 -151c0 -38 -11 -74 -33 -111
c-27 -35 -72 -78 -133 -131zM309 394c36 34 54 72 54 115c0 79 -45 124 -121 124c-59 0 -79 -13 -79 -69c0 -72 48 -127 146 -170zM215 307c-31 -28 -48 -63 -48 -102c0 -76 59 -128 150 -128c54 0 62 12 62 73c0 73 -51 112 -164 157z" />
    <glyph glyph-name="nine" unicode="9" horiz-adv-x="542" 
d="M69 60l61 96c64 -49 124 -73 171 -73c32 0 55 9 60 16c22 32 45 125 47 273c-71 -84 -116 -127 -181 -127c-104 0 -174 73 -174 185c0 65 18 121 31 142c18 29 76 73 165 144c11 4 25 6 42 6c129 0 202 -102 202 -295c0 -130 -22 -231 -64 -299
c-30 -36 -79 -81 -145 -137c-15 -7 -32 -10 -52 -10c-59 0 -116 27 -163 79zM405 400c-17 154 -75 231 -172 231c-32 0 -57 -7 -78 -23c-14 -25 -22 -56 -22 -95c0 -107 61 -170 152 -170c50 0 96 22 120 57z" />
    <glyph glyph-name="colon" unicode=":" horiz-adv-x="271" 
d="M135 119c21 -24 45 -48 69 -69c-24 -22 -47 -45 -69 -69c-22 24 -44 47 -68 69c25 21 47 44 68 69zM135 461c21 -24 45 -48 69 -69c-24 -22 -47 -44 -69 -68c-22 24 -44 46 -68 68c25 21 47 44 68 69z" />
    <glyph glyph-name="semicolon" unicode=";" horiz-adv-x="271" 
d="M90 -108l-12 12c28 32 44 57 44 82c0 28 -19 51 -54 80l67 77c41 -28 61 -59 61 -94c0 -44 -38 -91 -106 -157zM135 461c21 -24 45 -48 69 -69c-24 -22 -47 -44 -69 -68c-22 24 -44 46 -68 68c25 21 47 44 68 69z" />
    <glyph glyph-name="less" unicode="&#x3c;" horiz-adv-x="833" 
d="M704 491l-473 -193l473 -192v-75l-575 236v63l575 236v-75z" />
    <glyph glyph-name="equal" unicode="=" horiz-adv-x="833" 
d="M709 429v-68h-585v68h585zM709 235v-68h-585v68h585z" />
    <glyph glyph-name="greater" unicode="&#x3e;" horiz-adv-x="833" 
d="M704 330v-63l-575 -236v75l474 192l-474 193v75z" />
    <glyph glyph-name="question" unicode="?" horiz-adv-x="417" 
d="M193 119c21 -24 44 -48 68 -69c-24 -22 -46 -45 -68 -69c-22 24 -45 47 -69 69c25 21 48 44 69 69zM135 154c-2 11 -3 21 -3 30c0 57 49 107 110 192c25 35 39 73 39 108c0 78 -55 130 -122 130c-40 0 -75 -12 -111 -39l-10 12l79 81c30 13 62 20 93 20
c103 0 171 -66 171 -154c0 -75 -43 -120 -99 -184c-35 -40 -61 -68 -61 -118c0 -15 2 -29 7 -41z" />
    <glyph glyph-name="at" unicode="@" horiz-adv-x="1000" 
d="M581 232l29 115c-11 58 -46 90 -97 90c-90 0 -159 -97 -159 -219c0 -69 33 -107 91 -107c62 0 118 48 136 121zM627 417l28 56h64l-71 -281c-3 -12 -4 -22 -4 -29c0 -30 17 -46 49 -46c30 0 67 17 102 50c51 48 83 123 83 205c0 166 -132 284 -337 284
c-86 0 -159 -18 -223 -56c-124 -74 -196 -200 -196 -346c0 -115 39 -198 124 -263c63 -48 154 -78 256 -78c110 0 217 33 303 93l27 -40c-97 -73 -206 -109 -324 -109c-125 0 -228 31 -307 91c-100 77 -149 178 -149 307c0 107 34 205 99 284c94 115 230 177 394 177
c111 0 209 -33 275 -84c84 -65 129 -152 129 -251c0 -114 -42 -207 -121 -269c-45 -36 -100 -55 -154 -55c-65 0 -98 26 -98 77v9c-36 -58 -83 -85 -147 -85c-99 0 -153 57 -153 162c0 155 103 270 233 270c56 0 95 -25 118 -73z" />
    <glyph glyph-name="A" unicode="A" horiz-adv-x="581" 
d="M-2 -6c71 187 111 296 122 328l105 311l-28 60l107 29c27 -76 57 -153 87 -230l99 -256c24 -62 55 -137 93 -225l-112 -23l-89 248h-233l-76 -236zM171 303h187l-101 263z" />
    <glyph glyph-name="B" unicode="B" horiz-adv-x="542" 
d="M62 0c5 108 7 225 7 350s-2 243 -7 354c110 3 174 4 190 4c77 0 130 -6 162 -26c47 -29 72 -74 72 -126c0 -78 -48 -141 -144 -186c104 -26 159 -87 159 -169c0 -119 -104 -206 -273 -206c-13 0 -68 4 -166 5zM171 59c53 -15 93 -22 118 -22c8 0 16 1 27 3
c49 33 76 82 76 140c0 89 -76 147 -208 147h-13v-268zM171 338l64 51c23 0 48 -3 75 -9c51 33 77 79 77 133c0 85 -58 136 -165 136c-16 0 -33 -1 -51 -3v-308z" />
    <glyph glyph-name="C" unicode="C" horiz-adv-x="588" 
d="M567 122l15 -19c-99 -71 -156 -122 -236 -122c-195 0 -318 132 -318 334c0 136 58 247 169 325c73 52 133 82 208 82c57 0 110 -16 159 -48l-71 -85c-49 31 -101 45 -162 45c-67 0 -116 -16 -133 -30c-51 -41 -86 -124 -86 -223c0 -180 123 -307 303 -307
c58 0 109 16 152 48z" />
    <glyph glyph-name="D" unicode="D" horiz-adv-x="660" 
d="M147 0h-91c5 108 6 225 6 350s-1 243 -6 354c16 -1 33 -1 48 -1c64 0 123 5 179 5c222 0 347 -114 347 -298c0 -135 -54 -244 -164 -344c-48 -43 -120 -71 -198 -71c-30 0 -70 5 -121 5zM171 73c37 -8 73 -13 108 -13c180 0 256 72 256 237c0 223 -123 354 -336 354
c-9 0 -18 0 -28 -1c-1 -99 -2 -198 -2 -296c0 -100 1 -193 2 -281z" />
    <glyph glyph-name="E" unicode="E" horiz-adv-x="454" 
d="M56 0c5 108 6 225 6 350s-1 243 -6 354c141 0 258 1 354 4l-32 -71c-33 4 -72 4 -116 4h-91c-2 -11 -2 -32 -2 -61v-71v-118h47c69 0 132 1 189 3l-33 -68c-33 2 -61 3 -85 3h-118v-109v-78c0 -34 0 -59 2 -75c20 -1 38 -1 55 -1h48c53 0 102 0 144 5l-34 -76
c-53 3 -131 5 -235 5h-93z" />
    <glyph glyph-name="F" unicode="F" horiz-adv-x="444" 
d="M56 -5c5 111 6 230 6 355s-1 243 -6 354c146 0 267 1 364 4l-32 -71c-33 4 -72 4 -116 4h-99c-2 -69 -3 -152 -4 -250h47c69 0 132 1 189 3l-33 -68c-33 2 -61 3 -85 3h-118c0 -115 3 -225 7 -329z" />
    <glyph glyph-name="G" unicode="G" horiz-adv-x="630" 
d="M579 89c-101 -68 -173 -108 -242 -108c-183 0 -307 131 -307 333c0 145 57 250 179 332c65 44 119 76 185 76c72 0 134 -21 192 -66l-68 -82c-53 41 -114 60 -186 60c-68 0 -117 -16 -134 -30c-51 -41 -86 -124 -86 -223c0 -100 40 -187 112 -246c52 -43 125 -69 195 -69
c20 0 38 3 54 9c3 67 5 134 5 199v41h-156l66 69c56 -2 119 -3 191 -4v-291z" />
    <glyph glyph-name="H" unicode="H" horiz-adv-x="634" 
d="M56 -5c5 111 6 230 6 355s-1 243 -6 354l120 4c-5 -117 -7 -223 -7 -317h296c0 102 -3 207 -7 313l121 4c-5 -108 -7 -226 -7 -354s2 -246 7 -354l-121 -5c4 105 7 215 7 329h-296c0 -100 2 -208 7 -324z" />
    <glyph glyph-name="I" unicode="I" horiz-adv-x="248" 
d="M185 708c-5 -108 -7 -226 -7 -354s2 -246 7 -354l-123 -5c5 111 7 230 7 355s-2 243 -7 354z" />
    <glyph glyph-name="J" unicode="J" horiz-adv-x="373" 
d="M0 40l68 73c32 -40 67 -60 103 -61c22 40 23 96 23 171c0 203 -1 364 -7 481l123 4c-5 -121 -7 -227 -7 -318c0 -47 1 -110 1 -189c0 -57 -8 -88 -47 -122c-79 -68 -140 -98 -162 -98c-34 0 -63 20 -95 59z" />
    <glyph glyph-name="K" unicode="K" horiz-adv-x="542" 
d="M56 -5c5 111 6 230 6 355s-1 243 -6 354l120 4c-5 -111 -7 -231 -7 -360l187 251c30 40 57 74 76 105l84 4l-260 -332l276 -341l-107 -54c-63 88 -107 147 -132 179l-120 151h-4c0 -89 2 -193 7 -311z" />
    <glyph glyph-name="L" unicode="L" horiz-adv-x="442" 
d="M62 0c5 108 7 225 7 350s-2 243 -7 354l123 4c-5 -113 -7 -231 -7 -354c0 -83 2 -179 4 -287h61c68 0 129 1 184 5c-13 -26 -22 -52 -30 -77c-54 3 -103 5 -145 5h-190z" />
    <glyph glyph-name="M" unicode="M" horiz-adv-x="810" 
d="M39 -5c22 134 44 361 70 682l-9 27l113 4l181 -565c103 262 173 449 205 561l118 4v-52c0 -154 8 -374 29 -656l-114 -5c-3 206 -11 393 -23 561c-77 -191 -146 -376 -208 -556l-75 -5c-20 80 -75 268 -174 561c-24 -273 -39 -458 -45 -556z" />
    <glyph glyph-name="N" unicode="N" horiz-adv-x="653" 
d="M137 542v-173c0 -37 2 -160 7 -369l-71 -5c4 212 6 344 6 396v231l-47 61l105 39l215 -311l157 -224v376c0 17 0 66 -2 147l62 6c-1 -35 -2 -79 -2 -131v-440c0 -26 3 -70 11 -133l-64 -20c-52 85 -109 166 -164 245z" />
    <glyph glyph-name="O" unicode="O" horiz-adv-x="706" 
d="M324 -19c-169 0 -294 131 -294 327c0 146 51 243 166 338c61 50 121 76 185 76c66 0 128 -23 173 -61c78 -67 122 -166 122 -282c0 -110 -43 -208 -120 -280c-80 -75 -149 -118 -232 -118zM396 72c72 0 124 24 139 50c27 47 43 110 43 181c0 201 -109 326 -268 326
c-71 0 -124 -23 -140 -47c-29 -44 -53 -122 -53 -205c0 -178 123 -305 279 -305z" />
    <glyph glyph-name="P" unicode="P" horiz-adv-x="523" 
d="M174 272c0 -56 2 -147 7 -272l-121 -5c5 111 7 230 7 355s-2 243 -7 354c123 1 194 4 210 4c148 0 225 -67 225 -181c0 -83 -41 -148 -126 -205c-52 -35 -97 -52 -148 -52c-16 0 -31 0 -47 2zM174 342c31 -6 58 -10 82 -10c36 0 68 5 95 17c24 43 36 88 36 135
c0 97 -72 163 -194 163c-6 0 -13 -1 -19 -1v-304z" />
    <glyph glyph-name="Q" unicode="Q" horiz-adv-x="706" 
d="M590 -19l-90 68c-58 -45 -119 -68 -176 -68c-169 0 -294 131 -294 327c0 127 45 229 137 312c72 65 135 102 214 102c66 0 128 -23 173 -61c78 -67 122 -166 122 -282c0 -100 -32 -184 -99 -262l93 -63zM457 79c-75 46 -123 77 -160 77c-21 0 -44 -9 -68 -25
c43 -38 102 -60 165 -60c17 0 38 3 63 8zM544 138c21 44 34 99 34 166c0 201 -109 325 -268 325c-71 0 -124 -23 -140 -47c-29 -45 -52 -122 -52 -209c0 -94 35 -175 97 -229c73 48 123 77 163 77c39 0 92 -29 166 -83z" />
    <glyph glyph-name="R" unicode="R" horiz-adv-x="523" 
d="M169 340l81 50c18 -8 36 -13 55 -16c40 29 62 72 62 123c0 92 -61 153 -148 153c-16 0 -33 -1 -50 -4v-306zM176 0l-120 -5c5 111 6 230 6 355s-1 243 -6 354h24c77 0 134 4 171 4c146 0 222 -61 222 -165c0 -94 -65 -164 -192 -201c91 -127 169 -230 236 -308l-101 -53
l-247 336c0 -94 2 -200 7 -317z" />
    <glyph glyph-name="S" unicode="S" horiz-adv-x="435" 
d="M28 85l93 61c35 -60 76 -87 135 -87c10 0 20 1 30 2c17 27 24 60 24 101c0 75 -37 101 -114 137c-37 17 -78 32 -112 66c-31 31 -46 73 -46 121c0 73 32 135 98 191c31 26 82 45 128 45c52 0 100 -30 134 -87l-87 -60c-35 50 -74 74 -124 74c-13 0 -28 -2 -45 -6
c-18 -21 -28 -51 -28 -88c0 -51 33 -97 94 -129c53 -27 98 -43 126 -67c40 -33 60 -78 60 -130c0 -74 -30 -139 -88 -190c-42 -37 -95 -58 -139 -58c-59 0 -109 36 -139 104z" />
    <glyph glyph-name="T" unicode="T" horiz-adv-x="479" 
d="M185 641c-26 1 -50 1 -73 1c-42 0 -80 -1 -114 -3l47 69c50 -3 110 -4 180 -4c35 0 124 0 268 2l-49 -67c-48 1 -98 2 -150 2c-1 -45 -1 -91 -1 -137c0 -238 3 -405 8 -504l-123 -5c5 106 8 263 8 471c0 55 -1 113 -1 175z" />
    <glyph glyph-name="U" unicode="U" horiz-adv-x="632" 
d="M56 704l120 4c-5 -123 -7 -269 -7 -438c0 -143 36 -206 162 -206c45 0 80 10 110 34c21 69 22 131 22 192v16c0 155 -2 288 -7 398l120 4c-5 -108 -7 -226 -7 -354s2 -246 7 -354l-120 -5c3 29 5 56 6 83c-69 -64 -127 -97 -192 -97c-154 0 -208 86 -208 274v126
c0 92 -1 200 -6 323z" />
    <glyph glyph-name="V" unicode="V" horiz-adv-x="586" 
d="M589 708c-168 -451 -250 -686 -250 -708l-105 -5c-98 327 -175 560 -226 699l111 19c70 -240 136 -443 196 -612c73 206 140 407 201 603z" />
    <glyph glyph-name="W" unicode="W" horiz-adv-x="822" 
d="M448 488c30 92 53 164 68 216l73 4c-52 -131 -90 -234 -115 -306l96 -290c81 234 143 432 188 592l70 4c-157 -444 -234 -679 -234 -706v-2l-97 -5c-17 64 -45 156 -82 275c-57 -153 -89 -242 -91 -270l-95 -5c-93 316 -170 549 -224 699l110 19
c71 -254 133 -456 188 -606c23 56 51 138 86 244c-24 83 -62 197 -115 343l110 19z" />
    <glyph glyph-name="X" unicode="X" horiz-adv-x="532" 
d="M26 704l120 4l134 -278l145 274l77 4c-53 -86 -117 -197 -192 -332c82 -166 146 -291 194 -376l-123 -5l-132 279c-38 -61 -85 -153 -145 -274l-86 -5c66 100 132 212 198 335c-62 128 -125 253 -190 374z" />
    <glyph glyph-name="Y" unicode="Y" horiz-adv-x="484" 
d="M293 291v-61c0 -72 1 -149 5 -230l-117 -5c4 88 6 173 6 250v46c-42 98 -104 232 -187 403l114 19c54 -132 106 -250 156 -356c62 138 111 254 144 347l63 4z" />
    <glyph glyph-name="Z" unicode="Z" horiz-adv-x="495" 
d="M16 0c120 209 226 416 325 617h-72c-69 0 -149 -1 -239 -2l31 93c157 -3 290 -4 399 -4l-317 -618c121 0 231 1 331 2l-27 -93c-86 2 -230 4 -431 5z" />
    <glyph glyph-name="bracketleft" unicode="[" horiz-adv-x="266" 
d="M59 -236c5 191 8 375 8 551c0 137 -2 270 -5 398h175l-29 -44h-70v-861h102l-32 -44h-149z" />
    <glyph glyph-name="backslash" unicode="\" horiz-adv-x="366" 
d="M322 -93l-315 815h37l315 -815h-37z" />
    <glyph glyph-name="bracketright" unicode="]" horiz-adv-x="266" 
d="M207 713c-5 -127 -8 -338 -8 -632c0 -79 2 -185 5 -318h-175l29 44h70v862h-102l32 44h149z" />
    <glyph glyph-name="asciicircum" unicode="^" horiz-adv-x="1000" 
d="M545 712l249 -272h-88l-206 205l-207 -205h-88l249 272h91z" />
    <glyph glyph-name="underscore" unicode="_" 
d="M500 -166v-70h-500v70h500z" />
    <glyph glyph-name="quoteleft" unicode="&#x2018;" horiz-adv-x="271" 
d="M171 722l14 -12c-26 -32 -40 -57 -40 -81c0 -30 20 -53 59 -81l-64 -78c-44 28 -66 57 -66 94c0 41 34 90 97 158z" />
    <glyph glyph-name="a" unicode="a" horiz-adv-x="435" 
d="M290 -5l3 56c-83 -44 -128 -70 -140 -70c-60 0 -125 55 -125 130c0 93 84 166 212 166c18 0 35 -2 53 -6c0 10 1 19 1 28c0 76 -34 108 -118 108c-48 0 -89 -14 -123 -42l-12 11l89 93c29 6 58 10 86 10c118 0 174 -54 174 -165c0 -42 -5 -146 -5 -314zM293 74v136
c-38 14 -74 22 -107 22c-22 0 -40 -3 -57 -10c-10 -16 -14 -33 -14 -52c0 -63 45 -110 110 -110c20 0 42 5 68 14z" />
    <glyph glyph-name="b" unicode="b" horiz-adv-x="465" 
d="M45 19c1 163 1 274 1 331c0 126 0 244 -2 354l100 4c-2 -87 -3 -185 -3 -295c83 40 128 66 141 66c20 0 60 -14 93 -41c44 -36 67 -89 67 -156c0 -100 -45 -189 -64 -205c-84 -69 -154 -96 -166 -96c-44 0 -99 15 -167 38zM140 79c55 -21 99 -32 132 -32h12
c39 49 60 109 60 178c0 118 -51 185 -123 185c-10 0 -22 -2 -35 -7c-40 -44 -47 -116 -47 -223c0 -30 1 -64 1 -101z" />
    <glyph glyph-name="c" unicode="c" horiz-adv-x="407" 
d="M297 324c-26 61 -61 90 -108 90c-10 0 -20 -2 -33 -6c-26 -46 -40 -97 -40 -150c0 -127 75 -208 177 -208c25 0 54 7 89 20l5 -11c-70 -48 -115 -78 -152 -78c-124 0 -212 88 -212 217c0 76 26 131 58 188c6 10 12 17 18 20l113 63c10 6 29 10 50 10
c55 0 101 -38 125 -109z" />
    <glyph glyph-name="d" unicode="d" horiz-adv-x="470" 
d="M326 -5l2 56c-76 -43 -119 -70 -138 -70c-23 0 -58 12 -91 36c-49 36 -76 94 -76 168c0 99 53 197 94 233c44 38 110 61 133 61c8 0 35 -4 79 -14c-1 104 -2 184 -3 239l100 4c-2 -104 -2 -222 -2 -354c0 -133 0 -250 2 -354zM283 57c42 45 46 120 46 236v87
c-45 26 -89 39 -138 39c-7 0 -16 -1 -26 -4c-26 -54 -41 -122 -41 -194c0 -106 50 -169 124 -169c10 0 22 2 35 5z" />
    <glyph glyph-name="e" unicode="e" horiz-adv-x="407" 
d="M381 70l6 -12c-69 -45 -112 -77 -158 -77c-125 0 -206 88 -206 227c0 97 33 172 67 199c62 49 122 72 155 72c77 0 140 -70 140 -185v-13l-97 -47h-176c11 -114 82 -181 192 -181c26 0 52 5 77 17zM110 278h176v5c0 83 -44 133 -107 133c-12 0 -23 -2 -34 -6
c-23 -32 -35 -76 -35 -132z" />
    <glyph glyph-name="f" unicode="f" horiz-adv-x="287" 
d="M85 -5c1 53 2 170 2 352v70h-60l26 44h34c1 56 9 99 29 134c14 23 31 44 52 62c54 45 94 65 116 65c8 0 17 -1 25 -3l-44 -80c-18 4 -33 6 -47 6c-31 0 -34 -5 -34 -53v-45c0 -17 0 -46 1 -86h84l-24 -44h-60c0 -33 -1 -81 -1 -142c0 -99 1 -191 3 -275z" />
    <glyph glyph-name="g" unicode="g" 
d="M131 135c-50 28 -75 72 -75 126c0 51 23 101 57 127c71 55 122 82 149 82h6h202l-77 -53c29 -22 43 -55 43 -98c0 -60 -29 -108 -88 -150c-56 -40 -105 -58 -137 -58c-17 0 -39 5 -65 16c-11 -14 -16 -25 -16 -36c0 -31 33 -39 103 -39c29 0 57 3 83 3
c81 0 125 -39 125 -98c0 -46 -22 -83 -69 -124c-53 -47 -109 -69 -173 -69c-91 0 -151 55 -151 125c0 22 31 45 89 91c-53 0 -81 13 -81 32c0 13 21 60 75 123zM317 179c19 20 30 53 30 89c0 88 -56 146 -131 146c-8 0 -18 -1 -31 -5c-24 -27 -36 -61 -36 -102
c0 -85 46 -135 119 -135c13 0 30 2 49 7zM163 -21c-16 -16 -25 -37 -25 -59c0 -52 44 -85 126 -85c39 0 73 11 94 26c4 11 5 23 5 36c0 71 -32 88 -115 88c-26 0 -54 -2 -85 -6z" />
    <glyph glyph-name="h" unicode="h" horiz-adv-x="468" 
d="M44 -5c2 83 2 164 2 243v153c0 130 0 235 -2 313l100 4c-1 -52 -2 -109 -2 -170c0 -43 1 -89 1 -137c44 33 85 58 125 76c9 1 17 2 25 2c39 0 73 -15 102 -44c26 -26 27 -66 27 -123v-13c0 -55 -1 -88 -1 -99c0 -36 1 -102 3 -200l-100 -5c2 66 2 151 2 255
c0 64 -1 104 -19 122c-18 19 -50 31 -84 31c-29 0 -45 -2 -54 -18c-28 -49 -28 -120 -28 -222c0 -42 1 -97 3 -163z" />
    <glyph glyph-name="i" unicode="i" horiz-adv-x="199" 
d="M150 465c-2 -77 -2 -154 -2 -232s0 -155 2 -233l-101 -5c2 85 2 163 2 233s0 148 -2 233zM95 675l71 -34l-71 -80l-71 33z" />
    <glyph glyph-name="j" unicode="j" horiz-adv-x="206" 
d="M-3 -223c56 22 61 96 61 233v105c0 134 -1 249 -3 346l102 4c-2 -93 -2 -178 -2 -256v-103v-42c0 -94 -1 -159 -26 -198c-24 -37 -66 -70 -127 -102zM101 675l71 -34l-71 -80l-70 33z" />
    <glyph glyph-name="k" unicode="k" horiz-adv-x="458" 
d="M148 708c-2 -83 -2 -177 -2 -283v-184l104 112c34 37 65 73 93 108l79 4l-188 -194l213 -240l-95 -43l-207 235c0 -57 1 -131 3 -223l-99 -5c2 98 2 217 2 355c0 143 0 261 -2 354z" />
    <glyph glyph-name="l" unicode="l" horiz-adv-x="199" 
d="M49 -5c2 98 2 217 2 355s0 256 -2 354l101 4c-2 -104 -2 -222 -2 -354s0 -250 2 -354z" />
    <glyph glyph-name="m" unicode="m" horiz-adv-x="685" 
d="M44 -5c2 85 2 163 2 233s0 148 -2 233l100 4c0 -32 -1 -53 -1 -64l106 72c12 4 24 6 35 6c46 0 82 -27 101 -78c43 34 76 59 98 73c7 4 14 5 23 5c74 0 122 -37 129 -96c3 -23 3 -66 3 -130v-41c0 -58 0 -128 2 -212l-99 -5c2 120 3 205 3 255c0 108 -15 156 -88 156
c-21 0 -33 -3 -38 -11c-19 -31 -27 -84 -27 -162c0 -74 1 -152 3 -233l-100 -5c2 76 3 143 3 200c0 139 -2 209 -83 209c-70 0 -73 -81 -73 -270c0 -33 1 -78 3 -134z" />
    <glyph glyph-name="n" unicode="n" horiz-adv-x="468" 
d="M44 -5c2 85 2 163 2 233s0 148 -2 233l100 4c0 -32 -1 -53 -1 -64c44 33 85 58 125 76c9 1 17 2 25 2c39 0 73 -15 102 -44c26 -26 27 -66 27 -123v-13c0 -55 -1 -88 -1 -99c0 -36 1 -102 3 -200l-100 -5c2 66 2 151 2 255c0 64 -1 104 -19 122c-18 19 -50 31 -84 31
c-29 0 -45 -2 -54 -18c-28 -49 -28 -120 -28 -222c0 -42 1 -97 3 -163z" />
    <glyph glyph-name="o" unicode="o" horiz-adv-x="470" 
d="M397 91l-114 -92c-14 -11 -36 -18 -67 -18c-115 0 -193 82 -193 209c0 55 15 115 46 177l124 98c5 4 31 14 70 14c115 0 184 -73 184 -199c0 -59 -16 -125 -50 -189zM330 74c16 30 26 78 26 142c0 122 -57 193 -140 193c-21 0 -42 -4 -63 -12c-25 -24 -40 -75 -40 -146
c0 -123 60 -190 163 -190c21 0 38 4 54 13z" />
    <glyph glyph-name="p" unicode="p" horiz-adv-x="463" 
d="M142 77c48 -25 91 -38 128 -38c10 0 19 2 28 5c27 51 42 116 42 187c0 114 -56 182 -129 182c-8 0 -16 -1 -25 -3c-36 -38 -46 -112 -46 -229c0 -31 1 -66 2 -104zM44 -236c1 60 2 177 2 354c0 131 0 246 -2 343l100 4c-1 -37 -1 -55 -1 -55l110 67c7 2 13 2 20 2
c84 0 167 -83 167 -205c0 -86 -27 -151 -80 -220c-7 -9 -28 -24 -62 -42c-37 -20 -61 -31 -75 -31c-15 0 -43 5 -82 16c0 -100 2 -175 3 -228z" />
    <glyph glyph-name="q" unicode="q" horiz-adv-x="470" 
d="M426 470c-2 -96 -2 -212 -2 -347c0 -157 0 -274 2 -354l-100 -5c1 61 2 128 2 202v84c-50 -30 -91 -53 -124 -68c-105 0 -182 81 -182 203c0 71 24 148 61 201c9 13 19 23 31 31c63 43 116 62 147 62c11 0 37 -5 77 -18zM330 385c-49 26 -92 38 -125 38
c-14 0 -29 -3 -43 -9c-30 -55 -46 -121 -46 -189c0 -107 71 -169 151 -169c7 0 15 1 24 3c44 36 38 141 39 326z" />
    <glyph glyph-name="r" unicode="r" horiz-adv-x="317" 
d="M48 -5c2 85 3 163 3 233s-1 148 -3 233l102 4l-3 -66c53 55 93 80 113 80c19 0 45 -26 70 -80l-88 -62c-17 43 -40 63 -50 63c-20 0 -44 -60 -44 -180c0 -65 0 -138 2 -220z" />
    <glyph glyph-name="s" unicode="s" horiz-adv-x="366" 
d="M35 88l86 41c26 -60 58 -90 97 -90h6c14 17 23 41 23 65c0 39 -26 54 -74 75c-81 36 -130 56 -130 137c0 51 15 81 53 107c58 40 98 56 110 56c50 0 97 -36 122 -103l-81 -43c-20 57 -50 84 -98 84c-5 0 -11 0 -16 -1c-12 -16 -18 -36 -18 -54c0 -32 21 -55 63 -75
c48 -23 93 -34 120 -65c18 -20 27 -47 27 -79c0 -74 -47 -119 -149 -162c-72 1 -122 40 -141 107z" />
    <glyph glyph-name="t" unicode="t" horiz-adv-x="319" 
d="M290 67l7 -12c-56 -48 -101 -74 -145 -74c-72 0 -74 48 -74 150c0 70 1 134 1 192c0 31 0 63 -1 94h-65l48 44h18v86l95 32v-118h122l-50 -44h-71c-1 -84 -1 -139 -1 -163v-46c0 -111 3 -154 58 -154c19 0 38 4 58 13z" />
    <glyph glyph-name="u" unicode="u" horiz-adv-x="468" 
d="M424 465c-2 -78 -3 -154 -3 -232s1 -156 3 -233l-100 -5c0 8 0 30 1 65c-44 -32 -86 -58 -126 -76c-8 -1 -15 -1 -22 -1c-91 0 -131 48 -131 150v127c0 39 0 107 -2 201l100 4c-2 -63 -3 -148 -3 -256c0 -63 2 -102 19 -120c18 -18 50 -32 85 -32c29 0 44 3 53 19
c28 49 29 121 29 222c0 47 -1 101 -3 163z" />
    <glyph glyph-name="v" unicode="v" horiz-adv-x="417" 
d="M168 -5c-23 74 -78 230 -167 466l98 18l131 -386l127 368l59 9c-105 -272 -159 -417 -159 -435c0 -7 4 -17 10 -30z" />
    <glyph glyph-name="w" unicode="w" horiz-adv-x="634" 
d="M141 -5c-31 145 -71 301 -121 466l100 18c30 -143 60 -267 92 -380c22 65 50 172 86 319l-15 43l99 18l91 -380l95 362l60 4c-78 -239 -122 -395 -138 -465l-88 -5c-19 91 -45 205 -78 341l-95 -336z" />
    <glyph glyph-name="x" unicode="x" horiz-adv-x="431" 
d="M7 -5c50 59 104 130 163 212l-52 80c-9 14 -49 70 -116 167l102 25c55 -88 97 -153 126 -195c39 50 82 110 129 181l69 5l-171 -224c40 -63 96 -142 166 -239l-110 -18c-33 55 -71 115 -115 179c-35 -44 -76 -99 -122 -168z" />
    <glyph glyph-name="y" unicode="y" horiz-adv-x="435" 
d="M93 -236c21 43 43 90 65 141l36 83c-59 153 -123 312 -194 477l106 14c55 -161 103 -282 141 -363l125 345l62 9c-96 -231 -185 -464 -269 -701z" />
    <glyph glyph-name="z" unicode="z" horiz-adv-x="412" 
d="M16 -5l262 395h-224l26 75h301l-259 -391h99c60 0 116 0 167 5l-23 -84c-39 3 -83 5 -134 5c-71 0 -143 -2 -215 -5z" />
    <glyph glyph-name="braceleft" unicode="{" 
d="M423 648h-20c-83 0 -99 -26 -99 -112v-118c0 -93 -17 -138 -98 -159c82 -21 98 -66 98 -159v-118c0 -85 15 -112 100 -112h19v-72h-21c-58 0 -101 4 -133 24c-44 27 -49 74 -49 150v120c0 95 -30 132 -117 132c-7 0 -14 -1 -21 -1v73c8 0 15 -1 22 -1
c86 0 116 36 116 131v120c0 76 5 123 49 150c33 20 76 25 136 25h18v-73z" />
    <glyph glyph-name="bar" unicode="|" 
d="M287 764v-1000h-73v1000h73z" />
    <glyph glyph-name="braceright" unicode="}" 
d="M281 546v-120c0 -95 30 -131 116 -131c7 0 14 1 22 1v-73c-7 0 -15 1 -21 1c-88 0 -117 -37 -117 -132v-120c0 -76 -5 -123 -49 -150c-32 -20 -75 -24 -133 -24h-21v72h19c84 0 100 27 100 113v117c0 93 17 138 98 159c-81 21 -98 66 -98 159v118c0 85 -16 112 -100 112
h-19v73h18c60 0 104 -5 136 -25c44 -27 49 -74 49 -150z" />
    <glyph glyph-name="asciitilde" unicode="~" horiz-adv-x="833" 
d="M747 300c-66 -46 -127 -69 -190 -69c-51 0 -95 18 -141 34c-47 16 -91 32 -141 32c-59 0 -117 -27 -188 -77v76c69 47 131 70 189 70c52 0 97 -14 142 -30c49 -17 93 -36 140 -36c62 0 120 27 189 76v-76z" />
    <glyph glyph-name="exclamdown" unicode="&#xa1;" horiz-adv-x="294" 
d="M173 511c4 -252 12 -422 28 -511l-108 -19c15 172 27 346 34 521zM149 547c-21 24 -44 47 -68 68c24 22 46 45 68 69c22 -24 45 -47 69 -69c-25 -21 -48 -43 -69 -68z" />
    <glyph glyph-name="cent" unicode="&#xa2;" horiz-adv-x="542" 
d="M257 -10l2 131c-121 12 -189 88 -189 214c0 135 60 216 189 264l-2 111l37 10l-1 -114c86 0 143 -36 173 -111l-90 -37c-12 41 -39 66 -83 76v-340c24 -6 46 -10 66 -10c33 0 64 8 93 23l7 -13l-112 -68c-12 -4 -31 -5 -54 -6l1 -124zM259 208v332c-7 1 -15 2 -23 2
c-18 0 -33 -2 -45 -7c-21 -32 -31 -79 -31 -142c0 -93 30 -152 99 -185z" />
    <glyph glyph-name="sterling" unicode="&#xa3;" horiz-adv-x="542" 
d="M439 0h-419l27 83c84 19 105 67 105 177c0 19 -1 39 -2 62h-101v37h100c-1 14 -1 24 -1 31c0 83 13 139 64 197c39 45 85 87 138 127c16 6 32 8 48 8c43 0 83 -13 120 -40l-74 -96c-45 25 -87 36 -117 36c-18 0 -34 -3 -50 -10c-37 -37 -39 -105 -39 -214
c0 -9 1 -22 1 -39h125v-37h-123c1 -18 1 -35 1 -50c0 -44 -3 -76 -11 -98c-10 -25 -46 -57 -107 -91h344z" />
    <glyph glyph-name="fraction" unicode="&#x2044;" horiz-adv-x="167" 
d="M-167 -19l464 741h36l-464 -741h-36z" />
    <glyph glyph-name="yen" unicode="&#xa5;" horiz-adv-x="542" 
d="M511 708l-108 -246h108v-33h-122l-48 -105h170v-33h-186v-45c0 -77 2 -159 6 -246l-106 -5c4 82 5 161 5 234v62h-188v33h173l-48 105h-125v33h109l-109 232l108 19c13 -33 49 -116 106 -251h100c51 123 82 204 95 242zM306 323l37 106h-74c3 -8 15 -43 37 -106z" />
    <glyph glyph-name="florin" unicode="&#x192;" horiz-adv-x="542" 
d="M46 -108c28 -6 49 -9 65 -9c15 0 21 1 25 11c19 42 36 196 70 460h-72l26 44h52c12 86 20 152 46 198c14 25 32 46 54 64c51 42 94 62 122 62c12 0 26 -3 44 -9l-44 -79c-26 7 -47 11 -62 11c-12 0 -19 -2 -22 -6c-14 -20 -27 -101 -44 -241h93l-23 -44h-76
c-28 -216 -44 -352 -66 -407c-12 -29 -31 -54 -54 -71c-65 -48 -110 -71 -132 -71c-13 0 -27 3 -45 10z" />
    <glyph glyph-name="section" unicode="&#xa7;" 
d="M65 31l72 36c28 -70 78 -106 143 -106c18 0 35 3 54 9c16 15 23 32 23 53c0 64 -51 103 -149 159c-108 62 -176 82 -176 162c0 48 29 75 91 114c-28 30 -43 62 -43 95c0 49 17 76 51 108c44 41 83 61 118 61c80 0 140 -46 157 -124l-72 -36c-18 65 -65 102 -124 102
c-15 0 -30 -2 -45 -6c-16 -16 -23 -33 -23 -53c0 -56 44 -101 135 -153c52 -29 95 -49 125 -68c41 -26 64 -48 64 -99c0 -48 -29 -76 -91 -114c29 -29 44 -61 44 -94c0 -51 -17 -77 -51 -109c-44 -41 -83 -62 -119 -62c-95 0 -155 41 -184 125zM144 441
c-27 -14 -41 -36 -41 -64c0 -60 97 -89 252 -189c27 14 41 37 41 65c0 57 -93 88 -252 188z" />
    <glyph glyph-name="currency" unicode="&#xa4;" horiz-adv-x="606" 
d="M179 595c37 28 78 42 124 42c47 0 88 -14 125 -42l100 100l40 -39l-100 -101c27 -36 40 -77 40 -123c0 -45 -12 -86 -40 -123l100 -100l-40 -40l-100 100c-35 -26 -75 -42 -124 -42c-47 0 -88 14 -125 42l-100 -100l-40 40l101 100c-22 28 -41 70 -41 123
c0 46 14 87 41 123l-101 101l40 39zM452 433c0 81 -66 148 -148 148s-148 -67 -148 -148c0 -82 66 -149 148 -149s148 67 148 149z" />
    <glyph glyph-name="quotesingle" unicode="'" horiz-adv-x="155" 
d="M112 701v-271h-68v271h68z" />
    <glyph glyph-name="quotedblleft" unicode="&#x201c;" horiz-adv-x="449" 
d="M171 722l14 -12c-26 -32 -40 -57 -40 -81c0 -30 20 -53 59 -81l-64 -78c-44 28 -66 57 -66 94c0 41 34 90 97 158zM350 722l13 -12c-26 -32 -40 -57 -40 -81c0 -31 23 -54 60 -81l-64 -78c-44 28 -66 57 -66 94c0 41 34 90 97 158z" />
    <glyph glyph-name="guillemotleft" unicode="&#xab;" horiz-adv-x="431" 
d="M174 53l-138 152l175 203l20 -17l-118 -151l119 -134zM332 53l-138 152l175 203l21 -17l-119 -151l120 -134z" />
    <glyph glyph-name="guilsinglleft" unicode="&#x2039;" horiz-adv-x="273" 
d="M174 53l-138 152l175 203l20 -17l-118 -151l119 -134z" />
    <glyph glyph-name="guilsinglright" unicode="&#x203a;" horiz-adv-x="273" 
d="M98 408l138 -152l-175 -203l-21 16l119 152l-120 133z" />
    <glyph glyph-name="fi" unicode="&#xfb01;" horiz-adv-x="509" 
d="M85 -5c1 53 2 170 2 352v70h-60l26 44h34c1 56 9 99 29 134c14 23 31 44 52 62c54 45 94 65 116 65c8 0 17 -1 25 -3l-44 -80c-18 4 -33 6 -47 6c-31 0 -34 -5 -34 -53v-45c0 -17 0 -46 1 -86h84l-24 -44h-60c0 -33 -1 -81 -1 -142c0 -99 1 -191 3 -275zM437 465
c-2 -78 -2 -154 -2 -232s0 -155 2 -233l-101 -5c2 85 2 163 2 233c0 83 -1 161 -2 233zM382 675l71 -34l-71 -80l-71 33z" />
    <glyph glyph-name="fl" unicode="&#xfb02;" horiz-adv-x="509" 
d="M85 -5c1 53 2 170 2 352v70h-60l26 44h34c1 56 9 99 29 134c14 23 31 44 52 62c54 45 94 65 116 65c8 0 17 -1 25 -3l-44 -80c-18 4 -33 6 -47 6c-31 0 -34 -5 -34 -53v-45c0 -17 0 -46 1 -86h84l-24 -44h-60c0 -33 -1 -81 -1 -142c0 -99 1 -191 3 -275zM336 -5
c2 98 2 217 2 355s0 256 -2 354l101 4c-2 -104 -2 -222 -2 -354s0 -250 2 -354z" />
    <glyph glyph-name="endash" unicode="&#x2013;" 
d="M0 204v60h500v-60h-500z" />
    <glyph glyph-name="dagger" unicode="&#x2020;" 
d="M302 722c-18 -76 -27 -150 -33 -220c42 1 96 12 162 29v-94c-51 14 -105 24 -162 29c2 -39 14 -82 32 -126c-23 -156 -33 -298 -33 -421c0 -22 0 -41 1 -58h-38c1 20 1 40 1 58c0 121 -10 263 -33 421c19 45 28 87 31 126c-57 -5 -110 -15 -161 -29v94
c66 -17 119 -28 161 -29c-8 88 -18 161 -32 220h104z" />
    <glyph glyph-name="daggerdbl" unicode="&#x2021;" 
d="M302 722c-18 -76 -27 -150 -33 -220c42 1 96 12 162 29v-94c-51 14 -105 24 -162 29v-6c0 -47 11 -95 32 -146c-22 -50 -33 -101 -33 -155c0 -8 0 -17 1 -25c57 5 111 14 162 28v-94c-65 17 -119 27 -162 29c4 -80 15 -159 33 -236h-104c18 77 28 156 32 236
c-43 -2 -96 -12 -161 -29v94c51 -14 104 -23 161 -28c1 9 1 18 1 26c0 53 -11 104 -32 154c21 51 31 98 31 145v7c-57 -5 -110 -15 -161 -29v94c66 -17 119 -28 161 -29c-8 88 -18 161 -32 220h104z" />
    <glyph glyph-name="periodcentered" unicode="&#xb7;" horiz-adv-x="271" 
d="M84 361c0 27 23 51 51 51s51 -23 51 -51s-24 -51 -51 -51s-51 24 -51 51z" />
    <glyph glyph-name="paragraph" unicode="&#xb6;" 
d="M468 680h-59v-680h-54v680h-87v-680h-54v382c-113 5 -182 73 -182 170c0 100 74 170 192 170h244v-42z" />
    <glyph glyph-name="bullet" unicode="&#x2022;" horiz-adv-x="590" 
d="M150 372c0 80 65 144 145 144c79 0 144 -64 144 -144c0 -79 -65 -145 -145 -145s-144 65 -144 145z" />
    <glyph glyph-name="quotesinglbase" unicode="&#x201a;" horiz-adv-x="271" 
d="M99 -134l-13 12c25 32 40 57 40 81c0 30 -21 52 -60 81l64 79c44 -28 66 -58 66 -95c0 -41 -34 -90 -97 -158z" />
    <glyph glyph-name="quotedblbase" unicode="&#x201e;" horiz-adv-x="449" 
d="M99 -134l-13 12c25 32 40 57 40 81c0 30 -21 52 -60 81l64 79c44 -28 66 -58 66 -95c0 -41 -34 -90 -97 -158zM278 -134l-14 12c25 32 40 57 40 81c0 30 -20 52 -59 81l64 79c44 -28 66 -58 66 -95c0 -41 -34 -90 -97 -158z" />
    <glyph glyph-name="quotedblright" unicode="&#x201d;" horiz-adv-x="449" 
d="M99 469l-13 12c26 32 40 57 40 81c0 30 -21 53 -60 82l64 78c44 -28 66 -58 66 -95c0 -41 -34 -90 -97 -158zM278 469l-14 12c26 32 40 57 40 81c0 30 -20 53 -59 82l64 78c44 -28 66 -58 66 -95c0 -41 -34 -90 -97 -158z" />
    <glyph glyph-name="guillemotright" unicode="&#xbb;" horiz-adv-x="431" 
d="M99 408l137 -152l-175 -203l-20 16l118 152l-119 133zM257 408l137 -152l-175 -203l-20 16l119 152l-120 133z" />
    <glyph glyph-name="ellipsis" unicode="&#x2026;" horiz-adv-x="1000" 
d="M166 119c21 -24 45 -48 69 -69c-24 -22 -47 -45 -69 -69c-22 24 -44 47 -68 69c25 21 47 44 68 69zM499 119c21 -24 45 -48 69 -69c-24 -22 -47 -45 -69 -69c-22 24 -44 47 -68 69c25 21 47 44 68 69zM833 119c21 -24 45 -48 69 -69c-24 -22 -47 -45 -69 -69
c-22 24 -44 47 -68 69c25 21 47 44 68 69z" />
    <glyph glyph-name="perthousand" unicode="&#x2030;" horiz-adv-x="1178" 
d="M661 47c25 44 36 94 36 152c0 108 -47 168 -114 168c-12 0 -23 -2 -33 -6c-23 -32 -36 -83 -36 -148c0 -104 55 -170 123 -170c7 0 15 2 24 4zM621 -12c-8 -4 -18 -7 -28 -7c-82 0 -142 74 -142 192c0 63 15 118 46 168l92 78c9 3 18 4 26 4c87 0 145 -68 145 -172
c0 -83 -27 -158 -72 -208zM245 346c22 39 36 88 36 152c0 108 -47 168 -114 168c-12 0 -23 -2 -33 -6c-23 -32 -36 -83 -36 -148c0 -104 55 -170 123 -170c7 0 15 2 24 4zM204 287c-8 -5 -17 -6 -27 -6c-82 0 -142 73 -142 191c0 63 15 119 46 169l92 77c9 3 18 4 26 4
c87 0 145 -68 145 -172c0 -83 -27 -158 -72 -208zM166 -19l418 741h37l-418 -741h-37zM1004 -12c-8 -4 -18 -7 -28 -7c-82 0 -143 76 -143 193c0 58 16 115 47 167l92 78c9 3 18 4 26 4c87 0 145 -68 145 -172c0 -83 -27 -158 -72 -208zM1044 47c25 44 36 94 36 152
c0 108 -47 168 -114 168c-12 0 -22 -2 -32 -6c-23 -32 -37 -83 -37 -148c0 -104 55 -170 123 -170c7 0 15 2 24 4z" />
    <glyph glyph-name="questiondown" unicode="&#xbf;" horiz-adv-x="417" 
d="M226 551c-21 24 -44 47 -68 68c24 22 46 45 68 69c22 -24 45 -47 69 -69c-25 -21 -48 -43 -69 -68zM284 515c2 -13 3 -22 3 -26c0 -38 -12 -60 -31 -86c-64 -89 -118 -147 -118 -212c0 -84 53 -136 127 -136c35 0 69 14 106 40l10 -12l-79 -81c-31 -13 -62 -21 -93 -21
c-103 0 -171 66 -171 154c0 76 43 120 99 184c35 40 61 68 61 118c0 15 -2 29 -7 41z" />
    <glyph glyph-name="grave" unicode="`" 
d="M128 704h87l102 -171h-52z" />
    <glyph glyph-name="acute" unicode="&#xb4;" 
d="M285 704h87l-137 -171h-52z" />
    <glyph glyph-name="circumflex" unicode="&#x2c6;" 
d="M276 696l111 -142l-67 -13l-70 101l-70 -101l-68 13l111 142h53z" />
    <glyph glyph-name="tilde" unicode="&#x2dc;" 
d="M349 664h43c-15 -58 -48 -94 -97 -94c-11 0 -21 1 -32 5l-39 13c-9 3 -18 5 -26 5c-22 0 -37 -9 -47 -31h-43c14 60 48 91 96 91c11 0 21 -2 30 -5l38 -13c10 -3 20 -5 30 -5c23 0 39 11 47 34z" />
    <glyph glyph-name="macron" unicode="&#xaf;" 
d="M124 641h252v-61h-252v61z" />
    <glyph glyph-name="breve" unicode="&#x2d8;" 
d="M112 684h44c4 -50 33 -71 94 -71s90 21 94 71h44c-6 -91 -49 -132 -138 -132s-132 41 -138 132z" />
    <glyph glyph-name="dotaccent" unicode="&#x2d9;" 
d="M250 676c20 -23 42 -45 65 -65c-23 -21 -44 -42 -65 -65c-20 23 -42 45 -65 65c22 18 44 40 65 65z" />
    <glyph glyph-name="dieresis" unicode="&#xa8;" 
d="M156 672c19 -22 40 -43 62 -62c-20 -18 -41 -38 -62 -61c-19 22 -39 42 -61 61c20 17 40 38 61 62zM343 672c19 -22 40 -43 62 -62c-20 -18 -41 -38 -62 -61c-19 22 -39 42 -61 61c20 17 40 38 61 62z" />
    <glyph glyph-name="ring" unicode="&#x2da;" 
d="M250 766c68 0 121 -53 121 -121s-53 -121 -121 -121s-121 53 -121 121s53 121 121 121zM250 715c-39 0 -69 -31 -69 -70s29 -70 69 -70c39 0 70 31 70 70s-31 70 -70 70z" />
    <glyph glyph-name="cedilla" unicode="&#xb8;" 
d="M232 0h36v-52h11c73 0 110 -30 110 -86c0 -58 -41 -89 -121 -89c-31 0 -72 8 -122 21v42c52 -11 92 -17 120 -17c40 0 59 13 59 40c0 34 -21 48 -67 48c-8 0 -16 0 -25 -1z" />
    <glyph glyph-name="hungarumlaut" unicode="&#x2dd;" 
d="M229 704h77l-108 -171h-41zM365 704h76l-117 -171h-41z" />
    <glyph glyph-name="ogonek" unicode="&#x2db;" 
d="M266 9h36c-52 -43 -79 -81 -79 -118c0 -29 14 -40 48 -40h39v-63h-38c-73 0 -109 25 -109 80c0 51 36 89 103 141z" />
    <glyph glyph-name="caron" unicode="&#x2c7;" 
d="M223 541l-111 142l68 13l70 -101l70 101l67 -13l-111 -142h-53z" />
    <glyph glyph-name="emdash" unicode="&#x2014;" horiz-adv-x="1000" 
d="M1000 264v-60h-1000v60h1000z" />
    <glyph glyph-name="AE" unicode="&#xc6;" horiz-adv-x="831" 
d="M428 236h-216l-125 -236l-87 -6l359 643l-42 67h105c141 0 258 1 354 4l-32 -71c-33 4 -72 4 -116 4h-91c-2 -11 -2 -32 -2 -61v-71v-118h49c71 0 133 1 187 3l-33 -68c-33 2 -61 3 -85 3h-118v-109v-78c0 -34 0 -59 2 -75c20 -1 38 -1 55 -1h48c53 0 102 0 144 5
l-34 -76c-53 3 -131 5 -235 5h-93c3 84 5 162 6 236zM248 303h179v338z" />
    <glyph glyph-name="ordfeminine" unicode="&#xaa;" horiz-adv-x="326" 
d="M218 370l2 39c-62 -31 -96 -49 -105 -49c-45 0 -94 38 -94 91c0 65 63 116 159 116c14 0 26 -2 40 -4c0 7 1 13 1 19c0 53 -26 76 -89 76c-36 0 -67 -10 -92 -30l-9 8l67 65c21 4 43 7 64 7c89 0 131 -38 131 -115c0 -30 -4 -102 -4 -220zM220 425v95
c-29 10 -56 15 -80 15c-17 0 -30 -2 -43 -7c-8 -11 -11 -23 -11 -36c0 -44 34 -77 83 -77c15 0 31 3 51 10z" />
    <glyph glyph-name="Lslash" unicode="&#x141;" horiz-adv-x="442" 
d="M62 0c4 100 7 195 7 285l-69 -57v50l69 58c0 23 1 43 1 61c0 71 -3 173 -8 307l123 4c-5 -121 -7 -219 -7 -294l104 86v-52l-104 -86v-55c0 -57 2 -137 4 -240h61c68 0 129 1 184 5c-13 -26 -22 -52 -30 -77c-54 3 -103 5 -145 5h-190z" />
    <glyph glyph-name="Oslash" unicode="&#xd8;" horiz-adv-x="706" 
d="M43 -74l90 128c-68 61 -103 146 -103 254c0 84 19 154 59 222c71 120 193 192 292 192c64 0 122 -20 174 -61l57 80h42l-73 -105c62 -67 95 -156 95 -257c0 -103 -39 -198 -91 -252c-92 -95 -171 -146 -267 -146c-55 0 -107 17 -158 51l-74 -106h-43zM202 154l284 407
c-46 44 -107 68 -176 68c-71 0 -124 -23 -140 -47c-29 -45 -52 -122 -52 -209c0 -84 28 -157 84 -219zM229 130c48 -39 105 -58 169 -58c71 0 122 24 137 50c27 47 43 110 43 180c0 99 -25 179 -68 231z" />
    <glyph glyph-name="OE" unicode="&#x152;" horiz-adv-x="965" 
d="M565 704c139 0 256 1 352 4l-33 -71c-33 4 -71 4 -115 4h-91c-2 -11 -2 -32 -2 -61v-71v-118h49c71 0 133 1 187 3l-33 -68c-33 2 -61 3 -85 3h-118v-109v-78c0 -34 0 -59 2 -75c20 -1 38 -1 55 -1h48c53 0 102 0 144 5l-34 -76c-53 3 -131 5 -235 5h-94l9 112
c-84 -87 -167 -131 -247 -131c-169 0 -294 131 -294 327c0 141 53 247 166 338c62 50 119 76 185 76c73 0 139 -32 190 -96zM396 72c72 0 124 23 140 50c25 44 44 115 44 203c0 196 -97 309 -249 309c-73 0 -133 -24 -150 -39c-24 -22 -64 -111 -64 -218
c0 -178 123 -305 279 -305z" />
    <glyph glyph-name="ordmasculine" unicode="&#xba;" horiz-adv-x="353" 
d="M298 437l-86 -65c-10 -7 -27 -12 -50 -12c-86 0 -145 57 -145 146c0 38 12 80 35 124l93 68c4 3 23 10 52 10c87 0 138 -51 138 -139c0 -41 -12 -88 -37 -132zM248 425c12 21 19 54 19 99c0 86 -43 135 -105 135c-16 0 -31 -3 -47 -8c-19 -17 -30 -53 -30 -102
c0 -86 45 -133 122 -133c16 0 29 2 41 9z" />
    <glyph glyph-name="ae" unicode="&#xe6;" horiz-adv-x="683" 
d="M656 70l7 -12c-69 -45 -113 -77 -159 -77c-77 0 -137 33 -171 91c-108 -58 -167 -91 -180 -91c-60 0 -125 55 -125 130c0 93 84 166 212 166c18 0 35 -2 53 -6c0 10 1 19 1 28c0 76 -34 108 -118 108c-48 0 -89 -14 -123 -42l-12 11l89 93c29 6 58 10 86 10
c75 0 126 -24 153 -70c65 46 116 70 151 70c77 0 141 -70 141 -185v-13l-97 -47h-177c11 -114 83 -181 193 -181c26 0 51 5 76 17zM385 278h177v5c0 83 -45 133 -108 133c-12 0 -22 -2 -33 -6c-23 -32 -36 -76 -36 -132zM324 86c-17 36 -25 76 -25 121
c-39 16 -77 25 -113 25c-22 0 -40 -3 -57 -10c-10 -16 -14 -33 -14 -52c0 -63 45 -110 110 -110c27 0 59 9 99 26z" />
    <glyph glyph-name="dotlessi" unicode="&#x131;" horiz-adv-x="199" 
d="M150 465c-2 -77 -2 -154 -2 -232s0 -155 2 -233l-101 -5c2 85 2 163 2 233s0 148 -2 233z" />
    <glyph glyph-name="lslash" unicode="&#x142;" horiz-adv-x="199" 
d="M49 -5c2 93 2 194 2 303l-51 -38v44l51 38c1 31 1 66 1 105c0 23 -1 109 -3 257l101 4c-1 -54 -2 -111 -2 -172v-134l51 38v-45l-51 -38v-124c0 -43 0 -121 2 -233z" />
    <glyph glyph-name="oslash" unicode="&#xf8;" horiz-adv-x="470" 
d="M397 91l-114 -92c-14 -11 -36 -18 -67 -18c-42 0 -79 12 -115 35l-48 -67h-35l63 86c-37 34 -58 88 -58 155c0 56 15 115 46 177l124 98c5 4 31 14 70 14c46 0 83 -11 115 -35l44 61h34l-57 -79c33 -36 48 -84 48 -146c0 -59 -17 -125 -50 -189zM330 74
c15 27 26 76 26 142c0 44 -8 82 -25 117l-167 -231c28 -26 68 -41 112 -41c21 0 38 4 54 13zM145 124l172 236c-29 33 -63 49 -101 49c-22 0 -42 -4 -63 -12c-25 -24 -40 -74 -40 -144c0 -58 12 -102 32 -129z" />
    <glyph glyph-name="oe" unicode="&#x153;" horiz-adv-x="738" 
d="M711 70l7 -12c-69 -45 -113 -77 -159 -77c-80 0 -138 33 -177 99l-99 -81c-13 -11 -36 -18 -67 -18c-115 0 -193 82 -193 209c0 55 15 115 46 177l124 98c5 4 31 14 70 14c68 0 119 -25 153 -76c69 52 123 76 159 76c77 0 141 -70 141 -185v-13l-97 -47h-177
c11 -114 83 -181 193 -181c26 0 51 5 76 17zM441 278h176v5c0 83 -45 133 -108 133c-12 0 -22 -2 -33 -6c-23 -32 -35 -76 -35 -132zM330 74c16 30 26 78 26 142c0 122 -57 193 -140 193c-21 0 -42 -4 -63 -12c-25 -24 -40 -75 -40 -146c0 -123 60 -190 163 -190
c21 0 38 4 54 13z" />
    <glyph glyph-name="germandbls" unicode="&#xdf;" horiz-adv-x="521" 
d="M85 -5c1 53 2 170 2 352v70h-60l26 44h34c1 56 9 99 29 134c13 23 31 44 52 61c54 45 93 66 116 66c69 0 138 -61 138 -147c0 -51 -25 -96 -74 -147c86 -20 134 -81 134 -171c0 -88 -42 -172 -63 -188c-80 -61 -148 -88 -170 -88c-6 0 -18 1 -35 3l22 69
c29 -7 55 -12 76 -12c5 0 9 1 13 1c39 45 60 100 60 163c0 107 -50 169 -123 169c-10 0 -22 -2 -35 -6l-8 26c65 24 109 50 132 81c4 13 6 27 6 40c0 84 -64 144 -136 144c-37 0 -38 -54 -38 -193c0 -166 2 -322 4 -466z" />
    <glyph glyph-name="Aacute" unicode="&#xc1;" horiz-adv-x="581" 
d="M-2 -6c71 187 111 296 122 328l105 311l-28 60l107 29c27 -76 57 -153 87 -230l99 -256c24 -62 55 -137 93 -225l-112 -23l-89 248h-233l-76 -236zM171 303h187l-101 263zM306 947h87l-137 -171h-52z" />
    <glyph glyph-name="Acircumflex" unicode="&#xc2;" horiz-adv-x="581" 
d="M-2 -6c71 187 111 296 122 328l105 311l-28 60l107 29c27 -76 57 -153 87 -230l99 -256c24 -62 55 -137 93 -225l-112 -23l-89 248h-233l-76 -236zM171 303h187l-101 263zM297 939l111 -142l-67 -13l-70 101l-70 -101l-68 13l111 142h53z" />
    <glyph glyph-name="Adieresis" unicode="&#xc4;" horiz-adv-x="581" 
d="M-2 -6c71 187 111 296 122 328l105 311l-28 60l107 29c27 -76 57 -153 87 -230l99 -256c24 -62 55 -137 93 -225l-112 -23l-89 248h-233l-76 -236zM171 303h187l-101 263zM177 915c19 -22 40 -43 62 -62c-20 -18 -41 -38 -62 -61c-19 22 -39 42 -61 61c20 17 40 38 61 62
zM364 915c19 -22 40 -43 62 -62c-20 -18 -41 -38 -62 -61c-19 22 -39 42 -61 61c20 17 40 38 61 62z" />
    <glyph glyph-name="Agrave" unicode="&#xc0;" horiz-adv-x="581" 
d="M-2 -6c71 187 111 296 122 328l105 311l-28 60l107 29c27 -76 57 -153 87 -230l99 -256c24 -62 55 -137 93 -225l-112 -23l-89 248h-233l-76 -236zM171 303h187l-101 263zM149 947h87l102 -171h-52z" />
    <glyph glyph-name="Aring" unicode="&#xc5;" horiz-adv-x="581" 
d="M-2 -6c71 187 111 296 122 328l105 311l-15 26l107 29c11 -32 36 -98 74 -196l99 -256c24 -62 55 -137 93 -225l-112 -23l-89 248h-233l-76 -236zM171 303h187l-101 263zM279 963c68 0 121 -53 121 -121s-53 -121 -121 -121s-121 53 -121 121s53 121 121 121zM279 912
c-39 0 -70 -31 -70 -70s30 -70 70 -70c39 0 69 31 69 70s-30 70 -69 70z" />
    <glyph glyph-name="Atilde" unicode="&#xc3;" horiz-adv-x="581" 
d="M-2 -6c71 187 111 296 122 328l105 311l-28 60l107 29c27 -76 57 -153 87 -230l99 -256c24 -62 55 -137 93 -225l-112 -23l-89 248h-233l-76 -236zM171 303h187l-101 263zM370 907h43c-15 -58 -48 -94 -97 -94c-11 0 -21 1 -32 5l-39 13c-9 3 -18 5 -26 5
c-22 0 -37 -9 -47 -31h-43c14 60 48 91 96 91c11 0 21 -2 30 -5l38 -13c10 -3 20 -5 30 -5c23 0 39 11 47 34z" />
    <glyph glyph-name="Ccedilla" unicode="&#xc7;" horiz-adv-x="588" 
d="M567 122l15 -19c-99 -71 -156 -122 -236 -122c-195 0 -318 132 -318 334c0 136 58 247 169 325c73 52 133 82 208 82c57 0 110 -16 159 -48l-71 -85c-49 31 -101 45 -162 45c-67 0 -116 -16 -133 -30c-51 -41 -86 -124 -86 -223c0 -180 123 -307 303 -307
c58 0 109 16 152 48zM276 0h36v-52h11c73 0 110 -30 110 -86c0 -58 -41 -89 -121 -89c-31 0 -72 8 -122 21v42c52 -11 92 -17 120 -17c40 0 59 13 59 40c0 34 -21 48 -67 48c-8 0 -16 0 -25 -1z" />
    <glyph glyph-name="Eacute" unicode="&#xc9;" horiz-adv-x="454" 
d="M56 0c5 108 6 225 6 350s-1 243 -6 354c141 0 258 1 354 4l-32 -71c-33 4 -72 4 -116 4h-91c-2 -11 -2 -32 -2 -61v-71v-118h47c69 0 132 1 189 3l-33 -68c-33 2 -61 3 -85 3h-118v-109v-78c0 -34 0 -59 2 -75c20 -1 38 -1 55 -1h48c53 0 102 0 144 5l-34 -76
c-53 3 -131 5 -235 5h-93zM262 947h87l-137 -171h-52z" />
    <glyph glyph-name="Ecircumflex" unicode="&#xca;" horiz-adv-x="454" 
d="M56 0c5 108 6 225 6 350s-1 243 -6 354c141 0 258 1 354 4l-32 -71c-33 4 -72 4 -116 4h-91c-2 -11 -2 -32 -2 -61v-71v-118h47c69 0 132 1 189 3l-33 -68c-33 2 -61 3 -85 3h-118v-109v-78c0 -34 0 -59 2 -75c20 -1 38 -1 55 -1h48c53 0 102 0 144 5l-34 -76
c-53 3 -131 5 -235 5h-93zM253 939l111 -142l-67 -13l-70 101l-70 -101l-68 13l111 142h53z" />
    <glyph glyph-name="Edieresis" unicode="&#xcb;" horiz-adv-x="454" 
d="M56 0c5 108 6 225 6 350s-1 243 -6 354c141 0 258 1 354 4l-32 -71c-33 4 -72 4 -116 4h-91c-2 -11 -2 -32 -2 -61v-71v-118h47c69 0 132 1 189 3l-33 -68c-33 2 -61 3 -85 3h-118v-109v-78c0 -34 0 -59 2 -75c20 -1 38 -1 55 -1h48c53 0 102 0 144 5l-34 -76
c-53 3 -131 5 -235 5h-93zM133 915c19 -22 40 -43 62 -62c-20 -18 -41 -38 -62 -61c-19 22 -39 42 -61 61c20 17 40 38 61 62zM320 915c19 -22 40 -43 62 -62c-20 -18 -41 -38 -62 -61c-19 22 -39 42 -61 61c20 17 40 38 61 62z" />
    <glyph glyph-name="Egrave" unicode="&#xc8;" horiz-adv-x="454" 
d="M56 0c5 108 6 225 6 350s-1 243 -6 354c141 0 258 1 354 4l-32 -71c-33 4 -72 4 -116 4h-91c-2 -11 -2 -32 -2 -61v-71v-118h47c69 0 132 1 189 3l-33 -68c-33 2 -61 3 -85 3h-118v-109v-78c0 -34 0 -59 2 -75c20 -1 38 -1 55 -1h48c53 0 102 0 144 5l-34 -76
c-53 3 -131 5 -235 5h-93zM105 947h87l102 -171h-52z" />
    <glyph glyph-name="Iacute" unicode="&#xcd;" horiz-adv-x="248" 
d="M185 708c-5 -108 -7 -226 -7 -354s2 -246 7 -354l-123 -5c5 111 7 230 7 355s-2 243 -7 354zM159 947h87l-137 -171h-52z" />
    <glyph glyph-name="Icircumflex" unicode="&#xce;" horiz-adv-x="248" 
d="M185 708c-5 -108 -7 -226 -7 -354s2 -246 7 -354l-123 -5c5 111 7 230 7 355s-2 243 -7 354zM150 939l111 -142l-67 -13l-70 101l-70 -101l-68 13l111 142h53z" />
    <glyph glyph-name="Idieresis" unicode="&#xcf;" horiz-adv-x="248" 
d="M185 708c-5 -108 -7 -226 -7 -354s2 -246 7 -354l-123 -5c5 111 7 230 7 355s-2 243 -7 354zM30 915c19 -22 40 -43 62 -62c-20 -18 -41 -38 -62 -61c-19 22 -39 42 -61 61c20 17 40 38 61 62zM217 915c19 -22 40 -43 62 -62c-20 -18 -41 -38 -62 -61
c-19 22 -39 42 -61 61c20 17 40 38 61 62z" />
    <glyph glyph-name="Igrave" unicode="&#xcc;" horiz-adv-x="248" 
d="M185 708c-5 -108 -7 -226 -7 -354s2 -246 7 -354l-123 -5c5 111 7 230 7 355s-2 243 -7 354zM2 947h87l102 -171h-52z" />
    <glyph glyph-name="Ntilde" unicode="&#xd1;" horiz-adv-x="653" 
d="M137 542v-173c0 -37 2 -160 7 -369l-71 -5c4 212 6 344 6 396v231l-47 61l105 39l215 -311l157 -224v376c0 17 0 66 -2 147l62 6c-1 -35 -2 -79 -2 -131v-440c0 -26 3 -70 11 -133l-64 -20c-52 85 -109 166 -164 245zM426 907h43c-15 -58 -48 -94 -97 -94
c-11 0 -21 1 -32 5l-39 13c-9 3 -18 5 -26 5c-22 0 -37 -9 -47 -31h-43c14 60 48 91 96 91c11 0 21 -2 30 -5l38 -13c10 -3 20 -5 30 -5c23 0 39 11 47 34z" />
    <glyph glyph-name="Oacute" unicode="&#xd3;" horiz-adv-x="706" 
d="M324 -19c-169 0 -294 131 -294 327c0 146 51 243 166 338c61 50 121 76 185 76c66 0 128 -23 173 -61c78 -67 122 -166 122 -282c0 -110 -43 -208 -120 -280c-80 -75 -149 -118 -232 -118zM396 72c72 0 124 24 139 50c27 47 43 110 43 181c0 201 -109 326 -268 326
c-71 0 -124 -23 -140 -47c-29 -44 -53 -122 -53 -205c0 -178 123 -305 279 -305zM388 947h87l-137 -171h-52z" />
    <glyph glyph-name="Ocircumflex" unicode="&#xd4;" horiz-adv-x="706" 
d="M324 -19c-169 0 -294 131 -294 327c0 146 51 243 166 338c61 50 121 76 185 76c66 0 128 -23 173 -61c78 -67 122 -166 122 -282c0 -110 -43 -208 -120 -280c-80 -75 -149 -118 -232 -118zM396 72c72 0 124 24 139 50c27 47 43 110 43 181c0 201 -109 326 -268 326
c-71 0 -124 -23 -140 -47c-29 -44 -53 -122 -53 -205c0 -178 123 -305 279 -305zM379 939l111 -142l-67 -13l-70 101l-70 -101l-68 13l111 142h53z" />
    <glyph glyph-name="Odieresis" unicode="&#xd6;" horiz-adv-x="706" 
d="M324 -19c-169 0 -294 131 -294 327c0 146 51 243 166 338c61 50 121 76 185 76c66 0 128 -23 173 -61c78 -67 122 -166 122 -282c0 -110 -43 -208 -120 -280c-80 -75 -149 -118 -232 -118zM396 72c72 0 124 24 139 50c27 47 43 110 43 181c0 201 -109 326 -268 326
c-71 0 -124 -23 -140 -47c-29 -44 -53 -122 -53 -205c0 -178 123 -305 279 -305zM259 915c19 -22 40 -43 62 -62c-20 -18 -41 -38 -62 -61c-19 22 -39 42 -61 61c20 17 40 38 61 62zM446 915c19 -22 40 -43 62 -62c-20 -18 -41 -38 -62 -61c-19 22 -39 42 -61 61
c20 17 40 38 61 62z" />
    <glyph glyph-name="Ograve" unicode="&#xd2;" horiz-adv-x="706" 
d="M324 -19c-169 0 -294 131 -294 327c0 146 51 243 166 338c61 50 121 76 185 76c66 0 128 -23 173 -61c78 -67 122 -166 122 -282c0 -110 -43 -208 -120 -280c-80 -75 -149 -118 -232 -118zM396 72c72 0 124 24 139 50c27 47 43 110 43 181c0 201 -109 326 -268 326
c-71 0 -124 -23 -140 -47c-29 -44 -53 -122 -53 -205c0 -178 123 -305 279 -305zM231 947h87l102 -171h-52z" />
    <glyph glyph-name="Otilde" unicode="&#xd5;" horiz-adv-x="706" 
d="M324 -19c-169 0 -294 131 -294 327c0 146 51 243 166 338c61 50 121 76 185 76c66 0 128 -23 173 -61c78 -67 122 -166 122 -282c0 -110 -43 -208 -120 -280c-80 -75 -149 -118 -232 -118zM396 72c72 0 124 24 139 50c27 47 43 110 43 181c0 201 -109 326 -268 326
c-71 0 -124 -23 -140 -47c-29 -44 -53 -122 -53 -205c0 -178 123 -305 279 -305zM452 907h43c-15 -58 -48 -94 -97 -94c-11 0 -21 1 -32 5l-39 13c-9 3 -18 5 -26 5c-22 0 -37 -9 -47 -31h-43c14 60 48 91 96 91c11 0 21 -2 30 -5l38 -13c10 -3 20 -5 30 -5
c23 0 39 11 47 34z" />
    <glyph glyph-name="Scaron" unicode="&#x160;" horiz-adv-x="435" 
d="M28 85l93 61c35 -60 76 -87 135 -87c10 0 20 1 30 2c17 27 24 60 24 101c0 75 -37 101 -114 137c-37 17 -78 32 -112 66c-31 31 -46 73 -46 121c0 73 32 135 98 191c31 26 82 45 128 45c52 0 100 -30 134 -87l-87 -60c-35 50 -74 74 -124 74c-13 0 -28 -2 -45 -6
c-18 -21 -28 -51 -28 -88c0 -51 33 -97 94 -129c53 -27 98 -43 126 -67c40 -33 60 -78 60 -130c0 -74 -30 -139 -88 -190c-42 -37 -95 -58 -139 -58c-59 0 -109 36 -139 104zM191 784l-111 142l68 13l70 -101l70 101l67 -13l-111 -142h-53z" />
    <glyph glyph-name="Uacute" unicode="&#xda;" horiz-adv-x="632" 
d="M56 704l120 4c-5 -123 -7 -269 -7 -438c0 -143 36 -206 162 -206c45 0 80 10 110 34c21 69 22 131 22 192v16c0 155 -2 288 -7 398l120 4c-5 -108 -7 -226 -7 -354s2 -246 7 -354l-120 -5c3 29 5 56 6 83c-69 -64 -127 -97 -192 -97c-154 0 -208 86 -208 274v126
c0 92 -1 200 -6 323zM351 947h87l-137 -171h-52z" />
    <glyph glyph-name="Ucircumflex" unicode="&#xdb;" horiz-adv-x="632" 
d="M56 704l120 4c-5 -123 -7 -269 -7 -438c0 -143 36 -206 162 -206c45 0 80 10 110 34c21 69 22 131 22 192v16c0 155 -2 288 -7 398l120 4c-5 -108 -7 -226 -7 -354s2 -246 7 -354l-120 -5c3 29 5 56 6 83c-69 -64 -127 -97 -192 -97c-154 0 -208 86 -208 274v126
c0 92 -1 200 -6 323zM342 939l111 -142l-67 -13l-70 101l-70 -101l-68 13l111 142h53z" />
    <glyph glyph-name="Udieresis" unicode="&#xdc;" horiz-adv-x="632" 
d="M56 704l120 4c-5 -123 -7 -269 -7 -438c0 -143 36 -206 162 -206c45 0 80 10 110 34c21 69 22 131 22 192v16c0 155 -2 288 -7 398l120 4c-5 -108 -7 -226 -7 -354s2 -246 7 -354l-120 -5c3 29 5 56 6 83c-69 -64 -127 -97 -192 -97c-154 0 -208 86 -208 274v126
c0 92 -1 200 -6 323zM222 915c19 -22 40 -43 62 -62c-20 -18 -41 -38 -62 -61c-19 22 -39 42 -61 61c20 17 40 38 61 62zM409 915c19 -22 40 -43 62 -62c-20 -18 -41 -38 -62 -61c-19 22 -39 42 -61 61c20 17 40 38 61 62z" />
    <glyph glyph-name="Ugrave" unicode="&#xd9;" horiz-adv-x="632" 
d="M56 704l120 4c-5 -123 -7 -269 -7 -438c0 -143 36 -206 162 -206c45 0 80 10 110 34c21 69 22 131 22 192v16c0 155 -2 288 -7 398l120 4c-5 -108 -7 -226 -7 -354s2 -246 7 -354l-120 -5c3 29 5 56 6 83c-69 -64 -127 -97 -192 -97c-154 0 -208 86 -208 274v126
c0 92 -1 200 -6 323zM194 947h87l102 -171h-52z" />
    <glyph glyph-name="Ydieresis" unicode="&#x178;" horiz-adv-x="484" 
d="M293 291v-61c0 -72 1 -149 5 -230l-117 -5c4 88 6 173 6 250v46c-42 98 -104 232 -187 403l114 19c54 -132 106 -250 156 -356c62 138 111 254 144 347l63 4zM148 915c19 -22 40 -43 62 -62c-20 -18 -41 -38 -62 -61c-19 22 -39 42 -61 61c20 17 40 38 61 62zM335 915
c19 -22 40 -43 62 -62c-20 -18 -41 -38 -62 -61c-19 22 -39 42 -61 61c20 17 40 38 61 62z" />
    <glyph glyph-name="Zcaron" unicode="&#x17d;" horiz-adv-x="495" 
d="M16 0c120 209 226 416 325 617h-72c-69 0 -149 -1 -239 -2l31 93c157 -3 290 -4 399 -4l-317 -618c121 0 231 1 331 2l-27 -93c-86 2 -230 4 -431 5zM221 784l-111 142l68 13l70 -101l70 101l67 -13l-111 -142h-53z" />
    <glyph glyph-name="aacute" unicode="&#xe1;" horiz-adv-x="435" 
d="M290 -5l3 56c-83 -44 -128 -70 -140 -70c-60 0 -125 55 -125 130c0 93 84 166 212 166c18 0 35 -2 53 -6c0 10 1 19 1 28c0 76 -34 108 -118 108c-48 0 -89 -14 -123 -42l-12 11l89 93c29 6 58 10 86 10c118 0 174 -54 174 -165c0 -42 -5 -146 -5 -314zM293 74v136
c-38 14 -74 22 -107 22c-22 0 -40 -3 -57 -10c-10 -16 -14 -33 -14 -52c0 -63 45 -110 110 -110c20 0 42 5 68 14zM276 704h87l-137 -171h-52z" />
    <glyph glyph-name="acircumflex" unicode="&#xe2;" horiz-adv-x="435" 
d="M290 -5l3 56c-83 -44 -128 -70 -140 -70c-60 0 -125 55 -125 130c0 93 84 166 212 166c18 0 35 -2 53 -6c0 10 1 19 1 28c0 76 -34 108 -118 108c-48 0 -89 -14 -123 -42l-12 11l89 93c29 6 58 10 86 10c118 0 174 -54 174 -165c0 -42 -5 -146 -5 -314zM293 74v136
c-38 14 -74 22 -107 22c-22 0 -40 -3 -57 -10c-10 -16 -14 -33 -14 -52c0 -63 45 -110 110 -110c20 0 42 5 68 14zM267 696l111 -142l-67 -13l-70 101l-70 -101l-68 13l111 142h53z" />
    <glyph glyph-name="adieresis" unicode="&#xe4;" horiz-adv-x="435" 
d="M290 -5l3 56c-83 -44 -128 -70 -140 -70c-60 0 -125 55 -125 130c0 93 84 166 212 166c18 0 35 -2 53 -6c0 10 1 19 1 28c0 76 -34 108 -118 108c-48 0 -89 -14 -123 -42l-12 11l89 93c29 6 58 10 86 10c118 0 174 -54 174 -165c0 -42 -5 -146 -5 -314zM293 74v136
c-38 14 -74 22 -107 22c-22 0 -40 -3 -57 -10c-10 -16 -14 -33 -14 -52c0 -63 45 -110 110 -110c20 0 42 5 68 14zM147 672c19 -22 40 -43 62 -62c-20 -18 -41 -38 -62 -61c-19 22 -39 42 -61 61c20 17 40 38 61 62zM334 672c19 -22 40 -43 62 -62c-20 -18 -41 -38 -62 -61
c-19 22 -39 42 -61 61c20 17 40 38 61 62z" />
    <glyph glyph-name="agrave" unicode="&#xe0;" horiz-adv-x="435" 
d="M290 -5l3 56c-83 -44 -128 -70 -140 -70c-60 0 -125 55 -125 130c0 93 84 166 212 166c18 0 35 -2 53 -6c0 10 1 19 1 28c0 76 -34 108 -118 108c-48 0 -89 -14 -123 -42l-12 11l89 93c29 6 58 10 86 10c118 0 174 -54 174 -165c0 -42 -5 -146 -5 -314zM293 74v136
c-38 14 -74 22 -107 22c-22 0 -40 -3 -57 -10c-10 -16 -14 -33 -14 -52c0 -63 45 -110 110 -110c20 0 42 5 68 14zM119 704h87l102 -171h-52z" />
    <glyph glyph-name="aring" unicode="&#xe5;" horiz-adv-x="435" 
d="M290 -5l3 56c-80 -39 -122 -70 -140 -70c-60 0 -125 55 -125 130c0 93 84 166 212 166c18 0 35 -2 53 -6c0 10 1 19 1 28c0 76 -34 108 -118 108c-48 0 -89 -14 -123 -42l-12 11l89 93c29 6 58 10 86 10c118 0 174 -54 174 -165c0 -42 -5 -146 -5 -314zM293 74v136
c-38 14 -74 22 -107 22c-22 0 -40 -3 -57 -10c-10 -16 -14 -33 -14 -52c0 -63 45 -110 110 -110c20 0 42 5 68 14zM234 702c-39 0 -70 -31 -70 -70s30 -70 70 -70c39 0 69 31 69 70s-30 70 -69 70zM234 753c68 0 121 -52 121 -120s-53 -121 -121 -121s-122 53 -122 121
s54 120 122 120z" />
    <glyph glyph-name="atilde" unicode="&#xe3;" horiz-adv-x="435" 
d="M290 -5l3 56c-83 -44 -128 -70 -140 -70c-60 0 -125 55 -125 130c0 93 84 166 212 166c18 0 35 -2 53 -6c0 10 1 19 1 28c0 76 -34 108 -118 108c-48 0 -89 -14 -123 -42l-12 11l89 93c29 6 58 10 86 10c118 0 174 -54 174 -165c0 -42 -5 -146 -5 -314zM293 74v136
c-38 14 -74 22 -107 22c-22 0 -40 -3 -57 -10c-10 -16 -14 -33 -14 -52c0 -63 45 -110 110 -110c20 0 42 5 68 14zM340 664h43c-15 -58 -48 -94 -97 -94c-11 0 -21 1 -32 5l-39 13c-9 3 -18 5 -26 5c-22 0 -37 -9 -47 -31h-43c14 60 48 91 96 91c11 0 21 -2 30 -5l38 -13
c10 -3 20 -5 30 -5c23 0 39 11 47 34z" />
    <glyph glyph-name="ccedilla" unicode="&#xe7;" horiz-adv-x="407" 
d="M297 324c-26 61 -61 90 -108 90c-10 0 -20 -2 -33 -6c-26 -46 -40 -97 -40 -150c0 -127 75 -208 177 -208c25 0 54 7 89 20l5 -11c-70 -48 -115 -78 -152 -78c-124 0 -212 88 -212 217c0 76 26 131 58 188c6 10 12 17 18 20l113 63c10 6 29 10 50 10
c55 0 101 -38 125 -109zM190 0h36v-52h11c73 0 110 -30 110 -86c0 -58 -41 -89 -121 -89c-31 0 -72 8 -122 21v42c52 -11 92 -17 120 -17c40 0 59 13 59 40c0 34 -21 48 -67 48c-8 0 -16 0 -25 -1z" />
    <glyph glyph-name="eacute" unicode="&#xe9;" horiz-adv-x="407" 
d="M381 70l6 -12c-69 -45 -112 -77 -158 -77c-125 0 -206 88 -206 227c0 97 33 172 67 199c62 49 122 72 155 72c77 0 140 -70 140 -185v-13l-97 -47h-176c11 -114 82 -181 192 -181c26 0 52 5 77 17zM110 278h176v5c0 83 -44 133 -107 133c-12 0 -23 -2 -34 -6
c-23 -32 -35 -76 -35 -132zM260 704h87l-137 -171h-52z" />
    <glyph glyph-name="ecircumflex" unicode="&#xea;" horiz-adv-x="407" 
d="M381 70l6 -12c-69 -45 -112 -77 -158 -77c-125 0 -206 88 -206 227c0 97 33 172 67 199c62 49 122 72 155 72c77 0 140 -70 140 -185v-13l-97 -47h-176c11 -114 82 -181 192 -181c26 0 52 5 77 17zM110 278h176v5c0 83 -44 133 -107 133c-12 0 -23 -2 -34 -6
c-23 -32 -35 -76 -35 -132zM251 696l111 -142l-67 -13l-70 101l-70 -101l-68 13l111 142h53z" />
    <glyph glyph-name="edieresis" unicode="&#xeb;" horiz-adv-x="407" 
d="M381 70l6 -12c-69 -45 -112 -77 -158 -77c-125 0 -206 88 -206 227c0 97 33 172 67 199c62 49 122 72 155 72c77 0 140 -70 140 -185v-13l-97 -47h-176c11 -114 82 -181 192 -181c26 0 52 5 77 17zM110 278h176v5c0 83 -44 133 -107 133c-12 0 -23 -2 -34 -6
c-23 -32 -35 -76 -35 -132zM131 672c19 -22 40 -43 62 -62c-20 -18 -41 -38 -62 -61c-19 22 -39 42 -61 61c20 17 40 38 61 62zM318 672c19 -22 40 -43 62 -62c-20 -18 -41 -38 -62 -61c-19 22 -39 42 -61 61c20 17 40 38 61 62z" />
    <glyph glyph-name="egrave" unicode="&#xe8;" horiz-adv-x="407" 
d="M381 70l6 -12c-69 -45 -112 -77 -158 -77c-125 0 -206 88 -206 227c0 97 33 172 67 199c62 49 122 72 155 72c77 0 140 -70 140 -185v-13l-97 -47h-176c11 -114 82 -181 192 -181c26 0 52 5 77 17zM110 278h176v5c0 83 -44 133 -107 133c-12 0 -23 -2 -34 -6
c-23 -32 -35 -76 -35 -132zM103 704h87l102 -171h-52z" />
    <glyph glyph-name="iacute" unicode="&#xed;" horiz-adv-x="199" 
d="M150 465c-2 -77 -2 -154 -2 -232s0 -155 2 -233l-101 -5c2 85 2 163 2 233s0 148 -2 233zM135 704h87l-137 -171h-52z" />
    <glyph glyph-name="icircumflex" unicode="&#xee;" horiz-adv-x="199" 
d="M150 465c-2 -77 -2 -154 -2 -232s0 -155 2 -233l-101 -5c2 85 2 163 2 233s0 148 -2 233zM126 696l111 -142l-67 -13l-70 101l-70 -101l-68 13l111 142h53z" />
    <glyph glyph-name="idieresis" unicode="&#xef;" horiz-adv-x="199" 
d="M150 465c-2 -77 -2 -154 -2 -232s0 -155 2 -233l-101 -5c2 85 2 163 2 233s0 148 -2 233zM6 672c19 -22 40 -43 62 -62c-20 -18 -41 -38 -62 -61c-19 22 -39 42 -61 61c20 17 40 38 61 62zM193 672c19 -22 40 -43 62 -62c-20 -18 -41 -38 -62 -61c-19 22 -39 42 -61 61
c20 17 40 38 61 62z" />
    <glyph glyph-name="igrave" unicode="&#xec;" horiz-adv-x="199" 
d="M150 465c-2 -77 -2 -154 -2 -232s0 -155 2 -233l-101 -5c2 85 2 163 2 233s0 148 -2 233zM-22 704h87l102 -171h-52z" />
    <glyph glyph-name="ntilde" unicode="&#xf1;" horiz-adv-x="468" 
d="M44 -5c2 85 2 163 2 233s0 148 -2 233l100 4c0 -32 -1 -53 -1 -64c44 33 85 58 125 76c9 1 17 2 25 2c39 0 73 -15 102 -44c26 -26 27 -66 27 -123v-13c0 -55 -1 -88 -1 -99c0 -36 1 -102 3 -200l-100 -5c2 66 2 151 2 255c0 64 -1 104 -19 122c-18 19 -50 31 -84 31
c-29 0 -45 -2 -54 -18c-28 -49 -28 -120 -28 -222c0 -42 1 -97 3 -163zM333 664h43c-15 -58 -48 -94 -97 -94c-11 0 -21 1 -32 5l-39 13c-9 3 -18 5 -26 5c-22 0 -37 -9 -47 -31h-43c14 60 48 91 96 91c11 0 21 -2 30 -5l38 -13c10 -3 20 -5 30 -5c23 0 39 11 47 34z" />
    <glyph glyph-name="oacute" unicode="&#xf3;" horiz-adv-x="470" 
d="M397 91l-114 -92c-14 -11 -36 -18 -67 -18c-115 0 -193 82 -193 209c0 55 15 115 46 177l124 98c5 4 31 14 70 14c115 0 184 -73 184 -199c0 -59 -16 -125 -50 -189zM330 74c16 30 26 78 26 142c0 122 -57 193 -140 193c-21 0 -42 -4 -63 -12c-25 -24 -40 -75 -40 -146
c0 -123 60 -190 163 -190c21 0 38 4 54 13zM290 704h87l-137 -171h-52z" />
    <glyph glyph-name="ocircumflex" unicode="&#xf4;" horiz-adv-x="470" 
d="M397 91l-114 -92c-14 -11 -36 -18 -67 -18c-115 0 -193 82 -193 209c0 55 15 115 46 177l124 98c5 4 31 14 70 14c115 0 184 -73 184 -199c0 -59 -16 -125 -50 -189zM330 74c16 30 26 78 26 142c0 122 -57 193 -140 193c-21 0 -42 -4 -63 -12c-25 -24 -40 -75 -40 -146
c0 -123 60 -190 163 -190c21 0 38 4 54 13zM281 696l111 -142l-67 -13l-70 101l-70 -101l-68 13l111 142h53z" />
    <glyph glyph-name="odieresis" unicode="&#xf6;" horiz-adv-x="470" 
d="M397 91l-114 -92c-14 -11 -36 -18 -67 -18c-115 0 -193 82 -193 209c0 55 15 115 46 177l124 98c5 4 31 14 70 14c115 0 184 -73 184 -199c0 -59 -16 -125 -50 -189zM330 74c16 30 26 78 26 142c0 122 -57 193 -140 193c-21 0 -42 -4 -63 -12c-25 -24 -40 -75 -40 -146
c0 -123 60 -190 163 -190c21 0 38 4 54 13zM161 672c19 -22 40 -43 62 -62c-20 -18 -41 -38 -62 -61c-19 22 -39 42 -61 61c20 17 40 38 61 62zM348 672c19 -22 40 -43 62 -62c-20 -18 -41 -38 -62 -61c-19 22 -39 42 -61 61c20 17 40 38 61 62z" />
    <glyph glyph-name="ograve" unicode="&#xf2;" horiz-adv-x="470" 
d="M397 91l-114 -92c-14 -11 -36 -18 -67 -18c-115 0 -193 82 -193 209c0 55 15 115 46 177l124 98c5 4 31 14 70 14c115 0 184 -73 184 -199c0 -59 -16 -125 -50 -189zM330 74c16 30 26 78 26 142c0 122 -57 193 -140 193c-21 0 -42 -4 -63 -12c-25 -24 -40 -75 -40 -146
c0 -123 60 -190 163 -190c21 0 38 4 54 13zM133 704h87l102 -171h-52z" />
    <glyph glyph-name="otilde" unicode="&#xf5;" horiz-adv-x="470" 
d="M397 91l-114 -92c-14 -11 -36 -18 -67 -18c-115 0 -193 82 -193 209c0 55 15 115 46 177l124 98c5 4 31 14 70 14c115 0 184 -73 184 -199c0 -59 -16 -125 -50 -189zM330 74c16 30 26 78 26 142c0 122 -57 193 -140 193c-21 0 -42 -4 -63 -12c-25 -24 -40 -75 -40 -146
c0 -123 60 -190 163 -190c21 0 38 4 54 13zM354 664h43c-15 -58 -48 -94 -97 -94c-11 0 -21 1 -32 5l-39 13c-9 3 -18 5 -26 5c-22 0 -37 -9 -47 -31h-43c14 60 48 91 96 91c11 0 21 -2 30 -5l38 -13c10 -3 20 -5 30 -5c23 0 39 11 47 34z" />
    <glyph glyph-name="scaron" unicode="&#x161;" horiz-adv-x="366" 
d="M35 88l86 41c26 -60 58 -90 97 -90h6c14 17 23 41 23 65c0 39 -26 54 -74 75c-81 36 -130 56 -130 137c0 51 15 81 53 107c58 40 98 56 110 56c50 0 97 -36 122 -103l-81 -43c-20 57 -50 84 -98 84c-5 0 -11 0 -16 -1c-12 -16 -18 -36 -18 -54c0 -32 21 -55 63 -75
c48 -23 93 -34 120 -65c18 -20 27 -47 27 -79c0 -74 -47 -119 -149 -162c-72 1 -122 40 -141 107zM156 541l-111 142l68 13l70 -101l70 101l67 -13l-111 -142h-53z" />
    <glyph glyph-name="uacute" unicode="&#xfa;" horiz-adv-x="468" 
d="M424 465c-2 -78 -3 -154 -3 -232s1 -156 3 -233l-100 -5c0 8 0 30 1 65c-44 -32 -86 -58 -126 -76c-8 -1 -15 -1 -22 -1c-91 0 -131 48 -131 150v127c0 39 0 107 -2 201l100 4c-2 -63 -3 -148 -3 -256c0 -63 2 -102 19 -120c18 -18 50 -32 85 -32c29 0 44 3 53 19
c28 49 29 121 29 222c0 47 -1 101 -3 163zM269 704h87l-137 -171h-52z" />
    <glyph glyph-name="ucircumflex" unicode="&#xfb;" horiz-adv-x="468" 
d="M424 465c-2 -78 -3 -154 -3 -232s1 -156 3 -233l-100 -5c0 8 0 30 1 65c-44 -32 -86 -58 -126 -76c-8 -1 -15 -1 -22 -1c-91 0 -131 48 -131 150v127c0 39 0 107 -2 201l100 4c-2 -63 -3 -148 -3 -256c0 -63 2 -102 19 -120c18 -18 50 -32 85 -32c29 0 44 3 53 19
c28 49 29 121 29 222c0 47 -1 101 -3 163zM260 696l111 -142l-67 -13l-70 101l-70 -101l-68 13l111 142h53z" />
    <glyph glyph-name="udieresis" unicode="&#xfc;" horiz-adv-x="468" 
d="M424 465c-2 -78 -3 -154 -3 -232s1 -156 3 -233l-100 -5c0 8 0 30 1 65c-44 -32 -86 -58 -126 -76c-8 -1 -15 -1 -22 -1c-91 0 -131 48 -131 150v127c0 39 0 107 -2 201l100 4c-2 -63 -3 -148 -3 -256c0 -63 2 -102 19 -120c18 -18 50 -32 85 -32c29 0 44 3 53 19
c28 49 29 121 29 222c0 47 -1 101 -3 163zM140 672c19 -22 40 -43 62 -62c-20 -18 -41 -38 -62 -61c-19 22 -39 42 -61 61c20 17 40 38 61 62zM327 672c19 -22 40 -43 62 -62c-20 -18 -41 -38 -62 -61c-19 22 -39 42 -61 61c20 17 40 38 61 62z" />
    <glyph glyph-name="ugrave" unicode="&#xf9;" horiz-adv-x="468" 
d="M424 465c-2 -78 -3 -154 -3 -232s1 -156 3 -233l-100 -5c0 8 0 30 1 65c-44 -32 -86 -58 -126 -76c-8 -1 -15 -1 -22 -1c-91 0 -131 48 -131 150v127c0 39 0 107 -2 201l100 4c-2 -63 -3 -148 -3 -256c0 -63 2 -102 19 -120c18 -18 50 -32 85 -32c29 0 44 3 53 19
c28 49 29 121 29 222c0 47 -1 101 -3 163zM112 704h87l102 -171h-52z" />
    <glyph glyph-name="ydieresis" unicode="&#xff;" horiz-adv-x="435" 
d="M93 -236c21 43 43 90 65 141l36 83c-59 153 -123 312 -194 477l106 14c55 -161 103 -282 141 -363l125 345l62 9c-96 -231 -185 -464 -269 -701zM124 672c19 -22 40 -43 62 -62c-20 -18 -41 -38 -62 -61c-19 22 -39 42 -61 61c20 17 40 38 61 62zM311 672
c19 -22 40 -43 62 -62c-20 -18 -41 -38 -62 -61c-19 22 -39 42 -61 61c20 17 40 38 61 62z" />
    <glyph glyph-name="zcaron" unicode="&#x17e;" horiz-adv-x="412" 
d="M16 -5l262 395h-224l26 75h301l-259 -391h99c60 0 116 0 167 5l-23 -84c-39 3 -83 5 -134 5c-71 0 -143 -2 -215 -5zM179 541l-111 142l68 13l70 -101l70 101l67 -13l-111 -142h-53z" />
    <glyph glyph-name="trademark" unicode="&#x2122;" horiz-adv-x="833" 
d="M339 712v-39h-84v-224h-53v224h-84v39h221zM470 712l74 -188l69 188h73v-263h-48v217l-81 -217h-27l-85 217v-217h-48v263h73z" />
    <glyph glyph-name="copyright" unicode="&#xa9;" horiz-adv-x="833" 
d="M416 715c98 0 187 -36 256 -105c67 -67 105 -158 105 -255c0 -98 -37 -186 -104 -252c-71 -69 -162 -108 -257 -108s-184 38 -253 107s-106 158 -106 253s37 185 107 256c67 67 155 104 252 104zM729 355c0 85 -32 163 -90 221c-60 60 -137 92 -222 92s-161 -32 -219 -90
c-61 -61 -94 -141 -94 -223s33 -160 93 -220s137 -92 220 -92c82 0 160 33 222 93c58 57 90 133 90 219zM514 443c-8 50 -44 78 -100 78c-66 0 -110 -59 -110 -166c0 -104 44 -162 115 -162c53 0 91 32 100 86h71c-6 -85 -76 -143 -174 -143c-117 0 -190 81 -190 222
c0 132 79 217 193 217c93 0 160 -54 167 -132h-72z" />
    <glyph glyph-name="logicalnot" unicode="&#xac;" horiz-adv-x="833" 
d="M709 420v-245h-67v177h-518v68h585z" />
    <glyph glyph-name="registered" unicode="&#xae;" horiz-adv-x="833" 
d="M416 715c98 0 188 -37 257 -107c66 -67 104 -157 104 -253c0 -99 -37 -187 -105 -253c-71 -69 -162 -107 -256 -107c-96 0 -185 38 -254 108c-68 69 -105 157 -105 252s39 187 109 258c66 67 153 102 250 102zM729 352c0 87 -31 165 -89 223c-60 61 -137 93 -223 93
c-84 0 -161 -31 -218 -89c-61 -62 -95 -142 -95 -224s33 -159 92 -219s138 -93 218 -93c85 0 162 32 224 92c59 57 91 134 91 217zM426 566c114 0 170 -38 170 -112c0 -58 -34 -98 -93 -110l91 -186h-86l-83 174h-76v-174h-77v408h154zM412 516h-63v-135h65
c70 0 103 17 103 65c0 50 -33 70 -105 70z" />
    <glyph glyph-name="minus" unicode="&#x2212;" horiz-adv-x="833" 
d="M709 333v-69h-585v69h585z" />
    <glyph glyph-name="Eth" unicode="&#xd0;" horiz-adv-x="660" 
d="M147 0h-91c5 111 6 223 6 336h-62v39h62c0 114 -2 224 -6 329h16h32c64 0 123 4 179 4c222 0 347 -114 347 -298c0 -135 -54 -244 -164 -344c-48 -43 -120 -71 -198 -71c-30 0 -70 5 -121 5zM171 73c37 -8 73 -13 108 -13c180 0 256 72 256 237c0 223 -123 354 -336 354
c-9 0 -18 0 -28 -1c-1 -68 -2 -159 -2 -275h160v-39h-160c0 -120 1 -208 2 -263z" />
    <glyph glyph-name="Thorn" unicode="&#xde;" horiz-adv-x="523" 
d="M60 -5c5 111 7 230 7 355s-2 243 -7 354l121 4c-2 -57 -5 -96 -5 -119c27 3 53 4 77 4c160 0 242 -64 242 -183c0 -89 -46 -152 -138 -212c-48 -31 -88 -46 -137 -46c-17 0 -33 1 -45 3c0 -40 3 -92 6 -155zM174 224c31 -6 58 -9 82 -9c36 0 68 5 95 17
c24 43 36 88 36 135c0 97 -72 163 -194 163c-6 0 -13 -1 -19 -1v-305z" />
    <glyph glyph-name="Yacute" unicode="&#xdd;" horiz-adv-x="484" 
d="M293 291v-61c0 -72 1 -149 5 -230l-117 -5c4 88 6 173 6 250v46c-42 98 -104 232 -187 403l114 19c54 -132 106 -250 156 -356c62 138 111 254 144 347l63 4zM277 947h87l-137 -171h-52z" />
    <glyph glyph-name="brokenbar" unicode="&#xa6;" 
d="M287 699v-370h-73v370h73zM287 199v-370h-73v370h73z" />
    <glyph glyph-name="degree" unicode="&#xb0;" horiz-adv-x="329" 
d="M165 711c77 0 140 -63 140 -141c0 -76 -61 -140 -141 -140c-79 0 -140 62 -140 140c0 79 64 141 141 141zM259 571c0 52 -41 94 -94 94c-52 0 -95 -41 -95 -94s42 -96 95 -96c54 0 94 44 94 96z" />
    <glyph glyph-name="divide" unicode="&#xf7;" horiz-adv-x="833" 
d="M417 540c33 0 61 -28 61 -62c0 -33 -27 -61 -61 -61s-61 27 -61 61s28 62 61 62zM709 332v-68h-585v68h585zM417 179c33 0 61 -27 61 -61c0 -33 -27 -61 -61 -61c-35 0 -61 27 -61 61s28 61 61 61z" />
    <glyph glyph-name="eth" unicode="&#xf0;" horiz-adv-x="470" 
d="M397 91l-114 -92c-14 -11 -36 -18 -67 -18c-115 0 -193 82 -193 209c0 55 15 115 46 177l124 98c4 3 23 11 49 11c19 0 41 -4 67 -13c-39 47 -76 84 -111 112l-87 -63l-19 23l81 60c-29 23 -56 44 -83 61l75 66c19 -12 48 -34 88 -67l80 59l20 -23l-79 -58
c115 -113 173 -228 173 -347c0 -66 -17 -132 -50 -195zM330 74c16 30 26 78 26 142c0 122 -57 193 -140 193c-21 0 -42 -4 -63 -12c-25 -24 -40 -75 -40 -146c0 -123 60 -190 163 -190c21 0 38 4 54 13z" />
    <glyph glyph-name="mu" unicode="&#x3bc;" horiz-adv-x="562" 
d="M188 523l-63 -293c-5 -22 -7 -43 -7 -65c0 -65 36 -101 98 -101c90 0 133 62 162 197l56 262h87l-76 -357c-6 -29 -11 -51 -11 -65c0 -24 10 -33 35 -33c5 0 10 0 16 1l-15 -70c-19 -4 -36 -5 -53 -5c-42 0 -61 18 -73 63c-29 -43 -73 -64 -132 -64c-53 0 -91 17 -125 57
l-54 -259h-88l155 732h88z" />
    <glyph glyph-name="multiply" unicode="&#xd7;" horiz-adv-x="833" 
d="M420 346l229 229l48 -48l-229 -229l229 -229l-48 -47l-229 228l-229 -228l-48 47l229 229l-229 229l48 48z" />
    <glyph glyph-name="onehalf" unicode="&#xbd;" horiz-adv-x="850" 
d="M135 309c3 62 5 158 5 288c0 28 -1 62 -2 101l68 15c-2 -92 -4 -173 -4 -242c0 -51 1 -105 4 -162h-71zM174 -19l464 741h36l-464 -741h-36zM533 0l17 46c60 17 95 28 104 35c8 5 21 17 35 37c24 34 37 73 37 111c0 80 -47 126 -121 126c-27 0 -48 -5 -66 -17l-4 3l49 48
c5 5 30 15 67 15c77 0 134 -52 134 -134c0 -80 -49 -159 -143 -224h149l-19 -46h-239z" />
    <glyph glyph-name="onequarter" unicode="&#xbc;" horiz-adv-x="850" 
d="M135 309c3 62 5 158 5 288c0 28 -1 62 -2 101l68 15c-2 -92 -4 -173 -4 -242c0 -51 1 -105 4 -162h-71zM174 -19l464 741h36l-464 -741h-36zM699 0c2 46 4 90 4 130h-172c89 129 146 217 172 261l60 13c0 -24 -1 -72 -1 -146c0 -13 1 -42 1 -89h52l-14 -39h-38
c0 -41 1 -85 3 -130h-67zM703 169v188l-124 -188h124z" />
    <glyph glyph-name="onesuperior" unicode="&#xb9;" horiz-adv-x="358" 
d="M141 281c4 67 6 170 6 309c0 30 -1 66 -2 107l71 17c-3 -99 -4 -185 -4 -259c0 -55 1 -113 4 -174h-75z" />
    <glyph glyph-name="plusminus" unicode="&#xb1;" horiz-adv-x="833" 
d="M451 582v-166h258v-68h-258v-166h-69v166h-258v68h258v166h69zM709 83v-69h-585v69h585z" />
    <glyph glyph-name="thorn" unicode="&#xfe;" horiz-adv-x="463" 
d="M142 77c48 -25 91 -38 128 -38c10 0 19 2 28 5c27 51 42 116 42 187c0 114 -56 182 -129 182c-8 0 -16 -1 -25 -3c-36 -38 -46 -112 -46 -229c0 -31 1 -66 2 -104zM44 -236c2 92 2 248 2 470c0 221 0 378 -2 470l102 4c-1 -41 -2 -140 -3 -298l110 67c7 2 13 2 20 2
c84 0 167 -83 167 -205c0 -86 -27 -151 -80 -220c-7 -9 -28 -24 -62 -42c-37 -20 -61 -31 -75 -31c-15 0 -43 5 -82 16c0 -100 2 -175 3 -228z" />
    <glyph glyph-name="threequarters" unicode="&#xbe;" horiz-adv-x="850" 
d="M50 344l52 43c29 -30 62 -45 94 -45c8 0 16 1 23 5c7 9 12 21 12 34c0 61 -53 109 -125 109c-8 0 -20 -1 -35 -5l-4 4l54 48c8 3 17 4 27 4c15 0 28 -2 39 -6c13 18 20 39 20 58c0 51 -29 78 -80 78c-20 0 -39 -5 -60 -15l-2 4l55 45c18 6 35 8 51 8
c62 0 104 -36 104 -88c0 -32 -23 -66 -69 -96c51 -19 82 -62 82 -109s-36 -78 -113 -120c-7 -2 -15 -2 -23 -2c-44 0 -80 17 -102 46zM174 -19l464 741h36l-464 -741h-36zM699 0c2 46 4 90 4 130h-172c89 129 146 217 172 261l60 13c0 -24 -1 -72 -1 -146c0 -13 1 -42 1 -89
h52l-14 -39h-38c0 -41 1 -85 3 -130h-67zM703 169v188l-124 -188h124z" />
    <glyph glyph-name="threesuperior" unicode="&#xb3;" horiz-adv-x="358" 
d="M52 319l55 46c30 -32 65 -49 98 -49c9 0 17 2 24 6c8 9 13 22 13 36c0 65 -55 117 -131 117c-9 0 -21 -1 -37 -5l-3 4l56 52c8 2 18 3 28 3c15 0 29 -1 41 -6c14 20 21 42 21 63c0 54 -30 83 -84 83c-21 0 -41 -6 -62 -17l-3 5l58 49c19 5 36 8 54 8
c64 0 108 -39 108 -94c0 -34 -24 -71 -72 -103c53 -21 86 -67 86 -117s-38 -84 -119 -129c-7 -1 -15 -1 -23 -1c-46 0 -85 18 -108 49z" />
    <glyph glyph-name="twosuperior" unicode="&#xb2;" horiz-adv-x="358" 
d="M26 281l18 50c63 17 99 30 109 36c8 6 22 19 36 41c26 36 39 78 39 118c0 86 -49 135 -126 135c-29 0 -51 -5 -70 -18l-4 3l51 52c5 5 32 16 71 16c81 0 140 -56 140 -144c0 -85 -51 -170 -149 -239h155l-19 -50h-251z" />
    <glyph glyph-name="yacute" unicode="&#xfd;" horiz-adv-x="435" 
d="M93 -236c21 43 43 90 65 141l36 83c-59 153 -123 312 -194 477l106 14c55 -161 103 -282 141 -363l125 345l62 9c-96 -231 -185 -464 -269 -701zM253 704h87l-137 -171h-52z" />
  </font>
</defs>
</svg>
